<?xml version="1.0" standalone="no"?>
<!DOCTYPE svg PUBLIC "-//W3C//DTD SVG 1.1//EN" "http://www.w3.org/Graphics/SVG/1.1/DTD/svg11.dtd" >
<svg xmlns="http://www.w3.org/2000/svg" xmlns:xlink="http://www.w3.org/1999/xlink" version="1.1">
<metadata>
Created by FontForge 20190801 at Mon Dec 27 23:37:17 2021
 By Unknown
</metadata>
<defs>
<font id="Blacklist-Italic" horiz-adv-x="571" >
  <font-face 
    font-family="Blacklist"
    font-weight="400"
    font-style="italic"
    font-stretch="normal"
    units-per-em="1000"
    panose-1="0 0 0 0 0 0 0 0 0 0"
    ascent="800"
    descent="-200"
    x-height="445"
    cap-height="658"
    bbox="-18 -417 1217.03 887"
    underline-thickness="50"
    underline-position="-125"
    slope="-12"
    stemh="22"
    stemv="95"
    unicode-range="U+000D-FB04"
  />
<missing-glyph horiz-adv-x="500" 
 />
    <glyph glyph-name="f_f" unicode="ff" horiz-adv-x="577" 
d="M15 -159l124 582h-65l1 2l71 31l7 33c25 119 99 208 217 208c39 0 85 -8 113 -28l-70 -122h-3c9 48 6 134 -50 134c-61 -1 -94 -76 -116 -177l-14 -66h219l11 51c25 119 98 208 217 208c39 0 85 -8 112 -28l-69 -122h-3c9 48 5 134 -51 134c-60 -1 -93 -76 -115 -177
l-14 -66h125l-3 -15h-125l-120 -562l-92 -20l123 582h-218l-120 -562z" />
    <glyph glyph-name="fi" unicode="fi" horiz-adv-x="490" 
d="M110 -139l-92 -20l124 582h-64v2l71 31l7 32c29 138 123 209 251 209c51 0 96 -20 122 -45l-65 -127h-3c10 69 -12 152 -78 152c-77 0 -116 -83 -135 -173l-14 -66h245l-70 -319c-11 -52 1 -65 22 -66c29 0 59 62 70 91l6 -1c-25 -79 -61 -143 -124 -143
c-56 0 -79 40 -65 101l70 322h-158z" />
    <glyph glyph-name="f_f_i" unicode="ffi" horiz-adv-x="819" 
d="M140 -139l-93 -20l124 582h-64l1 2l70 31l8 33c26 124 92 208 222 208c35 0 81 -7 110 -30l-68 -133h-3c5 54 1 146 -55 146c-61 0 -93 -71 -115 -176l-14 -66h211l10 50c30 138 123 209 252 209c51 0 96 -20 122 -45l-66 -127h-3c10 69 -12 153 -78 153
c-76 0 -116 -84 -135 -174l-14 -66h245l-70 -319c-11 -52 1 -65 22 -66c29 0 59 62 70 91l6 -1c-24 -79 -61 -143 -124 -143c-56 0 -79 40 -65 101l70 322h-157l-120 -562l-93 -20l124 582h-210z" />
    <glyph glyph-name="fl" unicode="fl" horiz-adv-x="508" 
d="M107 -139l-92 -20l124 582h-64v2l71 31l7 33c26 119 99 208 218 208c32 0 71 -5 99 -21c30 4 58 8 79 21h3l-125 -578c-11 -52 2 -65 23 -66c29 0 59 62 70 91l6 -1c-24 -79 -61 -143 -124 -143c-56 0 -79 39 -66 101l95 440c-4 52 -13 138 -71 138
c-61 0 -94 -74 -115 -175l-14 -66h124l-3 -15h-125z" />
    <glyph glyph-name="f_f_l" unicode="ffl" horiz-adv-x="834" 
d="M42 -159l124 582h-65l1 2l71 31l7 33c25 119 99 208 217 208c39 0 85 -8 113 -28l-63 -124h-3c6 53 -2 136 -57 136c-61 -1 -94 -76 -116 -177l-14 -66h211l12 51c26 119 98 208 217 208c32 0 72 -5 100 -21c30 4 57 7 79 21h2l-125 -578c-11 -52 2 -65 24 -66
c29 0 58 62 70 91l6 -1c-25 -79 -62 -143 -125 -143c-55 0 -79 39 -66 101l95 440c-4 52 -12 138 -70 138c-61 0 -94 -74 -116 -175l-14 -66h125l-3 -15h-125l-120 -562l-92 -20l124 582h-212l-120 -562z" />
    <glyph glyph-name="f_b" unicode="fb" horiz-adv-x="747" 
d="M108 -139l-92 -19l124 581h-65l1 2l71 31l7 34c25 119 98 207 217 207c32 0 72 -5 100 -20c30 3 57 7 79 20h2l-77 -364c32 58 87 112 154 112c106 0 150 -80 133 -190c-22 -145 -133 -255 -278 -255c-55 0 -106 14 -158 46l105 495c-4 52 -12 139 -71 139
c-60 -1 -93 -75 -115 -176l-14 -66h125l-3 -15h-125zM489 17c82 0 154 111 173 197c21 87 16 196 -64 195c-62 -2 -115 -85 -135 -134l-44 -202c3 -32 26 -56 70 -56z" />
    <glyph glyph-name="f_k" unicode="fk" horiz-adv-x="757" 
d="M15 -159l124 582h-64l71 33l8 33c25 119 98 208 217 208c32 0 72 -6 100 -21c29 4 57 8 78 21h3l-105 -490l166 135c27 20 52 54 57 94v2h108l-1 -2c-45 -48 -97 -78 -131 -98l-70 -47l79 -177c21 -49 34 -59 49 -59c29 -1 57 60 69 89l6 -1c-25 -79 -58 -143 -122 -143
c-43 0 -62 27 -87 84l-66 154l-62 -53l-38 -178h-89l116 534c-4 52 -12 138 -71 138c-61 0 -94 -74 -115 -175l-14 -66h125l-4 -15h-124l-121 -563z" />
    <glyph glyph-name="f_h" unicode="fh" horiz-adv-x="804" 
d="M108 -139l-93 -20l124 582h-64l1 2l70 31l8 33c25 119 98 208 217 208c32 0 72 -5 100 -21c29 4 57 8 78 21h3l-79 -362c32 43 101 110 188 110c40 0 70 -10 88 -31c21 -25 25 -63 14 -114l-37 -181c-10 -52 0 -65 22 -66c29 0 59 62 70 91l6 -1
c-25 -79 -61 -143 -124 -143c-56 0 -80 39 -67 101l42 195c6 29 3 57 -12 76c-11 14 -29 22 -54 23c-59 1 -135 -61 -149 -128l-57 -261h-88l116 535c-4 52 -12 138 -71 138c-61 0 -94 -74 -115 -175l-14 -66h125l-4 -15h-124z" />
    <glyph glyph-name=".notdef" horiz-adv-x="500" 
 />
    <glyph glyph-name="uni0000" horiz-adv-x="0" 
 />
    <glyph glyph-name="uni0000" horiz-adv-x="0" 
 />
    <glyph glyph-name="uni000D" unicode="&#xd;" horiz-adv-x="250" 
 />
    <glyph glyph-name="space" unicode=" " horiz-adv-x="204" 
 />
    <glyph glyph-name="A" unicode="A" 
d="M15 7v1c33 35 54 65 86 120l263 456c7 12 5 49 -9 72l1 2h98l74 -572c3 -26 9 -53 28 -78v-2h-144l1 2c18 21 25 56 21 84l-17 142h-236l-62 -109c-23 -42 -23 -86 -2 -117v-1h-102zM191 251h223l-39 316z" />
    <glyph glyph-name="B" unicode="B" horiz-adv-x="550" 
d="M20 7v1c29 20 40 42 52 98l96 451c12 56 10 79 -11 98v2l201 1c121 0 245 -24 214 -169c-16 -74 -72 -134 -167 -143c99 -7 168 -57 143 -171c-32 -154 -163 -169 -286 -169zM214 334l-66 -311h100c121 0 181 52 201 146c27 124 -41 165 -158 165h-77zM217 351h75
c114 0 170 44 189 133c22 101 -11 157 -132 157h-70z" />
    <glyph glyph-name="O" unicode="O" horiz-adv-x="701" 
d="M100 240c0 214 154 424 376 424c148 0 241 -85 241 -237c0 -214 -156 -427 -378 -427c-148 0 -239 89 -239 240zM451 642c-193 0 -256 -250 -256 -409c0 -115 41 -211 169 -211c191 0 258 249 258 408c0 116 -43 212 -171 212z" />
    <glyph glyph-name="D" unicode="D" horiz-adv-x="604" 
d="M257 6l-237 1v1c28 20 40 42 52 98l96 451c12 56 10 79 -11 98l1 2h237c189 -1 275 -120 231 -329c-44 -208 -180 -322 -369 -322zM279 640l-131 -617h78c152 0 260 103 303 307s-19 310 -172 310h-78z" />
    <glyph glyph-name="C" unicode="C" horiz-adv-x="616" 
d="M113 341c48 203 218 323 401 323c90 0 139 -21 183 -59l-75 -133h-1c14 104 -27 172 -117 173c-138 1 -250 -97 -293 -275c-21 -86 -20 -170 20 -234c32 -51 91 -83 171 -83c75 0 167 40 228 119l6 -4c-67 -103 -166 -168 -295 -168c-201 0 -274 143 -228 341z" />
    <glyph glyph-name="E" unicode="E" horiz-adv-x="479" 
d="M444 7h-425v2c29 19 41 42 53 97l96 452c12 56 10 78 -11 98v2h407l-26 -128h-3c-25 90 -90 112 -149 112h-107l-64 -301h106c48 0 86 14 133 69h1l-32 -148h-1c-26 48 -57 63 -104 63h-107l-64 -302h127c56 0 121 13 197 110h2z" />
    <glyph glyph-name="F" unicode="F" horiz-adv-x="450" 
d="M186 6l-167 1v2c29 19 41 42 53 98l96 451c12 56 9 78 -11 98l1 2h409l-24 -129h-2c-32 86 -92 113 -151 113h-112l-63 -301h106c48 0 85 14 133 69h1l-32 -148h-1c-26 48 -57 63 -104 63h-107l-46 -219c-12 -56 1 -78 21 -98v-2z" />
    <glyph glyph-name="G" unicode="G" horiz-adv-x="660" 
d="M110 330c43 199 206 334 403 334c81 0 135 -16 183 -59l-74 -133h-2c15 104 -26 172 -116 173c-148 1 -258 -108 -296 -289c-17 -80 -13 -154 12 -212c33 -72 100 -117 204 -120c26 -1 53 4 79 13l45 212c10 48 -18 73 -58 89v2h197l-1 -2c-33 -18 -48 -47 -57 -89
l-43 -203c-79 -35 -147 -46 -232 -46c-97 0 -175 34 -216 96c-38 58 -48 137 -28 234z" />
    <glyph glyph-name="H" unicode="H" horiz-adv-x="610" 
d="M19 6v3c29 19 41 42 53 98l96 450c12 56 9 79 -11 99v2h167v-2c-29 -19 -51 -41 -63 -97l-42 -197h297l42 197c12 56 -1 78 -22 97v2h168l-1 -2c-28 -20 -40 -43 -52 -99l-96 -450c-12 -56 -10 -79 11 -98v-3h-168v2c29 20 51 42 63 98l51 239h-297l-50 -239
c-12 -56 1 -78 21 -98v-2h-167z" />
    <glyph glyph-name="I" unicode="I" horiz-adv-x="238" 
d="M27 6v3c28 20 41 42 53 98l96 450c11 56 9 79 -11 99v2h156v-2c-29 -20 -41 -43 -52 -99l-96 -450c-12 -56 -10 -79 11 -98l-1 -3h-156z" />
    <glyph glyph-name="J" unicode="J" horiz-adv-x="370" 
d="M141 0c-57 -1 -100 8 -128 31l29 126h2c17 -101 46 -142 87 -140c74 4 92 98 109 175l78 367c11 56 -1 78 -22 97l1 2h167v-2c-29 -20 -41 -43 -53 -99l-77 -362c-23 -108 -66 -194 -193 -195z" />
    <glyph glyph-name="L" unicode="L" horiz-adv-x="482" 
d="M19 8c28 20 41 43 53 99l95 450c12 56 10 79 -10 99v2h160v-2c-29 -20 -45 -43 -57 -99l-113 -534h129c56 0 119 11 196 107h2l-28 -123l-427 -1v2z" />
    <glyph glyph-name="M" unicode="M" horiz-adv-x="753" 
d="M17 8c28 18 54 62 64 109l94 440c12 56 4 79 -17 99v2h127l115 -527l320 527h126v-2c-29 -20 -41 -43 -53 -99l-95 -450c-12 -56 -10 -79 10 -99v-2h-160l1 2c30 22 43 39 56 99l108 507l-369 -607h-12l-131 592l-101 -471c-12 -57 10 -100 41 -120v-2h-124v2z" />
    <glyph glyph-name="N" unicode="N" horiz-adv-x="586" 
d="M140 6h-124v2c28 18 54 62 64 109l94 440c12 56 3 79 -17 99v2h115l243 -546l92 429c12 56 -8 95 -38 114v2l120 1v-2c-28 -18 -54 -62 -64 -109l-115 -544l-48 1l-263 591l-100 -467c-12 -57 10 -100 41 -120v-2z" />
    <glyph glyph-name="Q" unicode="Q" horiz-adv-x="704" 
d="M476 664c148 0 241 -85 241 -237c0 -211 -153 -426 -376 -427c29 -10 51 -25 79 -41c34 -18 76 -36 125 -36c37 1 75 17 106 43l2 -1c-57 -70 -129 -90 -191 -91c-58 0 -96 21 -128 44c-37 26 -66 56 -110 57c-31 1 -56 -14 -77 -33l-2 1c29 36 70 61 108 69
c-96 28 -153 109 -153 228c0 214 154 424 376 424zM364 22c191 0 258 249 258 408c0 116 -43 212 -171 212c-193 0 -256 -250 -256 -409c0 -115 41 -211 169 -211z" />
    <glyph glyph-name="P" unicode="P" horiz-adv-x="548" 
d="M19 7v2c29 20 41 42 53 98l96 450c12 56 9 79 -11 99l1 2h217c66 0 141 -14 186 -55c33 -30 52 -74 37 -145c-41 -191 -233 -194 -357 -194h-43l-33 -158c-12 -56 1 -78 21 -98v-2zM202 281h83c112 0 191 62 214 171c29 134 -42 189 -178 189h-42z" />
    <glyph glyph-name="R" unicode="R" horiz-adv-x="554" 
d="M186 6l-167 1v2c29 20 41 42 53 98l96 450c12 56 9 79 -11 99v2h217c67 0 142 -14 187 -55c33 -30 52 -74 37 -145c-24 -113 -102 -161 -185 -180l122 -269v-3h-137l1 2c7 16 12 39 5 55l-90 201h-116l-33 -158c-12 -56 1 -78 21 -98v-2zM278 641l-76 -360h83
c111 0 191 62 214 171c29 134 -42 189 -178 189h-43z" />
    <glyph glyph-name="K" unicode="K" horiz-adv-x="563" 
d="M186 6h-167v3c28 19 41 42 53 98l96 450c12 56 9 79 -11 99v2h167v-2c-29 -19 -51 -41 -63 -97l-54 -256l235 201c58 48 105 112 70 152v2h133v-2l-298 -254l146 -309c10 -23 31 -66 49 -85v-1h-158v1c17 23 19 45 9 68l-123 259l-68 -56l-37 -173c-12 -56 1 -78 21 -98
v-2z" />
    <glyph glyph-name="U" unicode="U" horiz-adv-x="589" 
d="M300 0c-146 0 -227 76 -190 245l66 312c12 56 9 79 -11 99v2h164v-2c-29 -20 -48 -43 -60 -99l-68 -323c-29 -134 27 -208 137 -206c102 3 190 72 220 213l64 300c12 57 -8 95 -39 115v2h122l-1 -2c-28 -18 -53 -62 -63 -109l-66 -311c-30 -141 -127 -236 -275 -236z" />
    <glyph glyph-name="T" unicode="T" horiz-adv-x="555" 
d="M131 530l27 128h502l-24 -129l-2 1c-36 85 -90 111 -148 111h-34l-114 -534c-12 -56 -6 -79 14 -98v-3l-160 1v2c29 19 41 42 53 98l113 534h-34c-66 0 -124 -25 -191 -111h-2z" />
    <glyph glyph-name="V" unicode="V" horiz-adv-x="622" 
d="M157 656v2h142l-1 -2c-22 -28 -22 -47 -17 -71l86 -485l251 423c23 40 31 102 16 133l1 2h109v-2c-32 -28 -78 -89 -119 -158l-295 -492h-38l-108 592c-4 20 -16 45 -27 58z" />
    <glyph glyph-name="W" unicode="W" horiz-adv-x="917" 
d="M157 656v2h142l-1 -2c-22 -28 -22 -47 -17 -71l84 -477l179 330l-26 160c-4 20 -16 45 -27 58v2h140v-2c-23 -28 -22 -47 -18 -71l74 -478l225 416c25 45 31 102 17 133v2h109v-2c-32 -28 -84 -95 -119 -158l-269 -492h-39l-62 404l-219 -404h-38l-108 592
c-4 20 -16 45 -27 58z" />
    <glyph glyph-name="S" unicode="S" horiz-adv-x="519" 
d="M246 -1c-73 0 -143 16 -200 45l36 167h3c9 -115 49 -193 162 -195c82 -2 161 40 179 126c16 79 -38 115 -105 146c-93 43 -208 77 -183 195c24 113 150 181 257 181c82 0 126 -9 189 -48l-49 -117h-2c-3 96 -66 146 -147 147c-67 2 -147 -37 -166 -108
c-25 -97 67 -127 152 -165c55 -25 105 -48 131 -93c32 -57 12 -142 -45 -197c-60 -59 -136 -84 -212 -84z" />
    <glyph glyph-name="X" unicode="X" horiz-adv-x="533" 
d="M144 7h-104v2l262 300l-110 274c-12 31 -28 63 -37 73v2h149v-2c-23 -35 -18 -58 -6 -86l80 -199l95 111c52 61 88 132 73 174v2h108v-3l-269 -301l109 -273c12 -30 28 -63 37 -73l-1 -2h-145v3c20 31 15 57 4 85l-80 198l-94 -111c-52 -62 -89 -135 -70 -172z" />
    <glyph glyph-name="Y" unicode="Y" horiz-adv-x="609" 
d="M158 656v2h146v-2c-18 -31 -19 -49 -8 -77l121 -297l169 235c37 52 54 105 40 139v2h104v-2c-35 -30 -92 -98 -135 -158l-169 -233l-34 -158c-12 -56 -10 -79 11 -98l-1 -3h-157l1 3c28 20 41 42 52 98l30 142l-135 337c-13 31 -24 53 -35 70z" />
    <glyph glyph-name="Z" unicode="Z" horiz-adv-x="506" 
d="M480 7h-464v2l464 632h-138c-62 0 -135 -27 -209 -111h-2l28 128h444l-465 -635h153c92 0 143 27 216 114h2z" />
    <glyph glyph-name="a" unicode="a" horiz-adv-x="520" 
d="M68 190c22 145 133 255 278 255c34 0 67 -13 87 -31c28 4 55 17 76 31h5l-71 -323c-11 -52 0 -68 21 -69c29 0 59 62 70 91l6 -1c-24 -79 -61 -143 -124 -143c-67 0 -69 64 -61 113c-34 -59 -81 -113 -154 -113c-107 0 -151 80 -133 190zM232 37c57 1 114 80 133 131
l45 205c-7 32 -27 55 -69 55c-82 0 -155 -111 -174 -197c-20 -87 -15 -196 65 -194z" />
    <glyph glyph-name="b" unicode="b" horiz-adv-x="488" 
d="M67 46l114 533c6 29 6 58 -32 77v2c43 2 108 18 143 39h2l-77 -364c32 58 87 112 153 112c106 0 151 -80 133 -190c-22 -145 -133 -255 -278 -255c-55 0 -105 14 -158 46zM230 17c82 0 155 111 174 197c20 87 15 196 -65 195c-62 -2 -114 -85 -134 -134l-44 -202
c3 -32 25 -56 69 -56z" />
    <glyph glyph-name="period" unicode="." horiz-adv-x="270" 
d="M124 0c-29 0 -47 23 -41 52s34 53 63 53s47 -24 41 -53s-34 -52 -63 -52z" />
    <glyph glyph-name="c" unicode="c" horiz-adv-x="427" 
d="M232 0c-132 0 -186 94 -160 215c27 126 126 230 279 230c44 0 86 -10 123 -34l-55 -103h-2c5 67 -24 120 -91 120c-80 0 -148 -90 -165 -192c-9 -49 -6 -93 10 -127c20 -44 60 -67 111 -66c60 0 118 47 151 101l5 -3c-35 -82 -117 -141 -206 -141z" />
    <glyph glyph-name="d" unicode="d" horiz-adv-x="520" 
d="M68 190c22 145 133 255 278 255c28 0 56 -8 75 -23l34 157c6 29 6 58 -32 77v2c43 2 108 18 142 39h3l-124 -575c-12 -52 -1 -68 20 -69c30 0 59 62 71 91l6 -1c-25 -79 -62 -143 -125 -143c-66 0 -68 64 -61 113c-33 -59 -81 -113 -154 -113c-106 0 -150 80 -133 190z
M232 37c58 1 114 77 133 129l45 206c-6 33 -26 55 -69 55c-82 0 -152 -102 -173 -196c-21 -87 -16 -196 64 -194z" />
    <glyph glyph-name="s" unicode="s" horiz-adv-x="365" 
d="M181 0c-56 0 -104 10 -150 34l28 122h2c8 -73 47 -140 131 -140c45 0 93 19 104 67c10 46 -34 69 -85 92c-67 29 -136 60 -123 136c16 89 118 134 200 134c54 0 85 -9 127 -33l-34 -99h-2c-8 61 -41 115 -113 115c-42 0 -93 -22 -103 -67c-13 -61 45 -87 105 -111
c63 -26 114 -59 105 -122c-14 -89 -112 -128 -192 -128z" />
    <glyph glyph-name="i" unicode="i" horiz-adv-x="273" 
d="M61 322c23 76 57 123 115 123c70 0 75 -65 64 -115l-46 -211c-11 -52 0 -65 22 -66c29 0 59 62 70 91l6 -1c-25 -79 -61 -143 -124 -143c-56 0 -79 39 -66 101l50 231c12 53 -3 66 -19 67c-29 1 -55 -48 -65 -79zM159 551c6 31 37 57 68 57s50 -26 44 -57
c-7 -31 -37 -56 -68 -56s-51 25 -44 56z" />
    <glyph glyph-name="j" unicode="j" horiz-adv-x="226" 
d="M-18 -205l1 6c57 37 79 110 95 183l74 348c12 53 -3 66 -19 67c-29 1 -55 -48 -65 -79l-7 2c22 76 57 123 115 123c68 0 74 -65 63 -115l-71 -331c-25 -112 -70 -176 -186 -204zM213 495c-31 0 -51 25 -44 56c6 31 37 57 68 57s50 -26 44 -57c-7 -31 -37 -56 -68 -56z
" />
    <glyph glyph-name="e" unicode="e" horiz-adv-x="429" 
d="M72 216c27 124 125 229 271 229c81 0 135 -39 129 -99c-11 -120 -224 -131 -314 -140c-3 -37 1 -73 13 -99c20 -43 60 -65 110 -64c60 0 119 47 152 101l5 -3c-35 -82 -119 -141 -208 -141c-128 0 -185 93 -158 216zM403 367c4 40 -25 63 -67 63
c-104 -3 -165 -115 -177 -206c87 11 232 45 244 143z" />
    <glyph glyph-name="f" unicode="f" horiz-adv-x="280" 
d="M108 -139l-93 -20l124 582h-64l1 2l70 31l8 33c26 124 99 205 217 208c39 1 83 -6 110 -27l-67 -123h-3c2 44 2 132 -51 132c-57 -1 -92 -68 -115 -175l-14 -66h125l-3 -15h-125z" />
    <glyph glyph-name="k" unicode="k" horiz-adv-x="493" 
d="M57 7l124 572c6 29 6 58 -32 76v2c43 2 109 19 143 40h2l-105 -490l166 135c26 20 52 54 57 94v2h108l-1 -2c-45 -48 -98 -78 -131 -98l-70 -47l78 -177c22 -49 35 -59 50 -59c29 -1 57 60 68 89l7 -1c-25 -79 -58 -143 -122 -143c-44 0 -63 27 -87 84l-67 154l-61 -53
l-38 -178h-89z" />
    <glyph glyph-name="l" unicode="l" horiz-adv-x="251" 
d="M78 101l103 478c6 29 6 58 -32 76v2c43 2 108 19 142 40h3l-125 -578c-11 -52 2 -65 23 -66c29 0 59 62 70 91l6 -1c-24 -79 -61 -143 -124 -143c-56 0 -79 39 -66 101z" />
    <glyph glyph-name="o" unicode="o" horiz-adv-x="507" 
d="M73 167c0 149 114 278 265 278c102 0 181 -55 181 -165c0 -148 -117 -280 -267 -280c-103 0 -179 58 -179 167zM164 153c0 -69 25 -136 105 -136c118 0 158 179 158 274c0 70 -26 137 -106 137c-119 0 -157 -181 -157 -275z" />
    <glyph glyph-name="p" unicode="p" horiz-adv-x="510" 
d="M32 -223l120 556c11 52 -4 65 -20 66c-29 1 -54 -48 -65 -79l-7 2c23 76 56 123 116 123c63 0 67 -67 59 -117c31 58 86 117 158 117c106 0 151 -80 133 -190c-22 -145 -133 -255 -278 -255c-28 0 -57 10 -75 23l-53 -246h-88zM225 266l-41 -193c4 -34 25 -55 69 -55
c82 0 155 110 174 196c20 87 15 196 -65 195c-62 -2 -117 -94 -137 -143z" />
    <glyph glyph-name="q" unicode="q" horiz-adv-x="474" 
d="M68 190c22 145 133 255 278 255c33 0 64 -13 85 -30c30 3 56 16 77 30h5l-143 -668h-88l72 333c-33 -57 -85 -110 -153 -110c-106 0 -151 80 -133 190zM232 37c58 1 113 76 133 127l45 209c-7 32 -27 54 -69 54c-82 0 -155 -110 -174 -196c-20 -87 -15 -196 65 -194z" />
    <glyph glyph-name="u" unicode="u" horiz-adv-x="541" 
d="M68 320l-7 2c23 76 56 123 116 123c70 0 74 -65 63 -115l-40 -183c-11 -49 1 -100 59 -101c48 -2 112 56 126 121l58 271h89l-69 -319c-10 -52 1 -65 22 -66c29 0 59 62 70 91l7 -1c-25 -79 -62 -143 -125 -143c-62 0 -70 59 -62 104c-29 -44 -76 -104 -161 -104
c-39 0 -69 10 -88 31c-20 25 -25 63 -14 114l41 188c11 52 -4 65 -20 66c-29 1 -54 -48 -65 -79z" />
    <glyph glyph-name="v" unicode="v" horiz-adv-x="462" 
d="M60 322c23 76 55 123 115 123c71 0 74 -65 64 -115l-40 -183c-10 -49 -5 -111 56 -111c43 -1 79 34 106 78c43 69 79 227 53 307v2l92 22c4 -89 -40 -242 -122 -342c-49 -61 -110 -103 -176 -103c-37 0 -65 11 -83 31c-21 25 -25 63 -14 114l40 188c11 52 -3 65 -19 66
c-29 1 -55 -48 -65 -79z" />
    <glyph glyph-name="w" unicode="w" horiz-adv-x="712" 
d="M60 322c22 76 55 123 115 123c71 0 74 -65 63 -115l-39 -183c-13 -63 5 -112 50 -112c55 -1 107 73 122 137l61 266h86l-60 -271c-11 -48 -23 -131 50 -132c34 -1 72 28 103 79c43 69 79 227 53 307v2l92 22c4 -89 -40 -242 -122 -342c-49 -61 -100 -103 -170 -103
c-64 0 -102 38 -102 102c-39 -56 -86 -102 -155 -102c-36 0 -65 11 -82 31c-21 25 -25 63 -14 114l40 188c11 52 -3 65 -20 66c-28 1 -54 -48 -64 -79z" />
    <glyph glyph-name="y" unicode="y" horiz-adv-x="487" 
d="M67 320l-7 2c17 59 44 123 120 123c58 0 80 -50 97 -111l86 -304c52 88 90 188 90 307c0 31 -4 60 -14 84v2l92 22c3 -65 -19 -165 -63 -260c-56 -116 -209 -408 -356 -408c-9 0 -19 2 -27 5l26 100h2c19 -25 44 -33 67 -33c42 0 86 55 118 97l-111 387
c-15 52 -35 61 -56 60c-30 -1 -54 -42 -64 -73z" />
    <glyph glyph-name="x" unicode="x" horiz-adv-x="444" 
d="M47 0c-10 0 -18 2 -27 4l25 95h2c11 -16 26 -26 43 -25c49 1 106 62 131 109l-33 150c-11 52 -34 65 -56 64c-30 -1 -54 -46 -64 -77l-7 2c17 59 45 123 121 123c56 0 83 -49 97 -111l14 -66c43 89 106 177 177 177c9 0 18 -2 26 -4l-26 -94h-1c-10 17 -26 25 -43 25
c-51 -2 -108 -80 -127 -130l26 -123c12 -56 36 -65 56 -65c32 1 63 61 74 90l6 -1c-25 -79 -59 -143 -130 -143c-52 0 -79 43 -93 108l-11 52c-42 -84 -114 -160 -180 -160z" />
    <glyph glyph-name="n" unicode="n" 
d="M68 320l-7 2c22 76 55 123 115 123c66 0 69 -64 60 -115c31 44 99 115 192 115c39 0 70 -10 88 -31c21 -25 24 -63 14 -114l-37 -181c-11 -52 0 -65 22 -66c29 0 59 62 70 91l6 -1c-25 -79 -62 -143 -125 -143c-55 0 -79 39 -66 101l42 195c6 29 3 57 -12 76
c-10 14 -28 22 -53 23c-60 2 -136 -63 -150 -128l-55 -260h-88l68 326c11 53 -3 65 -20 66c-28 1 -54 -48 -64 -79z" />
    <glyph glyph-name="z" unicode="z" horiz-adv-x="419" 
d="M28 6c1 87 99 154 202 228c56 42 126 83 161 116c-60 -5 -128 4 -170 8c-82 8 -114 -3 -128 -53h-7c2 17 5 37 8 53c13 53 40 87 106 87c58 0 124 -15 186 -16c35 0 68 -1 99 9h2c-6 -67 -133 -142 -242 -216c-66 -46 -120 -89 -142 -128c18 5 37 7 57 7
c47 0 97 -10 138 -14c70 -6 107 11 127 73h6c-5 -30 -15 -77 -25 -102c-13 -35 -40 -58 -96 -58c-57 0 -135 19 -202 20c-29 0 -52 -1 -78 -14h-2z" />
    <glyph glyph-name="t" unicode="t" horiz-adv-x="253" 
d="M149 0c-56 0 -79 39 -66 101l68 322h-64l3 15h64l22 103c27 2 67 10 91 27h3l-27 -130h85l-3 -15h-86l-64 -304c-11 -52 1 -65 22 -66c29 0 59 62 70 91l6 -1c-24 -79 -61 -143 -124 -143z" />
    <glyph glyph-name="m" unicode="m" horiz-adv-x="837" 
d="M176 445c64 0 69 -61 60 -112c31 44 91 112 178 112c37 0 66 -10 84 -29c17 -17 24 -46 23 -78c27 43 92 107 173 107c39 0 69 -10 88 -31c20 -25 24 -63 14 -114l-37 -181c-11 -52 0 -65 22 -66c29 0 59 62 70 91l6 -1c-25 -79 -61 -143 -124 -143c-56 0 -80 39 -67 101
l42 197c6 29 5 58 -9 77c-10 13 -26 22 -51 23c-54 2 -110 -51 -135 -117l-58 -275h-89l62 290c6 28 4 55 -9 74c-10 15 -27 24 -54 25c-59 2 -125 -63 -138 -128l-56 -260h-88l69 326c11 53 -3 65 -20 66c-29 1 -54 -48 -64 -79l-7 2c22 76 55 123 115 123z" />
    <glyph glyph-name="h" unicode="h" horiz-adv-x="546" 
d="M57 6l124 573c6 29 6 58 -32 76v2c43 2 109 19 143 40h2l-78 -362c31 43 101 110 188 110c39 0 69 -10 87 -31c21 -25 25 -63 15 -114l-37 -181c-11 -52 0 -65 21 -66c29 0 59 62 70 91l7 -1c-25 -79 -62 -143 -125 -143c-56 0 -79 39 -66 101l41 195c6 29 4 57 -12 76
c-11 14 -28 22 -53 23c-60 1 -135 -61 -150 -128l-56 -261h-89z" />
    <glyph glyph-name="g" unicode="g" horiz-adv-x="471" 
d="M27 -148c0 74 134 96 218 157c-14 -6 -30 -9 -47 -9c-106 0 -150 80 -132 190c22 145 133 255 277 255c37 0 71 -15 91 -34c21 5 51 19 73 34h4l-96 -446c-12 -55 -31 -100 -60 -135c-43 -52 -114 -87 -191 -87c-49 0 -137 10 -137 75zM165 231c-21 -87 -16 -196 64 -194
c60 1 114 79 134 131l43 200c-5 36 -24 59 -67 59c-82 0 -155 -110 -174 -196zM175 -59c-31 -21 -74 -54 -74 -94c0 -30 23 -53 69 -53c94 -1 137 116 153 190l28 129c-39 -79 -114 -133 -176 -172z" />
    <glyph glyph-name="r" unicode="r" horiz-adv-x="383" 
d="M176 445c67 0 72 -74 59 -133c40 73 111 133 174 133c13 0 30 -2 43 -12l-49 -113h-1c-9 32 -35 46 -65 46c-55 -1 -105 -76 -116 -128l-48 -231h-89l68 326c11 53 -3 65 -19 66c-29 1 -55 -48 -65 -79l-7 2c23 76 55 123 115 123z" />
    <glyph glyph-name="comma" unicode="," horiz-adv-x="263" 
d="M136 2c-28 0 -47 21 -40 52c7 28 34 51 62 51c31 0 47 -24 41 -53c-9 -47 -54 -89 -88 -111l-13 8c24 19 41 37 54 56c-5 -2 -11 -3 -16 -3z" />
    <glyph glyph-name="zero" unicode="0" horiz-adv-x="545" 
d="M259 0c-161 0 -177 180 -149 312c32 150 142 352 323 352c161 0 174 -184 146 -316c-32 -151 -139 -348 -320 -348zM207 327c-15 -71 -58 -309 71 -309s188 238 202 309c16 71 66 318 -69 318c-134 0 -189 -248 -204 -318z" />
    <glyph glyph-name="one" unicode="1" horiz-adv-x="259" 
d="M43 6v2c22 16 46 31 58 90l87 407c5 26 0 59 -49 62v3l168 90h2l-119 -562c-13 -58 3 -74 18 -90l-1 -2h-164z" />
    <glyph glyph-name="two" unicode="2" horiz-adv-x="518" 
d="M48 6l10 48c140 114 375 280 413 462c17 79 -21 130 -93 131c-69 0 -149 -46 -202 -158h-2l-2 111c67 47 136 64 211 64c130 1 201 -55 178 -166c-20 -93 -110 -180 -210 -257c-81 -63 -152 -107 -219 -150l210 1c37 1 82 8 150 63h3l-63 -149h-384z" />
    <glyph glyph-name="three" unicode="3" horiz-adv-x="506" 
d="M44 62l45 132h2c-7 -123 54 -178 136 -177c81 2 161 56 183 159c19 88 -42 157 -149 157h-48l3 16h49c74 0 172 71 190 160c18 92 -21 138 -95 138c-93 0 -148 -77 -183 -160h-2l-4 115c62 45 136 63 209 62c58 0 113 -17 140 -48c22 -25 31 -60 22 -104
c-20 -92 -114 -148 -202 -167c98 -2 189 -53 165 -165c-28 -131 -156 -180 -285 -180c-70 0 -137 21 -176 62z" />
    <glyph glyph-name="four" unicode="4" horiz-adv-x="491" 
d="M62 193l2 14l427 451h41l-80 -380l63 3l-19 -89h-62l-20 -94c-13 -58 3 -74 18 -90l-1 -2h-164v2c22 16 46 31 58 90l20 94zM137 259l225 12l63 299z" />
    <glyph glyph-name="five" unicode="5" horiz-adv-x="483" 
d="M209 0c-81 0 -135 20 -168 57l53 127h3c-18 -123 32 -167 98 -167c85 0 160 70 184 184c29 134 -26 201 -111 199c-52 -2 -100 -28 -131 -64l-20 -1l110 323h187c65 0 98 -3 138 36h2l-41 -122h-294l-75 -207c43 37 96 58 160 58c110 1 204 -61 172 -207
c-35 -162 -173 -216 -267 -216z" />
    <glyph glyph-name="six" unicode="6" horiz-adv-x="539" 
d="M268 0c-143 0 -192 109 -163 243c47 223 221 365 427 421l1 -1c-132 -59 -235 -154 -291 -287c46 34 106 56 158 56c122 0 169 -86 144 -202c-29 -137 -138 -230 -276 -230zM199 241c-17 -83 -22 -224 85 -224c93 0 147 111 163 187c18 83 0 193 -98 193
c-38 0 -83 -17 -115 -44c-16 -36 -27 -74 -35 -112z" />
    <glyph glyph-name="seven" unicode="7" horiz-adv-x="460" 
d="M108 56c71 217 239 398 382 516h-209c-96 0 -109 -6 -170 -58h-2l60 144h372l-15 -65c-113 -124 -245 -283 -329 -548c-11 -34 -34 -45 -56 -45c-26 0 -46 20 -33 56z" />
    <glyph glyph-name="eight" unicode="8" horiz-adv-x="514" 
d="M240 0c-97 0 -196 39 -172 155c20 92 105 148 191 172c-66 35 -121 77 -103 163c22 104 135 174 247 174c96 0 172 -48 147 -147c-20 -81 -107 -125 -179 -141c76 -39 158 -91 135 -197c-28 -132 -152 -179 -266 -179zM139 158c-18 -82 28 -141 107 -141
c74 0 151 44 170 130c16 78 -44 120 -102 151c-13 7 -27 14 -41 21c-70 -33 -120 -95 -134 -161zM243 533c-17 -79 49 -115 113 -148c55 26 115 72 130 144c14 66 -23 119 -101 118c-71 -2 -130 -57 -142 -114z" />
    <glyph glyph-name="nine" unicode="9" horiz-adv-x="521" 
d="M268 232c-121 0 -169 86 -144 202c29 137 139 230 276 230c143 0 192 -109 164 -243c-48 -223 -222 -364 -428 -421v2c132 59 234 154 291 286c-47 -34 -107 -56 -159 -56zM221 460c-18 -83 0 -193 98 -193c38 0 83 18 115 44c17 37 27 74 35 112c18 83 22 224 -85 224
c-92 0 -147 -111 -163 -187z" />
    <glyph glyph-name="hyphen" unicode="-" horiz-adv-x="368" 
d="M106 314l4 20h269l-4 -20h-269z" />
    <glyph glyph-name="plus" unicode="+" horiz-adv-x="337" 
d="M119 317l4 21h103l23 107h20l-22 -107h102l-5 -21h-102l-24 -113h-20l24 113h-103z" />
    <glyph glyph-name="asterisk" unicode="*" horiz-adv-x="341" 
d="M142 557l51 67l66 -91l-6 125h77l-61 -125l101 91l27 -64l-125 -35l109 -28l-53 -65l-62 85l10 -113h-77l55 112l-101 -84l-22 65l122 28z" />
    <glyph glyph-name="asciicircum" unicode="^" horiz-adv-x="466" 
d="M131 512l227 206h34l143 -206h-27l-140 181l-210 -181h-27z" />
    <glyph glyph-name="colon" unicode=":" horiz-adv-x="287" 
d="M149 15c-29 0 -47 23 -41 52s34 53 63 53s47 -24 41 -53s-34 -52 -63 -52zM213 318c-29 0 -47 24 -40 53c6 28 34 52 62 52c30 0 47 -24 41 -52c-6 -29 -34 -53 -63 -53z" />
    <glyph glyph-name="tilde" unicode="&#x2dc;" horiz-adv-x="367" 
d="M153 508h-5c12 54 52 100 106 96c24 -2 42 -14 64 -25c17 -8 37 -16 65 -16c31 0 49 16 60 41l3 -1c-12 -56 -42 -106 -103 -106c-27 0 -49 12 -70 23s-43 22 -65 23c-21 0 -41 -7 -55 -35z" />
    <glyph glyph-name="backslash" unicode="\" horiz-adv-x="375" 
d="M178 736h21l149 -822h-23z" />
    <glyph glyph-name="slash" unicode="/" horiz-adv-x="471" 
d="M15 -86l497 822h23l-497 -822h-23z" />
    <glyph glyph-name="ampersand" unicode="&#x26;" horiz-adv-x="643" 
d="M72 63c-34 55 -10 140 48 194c45 42 102 69 152 85c-11 20 -22 39 -30 58c-16 36 -24 73 -14 117c22 104 126 148 215 148c60 0 101 -18 122 -50c25 -41 10 -99 -38 -145c-39 -37 -107 -71 -162 -97c40 -71 90 -150 139 -214c49 55 138 203 99 286v2l92 -17
c-23 -105 -120 -223 -183 -281c46 -58 96 -103 146 -98v-2l-106 -49c-36 0 -76 37 -113 83c-65 -51 -152 -83 -222 -83c-62 0 -116 17 -145 63zM155 176c-15 -73 22 -138 106 -140c77 -2 137 33 170 58c-14 17 -27 35 -38 52c-40 59 -77 121 -113 182
c-75 -44 -114 -101 -125 -152zM311 552c-10 -51 10 -102 45 -164c55 33 128 85 141 156c14 62 -11 102 -66 104c-44 1 -106 -25 -120 -96z" />
    <glyph glyph-name="semicolon" unicode=";" horiz-adv-x="271" 
d="M132 0c-28 0 -47 21 -39 52c6 28 33 51 61 51c31 0 48 -24 42 -53c-9 -42 -50 -82 -79 -111l-26 4c15 14 45 43 58 59c-6 -1 -11 -2 -17 -2zM201 318c-29 0 -47 24 -40 53c6 28 34 52 62 52c30 0 47 -24 41 -52c-6 -29 -34 -53 -63 -53z" />
    <glyph glyph-name="less" unicode="&#x3c;" horiz-adv-x="386" 
d="M85 242l328 202l1 -22l-304 -188l220 -206l-10 -21l-237 221z" />
    <glyph glyph-name="exclam" unicode="!" horiz-adv-x="239" 
d="M173 194h-9l53 464h99zM126 0c-29 0 -47 23 -41 52s34 53 63 53s47 -24 41 -53s-34 -52 -63 -52z" />
    <glyph glyph-name="equal" unicode="=" horiz-adv-x="397" 
d="M110 242l166 12l109 -9l-166 -11zM143 394l4 21h274l-4 -21h-274z" />
    <glyph glyph-name="greater" unicode="&#x3e;" horiz-adv-x="367" 
d="M371 209l-328 -202v21l303 188l-220 207l10 21l238 -222z" />
    <glyph glyph-name="quotesingle" unicode="'" horiz-adv-x="198" 
d="M168 507l18 151h80l-91 -151h-7z" />
    <glyph glyph-name="numbersign" unicode="#" horiz-adv-x="677" 
d="M703 402h-129l-102 -168h195l-4 -21h-203l-128 -213h-23l128 213h-201l-128 -213h-23l128 213h-121l4 21h129l102 168h-195l5 21h203l142 236h22l-142 -236h202l142 236h22l-142 -236h122zM551 402h-201l-102 -168h202z" />
    <glyph glyph-name="at" unicode="@" horiz-adv-x="802" 
d="M104 318c44 207 236 340 435 340c195 0 318 -115 273 -327c-26 -123 -96 -240 -216 -237c-69 2 -84 68 -75 123c-32 -55 -76 -106 -144 -106c-100 0 -141 76 -125 179c21 136 125 238 261 238c31 0 62 -12 81 -29c27 4 53 16 72 29h6l-66 -313c-12 -58 -4 -89 35 -90
c78 -2 138 127 154 206c43 202 -73 310 -260 310c-190 0 -373 -126 -414 -323c-40 -188 78 -308 261 -308c56 0 119 9 167 49l10 -11c-53 -45 -122 -55 -181 -55c-191 0 -316 127 -274 325zM406 146c54 1 107 75 125 123l41 192c-6 30 -25 51 -64 51
c-76 0 -144 -104 -162 -184c-19 -81 -15 -184 60 -182z" />
    <glyph glyph-name="percent" unicode="%" horiz-adv-x="856" 
d="M308 355c-81 0 -146 55 -125 156c21 99 109 153 190 153c82 0 147 -54 126 -153c-21 -101 -109 -156 -191 -156zM610 0c-82 0 -146 55 -125 155s109 153 190 153c82 0 147 -53 126 -153s-109 -155 -191 -155zM561 155c-17 -84 2 -138 52 -138c51 0 94 54 112 138
s-3 137 -53 137s-93 -53 -111 -137zM260 511c-18 -84 1 -138 51 -138c51 0 94 54 112 138c18 83 -3 136 -53 136s-93 -52 -110 -136zM132 6l710 652h29l-711 -652h-28z" />
    <glyph glyph-name="parenleft" unicode="(" horiz-adv-x="390" 
d="M113 313c54 252 225 413 387 415l-2 -9c-61 -3 -135 -44 -186 -119c-82 -122 -125 -305 -123 -450c1 -105 52 -199 153 -196l-2 -9c-18 -2 -46 -2 -63 1c-142 15 -207 162 -164 367z" />
    <glyph glyph-name="parenright" unicode=")" horiz-adv-x="419" 
d="M25 -58l1 9c61 3 137 46 188 122c81 122 124 305 123 449c-1 105 -55 196 -154 195l1 9c18 2 46 1 63 -2c142 -15 208 -159 165 -364c-54 -252 -226 -415 -387 -418z" />
    <glyph glyph-name="braceleft" unicode="{" horiz-adv-x="284" 
d="M230 -57c-95 -1 -160 9 -130 150l32 147c8 40 1 84 -30 90l1 7c34 6 64 70 74 116l24 113c31 146 75 162 195 162l-2 -11c-79 -1 -82 -47 -99 -126l-23 -107c-16 -79 -38 -134 -124 -150c81 -7 79 -65 65 -131l-30 -141c-13 -60 -22 -109 49 -108z" />
    <glyph glyph-name="braceright" unicode="}" horiz-adv-x="297" 
d="M27 -57l2 11c79 1 82 48 99 126l23 108c16 78 38 134 123 150c-81 6 -78 64 -64 130l30 141c13 60 22 109 -49 108l2 11c95 1 159 -9 129 -149l-31 -148c-9 -40 -1 -84 29 -89l-1 -7c-34 -7 -64 -71 -74 -117l-24 -113c-31 -146 -74 -162 -194 -162z" />
    <glyph glyph-name="bar" unicode="|" horiz-adv-x="216" 
d="M110 -57h-21l166 785h22z" />
    <glyph glyph-name="bracketleft" unicode="[" horiz-adv-x="311" 
d="M219 728h204l-2 -8l-118 -14l-158 -742l113 -12l-2 -9h-203z" />
    <glyph glyph-name="bracketright" unicode="]" horiz-adv-x="328" 
d="M194 728h204l-167 -785h-203l1 9l119 14l157 741l-112 13z" />
    <glyph glyph-name="endash" unicode="&#x2013;" horiz-adv-x="560" 
d="M106 265l4 21h466l-4 -21h-466z" />
    <glyph glyph-name="emdash" unicode="&#x2014;" horiz-adv-x="726" 
d="M109 265l4 21h622l-4 -21h-622z" />
    <glyph glyph-name="macron" unicode="&#xaf;" horiz-adv-x="365" 
d="M172 635l4 21h276l-5 -21h-275z" />
    <glyph glyph-name="ellipsis" unicode="&#x2026;" horiz-adv-x="502" 
d="M98 0c-28 0 -45 23 -39 51s33 51 61 51s45 -23 39 -51s-32 -51 -61 -51zM412 0c-28 0 -45 23 -39 51s33 51 61 51c29 0 46 -23 40 -51s-33 -51 -62 -51zM255 0c-28 0 -45 23 -39 51s33 51 61 51c29 0 46 -23 40 -51s-33 -51 -62 -51z" />
    <glyph glyph-name="brokenbar" unicode="&#xa6;" horiz-adv-x="197" 
d="M155 298h21l-75 -355h-20zM251 747h21l-73 -344h-21z" />
    <glyph glyph-name="paragraph" unicode="&#xb6;" horiz-adv-x="574" 
d="M146 457c26 119 135 200 232 200h212l-136 -632h93l-4 -19h-343l3 19h84l50 234h-20c-132 0 -197 76 -171 198zM436 638l-130 -613h130l131 613h-131z" />
    <glyph glyph-name="question" unicode="?" horiz-adv-x="460" 
d="M166 473l-20 120c51 48 139 71 209 71c100 0 191 -44 164 -160c-33 -139 -217 -200 -301 -215l-20 -95h-14v98c106 34 229 139 249 233c15 70 -16 124 -102 122c-96 -2 -151 -91 -163 -174h-2zM158 0c-28 0 -46 23 -40 52s34 53 63 53s47 -24 41 -53
c-7 -29 -34 -52 -64 -52z" />
    <glyph glyph-name="underscore" unicode="_" horiz-adv-x="485" 
d="M57 6l4 21h376l-4 -21h-376z" />
    <glyph glyph-name="breve" unicode="&#x2d8;" horiz-adv-x="297" 
d="M254 497c-79 0 -100 48 -83 119h3c13 -49 52 -54 93 -54c44 0 85 3 118 54h2c-18 -71 -50 -119 -133 -119z" />
    <glyph glyph-name="dotaccent" unicode="&#x2d9;" horiz-adv-x="207" 
d="M205 497c-28 0 -45 23 -39 50c6 28 33 51 60 51c28 0 45 -23 39 -51c-6 -27 -32 -50 -60 -50z" />
    <glyph glyph-name="ring" unicode="&#x2da;" horiz-adv-x="319" 
d="M259 497c-62 0 -102 37 -90 94c12 56 66 96 130 96c65 0 106 -38 94 -95c-13 -57 -70 -95 -134 -95zM232 591c-8 -35 -5 -81 30 -81s60 45 68 82c8 35 3 82 -33 82c-34 0 -58 -46 -65 -83z" />
    <glyph glyph-name="caron" unicode="&#x2c7;" horiz-adv-x="291" 
d="M176 625h8l71 -73l132 73h7l-122 -128l-71 9z" />
    <glyph glyph-name="grave" unicode="`" horiz-adv-x="280" 
d="M162 585l110 -11l53 -67l-63 66z" />
    <glyph glyph-name="acute" unicode="&#xb4;" horiz-adv-x="218" 
d="M249 640l54 -54l-156 -79h-7z" />
    <glyph glyph-name="circumflex" unicode="&#x2c6;" horiz-adv-x="287" 
d="M138 497h-6l121 127l71 -8l26 -119h-8l-71 72z" />
    <glyph glyph-name="ogonek" unicode="&#x2db;" horiz-adv-x="271" 
d="M30 -127c16 77 101 122 155 143h10c-41 -29 -83 -84 -93 -132c-8 -37 7 -58 40 -60c18 0 44 6 64 23h2c-22 -33 -58 -62 -107 -62c-50 0 -83 30 -71 88z" />
    <glyph glyph-name="cedilla" unicode="&#xb8;" horiz-adv-x="316" 
d="M4 -192l51 91h1c-24 -76 6 -106 39 -106c54 -1 85 48 93 89c12 57 -13 87 -54 88c-15 1 -30 -2 -45 -10l-7 5l27 75h23l-26 -59c22 6 40 7 56 7c71 -1 102 -45 89 -103c-15 -71 -75 -108 -150 -108c-38 0 -75 11 -97 31z" />
    <glyph glyph-name="hungarumlaut" unicode="&#x2dd;" horiz-adv-x="360" 
d="M281 497l110 133l54 -55l-156 -78h-8zM137 497l109 133l54 -55l-156 -78h-7z" />
    <glyph glyph-name="dieresis" unicode="&#xa8;" horiz-adv-x="346" 
d="M204 503c-28 0 -45 22 -39 50s33 51 60 51c28 0 45 -23 39 -51s-32 -50 -60 -50zM365 503c-27 0 -45 22 -39 50s33 51 60 51c29 0 46 -23 40 -51s-33 -50 -61 -50z" />
    <glyph glyph-name="quoteleft" unicode="&#x2018;" horiz-adv-x="224" 
d="M171 593c9 47 54 89 88 111l13 -8c-24 -19 -41 -37 -54 -56c5 2 11 3 16 3c29 0 47 -21 40 -52c-6 -28 -34 -51 -62 -51c-31 0 -47 24 -41 53z" />
    <glyph glyph-name="quoteright" unicode="&#x2019;" horiz-adv-x="241" 
d="M191 648c6 27 33 50 61 50c31 0 47 -23 42 -53c-9 -46 -55 -89 -88 -111l-14 8c24 19 42 37 55 56c-6 -2 -11 -2 -17 -2c-28 0 -47 21 -39 52z" />
    <glyph glyph-name="sterling" unicode="&#xa3;" horiz-adv-x="467" 
d="M390 7h-375v2c60 45 138 144 154 219c7 31 4 58 -2 84h-89l5 21h78c-14 47 -34 92 -24 147c21 120 128 184 239 184c66 0 130 -20 157 -68l-94 -124h-1c10 24 13 35 17 55c17 85 -23 120 -81 120s-127 -39 -142 -110c-19 -92 18 -144 30 -204h134l-5 -21h-127
c3 -15 3 -30 0 -46c-22 -101 -110 -157 -160 -187l191 3c56 1 92 12 153 58h2z" />
    <glyph glyph-name="asciitilde" unicode="~" horiz-adv-x="374" 
d="M102 298l1 9c10 48 48 89 99 89c52 0 86 -45 146 -45c25 0 42 5 56 31h1c-11 -55 -33 -102 -99 -102c-64 0 -108 47 -155 47c-21 0 -36 -11 -48 -30z" />
    <glyph glyph-name="currency" unicode="&#xa4;" horiz-adv-x="524" 
d="M70 140l97 76c-31 37 -44 90 -31 148c12 58 47 110 93 147l-65 76l16 15l66 -78c42 29 91 47 141 47s92 -18 121 -47l100 78l9 -15l-97 -76c30 -37 42 -90 30 -147c-12 -58 -47 -110 -93 -148l65 -76l-16 -15l-66 79c-42 -30 -91 -47 -141 -47c-49 0 -91 17 -121 46
l-99 -78zM303 176c104 0 206 84 228 188s-44 188 -148 188s-206 -84 -228 -188s44 -188 148 -188z" />
    <glyph glyph-name="fraction" unicode="&#x2044;" horiz-adv-x="579" 
d="M24 -86l628 832h24l-628 -832h-24z" />
    <glyph glyph-name="germandbls" unicode="&#xdf;" horiz-adv-x="611" 
d="M26 7v2c36 24 52 67 60 106l74 348c30 138 147 197 257 197c77 0 121 -23 142 -57c17 -24 20 -55 13 -89l-202 -164c116 7 224 -45 197 -175c-30 -138 -140 -175 -234 -175c-51 0 -95 16 -108 46l56 89l2 -1c-19 -82 8 -119 52 -119c83 0 143 88 143 184
c0 76 -52 131 -149 138l-14 28l188 147c23 71 -17 132 -88 131c-73 0 -135 -45 -156 -144l-105 -492h-128z" />
    <glyph glyph-name="minus" unicode="&#x2212;" horiz-adv-x="348" 
d="M113 317l4 20h242l-5 -20h-241z" />
    <glyph glyph-name="plusminus" unicode="&#xb1;" horiz-adv-x="307" 
d="M102 317l5 20h98l23 107h20l-23 -107h97l-4 -20h-97l-23 -110h-21l24 110h-99zM271 95h-215l4 21h215z" />
    <glyph glyph-name="quotedbl" unicode="&#x22;" horiz-adv-x="289" 
d="M177 642c5 25 30 46 56 46c28 0 42 -22 37 -48c-8 -43 -47 -79 -78 -100l-18 4c23 17 40 36 53 52c-5 -1 -10 -2 -14 -2c-26 0 -42 20 -36 48zM289 642c5 25 30 46 56 46c28 0 42 -22 37 -48c-8 -43 -47 -79 -77 -100l-18 4c22 17 39 35 52 52c-5 -1 -9 -2 -14 -2
c-26 0 -42 20 -36 48z" />
    <glyph glyph-name="quotedblleft" unicode="&#x201c;" horiz-adv-x="331" 
d="M161 615c9 47 54 89 88 111l13 -8c-24 -19 -41 -37 -54 -56c5 2 11 3 16 3c29 0 47 -21 40 -52c-6 -28 -34 -51 -62 -51c-31 0 -47 24 -41 53zM282 615c9 47 54 89 88 111l13 -8c-24 -19 -41 -37 -54 -56c5 2 11 3 16 3c28 0 47 -21 40 -52c-7 -28 -34 -51 -62 -51
c-31 0 -47 24 -41 53z" />
    <glyph glyph-name="quotedblright" unicode="&#x201d;" horiz-adv-x="313" 
d="M293 676c7 27 34 50 62 50c31 0 47 -23 41 -53c-8 -46 -54 -89 -88 -111l-13 8c24 19 42 37 55 56c-6 -2 -11 -2 -17 -2c-28 -1 -47 21 -40 52zM173 676c6 27 33 50 61 50c31 0 47 -23 42 -53c-9 -46 -55 -89 -88 -111l-14 8c24 19 42 37 55 56c-6 -2 -11 -2 -17 -2
c-28 -1 -47 21 -39 52z" />
    <glyph glyph-name="quotesinglbase" unicode="&#x201a;" horiz-adv-x="230" 
d="M121 0c-28 0 -47 21 -40 52c7 28 34 51 62 51c31 0 47 -24 41 -53c-9 -47 -54 -90 -88 -111l-13 7c24 19 41 37 54 56c-5 -1 -11 -2 -16 -2z" />
    <glyph glyph-name="quotedblbase" unicode="&#x201e;" horiz-adv-x="317" 
d="M62 52c6 28 33 51 61 51c31 0 47 -24 42 -53c-9 -47 -55 -90 -88 -111l-14 7c24 19 42 37 55 56c-6 -1 -11 -2 -17 -2c-28 0 -47 21 -39 52zM185 52c6 28 34 51 62 51c31 0 46 -24 41 -53c-9 -47 -54 -90 -88 -111l-13 7c24 19 41 37 54 56c-5 -1 -11 -2 -16 -2
c-29 0 -47 21 -40 52z" />
    <glyph glyph-name="multiply" unicode="&#xd7;" horiz-adv-x="374" 
d="M252 339l125 121l13 -13l-128 -124l72 -119l-19 -13l-70 115l-119 -115l-13 13l122 119l-75 124l19 13z" />
    <glyph glyph-name="divide" unicode="&#xf7;" horiz-adv-x="334" 
d="M203 152c-29 0 -47 23 -41 52c7 29 35 53 63 53c30 0 47 -24 41 -53s-34 -52 -63 -52zM254 390c-29 0 -47 24 -41 53s34 52 63 52s47 -23 41 -52s-34 -53 -63 -53zM348 317h-225l4 20h225z" />
    <glyph glyph-name="dollar" unicode="$" horiz-adv-x="551" 
d="M243 -1c-70 1 -137 17 -192 45l36 167h2c9 -107 45 -194 157 -197l60 283c-8 3 -17 7 -25 11c-81 36 -160 75 -138 175c23 108 138 174 241 180l14 65h21l-13 -64c78 -1 121 -10 183 -48l-50 -117h-2c-2 91 -59 143 -135 149l-55 -262c55 -22 131 -54 161 -106
c32 -57 11 -142 -45 -197c-57 -56 -127 -81 -199 -84l-14 -66h-21zM326 288l-59 -274c75 4 147 47 164 128c16 82 -44 117 -105 146zM225 538c-20 -77 35 -113 102 -143l54 254c-64 -3 -138 -43 -156 -111z" />
    <glyph glyph-name="Euro" unicode="&#x20ac;" horiz-adv-x="648" 
d="M88 224l4 20h42c2 51 15 107 36 154h-45l4 21h50c72 152 215 245 361 245c89 0 149 -30 178 -78l-78 -42h-2c-21 52 -56 97 -130 97c-140 0 -213 -107 -248 -222h179l-5 -21h-180c-2 -7 -4 -14 -5 -21c-9 -39 -17 -86 -18 -133h171l-5 -20h-167c1 -107 37 -205 158 -205
c96 0 160 81 203 167h2l55 -44c-77 -88 -165 -142 -295 -142c-140 0 -222 82 -220 224h-45z" />
    <glyph glyph-name="bullet" unicode="&#x2022;" horiz-adv-x="249" 
d="M163 206c-44 0 -70 35 -61 78c9 44 50 79 94 79c45 0 71 -35 62 -79c-9 -43 -51 -78 -95 -78z" />
    <glyph glyph-name="exclamdown" unicode="&#xa1;" horiz-adv-x="262" 
d="M74 0l143 471h9l-57 -471h-95zM238 555c-4 0 -1 23 5 52s14 53 17 53c4 0 1 -24 -5 -53c-7 -29 -13 -52 -17 -52z" />
    <glyph glyph-name="questiondown" unicode="&#xbf;" horiz-adv-x="444" 
d="M67 160c33 140 217 200 301 215l20 95h14v-97c-106 -35 -229 -140 -249 -234c-15 -70 16 -124 103 -122c96 2 150 91 163 174h1l20 -120c-51 -48 -139 -71 -209 -71c-100 0 -191 44 -164 160zM403 559c-29 0 -47 23 -41 52s34 53 63 53s47 -24 41 -53s-34 -52 -63 -52z
" />
    <glyph glyph-name="logicalnot" unicode="&#xac;" horiz-adv-x="471" 
d="M463 266h-360l4 20h382l-31 -145h-21z" />
    <glyph glyph-name="registered" unicode="&#xae;" horiz-adv-x="442" 
d="M151 552c21 97 116 176 214 176c97 0 159 -79 139 -176c-21 -98 -117 -177 -214 -177c-98 0 -160 79 -139 177zM294 394c87 0 172 70 191 158c19 87 -37 158 -124 158c-88 0 -173 -71 -191 -158c-19 -88 36 -158 124 -158zM291 447h-71l1 2c9 7 14 15 18 34l32 152
c4 19 3 26 -4 33v1h84c23 0 48 -5 64 -19c11 -10 17 -25 12 -49c-8 -39 -34 -55 -62 -61l42 -91v-2h-65v2c3 5 5 13 2 19l-30 67h-19l-11 -53c-4 -19 1 -26 7 -33v-2zM298 548h25c22 0 48 14 56 51c9 44 -15 56 -45 56h-13z" />
    <glyph glyph-name="copyright" unicode="&#xa9;" horiz-adv-x="782" 
d="M122 332c40 184 219 332 403 332s300 -148 261 -332s-218 -332 -402 -332s-301 148 -262 332zM388 19c173 0 342 140 379 313s-73 313 -246 313s-343 -140 -380 -313c-36 -173 74 -313 247 -313zM238 336c33 158 170 238 299 238c63 0 105 -19 138 -43l-63 -112h-2
c21 99 -24 139 -81 138c-67 0 -167 -44 -199 -194c-12 -56 -9 -104 10 -145c24 -53 73 -77 125 -77c57 0 113 31 159 82l5 -4c-46 -63 -116 -117 -216 -117c-127 0 -207 86 -175 234z" />
    <glyph glyph-name="trademark" unicode="&#x2122;" horiz-adv-x="598" 
d="M364 436v2c9 4 22 16 26 35l33 154c4 20 -1 28 -8 35l1 2h56l39 -170l104 170h55l-1 -2c-10 -7 -18 -15 -23 -35l-33 -158c-4 -20 2 -24 11 -31v-2h-74l1 1c12 8 18 10 22 32l37 173l-123 -205h-6l-47 201l-34 -157c-5 -27 14 -40 22 -44v-1h-58zM171 611h-2l18 53h189
l-1 -53h-2c-14 29 -33 45 -54 45h-19l-39 -187c-4 -20 1 -25 8 -31v-2h-71v2c10 5 18 11 22 31l40 187h-20c-22 0 -44 -16 -69 -45z" />
    <glyph glyph-name="cent" unicode="&#xa2;" horiz-adv-x="436" 
d="M236 0c-129 3 -179 96 -153 215c26 121 119 220 260 229l32 151h21l-32 -150c43 0 87 -11 123 -34l-54 -103l-3 1c5 61 -18 108 -70 117l-82 -383c6 -1 11 -2 17 -2c48 -1 101 19 148 60l2 -1c-48 -60 -109 -92 -175 -98l-13 -59h-21l12 57h-12zM178 253
c-11 -50 -11 -104 8 -145c15 -32 41 -51 72 -59l81 378c-89 0 -143 -99 -161 -174z" />
    <glyph glyph-name="uni03BC" unicode="&#x3bc;" horiz-adv-x="542" 
d="M114 158l38 175c11 52 -3 65 -20 66c-28 1 -54 -48 -64 -79l-7 2c22 76 55 123 115 123c71 0 74 -65 63 -115l-39 -183c-11 -49 0 -100 59 -101c48 -2 112 56 126 121l58 271h89l-69 -319c-11 -52 0 -65 22 -66c29 0 59 62 70 91l6 -1c-25 -79 -61 -143 -124 -143
s-71 59 -62 104c-30 -44 -77 -104 -161 -104c-58 0 -102 22 -107 82c-8 -65 -10 -133 -3 -195l-83 -37c5 91 70 203 93 308z" />
    <glyph glyph-name="perthousand" unicode="&#x2030;" horiz-adv-x="1236" 
d="M310 355c-82 0 -146 55 -125 156c21 99 109 153 190 153c82 0 147 -54 126 -153c-21 -101 -109 -156 -191 -156zM626 0c-81 0 -145 55 -124 155s109 153 190 153c82 0 147 -53 126 -153c-22 -100 -109 -155 -192 -155zM1022 0c-81 0 -146 55 -125 155
c22 100 109 153 190 153c83 0 147 -53 126 -153s-109 -155 -191 -155zM974 155c-18 -84 1 -138 51 -138c51 0 94 54 112 138s-3 137 -53 137s-93 -53 -110 -137zM578 155c-18 -84 2 -138 52 -138c51 0 94 54 112 138c17 84 -3 137 -54 137c-49 0 -92 -53 -110 -137zM261 511
c-17 -84 2 -138 52 -138c51 0 94 54 112 138c17 83 -3 136 -54 136c-49 0 -92 -52 -110 -136zM142 6l710 652h28l-710 -652h-28z" />
    <glyph glyph-name="guilsinglleft" unicode="&#x2039;" horiz-adv-x="389" 
d="M94 242l316 177l4 -12l-196 -173l119 -190l-9 -12l-236 196z" />
    <glyph glyph-name="guilsinglright" unicode="&#x203a;" horiz-adv-x="386" 
d="M138 407l9 12l241 -177l-3 -14l-320 -196l-4 12l200 190z" />
    <glyph glyph-name="guillemotleft" unicode="&#xab;" horiz-adv-x="552" 
d="M284 242l316 177l4 -12l-197 -173l120 -190l-9 -12l-237 196zM83 242l316 177l4 -12l-196 -173l119 -190l-9 -12l-236 196z" />
    <glyph glyph-name="guillemotright" unicode="&#xbb;" horiz-adv-x="555" 
d="M114 407l9 12l241 -177l-3 -14l-320 -196l-4 12l200 190zM315 407l9 12l240 -177l-2 -14l-320 -196l-5 12l201 190z" />
    <glyph glyph-name="periodcentered" unicode="&#xb7;" horiz-adv-x="216" 
d="M155 253c-33 0 -53 27 -46 61s39 61 72 61c35 0 55 -27 48 -61s-39 -61 -74 -61z" />
    <glyph glyph-name="ordmasculine" unicode="&#xba;" horiz-adv-x="331" 
d="M219 317c-84 0 -92 94 -78 163c17 79 75 184 170 184c84 0 91 -96 76 -165c-17 -80 -73 -182 -168 -182zM200 487c-8 -36 -30 -161 29 -161c60 0 91 125 99 161c8 38 34 167 -29 167s-91 -129 -99 -167z" />
    <glyph glyph-name="onesuperior" unicode="&#xb9;" horiz-adv-x="206" 
d="M121 317v2c11 8 22 16 28 46l46 213c3 14 0 30 -26 32v2c33 10 68 24 97 48h1l-63 -295c-6 -30 0 -38 8 -46l-1 -2h-90z" />
    <glyph glyph-name="twosuperior" unicode="&#xb2;" horiz-adv-x="293" 
d="M105 316l5 26c74 60 190 147 210 243c8 39 -3 69 -41 69c-36 1 -78 -24 -106 -83h-1l-2 58c36 25 72 34 112 35c68 0 106 -30 94 -88c-19 -84 -149 -165 -220 -210l108 1c20 0 43 4 79 33h2l-37 -84h-203z" />
    <glyph glyph-name="threesuperior" unicode="&#xb3;" horiz-adv-x="325" 
d="M122 345l24 70h1c-4 -65 28 -94 72 -94c42 1 85 30 96 85c10 46 -22 83 -78 83h-26l2 8h26c39 0 91 38 100 85c10 49 -11 73 -50 73c-49 0 -78 -41 -97 -85h-1l-2 61c33 24 72 33 111 33c30 0 59 -9 74 -26c11 -13 16 -31 11 -54c-10 -49 -60 -79 -106 -89
c52 -1 99 -28 87 -87c-15 -70 -83 -96 -151 -96c-37 0 -72 11 -93 33z" />
    <glyph glyph-name="onequarter" unicode="&#xbc;" horiz-adv-x="601" 
d="M352 104l1 7l224 236h22l-41 -195l33 3l-11 -52l-32 1l-11 -50c-6 -30 0 -37 8 -45l-1 -2l-91 -1l1 2c11 9 21 16 28 46l10 50h-140zM114 317v2c11 9 22 16 28 46l46 213c3 14 0 30 -26 32v2c33 10 68 24 97 48h1l-63 -295c-6 -30 0 -37 8 -46l-1 -2h-90zM170 6h-22
l397 652h21zM531 285l-137 -146l108 10z" />
    <glyph glyph-name="onehalf" unicode="&#xbd;" horiz-adv-x="631" 
d="M358 6l5 26c74 60 190 147 210 244c8 38 -3 68 -41 69c-36 0 -78 -25 -106 -84h-2v59c35 25 71 34 111 34c68 0 106 -30 94 -88c-11 -49 -58 -95 -111 -136c-43 -33 -73 -51 -109 -74l108 1c20 0 43 4 80 33h1l-37 -84h-203zM121 317l1 2c11 9 22 16 28 46l45 213
c3 14 1 30 -26 32l1 2c33 10 68 24 97 48h1l-63 -295c-6 -30 0 -37 8 -46l-1 -2h-91zM158 6h-22l396 652h22z" />
    <glyph glyph-name="threequarters" unicode="&#xbe;" horiz-adv-x="630" 
d="M536 104h-141l1 7l225 236h21l-41 -195l33 3l-11 -52l-32 1l-11 -50c-6 -30 0 -37 8 -45v-2l-92 -1l1 2c11 9 22 16 28 46zM117 345l24 70h1c-4 -65 28 -94 72 -94c42 1 85 30 96 85c10 46 -22 83 -78 83h-26l2 8h26c39 0 91 38 100 85c10 49 -11 73 -50 73
c-49 0 -78 -41 -97 -85h-1l-2 61c33 24 72 33 111 33c30 0 59 -9 74 -26c11 -13 16 -31 11 -54c-10 -49 -60 -79 -106 -89c52 -1 99 -28 87 -87c-15 -70 -83 -96 -151 -96c-37 0 -72 11 -93 33zM623 658l-396 -652h-22l397 652h21zM574 285l-137 -146l108 10z" />
    <glyph glyph-name="degree" unicode="&#xb0;" horiz-adv-x="508" 
d="M140 496c19 90 107 163 197 163s148 -73 128 -163c-19 -91 -107 -163 -197 -163s-148 72 -128 163zM272 354c79 0 156 63 173 142c16 78 -34 142 -112 142c-79 0 -156 -64 -173 -142c-16 -79 34 -142 112 -142z" />
    <glyph glyph-name="dagger" unicode="&#x2020;" horiz-adv-x="341" 
d="M226 314h-124l4 20h124l69 324h21l-69 -324h124l-4 -20h-124l-66 -307h-21z" />
    <glyph glyph-name="daggerdbl" unicode="&#x2021;" horiz-adv-x="342" 
d="M84 234l4 20h127l29 140h-126l4 21h127l51 243h21l-51 -243h126l-4 -21h-127l-29 -140h126l-4 -20h-127l-48 -228h-21l48 228h-126z" />
    <glyph glyph-name="grave.case" horiz-adv-x="244" 
d="M277 532l-122 78l77 54l53 -132h-8z" />
    <glyph glyph-name="acute.case" horiz-adv-x="221" 
d="M246 664l54 -54l-156 -78h-7z" />
    <glyph glyph-name="macron.case" horiz-adv-x="297" 
d="M151 549l5 28h195l-6 -28h-194z" />
    <glyph glyph-name="circumflex.case" horiz-adv-x="299" 
d="M151 532h-11l121 127l71 -8l26 -119h-10l-69 72z" />
    <glyph glyph-name="caron.case" horiz-adv-x="284" 
d="M172 659h10l69 -72l127 72h12l-122 -128l-71 9z" />
    <glyph glyph-name="dieresis.case" horiz-adv-x="329" 
d="M349 531c-28 0 -45 22 -39 50c6 27 33 50 60 50c28 0 46 -23 40 -50c-6 -28 -33 -50 -61 -50zM190 531c-28 0 -45 22 -39 50c6 27 33 50 60 50c28 0 45 -23 39 -50c-6 -28 -32 -50 -60 -50z" />
    <glyph glyph-name="breve.case" horiz-adv-x="306" 
d="M260 532c-79 0 -100 48 -83 119h3c13 -49 52 -54 93 -54c44 0 85 3 118 54h2c-18 -71 -50 -119 -133 -119z" />
    <glyph glyph-name="tilde.case" horiz-adv-x="354" 
d="M153 541l-5 1c12 53 52 99 106 95c24 -2 42 -14 64 -25c17 -8 37 -16 65 -16c31 0 49 16 60 41h3c-12 -57 -42 -107 -103 -107c-27 0 -49 12 -70 23c-21 12 -43 22 -65 23c-21 0 -41 -7 -55 -35z" />
    <glyph glyph-name="dotaccent.case" horiz-adv-x="193" 
d="M193 530c-27 0 -45 23 -39 51c6 27 33 50 60 50c29 0 46 -23 40 -50c-6 -28 -33 -51 -61 -51z" />
    <glyph glyph-name="hungarumlaut.case" horiz-adv-x="360" 
d="M136 532l109 132l54 -54l-156 -78h-7zM280 532l110 132l54 -54l-156 -78h-8z" />
    <glyph glyph-name="caron.salt" horiz-adv-x="281" 
d="M166 653h10l71 -60l113 60h10l-130 -122h-25z" />
    <glyph glyph-name="commaaccent.salt" horiz-adv-x="262" 
d="M92 -226c-28 0 -47 21 -40 52c7 28 34 51 62 51c31 0 47 -24 41 -53c-9 -47 -54 -89 -88 -111l-13 7c24 19 41 38 54 56c-5 -1 -11 -2 -16 -2z" />
    <glyph glyph-name="ring.case" horiz-adv-x="304" 
d="M259 532c-62 0 -102 36 -90 93c12 56 66 97 130 96c65 0 106 -38 94 -94c-13 -57 -70 -95 -134 -95zM232 625c-8 -34 -5 -80 30 -80s60 44 68 81c8 36 3 82 -33 82c-34 0 -58 -46 -65 -83z" />
    <glyph glyph-name="uni02C9" unicode="&#x2c9;" horiz-adv-x="271" 
d="M151 497l5 28h179l-6 -28h-178z" />
    <glyph glyph-name="uni2215" unicode="&#x2215;" horiz-adv-x="378" 
d="M47 6l397 651h35l-397 -651h-35z" />
    <glyph glyph-name="uni2219" unicode="&#x2219;" horiz-adv-x="220" 
d="M120 255l18 88h88l-19 -88h-87z" />
    <glyph glyph-name="radical" unicode="&#x221a;" horiz-adv-x="689" 
d="M53 178l112 78l105 -271l519 787h34l-539 -870h-49l-97 301l-66 -46z" />
    <glyph glyph-name="notequal" unicode="&#x2260;" horiz-adv-x="455" 
d="M89 220l6 32h147l74 144h-190l7 31h199l81 159h20l-81 -159h144l-6 -31h-154l-74 -144h197l-7 -32h-206l-80 -157h-21l81 157h-137z" />
    <glyph glyph-name="lessequal" unicode="&#x2264;" horiz-adv-x="410" 
d="M369 7h-303l6 31h303zM445 465l-268 -158l202 -158l-18 -34l-244 192l326 193z" />
    <glyph glyph-name="greaterequal" unicode="&#x2265;" horiz-adv-x="419" 
d="M359 38l-6 -31h-303l6 31h303zM100 149l269 158l-201 158l17 35l244 -193l-326 -192z" />
    <glyph glyph-name="uni0394" unicode="&#x394;" horiz-adv-x="660" 
d="M67 7v55l502 561h64l-14 -616h-552zM160 62h369l16 476z" />
    <glyph glyph-name="product" unicode="&#x220f;" horiz-adv-x="763" 
d="M154 7l127 599h-106l13 58h640l-12 -58h-97l-127 -598l-89 -1l127 599h-260l-127 -598z" />
    <glyph glyph-name="summation" unicode="&#x2211;" horiz-adv-x="578" 
d="M51 7l250 304l-125 295l12 58h440l-15 -70h-319l107 -261l-285 -326h416l-12 -58h-481z" />
    <glyph glyph-name="approxequal" unicode="&#x2248;" horiz-adv-x="389" 
d="M180 260c49 -1 79 -39 138 -39c37 0 61 7 79 35h2c-9 -50 -46 -98 -118 -96c-51 2 -108 36 -141 39c-22 2 -44 1 -63 -28h-2c6 38 42 91 105 89zM111 322l-2 1c7 37 42 91 105 88c49 -1 80 -39 138 -39c37 0 61 7 79 35h2c-8 -50 -45 -98 -117 -96c-51 2 -108 36 -142 39
c-22 3 -44 1 -63 -28z" />
    <glyph glyph-name="lozenge" unicode="&#x25ca;" horiz-adv-x="647" 
d="M97 307l335 238l235 -238l-336 -237zM155 307l187 -187l266 187l-187 187z" />
    <glyph glyph-name="uni2113" unicode="&#x2113;" horiz-adv-x="597" 
d="M85 347l43 50c15 -18 36 -31 60 -40c73 159 212 317 367 322c83 3 119 -46 104 -119c-36 -170 -268 -278 -417 -272c-7 -20 -13 -40 -16 -57c-17 -77 -11 -169 84 -169c73 0 131 53 177 115l37 -17c-52 -86 -138 -160 -246 -160c-135 0 -161 104 -136 223
c5 25 12 50 22 76c-32 9 -60 24 -79 48zM305 345c106 7 276 105 300 214c8 38 -4 70 -54 70c-116 0 -227 -152 -285 -285c13 -1 26 0 39 1z" />
    <glyph glyph-name="lira" unicode="&#x20a4;" horiz-adv-x="476" 
d="M398 7h-375v2c57 43 130 134 151 208h-108l5 20h108c4 27 1 52 -4 75h-89l5 21h78c-14 47 -34 92 -24 147c21 120 128 184 239 184c66 0 130 -20 157 -68l-94 -124h-1c10 24 13 35 17 55c17 85 -23 120 -81 120s-127 -39 -142 -110c-19 -92 18 -144 30 -204h134l-5 -21
h-127c3 -15 3 -30 0 -46c-2 -10 -5 -20 -9 -29h119l-4 -20h-125c-35 -71 -102 -113 -141 -138l191 3c56 1 92 12 153 58h2z" />
    <glyph glyph-name="uni03A9" unicode="&#x3a9;" horiz-adv-x="800" 
d="M39 7l26 61h207c-91 45 -142 160 -85 295c76 181 262 295 442 295c181 0 270 -114 192 -295c-58 -135 -208 -250 -336 -295h207l-26 -61h-260l27 64c124 52 237 171 293 300c56 130 46 263 -107 263c-152 0 -275 -134 -329 -263s-43 -248 37 -300l-27 -64h-261z" />
    <glyph glyph-name="ordfeminine" unicode="&#xaa;" horiz-adv-x="326" 
d="M129 503c13 87 80 154 167 154c21 0 41 -8 53 -19c17 2 33 10 46 18h3l-43 -194c-7 -32 0 -41 13 -42c17 0 35 38 42 55l4 -1c-15 -47 -37 -86 -75 -86c-40 0 -42 39 -37 68c-20 -35 -49 -68 -93 -68c-64 0 -90 49 -80 115zM228 410c35 1 68 49 80 80l27 123
c-4 20 -16 33 -42 33c-49 0 -93 -67 -104 -119c-13 -52 -10 -118 39 -117z" />
    <glyph glyph-name="Agrave" unicode="&#xc0;" 
d="M117 7h-102v1c33 35 54 65 86 120l263 456c7 12 5 49 -9 72l1 2h98l74 -572c3 -26 9 -53 28 -78v-2h-144l1 2c18 21 25 56 21 84l-17 142h-236l-62 -109c-23 -42 -23 -86 -2 -117v-1zM375 567l-184 -316h223zM462 697l-156 78l54 55l110 -133h-8z" />
    <glyph glyph-name="Aacute" unicode="&#xc1;" 
d="M117 7h-102v1c33 35 54 65 86 120l263 456c7 12 5 49 -9 72l1 2h98l74 -572c3 -26 9 -53 28 -78v-2h-144l1 2c18 21 25 56 21 84l-17 142h-236l-62 -109c-23 -42 -23 -86 -2 -117v-1zM191 251h223l-39 316zM376 697h-7l109 133l54 -55z" />
    <glyph glyph-name="Acircumflex" unicode="&#xc2;" 
d="M117 7h-102v1c33 35 54 65 86 120l263 456c7 12 5 49 -9 72l1 2h98l74 -572c3 -26 9 -53 28 -78v-2h-144l1 2c18 21 25 56 21 84l-17 142h-236l-62 -109c-23 -42 -23 -86 -2 -117v-1zM375 567l-184 -316h223zM313 697l122 128l71 -9l25 -119h-10l-69 72l-128 -72h-11z
" />
    <glyph glyph-name="Atilde" unicode="&#xc3;" 
d="M117 7h-102v1c33 35 54 65 86 120l263 456c7 12 5 49 -9 72l1 2h98l74 -572c3 -26 9 -53 28 -78v-2h-144l1 2c18 21 25 56 21 84l-17 142h-236l-62 -109c-23 -42 -23 -86 -2 -117v-1zM191 251h223l-39 316zM288 704h-6c13 54 53 100 107 96c24 -2 41 -14 64 -25
c17 -8 37 -16 65 -16c31 0 49 16 60 41l3 -1c-12 -56 -42 -106 -104 -106c-26 0 -48 12 -69 23s-43 22 -65 23c-21 0 -41 -7 -55 -35z" />
    <glyph glyph-name="Adieresis" unicode="&#xc4;" horiz-adv-x="578" 
d="M15 7v1c33 35 54 65 86 120l263 456c7 12 5 49 -9 72l1 2h98l74 -572c3 -26 9 -53 28 -78v-2h-144l1 2c18 21 25 56 21 84l-17 142h-236l-62 -109c-23 -42 -23 -86 -2 -117v-1h-102zM191 251h223l-39 316zM503 697c-27 0 -45 22 -39 50s33 51 61 51s45 -23 39 -51
s-33 -50 -61 -50zM344 697c-28 0 -45 22 -39 50s33 51 60 51c28 0 45 -23 40 -51c-6 -28 -33 -50 -61 -50z" />
    <glyph glyph-name="Aring" unicode="&#xc5;" 
d="M15 7v1c33 35 54 65 86 120l263 456c7 12 5 49 -9 72l1 2h98l74 -572c3 -26 9 -53 28 -78v-2h-144l1 2c18 21 25 56 21 84l-17 142h-236l-62 -109c-23 -42 -23 -86 -2 -117v-1h-102zM417 697c-62 0 -102 37 -90 94c12 56 66 96 131 96c64 -1 105 -38 93 -95
s-70 -95 -134 -95zM191 251h223l-39 316zM390 791c-7 -35 -5 -81 30 -81s60 44 68 82c8 35 3 82 -32 82s-58 -46 -66 -83z" />
    <glyph glyph-name="Egrave" unicode="&#xc8;" horiz-adv-x="490" 
d="M19 7v2c29 19 41 42 53 97l96 452c12 56 10 78 -11 98v2h407l-26 -128h-3c-25 90 -90 112 -149 112h-107l-64 -301h106c48 0 86 14 133 69h1l-32 -148h-1c-26 48 -57 63 -104 63h-107l-64 -302h127c56 0 121 13 197 110h2l-29 -126h-425zM470 697l-156 78l54 55l109 -133
h-7z" />
    <glyph glyph-name="Eacute" unicode="&#xc9;" horiz-adv-x="490" 
d="M444 7h-425v2c29 19 41 42 53 97l96 452c12 56 10 78 -11 98v2h407l-26 -128h-3c-25 90 -90 112 -149 112h-107l-64 -301h106c48 0 86 14 133 69h1l-32 -148h-1c-26 48 -57 63 -104 63h-107l-64 -302h127c56 0 121 13 197 110h2zM314 697l109 133l54 -55l-156 -78h-7z
" />
    <glyph glyph-name="Ecircumflex" unicode="&#xca;" horiz-adv-x="490" 
d="M444 7h-425v2c29 19 41 42 53 97l96 452c12 56 10 78 -11 98v2h407l-26 -128h-3c-25 90 -90 112 -149 112h-107l-64 -301h106c48 0 86 14 133 69h1l-32 -148h-1c-26 48 -57 63 -104 63h-107l-64 -302h127c56 0 121 13 197 110h2zM278 697l122 128l71 -9l25 -119h-10
l-69 72l-127 -72h-12z" />
    <glyph glyph-name="Edieresis" unicode="&#xcb;" horiz-adv-x="490" 
d="M19 7v2c29 19 41 42 53 97l96 452c12 56 10 78 -11 98v2h407l-26 -128h-3c-25 90 -90 112 -149 112h-107l-64 -301h106c48 0 86 14 133 69h1l-32 -148h-1c-26 48 -57 63 -104 63h-107l-64 -302h127c56 0 121 13 197 110h2l-29 -126h-425zM478 697c-27 0 -44 22 -39 50
c6 28 33 51 61 51s45 -23 39 -51s-32 -50 -61 -50zM319 697c-27 0 -45 22 -39 50s33 51 60 51c29 0 46 -23 40 -51s-33 -50 -61 -50z" />
    <glyph glyph-name="Igrave" unicode="&#xcc;" horiz-adv-x="245" 
d="M33 6v3c29 20 41 42 53 98l96 450c12 56 9 79 -11 99v2h157l-1 -2c-28 -20 -40 -43 -52 -99l-96 -450c-12 -56 -9 -79 11 -98l-1 -3h-156zM324 697l-156 78l54 55l110 -133h-8z" />
    <glyph glyph-name="Iacute" unicode="&#xcd;" horiz-adv-x="246" 
d="M27 9c28 20 41 42 53 98l95 450c12 56 10 79 -10 99v2h156v-2c-29 -20 -41 -43 -53 -99l-95 -450c-12 -56 -10 -79 10 -98v-3h-156v3zM186 697h-8l110 133l54 -55z" />
    <glyph glyph-name="Icircumflex" unicode="&#xce;" horiz-adv-x="239" 
d="M28 6v3c29 20 41 42 53 98l96 450c12 56 9 79 -11 99v2h157l-1 -2c-28 -20 -40 -43 -52 -99l-96 -450c-12 -56 -10 -79 11 -98l-1 -3h-156zM155 697h-12l122 128l71 -9l26 -119h-10l-70 72z" />
    <glyph glyph-name="Idieresis" unicode="&#xcf;" horiz-adv-x="237" 
d="M27 9c29 20 42 42 54 98l95 450c12 56 10 79 -10 99v2h156v-2c-29 -20 -41 -43 -53 -99l-95 -450c-12 -56 -10 -79 10 -98v-3h-157v3zM340 697c-28 0 -45 23 -39 50c6 28 33 51 60 51c28 0 45 -23 39 -51c-5 -27 -32 -50 -60 -50zM180 697c-27 0 -44 23 -38 50
c5 28 32 51 60 51s45 -23 39 -51c-6 -27 -32 -50 -61 -50z" />
    <glyph glyph-name="Ograve" unicode="&#xd2;" horiz-adv-x="701" 
d="M100 240c0 214 154 424 376 424c148 0 241 -85 241 -237c0 -214 -156 -427 -378 -427c-148 0 -239 89 -239 240zM195 233c0 -115 41 -211 169 -211c191 0 258 249 258 408c0 116 -43 212 -171 212c-193 0 -256 -250 -256 -409zM539 697l-136 78l63 55l81 -133h-8z" />
    <glyph glyph-name="Oacute" unicode="&#xd3;" horiz-adv-x="701" 
d="M100 240c0 214 154 424 376 424c148 0 241 -85 241 -237c0 -214 -156 -427 -378 -427c-148 0 -239 89 -239 240zM195 233c0 -115 41 -211 169 -211c191 0 258 249 258 408c0 116 -43 212 -171 212c-193 0 -256 -250 -256 -409zM424 697h-7l109 132l54 -54z" />
    <glyph glyph-name="Ocircumflex" unicode="&#xd4;" horiz-adv-x="701" 
d="M100 240c0 214 154 424 376 424c148 0 241 -85 241 -237c0 -214 -156 -427 -378 -427c-148 0 -239 89 -239 240zM451 642c-193 0 -256 -250 -256 -409c0 -115 41 -211 169 -211c191 0 258 249 258 408c0 116 -43 212 -171 212zM374 697l122 128l71 -9l25 -119h-10l-69 72
l-127 -72h-12z" />
    <glyph glyph-name="Otilde" unicode="&#xd5;" horiz-adv-x="701" 
d="M100 240c0 214 154 424 376 424c148 0 241 -85 241 -237c0 -214 -156 -427 -378 -427c-148 0 -239 89 -239 240zM195 233c0 -115 41 -211 169 -211c191 0 258 249 258 408c0 116 -43 212 -171 212c-193 0 -256 -250 -256 -409zM342 708h-6c12 54 52 100 106 96
c25 -2 42 -14 64 -25c18 -8 38 -16 66 -16c31 0 48 16 59 41l4 -1c-12 -56 -43 -106 -104 -106c-26 0 -49 12 -69 23c-21 11 -43 22 -66 23c-20 0 -40 -7 -54 -35z" />
    <glyph glyph-name="Odieresis" unicode="&#xd6;" horiz-adv-x="701" 
d="M339 0c-148 0 -239 89 -239 240c0 214 154 424 376 424c148 0 241 -85 241 -237c0 -214 -156 -427 -378 -427zM451 642c-193 0 -256 -250 -256 -409c0 -115 41 -211 169 -211c191 0 258 249 258 408c0 116 -43 212 -171 212zM397 697c-27 0 -44 22 -39 50
c6 28 33 51 61 51s45 -23 39 -51s-32 -50 -61 -50zM557 697c-28 0 -45 22 -39 50s33 51 60 51c28 0 45 -23 39 -51c-5 -28 -32 -50 -60 -50z" />
    <glyph glyph-name="Ugrave" unicode="&#xd9;" horiz-adv-x="589" 
d="M300 0c-146 0 -227 76 -190 245l66 312c12 56 9 79 -11 99v2h164v-2c-29 -20 -48 -43 -60 -99l-68 -323c-29 -134 27 -208 137 -206c102 3 190 72 220 213l64 300c12 57 -8 95 -39 115v2h122l-1 -2c-28 -18 -53 -62 -63 -109l-66 -311c-30 -141 -127 -236 -275 -236z
M357 775l54 55l110 -133h-8z" />
    <glyph glyph-name="Uacute" unicode="&#xda;" horiz-adv-x="589" 
d="M300 0c-146 0 -227 76 -190 245l66 312c12 56 9 79 -11 99v2h164v-2c-29 -20 -48 -43 -60 -99l-68 -323c-29 -134 27 -208 137 -206c102 3 190 72 220 213l64 300c12 57 -8 95 -39 115v2h122l-1 -2c-28 -18 -53 -62 -63 -109l-66 -311c-30 -141 -127 -236 -275 -236z
M377 697l110 133l54 -55l-156 -78h-8z" />
    <glyph glyph-name="Ucircumflex" unicode="&#xdb;" horiz-adv-x="589" 
d="M300 0c-146 0 -227 76 -190 245l66 312c12 56 9 79 -11 99v2h164v-2c-29 -20 -48 -43 -60 -99l-68 -323c-29 -134 27 -208 137 -206c102 3 190 72 220 213l64 300c12 57 -8 95 -39 115v2h122l-1 -2c-28 -18 -53 -62 -63 -109l-66 -311c-30 -141 -127 -236 -275 -236z
M316 697l122 128l71 -9l26 -119h-11l-69 72l-127 -72h-12z" />
    <glyph glyph-name="Udieresis" unicode="&#xdc;" horiz-adv-x="589" 
d="M300 0c-146 0 -227 76 -190 245l66 312c12 56 9 79 -11 99v2h164v-2c-29 -20 -48 -43 -60 -99l-68 -323c-29 -134 27 -208 137 -206c102 3 190 72 220 213l64 300c12 57 -8 95 -39 115v2h122l-1 -2c-28 -18 -53 -62 -63 -109l-66 -311c-30 -141 -127 -236 -275 -236z
M514 697c-28 0 -45 23 -39 50c6 28 33 51 60 51c28 0 45 -23 40 -51c-6 -27 -33 -50 -61 -50zM354 697c-27 0 -44 23 -38 50c5 28 32 51 60 51s45 -23 39 -51c-6 -27 -32 -50 -61 -50z" />
    <glyph glyph-name="Ntilde" unicode="&#xd1;" horiz-adv-x="582" 
d="M136 6h-123v2c28 18 54 62 64 109l93 440c12 56 4 79 -17 99l1 2h120l239 -541l91 424c12 56 -8 95 -39 114v2l121 1v-2c-29 -18 -54 -62 -64 -109l-116 -544l-48 1l-263 591l-99 -467c-12 -57 10 -100 41 -120zM302 708h-5c12 54 52 100 106 96c25 -2 42 -14 64 -25
c18 -9 38 -16 66 -16c31 0 48 16 59 41l4 -1c-12 -56 -43 -106 -104 -106c-26 0 -49 12 -69 23c-21 11 -43 22 -66 23c-20 0 -40 -7 -55 -35z" />
    <glyph glyph-name="Yacute" unicode="&#xdd;" horiz-adv-x="605" 
d="M158 656v2h146v-2c-18 -31 -19 -49 -8 -77l121 -297l169 235c37 52 54 105 40 139v2h104l-1 -2c-34 -30 -91 -98 -134 -158l-169 -233l-34 -158c-12 -56 -10 -79 11 -98l-1 -3h-157l1 3c28 20 41 42 52 98l30 142l-135 337c-13 31 -24 53 -35 70zM374 697l109 133l55 -55
l-157 -78h-7z" />
    <glyph glyph-name="agrave" unicode="&#xe0;" horiz-adv-x="520" 
d="M68 190c22 145 133 255 278 255c34 0 67 -13 87 -31c28 4 55 17 76 31h5l-71 -323c-11 -52 0 -68 21 -69c29 0 59 62 70 91l6 -1c-24 -79 -61 -143 -124 -143c-67 0 -69 64 -61 113c-34 -59 -81 -113 -154 -113c-107 0 -151 80 -133 190zM232 37c57 1 114 80 133 131
l45 205c-7 32 -27 55 -69 55c-82 0 -155 -111 -174 -197c-20 -87 -15 -196 65 -194zM452 497h-7l-156 78l54 55z" />
    <glyph glyph-name="aacute" unicode="&#xe1;" horiz-adv-x="520" 
d="M68 190c22 145 133 255 278 255c34 0 67 -13 87 -31c28 4 55 17 76 31h5l-71 -323c-11 -52 0 -68 21 -69c29 0 59 62 70 91l6 -1c-24 -79 -61 -143 -124 -143c-67 0 -69 64 -61 113c-34 -59 -81 -113 -154 -113c-107 0 -151 80 -133 190zM232 37c57 1 114 80 133 131
l45 205c-7 32 -27 55 -69 55c-82 0 -155 -111 -174 -197c-20 -87 -15 -196 65 -194zM462 575l-156 -78h-8l110 133z" />
    <glyph glyph-name="acircumflex" unicode="&#xe2;" horiz-adv-x="520" 
d="M68 190c22 145 133 255 278 255c34 0 67 -13 87 -31c28 4 55 17 76 31h5l-71 -323c-11 -52 0 -68 21 -69c29 0 59 62 70 91l6 -1c-24 -79 -61 -143 -124 -143c-67 0 -69 64 -61 113c-34 -59 -81 -113 -154 -113c-107 0 -151 80 -133 190zM232 37c57 1 114 80 133 131
l45 205c-7 32 -27 55 -69 55c-82 0 -155 -111 -174 -197c-20 -87 -15 -196 65 -194zM386 570l-132 -73h-7l121 128l72 -8l25 -120h-8z" />
    <glyph glyph-name="atilde" unicode="&#xe3;" horiz-adv-x="508" 
d="M68 190c22 145 133 255 278 255c34 0 67 -13 87 -31c28 4 55 17 76 31h5l-71 -323c-11 -52 0 -68 21 -69c29 0 59 62 70 91l6 -1c-24 -79 -61 -143 -124 -143c-67 0 -69 64 -61 113c-34 -59 -81 -113 -154 -113c-107 0 -151 80 -133 190zM232 37c57 1 114 80 133 131
l45 205c-7 32 -27 55 -69 55c-82 0 -155 -111 -174 -197c-20 -87 -15 -196 65 -194zM221 508l-5 1c12 54 52 99 106 95c24 -2 42 -14 64 -25c17 -8 38 -16 66 -16c31 0 48 16 59 41h4c-12 -56 -43 -107 -104 -107c-27 0 -49 12 -69 23c-21 12 -43 22 -66 23
c-20 0 -40 -7 -55 -35z" />
    <glyph glyph-name="adieresis" unicode="&#xe4;" horiz-adv-x="520" 
d="M68 190c22 145 133 255 278 255c34 0 67 -13 87 -31c28 4 55 17 76 31h5l-71 -323c-11 -52 0 -68 21 -69c29 0 59 62 70 91l6 -1c-24 -79 -61 -143 -124 -143c-67 0 -69 64 -61 113c-34 -59 -81 -113 -154 -113c-107 0 -151 80 -133 190zM232 37c57 1 114 80 133 131
l45 205c-7 32 -27 55 -69 55c-82 0 -155 -111 -174 -197c-20 -87 -15 -196 65 -194zM266 497c-27 0 -45 23 -39 50c6 28 33 51 60 51c29 0 46 -23 40 -51c-6 -27 -33 -50 -61 -50zM427 497c-27 0 -44 23 -38 50c5 28 32 51 60 51s45 -23 39 -51c-6 -27 -32 -50 -61 -50z" />
    <glyph glyph-name="aring" unicode="&#xe5;" horiz-adv-x="520" 
d="M68 190c22 145 133 255 278 255c34 0 67 -13 87 -31c28 4 55 17 76 31h5l-71 -323c-11 -52 0 -68 21 -69c29 0 59 62 70 91l6 -1c-24 -79 -61 -143 -124 -143c-67 0 -69 64 -61 113c-34 -59 -81 -113 -154 -113c-107 0 -151 80 -133 190zM232 37c57 1 114 80 133 131
l45 205c-7 32 -27 55 -69 55c-82 0 -155 -111 -174 -197c-20 -87 -15 -196 65 -194zM353 497c-61 0 -101 37 -89 94c11 56 66 96 130 96c65 0 105 -38 93 -94c-12 -57 -69 -96 -134 -96zM326 591c-7 -34 -4 -80 31 -80s60 44 68 81c7 36 3 82 -33 82c-34 0 -58 -46 -66 -83z
" />
    <glyph glyph-name="egrave" unicode="&#xe8;" horiz-adv-x="437" 
d="M72 216c27 124 125 229 271 229c81 0 135 -39 129 -99c-11 -120 -224 -131 -314 -140c-3 -37 1 -73 13 -99c20 -43 60 -65 110 -64c60 0 119 47 152 101l5 -3c-35 -82 -119 -141 -208 -141c-128 0 -185 93 -158 216zM159 224c87 11 232 45 244 143c4 40 -25 63 -67 63
c-104 -3 -165 -115 -177 -206zM426 497h-8l-156 79l54 54z" />
    <glyph glyph-name="eacute" unicode="&#xe9;" horiz-adv-x="437" 
d="M72 216c27 124 125 229 271 229c81 0 135 -39 129 -99c-11 -120 -224 -131 -314 -140c-3 -37 1 -73 13 -99c20 -43 60 -65 110 -64c60 0 119 47 152 101l5 -3c-35 -82 -119 -141 -208 -141c-128 0 -185 93 -158 216zM159 224c87 11 232 45 244 143c4 40 -25 63 -67 63
c-104 -3 -165 -115 -177 -206zM289 497h-7l109 133l55 -54z" />
    <glyph glyph-name="ecircumflex" unicode="&#xea;" horiz-adv-x="437" 
d="M72 216c27 124 125 229 271 229c81 0 135 -39 129 -99c-11 -120 -224 -131 -314 -140c-3 -37 1 -73 13 -99c20 -43 60 -65 110 -64c60 0 119 47 152 101l5 -3c-35 -82 -119 -141 -208 -141c-128 0 -185 93 -158 216zM403 367c4 40 -25 63 -67 63
c-104 -3 -165 -115 -177 -206c87 11 232 45 244 143zM364 569l-132 -72h-7l122 127l71 -8l26 -119h-8z" />
    <glyph glyph-name="edieresis" unicode="&#xeb;" horiz-adv-x="428" 
d="M72 216c27 124 125 229 271 229c81 0 135 -39 129 -99c-11 -120 -224 -131 -314 -140c-3 -37 1 -73 13 -99c20 -43 60 -65 110 -64c60 0 119 47 152 101l5 -3c-35 -82 -119 -141 -208 -141c-128 0 -185 93 -158 216zM403 367c4 40 -25 63 -67 63
c-104 -3 -165 -115 -177 -206c87 11 232 45 244 143zM412 497c-28 0 -45 23 -39 51c6 27 33 50 60 50c28 0 45 -23 39 -50c-6 -28 -32 -51 -60 -51zM250 497c-27 0 -45 23 -39 51c6 27 33 50 61 50s45 -23 39 -50c-6 -28 -33 -51 -61 -51z" />
    <glyph glyph-name="igrave" unicode="&#xec;" horiz-adv-x="272" 
d="M68 320l-7 2c23 76 57 123 115 123c70 0 75 -65 64 -115l-46 -211c-11 -52 0 -65 22 -66c29 0 59 62 70 91l6 -1c-25 -79 -61 -143 -124 -143c-56 0 -79 39 -66 101l50 231c12 53 -3 66 -19 67c-29 1 -55 -48 -65 -79zM174 630l109 -133h-7l-156 79z" />
    <glyph glyph-name="iacute" unicode="&#xed;" horiz-adv-x="272" 
d="M68 320l-7 2c23 76 57 123 115 123c70 0 75 -65 64 -115l-46 -211c-11 -52 0 -65 22 -66c29 0 59 62 70 91l6 -1c-25 -79 -61 -143 -124 -143c-56 0 -79 39 -66 101l50 231c12 53 -3 66 -19 67c-29 1 -55 -48 -65 -79zM250 630l54 -54l-157 -79h-7z" />
    <glyph glyph-name="icircumflex" unicode="&#xee;" horiz-adv-x="272" 
d="M68 320l-7 2c23 76 57 123 115 123c70 0 75 -65 64 -115l-46 -211c-11 -52 0 -65 22 -66c29 0 59 62 70 91l6 -1c-25 -79 -61 -143 -124 -143c-56 0 -79 39 -66 101l50 231c12 53 -3 66 -19 67c-29 1 -55 -48 -65 -79zM191 624l71 -8l26 -119h-8l-72 72l-132 -72h-7z" />
    <glyph glyph-name="idieresis" unicode="&#xef;" horiz-adv-x="272" 
d="M68 320l-7 2c23 76 57 123 115 123c70 0 75 -65 64 -115l-46 -211c-11 -52 0 -65 22 -66c29 0 59 62 70 91l6 -1c-25 -79 -61 -143 -124 -143c-56 0 -79 39 -66 101l50 231c12 53 -3 66 -19 67c-29 1 -55 -48 -65 -79zM79 548c5 27 32 50 60 50s45 -23 39 -50
c-6 -28 -32 -51 -61 -51c-27 0 -44 23 -38 51zM240 548c6 27 33 50 60 50c28 0 45 -23 40 -50c-6 -28 -33 -51 -61 -51s-45 23 -39 51z" />
    <glyph glyph-name="ntilde" unicode="&#xf1;" 
d="M68 320l-7 2c22 76 55 123 115 123c66 0 69 -64 60 -115c31 44 99 115 192 115c39 0 70 -10 88 -31c21 -25 24 -63 14 -114l-37 -181c-11 -52 0 -65 22 -66c29 0 59 62 70 91l6 -1c-25 -79 -62 -143 -125 -143c-55 0 -79 39 -66 101l42 195c6 29 3 57 -12 76
c-10 14 -28 22 -53 23c-60 2 -136 -63 -150 -128l-55 -260h-88l68 326c11 53 -3 65 -20 66c-28 1 -54 -48 -64 -79zM244 508h-5c12 54 52 100 106 96c24 -2 42 -14 64 -25c17 -8 38 -16 66 -16c31 0 48 16 59 41l3 -1c-11 -56 -42 -106 -103 -106c-27 0 -49 12 -69 23
c-21 11 -44 22 -66 23c-21 0 -40 -7 -55 -35z" />
    <glyph glyph-name="ograve" unicode="&#xf2;" horiz-adv-x="507" 
d="M73 167c0 149 114 278 265 278c102 0 181 -55 181 -165c0 -148 -117 -280 -267 -280c-103 0 -179 58 -179 167zM321 428c-119 0 -157 -181 -157 -275c0 -69 25 -136 105 -136c118 0 158 179 158 274c0 70 -26 137 -106 137zM255 576l54 54l109 -133h-7z" />
    <glyph glyph-name="oacute" unicode="&#xf3;" horiz-adv-x="507" 
d="M73 167c0 149 114 278 265 278c102 0 181 -55 181 -165c0 -148 -117 -280 -267 -280c-103 0 -179 58 -179 167zM321 428c-119 0 -157 -181 -157 -275c0 -69 25 -136 105 -136c118 0 158 179 158 274c0 70 -26 137 -106 137zM296 497h-7l109 133l55 -54z" />
    <glyph glyph-name="ocircumflex" unicode="&#xf4;" horiz-adv-x="507" 
d="M73 167c0 149 114 278 265 278c102 0 181 -55 181 -165c0 -148 -117 -280 -267 -280c-103 0 -179 58 -179 167zM164 153c0 -69 25 -136 105 -136c118 0 158 179 158 274c0 70 -26 137 -106 137c-119 0 -157 -181 -157 -275zM246 497l122 127l71 -8l25 -119h-8l-71 72
l-132 -72h-7z" />
    <glyph glyph-name="otilde" unicode="&#xf5;" horiz-adv-x="507" 
d="M73 167c0 149 114 278 265 278c102 0 181 -55 181 -165c0 -148 -117 -280 -267 -280c-103 0 -179 58 -179 167zM164 153c0 -69 25 -136 105 -136c118 0 158 179 158 274c0 70 -26 137 -106 137c-119 0 -157 -181 -157 -275zM217 508h-6c12 54 52 100 106 96
c25 -2 42 -14 64 -25c18 -8 38 -16 66 -16c31 0 48 16 59 41l4 -1c-12 -56 -43 -106 -104 -106c-26 0 -49 12 -69 23c-21 11 -43 22 -66 23c-20 0 -40 -7 -54 -35z" />
    <glyph glyph-name="odieresis" unicode="&#xf6;" horiz-adv-x="507" 
d="M73 167c0 149 114 278 265 278c102 0 181 -55 181 -165c0 -148 -117 -280 -267 -280c-103 0 -179 58 -179 167zM164 153c0 -69 25 -136 105 -136c118 0 158 179 158 274c0 70 -26 137 -106 137c-119 0 -157 -181 -157 -275zM435 498c-28 0 -45 23 -39 50
c6 28 33 51 60 51c28 0 45 -23 40 -51c-6 -27 -33 -50 -61 -50zM273 498c-27 0 -44 23 -38 50c5 28 32 51 60 51s45 -23 39 -51c-6 -27 -32 -50 -61 -50z" />
    <glyph glyph-name="oslash" unicode="&#xf8;" horiz-adv-x="532" 
d="M73 167c0 149 114 278 265 278c24 0 47 -4 68 -11l183 302h21l-186 -307c57 -24 95 -73 95 -149c0 -148 -117 -280 -267 -280c-29 0 -55 4 -78 13l-60 -99h-23l65 107c-51 26 -83 75 -83 146zM399 387l-202 -335c15 -20 38 -35 72 -35c118 0 158 179 158 274
c0 38 -8 72 -28 96zM164 153c0 -32 7 -60 24 -79l200 330c-16 15 -38 24 -67 24c-119 0 -157 -181 -157 -275z" />
    <glyph glyph-name="ugrave" unicode="&#xf9;" horiz-adv-x="540" 
d="M61 322c22 76 55 123 115 123c71 0 74 -65 63 -115l-40 -183c-10 -49 1 -100 60 -101c47 -2 112 56 126 121l58 271h89l-69 -319c-11 -52 0 -65 22 -66c29 0 59 62 70 91l6 -1c-25 -79 -62 -143 -125 -143c-62 0 -70 59 -62 104c-29 -44 -76 -104 -160 -104
c-40 0 -70 10 -88 31c-21 25 -26 63 -14 114l40 188c11 52 -3 65 -20 66c-29 1 -54 -48 -64 -79zM258 576l55 54l109 -133h-7z" />
    <glyph glyph-name="uacute" unicode="&#xfa;" horiz-adv-x="540" 
d="M61 322c22 76 55 123 115 123c71 0 74 -65 63 -115l-40 -183c-10 -49 1 -100 60 -101c47 -2 112 56 126 121l58 271h89l-69 -319c-11 -52 0 -65 22 -66c29 0 59 62 70 91l6 -1c-25 -79 -62 -143 -125 -143c-62 0 -70 59 -62 104c-29 -44 -76 -104 -160 -104
c-40 0 -70 10 -88 31c-21 25 -26 63 -14 114l40 188c11 52 -3 65 -20 66c-29 1 -54 -48 -64 -79zM394 630l54 -54l-156 -79h-8z" />
    <glyph glyph-name="ucircumflex" unicode="&#xfb;" horiz-adv-x="540" 
d="M68 320l-7 2c22 76 55 123 115 123c71 0 74 -65 63 -115l-40 -183c-10 -49 1 -100 60 -101c47 -2 112 56 126 121l58 271h89l-69 -319c-11 -52 0 -65 22 -66c29 0 59 62 70 91l6 -1c-25 -79 -62 -143 -125 -143c-62 0 -70 59 -62 104c-29 -44 -76 -104 -160 -104
c-40 0 -70 10 -88 31c-21 25 -26 63 -14 114l40 188c11 52 -3 65 -20 66c-29 1 -54 -48 -64 -79zM345 624l71 -8l25 -119h-8l-71 72l-132 -72h-7z" />
    <glyph glyph-name="udieresis" unicode="&#xfc;" horiz-adv-x="540" 
d="M61 322c22 76 55 123 115 123c71 0 74 -65 63 -115l-40 -183c-10 -49 1 -100 60 -101c47 -2 112 56 126 121l58 271h89l-69 -319c-11 -52 0 -65 22 -66c29 0 59 62 70 91l6 -1c-25 -79 -62 -143 -125 -143c-62 0 -70 59 -62 104c-29 -44 -76 -104 -160 -104
c-40 0 -70 10 -88 31c-21 25 -26 63 -14 114l40 188c11 52 -3 65 -20 66c-29 1 -54 -48 -64 -79zM375 548c6 28 33 51 60 51c28 0 46 -23 40 -51c-6 -27 -33 -50 -61 -50s-45 23 -39 50zM214 548c5 28 32 51 60 51s45 -23 39 -51c-6 -27 -32 -50 -60 -50s-45 23 -39 50z" />
    <glyph glyph-name="yacute" unicode="&#xfd;" horiz-adv-x="488" 
d="M181 445c58 0 80 -50 97 -111l86 -304c51 88 90 188 90 307c0 31 -5 60 -14 84v2l92 22c3 -65 -19 -165 -64 -260c-54 -115 -210 -408 -355 -408c-9 0 -19 2 -27 5l26 100h2c19 -25 44 -33 67 -33c41 0 86 55 118 97l-112 387c-14 52 -34 61 -55 60
c-30 -1 -54 -42 -64 -73l-7 2c17 59 43 123 120 123zM325 497h-7l109 133l54 -54z" />
    <glyph glyph-name="ydieresis" unicode="&#xff;" horiz-adv-x="488" 
d="M181 445c58 0 80 -50 97 -111l86 -304c51 88 90 188 90 307c0 31 -5 60 -14 84v2l92 22c3 -65 -19 -165 -64 -260c-54 -115 -210 -408 -355 -408c-9 0 -19 2 -27 5l26 100h2c19 -25 44 -33 67 -33c41 0 86 55 118 97l-112 387c-14 52 -34 61 -55 60
c-30 -1 -54 -42 -64 -73l-7 2c17 59 43 123 120 123zM271 497c-27 0 -45 23 -39 51c6 27 33 50 60 50c29 0 46 -23 40 -50c-6 -28 -33 -51 -61 -51zM432 497c-27 0 -44 23 -38 51c5 27 32 50 60 50s45 -23 39 -50c-6 -28 -32 -51 -61 -51z" />
    <glyph glyph-name="Amacron" unicode="&#x100;" 
d="M117 7h-102v1c33 35 54 65 86 120l263 456c7 12 5 49 -9 72l1 2h98l74 -572c3 -26 9 -53 28 -78v-2h-144l1 2c18 21 25 56 21 84l-17 142h-236l-62 -109c-23 -42 -23 -86 -2 -117v-1zM375 567l-184 -316h223zM519 697h-194l6 28h194z" />
    <glyph glyph-name="amacron" unicode="&#x101;" horiz-adv-x="520" 
d="M68 190c22 145 133 255 278 255c34 0 67 -13 87 -31c28 4 55 17 76 31h5l-71 -323c-11 -52 0 -68 21 -69c29 0 59 62 70 91l6 -1c-24 -79 -61 -143 -124 -143c-67 0 -69 64 -61 113c-34 -59 -81 -113 -154 -113c-107 0 -151 80 -133 190zM232 37c57 1 114 80 133 131
l45 205c-7 32 -27 55 -69 55c-82 0 -155 -111 -174 -197c-20 -87 -15 -196 65 -194zM507 518l-4 -21h-276l5 21h275z" />
    <glyph glyph-name="Abreve" unicode="&#x102;" 
d="M15 7v1c33 35 54 65 86 120l263 456c7 12 5 49 -9 72l1 2h98l74 -572c3 -26 9 -53 28 -78v-2h-144l1 2c18 21 25 56 21 84l-17 142h-236l-62 -109c-23 -42 -23 -86 -2 -117v-1h-102zM191 251h223l-39 316zM436 697c-79 0 -100 47 -82 119h2c13 -50 52 -55 94 -55
c43 0 84 4 117 55h2c-18 -72 -49 -119 -133 -119z" />
    <glyph glyph-name="abreve" unicode="&#x103;" horiz-adv-x="520" 
d="M68 190c22 145 133 255 278 255c34 0 67 -13 87 -31c28 4 55 17 76 31h5l-71 -323c-11 -52 0 -68 21 -69c29 0 59 62 70 91l6 -1c-24 -79 -61 -143 -124 -143c-67 0 -69 64 -61 113c-34 -59 -81 -113 -154 -113c-107 0 -151 80 -133 190zM232 37c57 1 114 80 133 131
l45 205c-7 32 -27 55 -69 55c-82 0 -155 -111 -174 -197c-20 -87 -15 -196 65 -194zM352 497c-79 0 -100 48 -82 119h2c13 -49 52 -54 94 -54c43 0 84 3 117 54h2c-18 -71 -50 -119 -133 -119z" />
    <glyph glyph-name="Aogonek" unicode="&#x104;" horiz-adv-x="566" 
d="M15 7v1c33 35 55 65 86 120l263 456c8 12 6 49 -8 72v2h99l73 -572c4 -26 10 -53 29 -78v-2h-49c-36 -30 -71 -79 -80 -122c-8 -37 7 -58 40 -60c18 0 44 6 64 23h2c-22 -33 -58 -62 -107 -62c-50 0 -83 30 -71 88c13 64 76 109 128 133h-71v2c18 21 25 56 22 84l-18 142
h-236l-62 -109c-24 -42 -23 -86 -2 -117v-1h-102zM191 251h224l-40 319z" />
    <glyph glyph-name="aogonek" unicode="&#x105;" horiz-adv-x="512" 
d="M68 190c22 145 133 255 278 255c34 0 67 -13 87 -31c28 4 55 17 76 31h5l-71 -323c-11 -52 0 -68 21 -69c29 0 59 62 70 91l6 -1c-22 -72 -54 -131 -105 -141c-34 -32 -64 -78 -72 -118c-8 -37 7 -58 40 -60c18 0 43 6 64 23h2c-22 -33 -58 -62 -108 -62s-82 30 -70 88
c11 55 67 101 114 128c-57 5 -58 66 -50 112c-34 -59 -81 -113 -154 -113c-107 0 -151 80 -133 190zM231 37c58 1 115 80 134 131l44 205c-6 32 -26 55 -68 55c-82 0 -155 -111 -174 -197c-21 -87 -16 -196 64 -194z" />
    <glyph glyph-name="Cacute" unicode="&#x106;" horiz-adv-x="616" 
d="M113 341c48 203 218 323 401 323c90 0 139 -21 183 -59l-75 -133h-1c14 104 -27 172 -117 173c-138 1 -250 -97 -293 -275c-21 -86 -20 -170 20 -234c32 -51 91 -83 171 -83c75 0 167 40 228 119l6 -4c-67 -103 -166 -168 -295 -168c-201 0 -274 143 -228 341zM449 697
l110 133l54 -55l-156 -78h-8z" />
    <glyph glyph-name="Ccircumflex" unicode="&#x108;" horiz-adv-x="635" 
d="M113 341c48 203 218 323 401 323c90 0 139 -21 183 -59l-75 -133h-1c14 104 -27 172 -117 173c-138 1 -250 -97 -293 -275c-21 -86 -20 -170 20 -234c32 -51 91 -83 171 -83c75 0 167 40 228 119l6 -4c-67 -103 -166 -168 -295 -168c-201 0 -274 143 -228 341zM399 697
l122 128l71 -9l25 -119h-10l-69 72l-128 -72h-11z" />
    <glyph glyph-name="Cdotaccent" unicode="&#x10a;" horiz-adv-x="616" 
d="M113 341c48 203 218 323 401 323c90 0 139 -21 183 -59l-75 -133h-1c14 104 -27 172 -117 173c-138 1 -250 -97 -293 -275c-21 -86 -20 -170 20 -234c32 -51 91 -83 171 -83c75 0 167 40 228 119l6 -4c-67 -103 -166 -168 -295 -168c-201 0 -274 143 -228 341zM488 747
c6 28 33 50 61 50s45 -22 39 -50s-33 -50 -61 -50c-27 0 -45 22 -39 50z" />
    <glyph glyph-name="Ccaron" unicode="&#x10c;" horiz-adv-x="616" 
d="M113 341c48 203 218 323 401 323c90 0 139 -21 183 -59l-75 -133h-1c14 104 -27 172 -117 173c-138 1 -250 -97 -293 -275c-21 -86 -20 -170 20 -234c32 -51 91 -83 171 -83c75 0 167 40 228 119l6 -4c-67 -103 -166 -168 -295 -168c-201 0 -274 143 -228 341zM473 705
l-26 120h10l69 -73l128 73h11l-121 -128z" />
    <glyph glyph-name="cacute" unicode="&#x107;" horiz-adv-x="428" 
d="M232 0c-132 0 -186 94 -160 215c27 126 126 230 279 230c44 0 86 -10 123 -34l-55 -103h-2c5 67 -24 120 -91 120c-80 0 -148 -90 -165 -192c-9 -49 -6 -93 10 -127c20 -44 60 -67 111 -66c60 0 118 47 151 101l5 -3c-35 -82 -117 -141 -206 -141zM287 497h-8l110 133
l54 -54z" />
    <glyph glyph-name="ccircumflex" unicode="&#x109;" horiz-adv-x="428" 
d="M232 0c-132 0 -186 94 -160 215c27 126 126 230 279 230c44 0 86 -10 123 -34l-55 -103h-2c5 67 -24 120 -91 120c-80 0 -148 -90 -165 -192c-9 -49 -6 -93 10 -127c20 -44 60 -67 111 -66c60 0 118 47 151 101l5 -3c-35 -82 -117 -141 -206 -141zM238 497h-6l121 127
l71 -8l26 -119h-8l-71 72z" />
    <glyph glyph-name="cdotaccent" unicode="&#x10b;" horiz-adv-x="428" 
d="M232 0c-132 0 -186 94 -160 215c27 126 126 230 279 230c44 0 86 -10 123 -34l-55 -103h-2c5 67 -24 120 -91 120c-80 0 -148 -90 -165 -192c-9 -49 -6 -93 10 -127c20 -44 60 -67 111 -66c60 0 118 47 151 101l5 -3c-35 -82 -117 -141 -206 -141zM352 497
c-27 0 -45 23 -39 50c6 28 33 51 61 51s45 -23 39 -51c-6 -27 -33 -50 -61 -50z" />
    <glyph glyph-name="ccaron" unicode="&#x10d;" horiz-adv-x="428" 
d="M232 0c-132 0 -186 94 -160 215c27 126 126 230 279 230c44 0 86 -10 123 -34l-55 -103h-2c5 67 -24 120 -91 120c-80 0 -148 -90 -165 -192c-9 -49 -6 -93 10 -127c20 -44 60 -67 111 -66c60 0 118 47 151 101l5 -3c-35 -82 -117 -141 -206 -141zM279 625h8l71 -73
l133 73h6l-121 -128l-71 9z" />
    <glyph glyph-name="Dcaron" unicode="&#x10e;" horiz-adv-x="602" 
d="M257 6l-237 1v1c28 20 40 42 52 98l96 451c12 56 10 79 -11 98l1 2h237c189 -1 275 -120 231 -329c-44 -208 -180 -322 -369 -322zM279 640l-131 -617h78c152 0 260 103 303 307s-19 310 -172 310h-78zM377 706l-25 119h10l69 -72l128 72h11l-122 -128z" />
    <glyph glyph-name="dcaron" unicode="&#x10f;" horiz-adv-x="677" 
d="M68 190c22 145 133 255 278 255c28 0 56 -8 75 -23l34 157c6 29 6 58 -32 77v2c43 2 108 18 142 39h3l-124 -575c-12 -52 -1 -68 20 -69c30 0 59 62 71 91l6 -1c-25 -79 -62 -143 -125 -143c-66 0 -68 64 -61 113c-33 -59 -81 -113 -154 -113c-106 0 -150 80 -133 190z
M232 37c58 1 114 77 133 129l45 206c-6 33 -26 55 -69 55c-82 0 -152 -102 -173 -196c-21 -87 -16 -196 64 -194zM622 578l-26 119h11l69 -72l127 72h12l-122 -128z" />
    <glyph glyph-name="Dcroat" unicode="&#x110;" horiz-adv-x="602" 
d="M72 106l46 216h-53l5 20h52l46 215c12 56 10 79 -11 98v2h238c189 -1 275 -120 231 -329c-45 -208 -180 -322 -369 -322l-238 1v1c29 20 41 42 53 98zM148 23h78c152 0 259 103 302 307c44 204 -19 310 -171 310h-78l-63 -298h166l-5 -20h-166z" />
    <glyph glyph-name="dcroat" unicode="&#x111;" horiz-adv-x="532" 
d="M68 190c22 145 133 255 278 255c28 0 56 -8 75 -23l20 91h-137l6 20h135l10 46c6 29 6 58 -32 77v2c43 2 108 18 142 39h3l-36 -164h75l-5 -20h-74l-84 -391c-12 -52 -1 -68 20 -69c30 0 59 62 71 91l6 -1c-25 -79 -62 -143 -125 -143c-66 0 -68 64 -61 113
c-33 -59 -81 -113 -154 -113c-106 0 -150 80 -133 190zM232 37c58 1 114 77 133 129l45 206c-6 33 -26 55 -69 55c-82 0 -152 -102 -173 -196c-21 -87 -16 -196 64 -194z" />
    <glyph glyph-name="Emacron" unicode="&#x112;" horiz-adv-x="479" 
d="M444 7h-425v2c29 19 41 42 53 97l96 452c12 56 10 78 -11 98v2h407l-26 -128h-3c-25 90 -90 112 -149 112h-107l-64 -301h106c48 0 86 14 133 69h1l-32 -148h-1c-26 48 -57 63 -104 63h-107l-64 -302h127c56 0 121 13 197 110h2zM286 697l6 28h209l-6 -28h-209z" />
    <glyph glyph-name="emacron" unicode="&#x113;" horiz-adv-x="429" 
d="M72 216c27 124 125 229 271 229c81 0 135 -39 129 -99c-11 -120 -224 -131 -314 -140c-3 -37 1 -73 13 -99c20 -43 60 -65 110 -64c60 0 119 47 152 101l5 -3c-35 -82 -119 -141 -208 -141c-128 0 -185 93 -158 216zM159 224c87 11 232 45 244 143c4 40 -25 63 -67 63
c-104 -3 -165 -115 -177 -206zM498 518l-4 -21h-276l5 21h275z" />
    <glyph glyph-name="Ebreve" unicode="&#x114;" horiz-adv-x="479" 
d="M444 7h-425v2c29 19 41 42 53 97l96 452c12 56 10 78 -11 98v2h407l-26 -128h-3c-25 90 -90 112 -149 112h-107l-64 -301h106c48 0 86 14 133 69h1l-32 -148h-1c-26 48 -57 63 -104 63h-107l-64 -302h127c56 0 121 13 197 110h2zM408 697c-79 0 -100 48 -82 119h2
c13 -49 52 -55 94 -55c43 0 84 4 117 55h2c-18 -71 -50 -119 -133 -119z" />
    <glyph glyph-name="ebreve" unicode="&#x115;" horiz-adv-x="429" 
d="M72 216c27 124 125 229 271 229c81 0 135 -39 129 -99c-11 -120 -224 -131 -314 -140c-3 -37 1 -73 13 -99c20 -43 60 -65 110 -64c60 0 119 47 152 101l5 -3c-35 -82 -119 -141 -208 -141c-128 0 -185 93 -158 216zM159 224c87 11 232 45 244 143c4 40 -25 63 -67 63
c-104 -3 -165 -115 -177 -206zM328 497c-79 0 -100 48 -83 119h3c13 -49 52 -54 94 -54c43 0 84 3 117 54h2c-18 -71 -50 -119 -133 -119z" />
    <glyph glyph-name="Edotaccent" unicode="&#x116;" horiz-adv-x="479" 
d="M444 7h-425v2c29 19 41 42 53 97l96 452c12 56 10 78 -11 98v2h407l-26 -128h-3c-25 90 -90 112 -149 112h-107l-64 -301h106c48 0 86 14 133 69h1l-32 -148h-1c-26 48 -57 63 -104 63h-107l-64 -302h127c56 0 121 13 197 110h2zM390 697c-27 0 -44 22 -39 50
c6 28 33 51 61 51s45 -23 39 -51s-32 -50 -61 -50z" />
    <glyph glyph-name="edotaccent" unicode="&#x117;" horiz-adv-x="437" 
d="M72 216c27 124 125 229 271 229c81 0 135 -39 129 -99c-11 -120 -224 -131 -314 -140c-3 -37 1 -73 13 -99c20 -43 60 -65 110 -64c60 0 119 47 152 101l5 -3c-35 -82 -119 -141 -208 -141c-128 0 -185 93 -158 216zM159 224c87 11 232 45 244 143c4 40 -25 63 -67 63
c-104 -3 -165 -115 -177 -206zM332 497c-27 0 -45 23 -39 50c6 28 33 51 60 51c29 0 46 -23 40 -51c-6 -27 -33 -50 -61 -50z" />
    <glyph glyph-name="Eogonek" unicode="&#x118;" horiz-adv-x="490" 
d="M19 7v2c29 19 41 42 53 97l96 452c12 56 10 78 -11 98v2h407l-26 -128h-3c-25 90 -90 112 -149 112h-107l-64 -301h106c48 0 86 14 133 69h1l-32 -148h-1c-26 48 -57 63 -104 63h-107l-64 -302h127c56 0 121 13 197 110h2l-29 -126h-90c-37 -31 -72 -80 -81 -123
c-8 -37 7 -58 41 -60c18 0 43 6 64 23h2c-23 -33 -59 -62 -108 -62c-50 0 -83 30 -71 88c13 63 74 108 126 134h-308z" />
    <glyph glyph-name="eogonek" unicode="&#x119;" horiz-adv-x="429" 
d="M72 216c27 124 125 229 271 229c80 0 135 -39 129 -99c-11 -120 -224 -131 -314 -140c-3 -37 1 -73 13 -99c20 -43 60 -65 110 -64c60 0 119 47 151 101l6 -3c-33 -78 -112 -136 -197 -141c-34 -30 -63 -76 -72 -116c-8 -37 7 -58 40 -60c19 0 44 6 64 23h2
c-22 -33 -58 -62 -107 -62c-50 0 -83 30 -71 88s65 103 113 129c-115 8 -163 98 -138 214zM403 367c4 40 -25 63 -67 63c-103 -3 -166 -115 -177 -206c87 11 232 45 244 143z" />
    <glyph glyph-name="Ecaron" unicode="&#x11a;" horiz-adv-x="479" 
d="M444 7h-425v2c29 19 41 42 53 97l96 452c12 56 10 78 -11 98v2h407l-26 -128h-3c-25 90 -90 112 -149 112h-107l-64 -301h106c48 0 86 14 133 69h1l-32 -148h-1c-26 48 -57 63 -104 63h-107l-64 -302h127c56 0 121 13 197 110h2zM323 825h10l69 -73l128 73h11l-122 -128
l-71 8z" />
    <glyph glyph-name="ecaron" unicode="&#x11b;" horiz-adv-x="429" 
d="M72 216c27 124 125 229 271 229c81 0 135 -39 129 -99c-11 -120 -224 -131 -314 -140c-3 -37 1 -73 13 -99c20 -43 60 -65 110 -64c60 0 119 47 152 101l5 -3c-35 -82 -119 -141 -208 -141c-128 0 -185 93 -158 216zM159 224c87 11 232 45 244 143c4 40 -25 63 -67 63
c-104 -3 -165 -115 -177 -206zM343 497l-71 9l-25 119h8l71 -73l132 73h7z" />
    <glyph glyph-name="Gcircumflex" unicode="&#x11c;" horiz-adv-x="660" 
d="M110 330c43 199 206 334 403 334c81 0 135 -16 183 -59l-74 -133h-2c15 104 -26 172 -116 173c-148 1 -258 -108 -296 -289c-17 -80 -13 -154 12 -212c33 -72 100 -117 204 -120c26 -1 53 4 79 13l45 212c10 48 -18 73 -58 89v2h197l-1 -2c-33 -18 -48 -47 -57 -89
l-43 -203c-79 -35 -147 -46 -232 -46c-97 0 -175 34 -216 96c-38 58 -48 137 -28 234zM412 697h-11l121 128l71 -9l26 -119h-10l-70 72z" />
    <glyph glyph-name="gcircumflex" unicode="&#x11d;" horiz-adv-x="471" 
d="M46 -148c-2 74 115 98 199 157c-14 -6 -30 -9 -47 -9c-106 0 -150 80 -132 190c22 145 133 255 277 255c37 0 71 -15 91 -34c21 5 51 19 73 34h4l-96 -446c-11 -53 -27 -96 -57 -135c-41 -51 -112 -87 -177 -87c-49 0 -134 12 -135 75zM165 231c-21 -87 -16 -196 64 -194
c60 1 114 79 134 131l43 200c-5 36 -24 59 -67 59c-82 0 -155 -110 -174 -196zM134 -110c-30 -41 -15 -96 54 -96c93 -1 119 116 135 190l28 129c-55 -112 -172 -164 -217 -223zM254 497h-7l122 127l71 -8l25 -119h-8l-71 72z" />
    <glyph glyph-name="Gbreve" unicode="&#x11e;" horiz-adv-x="660" 
d="M110 330c43 199 206 334 403 334c81 0 135 -16 183 -59l-74 -133h-2c15 104 -26 172 -116 173c-148 1 -258 -108 -296 -289c-17 -80 -13 -154 12 -212c33 -72 100 -117 204 -120c26 -1 53 4 79 13l45 212c10 48 -18 73 -58 89v2h197l-1 -2c-33 -18 -48 -47 -57 -89
l-43 -203c-79 -35 -147 -46 -232 -46c-97 0 -175 34 -216 96c-38 58 -48 137 -28 234zM436 816h2c13 -49 52 -54 94 -54c43 0 84 3 117 54h2c-18 -71 -50 -119 -133 -119c-79 0 -100 48 -82 119z" />
    <glyph glyph-name="gbreve" unicode="&#x11f;" horiz-adv-x="466" 
d="M46 -148c-2 74 115 98 199 157c-14 -6 -30 -9 -47 -9c-106 0 -150 80 -132 190c22 145 133 255 277 255c37 0 71 -15 91 -34c21 5 51 19 73 34h4l-96 -446c-11 -53 -27 -96 -57 -135c-41 -51 -112 -87 -177 -87c-49 0 -134 12 -135 75zM165 231c-21 -87 -16 -196 64 -194
c60 1 114 79 134 131l43 200c-5 36 -24 59 -67 59c-82 0 -155 -110 -174 -196zM134 -110c-30 -41 -15 -96 54 -96c93 -1 119 116 135 190l28 129c-55 -112 -172 -164 -217 -223zM360 497c-79 0 -101 48 -83 119h2c14 -49 53 -54 94 -54c43 0 84 3 118 54h2
c-18 -71 -50 -119 -133 -119z" />
    <glyph glyph-name="Gdotaccent" unicode="&#x120;" horiz-adv-x="660" 
d="M110 330c43 199 206 334 403 334c81 0 135 -16 183 -59l-74 -133h-2c15 104 -26 172 -116 173c-148 1 -258 -108 -296 -289c-17 -80 -13 -154 12 -212c33 -72 100 -117 204 -120c26 -1 53 4 79 13l45 212c10 48 -18 73 -58 89v2h197l-1 -2c-33 -18 -48 -47 -57 -89
l-43 -203c-79 -35 -147 -46 -232 -46c-97 0 -175 34 -216 96c-38 58 -48 137 -28 234zM479 747c6 28 33 51 60 51c29 0 46 -23 40 -51s-33 -50 -61 -50c-27 0 -45 22 -39 50z" />
    <glyph glyph-name="gdotaccent" unicode="&#x121;" horiz-adv-x="471" 
d="M46 -148c-2 74 115 98 199 157c-14 -6 -30 -9 -47 -9c-106 0 -150 80 -132 190c22 145 133 255 277 255c37 0 71 -15 91 -34c21 5 51 19 73 34h4l-96 -446c-11 -53 -27 -96 -57 -135c-41 -51 -112 -87 -177 -87c-49 0 -134 12 -135 75zM165 231c-21 -87 -16 -196 64 -194
c60 1 114 79 134 131l43 200c-5 36 -24 59 -67 59c-82 0 -155 -110 -174 -196zM134 -110c-30 -41 -15 -96 54 -96c93 -1 119 116 135 190l28 129c-55 -112 -172 -164 -217 -223zM356 497c-27 0 -45 23 -39 50c6 28 33 51 61 51s45 -23 39 -51c-6 -27 -33 -50 -61 -50z" />
    <glyph glyph-name="uni0122" unicode="&#x122;" horiz-adv-x="660" 
d="M110 330c43 199 206 334 403 334c81 0 135 -16 183 -59l-74 -133h-2c15 104 -26 172 -116 173c-148 1 -258 -108 -296 -289c-17 -80 -13 -154 12 -212c33 -72 100 -117 204 -120c26 -1 53 4 79 13l45 212c10 48 -18 73 -58 89v2h197l-1 -2c-33 -18 -48 -47 -57 -89
l-43 -203c-79 -35 -147 -46 -232 -46c-97 0 -175 34 -216 96c-38 58 -48 137 -28 234zM323 -156c-28 -1 -47 21 -39 52c6 27 33 50 62 50c30 0 46 -23 41 -53c-9 -46 -58 -89 -92 -111l-10 8c24 19 42 37 55 56c-6 -2 -11 -2 -17 -2z" />
    <glyph glyph-name="uni0123" unicode="&#x123;" horiz-adv-x="471" 
d="M46 -148c-2 74 115 98 199 157c-14 -6 -30 -9 -47 -9c-106 0 -150 80 -132 190c22 145 133 255 277 255c37 0 71 -15 91 -34c21 5 51 19 73 34h4l-96 -446c-11 -53 -27 -96 -57 -135c-41 -51 -112 -87 -177 -87c-49 0 -134 12 -135 75zM165 231c-21 -87 -16 -196 64 -194
c60 1 114 79 134 131l43 200c-5 36 -24 59 -67 59c-82 0 -155 -110 -174 -196zM134 -110c-30 -41 -15 -96 54 -96c93 -1 119 116 135 190l28 129c-55 -112 -172 -164 -217 -223zM158 -356c-28 0 -47 21 -40 52c7 27 34 50 62 50c31 0 47 -23 41 -53c-8 -46 -58 -89 -91 -110
l-10 7c24 19 42 37 55 56c-6 -1 -11 -2 -17 -2z" />
    <glyph glyph-name="Jcircumflex" unicode="&#x134;" horiz-adv-x="367" 
d="M141 0c-57 -1 -100 8 -128 31l29 126h2c17 -101 46 -142 87 -140c74 4 92 98 109 175l78 367c11 56 -1 78 -22 97l1 2h167v-2c-29 -20 -41 -43 -53 -99l-77 -362c-23 -108 -66 -194 -193 -195zM276 697l122 128l71 -9l25 -119h-10l-69 72l-128 -72h-11z" />
    <glyph glyph-name="jcircumflex" unicode="&#x135;" horiz-adv-x="214" 
d="M-18 -205l1 6c57 37 79 110 95 183l74 348c12 53 -3 66 -19 67c-29 1 -55 -48 -65 -79l-7 2c22 76 57 123 115 123c68 0 74 -65 63 -115l-71 -331c-25 -112 -70 -176 -186 -204zM88 497h-7l122 127l71 -8l26 -119h-8l-72 72z" />
    <glyph glyph-name="uni0136" unicode="&#x136;" horiz-adv-x="563" 
d="M186 6h-167v3c28 19 41 42 53 98l96 450c12 56 9 79 -11 99v2h167v-2c-29 -19 -51 -41 -63 -97l-54 -256l235 201c58 48 105 112 70 152v2h133v-2l-298 -254l146 -309c10 -23 31 -66 49 -85v-1h-158v1c17 23 19 45 9 68l-123 259l-68 -56l-37 -173c-12 -56 1 -78 21 -98
v-2zM260 -156c-28 -1 -47 21 -40 52c7 27 34 50 62 50c31 0 47 -23 41 -53c-9 -46 -58 -89 -92 -111l-9 8c24 19 41 37 54 56c-5 -2 -11 -2 -16 -2z" />
    <glyph glyph-name="uni0137" unicode="&#x137;" horiz-adv-x="495" 
d="M57 7l124 572c6 29 6 58 -32 76v2c43 2 109 19 143 40h2l-105 -490l166 135c26 20 52 54 57 94v2h108l-1 -2c-45 -48 -98 -78 -131 -98l-70 -47l78 -177c22 -49 35 -59 50 -59c29 -1 57 60 68 89l7 -1c-25 -79 -58 -143 -122 -143c-44 0 -63 27 -87 84l-67 154l-61 -53
l-38 -178h-89zM235 -156c-28 -1 -47 21 -39 52c6 27 33 50 62 50c30 0 46 -23 41 -53c-9 -46 -58 -89 -92 -111l-10 8c24 19 42 37 55 56c-6 -2 -11 -2 -17 -2z" />
    <glyph glyph-name="kgreenlandic" unicode="&#x138;" horiz-adv-x="447" 
d="M157 568h90l-58 -269l277 269h71l-275 -265l183 -297h-112l-152 251l-54 -250h-90z" />
    <glyph glyph-name="Lacute" unicode="&#x139;" horiz-adv-x="482" 
d="M19 6v2c28 20 41 43 53 99l95 450c12 56 10 79 -10 99v2h160v-2c-29 -20 -45 -43 -57 -99l-113 -534h129c56 0 119 11 196 107h2l-28 -123zM231 697l109 133l54 -55l-156 -78h-7z" />
    <glyph glyph-name="lacute" unicode="&#x13a;" horiz-adv-x="254" 
d="M81 101l103 478c6 29 6 58 -32 76v2c43 2 108 19 142 40h3l-125 -578c-11 -52 2 -65 23 -66c29 0 59 62 70 91l7 -1c-25 -79 -62 -143 -125 -143c-56 0 -79 39 -66 101zM215 697h-7l109 133l55 -55z" />
    <glyph glyph-name="uni013B" unicode="&#x13b;" horiz-adv-x="482" 
d="M19 6v2c28 20 41 43 53 99l95 450c12 56 10 79 -10 99v2h160v-2c-29 -20 -45 -43 -57 -99l-113 -534h129c56 0 119 11 196 107h2l-28 -123zM213 -156c-29 -1 -47 21 -40 52c6 27 34 50 62 50c31 0 47 -23 41 -53c-9 -46 -58 -89 -92 -111l-9 8c24 19 41 37 54 56
c-5 -2 -11 -2 -16 -2z" />
    <glyph glyph-name="uni013C" unicode="&#x13c;" horiz-adv-x="254" 
d="M81 101l103 478c6 29 6 58 -32 76v2c43 2 108 19 142 40h3l-125 -578c-11 -52 2 -65 23 -66c29 0 59 62 70 91l7 -1c-25 -79 -62 -143 -125 -143c-56 0 -79 39 -66 101z" />
    <glyph glyph-name="Lcaron" unicode="&#x13d;" horiz-adv-x="482" 
d="M19 8c28 20 41 43 53 99l95 450c12 56 10 79 -10 99v2h160v-2c-29 -20 -45 -43 -57 -99l-113 -534h129c56 0 119 11 196 107h2l-28 -123l-427 -1v2zM192 818h11l71 -59l112 59h10l-129 -121h-26z" />
    <glyph glyph-name="lcaron" unicode="&#x13e;" horiz-adv-x="254" 
d="M81 101l103 478c6 29 6 58 -32 76v2c43 2 108 19 142 40h3l-125 -578c-11 -52 2 -65 23 -66c29 0 59 62 70 91l7 -1c-25 -79 -62 -143 -125 -143c-56 0 -79 39 -66 101zM233 697l-49 121h11l71 -59l112 59h11l-130 -121h-26z" />
    <glyph glyph-name="Ldot" unicode="&#x13f;" horiz-adv-x="490" 
d="M446 7l-427 -1v2c28 20 41 43 53 99l95 450c12 56 10 79 -10 99v2h160v-2c-29 -20 -45 -43 -57 -99l-113 -534h129c56 0 119 11 196 107h2zM353 223c-33 0 -53 27 -46 61s39 61 72 61c35 0 55 -27 48 -61s-39 -61 -74 -61z" />
    <glyph glyph-name="ldot" unicode="&#x140;" horiz-adv-x="344" 
d="M81 101l103 478c6 29 6 58 -32 76v2c43 2 108 19 142 40h3l-125 -578c-11 -52 2 -65 23 -66c29 0 59 62 70 91l7 -1c-25 -79 -62 -143 -125 -143c-56 0 -79 39 -66 101zM274 314c8 34 39 61 73 61s54 -27 47 -61s-39 -61 -73 -61c-33 0 -54 27 -47 61z" />
    <glyph glyph-name="Lslash" unicode="&#x141;" horiz-adv-x="485" 
d="M449 7l-427 -1v2c29 20 42 43 53 99l38 175l-68 -17l4 21l68 16l54 255c12 56 10 79 -11 99l1 2h160l-1 -2c-28 -20 -44 -43 -56 -99l-50 -235l129 31l-4 -20l-129 -31l-59 -279h128c56 0 120 11 197 107h1z" />
    <glyph glyph-name="lslash" unicode="&#x142;" horiz-adv-x="255" 
d="M64 265l4 21l56 13l60 280c6 29 6 58 -32 76v2c43 2 108 19 142 40h3l-82 -379l96 23l-4 -21l-96 -22l-39 -179c-11 -52 2 -65 23 -66c29 0 59 62 70 91l7 -1c-25 -79 -62 -143 -125 -143c-56 0 -79 39 -66 101l38 178z" />
    <glyph glyph-name="Nacute" unicode="&#x143;" horiz-adv-x="586" 
d="M16 6v2c28 18 54 62 64 109l94 440c12 56 3 79 -17 99v2h115l243 -546l92 429c12 56 -8 95 -38 114v2l120 1v-2c-28 -18 -54 -62 -64 -109l-115 -544l-48 1l-263 591l-100 -467c-12 -57 10 -100 41 -120v-2h-124zM387 697l110 133l54 -55l-156 -78h-8z" />
    <glyph glyph-name="nacute" unicode="&#x144;" 
d="M176 445c66 0 69 -64 60 -115c31 44 99 115 192 115c39 0 70 -10 88 -31c21 -25 24 -63 14 -114l-37 -181c-11 -52 0 -65 22 -66c29 0 59 62 70 91l6 -1c-25 -79 -62 -143 -125 -143c-55 0 -79 39 -66 101l42 195c6 29 3 57 -12 76c-10 14 -28 22 -53 23
c-60 2 -136 -63 -150 -128l-55 -260h-88l68 326c11 53 -3 65 -20 66c-28 1 -54 -48 -64 -79l-7 2c22 76 55 123 115 123zM306 507h-7l109 133l55 -55z" />
    <glyph glyph-name="uni0145" unicode="&#x145;" horiz-adv-x="586" 
d="M16 6v2c28 18 54 62 64 109l94 440c12 56 3 79 -17 99v2h115l243 -546l92 429c12 56 -8 95 -38 114v2l120 1v-2c-28 -18 -54 -62 -64 -109l-115 -544l-48 1l-263 591l-100 -467c-12 -57 10 -100 41 -120v-2h-124zM248 -156c-28 -1 -47 21 -40 52c7 27 34 50 62 50
c31 0 47 -23 41 -53c-9 -46 -58 -89 -92 -111l-9 8c24 19 41 37 55 56c-6 -2 -12 -2 -17 -2z" />
    <glyph glyph-name="uni0146" unicode="&#x146;" 
d="M176 445c66 0 69 -64 60 -115c31 44 99 115 192 115c39 0 70 -10 88 -31c21 -25 24 -63 14 -114l-37 -181c-11 -52 0 -65 22 -66c29 0 59 62 70 91l6 -1c-25 -79 -62 -143 -125 -143c-55 0 -79 39 -66 101l42 195c6 29 3 57 -12 76c-10 14 -28 22 -53 23
c-60 2 -136 -63 -150 -128l-55 -260h-88l68 326c11 53 -3 65 -20 66c-28 1 -54 -48 -64 -79l-7 2c22 76 55 123 115 123zM257 -156c-29 -1 -47 21 -40 52c6 27 34 50 62 50c31 0 46 -23 41 -53c-9 -46 -58 -89 -92 -111l-9 8c24 19 41 37 54 56c-5 -2 -11 -2 -16 -2z" />
    <glyph glyph-name="Ncaron" unicode="&#x147;" horiz-adv-x="586" 
d="M140 6h-124v2c28 18 54 62 64 109l94 440c12 56 3 79 -17 99v2h115l243 -546l92 429c12 56 -8 95 -38 114v2l120 1v-2c-28 -18 -54 -62 -64 -109l-115 -544l-48 1l-263 591l-100 -467c-12 -57 10 -100 41 -120v-2zM376 825h10l69 -73l128 73h11l-121 -128l-71 8z" />
    <glyph glyph-name="ncaron" unicode="&#x148;" 
d="M176 445c66 0 69 -64 60 -115c31 44 99 115 192 115c39 0 70 -10 88 -31c21 -25 24 -63 14 -114l-37 -181c-11 -52 0 -65 22 -66c29 0 59 62 70 91l6 -1c-25 -79 -62 -143 -125 -143c-55 0 -79 39 -66 101l42 195c6 29 3 57 -12 76c-10 14 -28 22 -53 23
c-60 2 -136 -63 -150 -128l-55 -260h-88l68 326c11 53 -3 65 -20 66c-28 1 -54 -48 -64 -79l-7 2c22 76 55 123 115 123zM288 625h8l72 -73l132 73h7l-122 -128l-71 9z" />
    <glyph glyph-name="napostrophe" unicode="&#x149;" 
d="M176 445c66 0 69 -64 60 -115c31 44 99 115 192 115c39 0 70 -10 88 -31c21 -25 24 -63 14 -114l-37 -181c-11 -52 0 -65 22 -66c29 0 59 62 70 91l6 -1c-25 -79 -62 -143 -125 -143c-55 0 -79 39 -66 101l42 195c6 29 3 57 -12 76c-10 14 -28 22 -53 23
c-60 2 -136 -63 -150 -128l-55 -260h-88l68 326c11 53 -3 65 -20 66c-28 1 -54 -48 -64 -79l-7 2c22 76 55 123 115 123zM134 671c6 27 34 50 62 50c31 0 47 -23 41 -53c-9 -46 -54 -89 -88 -111l-13 8c24 19 41 37 54 56c-5 -1 -11 -2 -16 -2c-29 0 -47 21 -40 52z" />
    <glyph glyph-name="Omacron" unicode="&#x14c;" horiz-adv-x="701" 
d="M100 240c0 214 154 424 376 424c148 0 241 -85 241 -237c0 -214 -156 -427 -378 -427c-148 0 -239 89 -239 240zM195 233c0 -115 41 -211 169 -211c191 0 258 249 258 408c0 116 -43 212 -171 212c-193 0 -256 -250 -256 -409zM631 697h-319l4 20h319z" />
    <glyph glyph-name="omacron" unicode="&#x14d;" horiz-adv-x="507" 
d="M73 167c0 149 114 278 265 278c102 0 181 -55 181 -165c0 -148 -117 -280 -267 -280c-103 0 -179 58 -179 167zM321 428c-119 0 -157 -181 -157 -275c0 -69 25 -136 105 -136c118 0 158 179 158 274c0 70 -26 137 -106 137zM444 497h-234l4 21h234z" />
    <glyph glyph-name="Obreve" unicode="&#x14e;" horiz-adv-x="701" 
d="M100 240c0 214 154 424 376 424c148 0 241 -85 241 -237c0 -214 -156 -427 -378 -427c-148 0 -239 89 -239 240zM195 233c0 -115 41 -211 169 -211c191 0 258 249 258 408c0 116 -43 212 -171 212c-193 0 -256 -250 -256 -409zM499 697c-79 0 -101 48 -83 119h2
c14 -49 53 -54 94 -54c43 0 84 3 118 54h2c-18 -71 -50 -119 -133 -119z" />
    <glyph glyph-name="obreve" unicode="&#x14f;" horiz-adv-x="507" 
d="M73 167c0 149 114 278 265 278c102 0 181 -55 181 -165c0 -148 -117 -280 -267 -280c-103 0 -179 58 -179 167zM164 153c0 -69 25 -136 105 -136c118 0 158 179 158 274c0 70 -26 137 -106 137c-119 0 -157 -181 -157 -275zM345 497c-78 0 -100 48 -82 119h2
c14 -49 53 -54 94 -54c43 0 84 3 117 54h3c-18 -71 -50 -119 -134 -119z" />
    <glyph glyph-name="Ohungarumlaut" unicode="&#x150;" horiz-adv-x="701" 
d="M100 240c0 214 154 424 376 424c148 0 241 -85 241 -237c0 -214 -156 -427 -378 -427c-148 0 -239 89 -239 240zM451 642c-193 0 -256 -250 -256 -409c0 -115 41 -211 169 -211c191 0 258 249 258 408c0 116 -43 212 -171 212zM375 697h-7l109 133l54 -55zM520 697h-8
l110 133l54 -55z" />
    <glyph glyph-name="ohungarumlaut" unicode="&#x151;" horiz-adv-x="507" 
d="M73 167c0 149 114 278 265 278c102 0 181 -55 181 -165c0 -148 -117 -280 -267 -280c-103 0 -179 58 -179 167zM321 428c-119 0 -157 -181 -157 -275c0 -69 25 -136 105 -136c118 0 158 179 158 274c0 70 -26 137 -106 137zM207 497h-8l110 133l54 -55zM351 497h-7
l110 133l54 -55z" />
    <glyph glyph-name="Racute" unicode="&#x154;" horiz-adv-x="554" 
d="M186 6l-167 1v2c29 20 41 42 53 98l96 450c12 56 9 79 -11 99v2h217c67 0 142 -14 187 -55c33 -30 52 -74 37 -145c-24 -113 -102 -161 -185 -180l122 -269v-3h-137l1 2c7 16 12 39 5 55l-90 201h-116l-33 -158c-12 -56 1 -78 21 -98v-2zM278 641l-76 -360h83
c111 0 191 62 214 171c29 134 -42 189 -178 189h-43zM346 697l109 133l55 -55l-157 -78h-7z" />
    <glyph glyph-name="racute" unicode="&#x155;" horiz-adv-x="383" 
d="M68 320l-7 2c23 76 55 123 115 123c67 0 72 -74 59 -133c40 73 111 133 174 133c13 0 30 -2 43 -12l-49 -113h-1c-9 32 -35 46 -65 46c-55 -1 -105 -76 -116 -128l-48 -231h-89l68 326c11 53 -3 65 -19 66c-29 1 -55 -48 -65 -79zM232 497h-8l110 133l54 -55z" />
    <glyph glyph-name="uni0156" unicode="&#x156;" horiz-adv-x="554" 
d="M186 6l-167 1v2c29 20 41 42 53 98l96 450c12 56 9 79 -11 99v2h217c67 0 142 -14 187 -55c33 -30 52 -74 37 -145c-24 -113 -102 -161 -185 -180l122 -269v-3h-137l1 2c7 16 12 39 5 55l-90 201h-116l-33 -158c-12 -56 1 -78 21 -98v-2zM202 281h83
c111 0 191 62 214 171c29 134 -42 189 -178 189h-43zM243 -156c-29 -1 -48 21 -40 52c6 27 33 50 62 50c30 0 46 -23 41 -53c-9 -46 -58 -89 -92 -111l-9 8c23 19 41 37 54 56c-6 -2 -11 -2 -16 -2z" />
    <glyph glyph-name="uni0157" unicode="&#x157;" horiz-adv-x="383" 
d="M176 445c67 0 72 -74 59 -133c40 73 111 133 174 133c13 0 30 -2 43 -12l-49 -113h-1c-9 32 -35 46 -65 46c-55 -1 -105 -76 -116 -128l-48 -231h-89l68 326c11 53 -3 65 -19 66c-29 1 -55 -48 -65 -79l-7 2c23 76 55 123 115 123zM100 -156c-28 -1 -47 21 -40 52
c7 27 34 50 62 50c31 0 47 -23 41 -53c-8 -46 -58 -89 -91 -111l-10 8c24 19 42 37 55 56c-6 -2 -11 -2 -17 -2z" />
    <glyph glyph-name="Rcaron" unicode="&#x158;" horiz-adv-x="575" 
d="M186 6l-167 1v2c29 20 41 42 53 98l96 450c12 56 9 79 -11 99v2h217c67 0 142 -14 187 -55c33 -30 52 -74 37 -145c-24 -113 -102 -161 -185 -180l122 -269v-3h-137l1 2c7 16 12 39 5 55l-90 201h-116l-33 -158c-12 -56 1 -78 21 -98v-2zM278 641l-76 -360h83
c111 0 191 62 214 171c29 134 -42 189 -178 189h-43zM363 706l-25 119h10l69 -72l127 72h12l-122 -128z" />
    <glyph glyph-name="rcaron" unicode="&#x159;" horiz-adv-x="383" 
d="M68 320l-7 2c23 76 55 123 115 123c67 0 72 -74 59 -133c40 73 111 133 174 133c13 0 30 -2 43 -12l-49 -113h-1c-9 32 -35 46 -65 46c-55 -1 -105 -76 -116 -128l-48 -231h-89l68 326c11 53 -3 65 -19 66c-29 1 -55 -48 -65 -79zM214 625h8l72 -73l132 73h7l-122 -128
l-71 9z" />
    <glyph glyph-name="Sacute" unicode="&#x15a;" horiz-adv-x="519" 
d="M246 -1c-73 0 -143 16 -200 45l36 167h3c9 -115 49 -193 162 -195c82 -2 161 40 179 126c16 79 -38 115 -105 146c-93 43 -208 77 -183 195c24 113 150 181 257 181c82 0 126 -9 189 -48l-49 -117h-2c-3 96 -66 146 -147 147c-67 2 -147 -37 -166 -108
c-25 -97 67 -127 152 -165c55 -25 105 -48 131 -93c32 -57 12 -142 -45 -197c-60 -59 -136 -84 -212 -84zM352 697h-8l110 133l54 -55z" />
    <glyph glyph-name="sacute" unicode="&#x15b;" horiz-adv-x="376" 
d="M42 34l27 122h2c8 -73 48 -140 132 -140c44 0 92 19 103 67c11 46 -33 69 -85 92c-66 29 -135 60 -122 136c14 89 119 134 200 134c53 0 85 -9 127 -33l-35 -99h-2c-8 61 -40 115 -112 115c-43 0 -93 -22 -103 -67c-14 -61 44 -87 105 -111c62 -26 113 -59 104 -122
c-11 -88 -114 -128 -192 -128c-56 0 -104 10 -149 34zM223 497l110 133l54 -55l-156 -78h-8z" />
    <glyph glyph-name="Scircumflex" unicode="&#x15c;" horiz-adv-x="518" 
d="M246 -1c-73 0 -143 16 -200 45l36 167h3c9 -115 49 -193 162 -195c82 -2 161 40 179 126c16 79 -38 115 -105 146c-93 43 -208 77 -183 195c24 113 150 181 257 181c82 0 126 -9 189 -48l-49 -117h-2c-3 96 -66 147 -147 148c-67 2 -147 -37 -166 -109
c-25 -97 67 -127 152 -165c55 -25 105 -48 131 -93c32 -57 12 -142 -45 -197c-60 -59 -136 -84 -212 -84zM298 697l122 128l71 -9l26 -119h-10l-70 72l-127 -72h-12z" />
    <glyph glyph-name="scircumflex" unicode="&#x15d;" horiz-adv-x="376" 
d="M191 0c-56 0 -104 10 -149 34l27 122h2c8 -73 48 -140 132 -140c44 0 92 19 103 67c11 46 -33 69 -85 92c-66 29 -135 60 -122 136c14 89 119 134 200 134c53 0 85 -9 127 -33l-35 -99h-2c-8 61 -40 115 -112 115c-43 0 -93 -22 -103 -67c-14 -61 44 -87 105 -111
c62 -26 113 -59 104 -122c-11 -88 -114 -128 -192 -128zM195 497h-7l122 127l71 -8l26 -119h-8l-72 72z" />
    <glyph glyph-name="Scedilla" unicode="&#x15e;" horiz-adv-x="518" 
d="M46 44l36 167h3c9 -115 49 -193 162 -195c82 -2 161 40 179 126c16 79 -38 115 -105 146c-93 43 -208 77 -183 195c24 113 150 181 257 181c82 0 126 -9 189 -48l-49 -117h-2c-3 96 -66 147 -147 148c-67 2 -147 -37 -166 -109c-25 -97 67 -127 152 -165
c55 -25 105 -48 131 -93c32 -57 12 -142 -45 -197c-60 -59 -136 -84 -212 -84c-14 0 -28 0 -41 1l-12 -19c22 6 40 7 56 7c71 -1 102 -45 89 -103c-15 -71 -75 -108 -150 -108c-38 0 -75 11 -97 31l51 91h1c-24 -76 6 -106 39 -106c54 -1 85 48 93 89c12 57 -13 87 -54 88
c-15 1 -30 -2 -45 -10l-7 5l16 37c-51 7 -98 21 -139 42z" />
    <glyph glyph-name="scedilla" unicode="&#x15f;" horiz-adv-x="376" 
d="M107 -223c-38 0 -74 11 -97 31l51 91h1c-23 -76 6 -106 39 -106c54 -1 85 48 94 89c11 57 -13 87 -55 88c-15 1 -30 -2 -45 -10l-7 5l19 44c-23 6 -44 14 -65 25l27 122h2c8 -73 48 -140 132 -140c44 0 92 19 103 67c11 46 -33 69 -85 92c-66 29 -135 60 -122 136
c14 89 119 134 200 134c53 0 85 -9 127 -33l-35 -99h-2c-8 61 -40 115 -112 115c-43 0 -93 -22 -103 -67c-14 -61 44 -87 105 -111c62 -26 113 -59 104 -122c-11 -88 -114 -128 -192 -128c-22 0 -43 2 -63 5l-16 -24c22 6 40 7 56 7c71 -1 102 -45 90 -103
c-16 -71 -76 -108 -151 -108z" />
    <glyph glyph-name="Scaron" unicode="&#x160;" horiz-adv-x="518" 
d="M246 -1c-73 0 -143 16 -200 45l36 167h3c9 -115 49 -193 162 -195c82 -2 161 40 179 126c16 79 -38 115 -105 146c-93 43 -208 77 -183 195c24 113 150 181 257 181c82 0 126 -9 189 -48l-49 -117h-2c-3 96 -66 147 -147 148c-67 2 -147 -37 -166 -109
c-25 -97 67 -127 152 -165c55 -25 105 -48 131 -93c32 -57 12 -142 -45 -197c-60 -59 -136 -84 -212 -84zM337 708l-25 119h10l69 -72l128 72h11l-121 -127z" />
    <glyph glyph-name="scaron" unicode="&#x161;" horiz-adv-x="376" 
d="M191 0c-56 0 -104 10 -149 34l27 122h2c8 -73 48 -140 132 -140c44 0 92 19 103 67c11 46 -33 69 -85 92c-66 29 -135 60 -122 136c14 89 119 134 200 134c53 0 85 -9 127 -33l-35 -99h-2c-8 61 -40 115 -112 115c-43 0 -93 -22 -103 -67c-14 -61 44 -87 105 -111
c62 -26 113 -59 104 -122c-11 -88 -114 -128 -192 -128zM223 506l-26 119h8l72 -73l132 73h7l-122 -128z" />
    <glyph glyph-name="uni0162" unicode="&#x162;" horiz-adv-x="555" 
d="M133 530h-2l27 128h502l-24 -129l-2 1c-36 85 -90 111 -148 111h-34l-114 -534c-12 -56 -6 -79 14 -98v-3h-61l-16 -37c59 8 100 -26 88 -82c-11 -52 -63 -104 -152 -104c-26 0 -43 3 -73 12l2 9c82 -9 142 23 154 72c10 38 -1 69 -49 69l24 61l-77 1v2
c29 19 41 42 53 98l113 534h-34c-66 0 -124 -25 -191 -111z" />
    <glyph glyph-name="uni0163" unicode="&#x163;" horiz-adv-x="262" 
d="M7 -205l2 8c81 -9 142 24 154 73c10 38 -1 69 -49 69l21 56c-44 7 -63 44 -51 100l69 322h-65l4 15h64l22 103c26 2 67 10 91 27h2l-27 -130h86l-3 -15h-86l-64 -304c-12 -52 0 -65 21 -66c30 0 59 62 71 91l6 -1c-24 -77 -59 -139 -118 -143l-13 -31
c59 8 100 -26 88 -82c-11 -52 -63 -104 -152 -104c-26 0 -43 3 -73 12z" />
    <glyph glyph-name="Tcaron" unicode="&#x164;" horiz-adv-x="555" 
d="M131 530l27 128h502l-24 -129l-2 1c-36 85 -90 111 -148 111h-34l-114 -534c-12 -56 -6 -79 14 -98v-3l-160 1v2c29 19 41 42 53 98l113 534h-34c-66 0 -124 -25 -191 -111h-2zM376 705l-26 120h10l69 -73l128 73h11l-121 -128z" />
    <glyph glyph-name="tcaron" unicode="&#x165;" horiz-adv-x="276" 
d="M149 0c-56 0 -79 39 -66 101l68 322h-64l3 15h64l22 103c27 2 67 10 91 27h3l-27 -130h85l-3 -15h-86l-64 -304c-11 -52 1 -65 22 -66c29 0 59 62 70 91l6 -1c-24 -79 -61 -143 -124 -143zM288 510l35 155h88l-117 -155h-6z" />
    <glyph glyph-name="Tbar" unicode="&#x166;" horiz-adv-x="555" 
d="M133 530h-2l27 128h502l-24 -129l-2 1c-36 85 -90 111 -148 111h-34l-66 -309h157l-4 -21h-157l-44 -204c-12 -56 -6 -79 14 -98v-3l-160 1v2c29 19 41 42 53 98l43 204h-135l4 21h136l65 309h-34c-66 0 -124 -25 -191 -111z" />
    <glyph glyph-name="tbar" unicode="&#x167;" horiz-adv-x="252" 
d="M149 0c-56 0 -79 39 -66 101l68 322h-64l3 15h64l22 103c27 2 67 10 91 27h3l-27 -130h85l-3 -15h-86l-64 -304c-11 -52 1 -65 22 -66c29 0 59 62 70 91l6 -1c-24 -79 -61 -143 -124 -143zM157 637l5 21h217l-5 -21h-217z" />
    <glyph glyph-name="Utilde" unicode="&#x168;" horiz-adv-x="589" 
d="M300 0c-146 0 -227 76 -190 245l66 312c12 56 9 79 -11 99v2h164v-2c-29 -20 -48 -43 -60 -99l-68 -323c-29 -134 27 -208 137 -206c102 3 190 72 220 213l64 300c12 57 -8 95 -39 115v2h122l-1 -2c-28 -18 -53 -62 -63 -109l-66 -311c-30 -141 -127 -236 -275 -236z
M324 708c13 54 53 100 107 96c24 -2 41 -14 63 -25c18 -8 38 -16 66 -16c31 0 49 16 59 41l4 -1c-12 -56 -42 -106 -104 -106c-26 0 -48 12 -69 23s-43 22 -65 23c-21 0 -41 -7 -55 -35h-6z" />
    <glyph glyph-name="utilde" unicode="&#x169;" horiz-adv-x="541" 
d="M68 320l-7 2c22 76 55 123 115 123c71 0 74 -65 63 -115l-40 -183c-10 -49 1 -100 60 -101c47 -2 112 56 126 121l58 271h89l-69 -319c-11 -52 0 -65 22 -66c29 0 59 62 70 91l6 -1c-25 -79 -62 -143 -125 -143c-62 0 -70 59 -62 104c-29 -44 -76 -104 -160 -104
c-40 0 -70 10 -88 31c-21 25 -26 63 -14 114l40 188c11 52 -3 65 -20 66c-29 1 -54 -48 -64 -79zM301 604c24 -2 41 -14 63 -25c18 -8 38 -16 66 -16c31 0 49 16 59 41l4 -1c-12 -56 -43 -106 -104 -106c-26 0 -48 12 -69 23s-43 22 -65 23c-21 0 -41 -7 -55 -35h-6
c13 54 53 100 107 96z" />
    <glyph glyph-name="Umacron" unicode="&#x16a;" horiz-adv-x="589" 
d="M300 0c-146 0 -227 76 -190 245l66 312c12 56 9 79 -11 99v2h164v-2c-29 -20 -48 -43 -60 -99l-68 -323c-29 -134 27 -208 137 -206c102 3 190 72 220 213l64 300c12 57 -8 95 -39 115v2h122l-1 -2c-28 -18 -53 -62 -63 -109l-66 -311c-30 -141 -127 -236 -275 -236z
M294 697l5 20h268l-5 -20h-268z" />
    <glyph glyph-name="umacron" unicode="&#x16b;" horiz-adv-x="540" 
d="M61 322c22 76 55 123 115 123c71 0 74 -65 63 -115l-40 -183c-10 -49 1 -100 60 -101c47 -2 112 56 126 121l58 271h89l-69 -319c-11 -52 0 -65 22 -66c29 0 59 62 70 91l6 -1c-25 -79 -62 -143 -125 -143c-62 0 -70 59 -62 104c-29 -44 -76 -104 -160 -104
c-40 0 -70 10 -88 31c-21 25 -26 63 -14 114l40 188c11 52 -3 65 -20 66c-29 1 -54 -48 -64 -79zM217 497l5 21h233l-5 -21h-233z" />
    <glyph glyph-name="Ubreve" unicode="&#x16c;" horiz-adv-x="590" 
d="M300 0c-146 0 -227 76 -190 245l66 312c12 56 9 79 -11 99v2h164v-2c-29 -20 -48 -43 -60 -99l-68 -323c-29 -134 27 -208 137 -206c102 3 190 72 220 213l64 300c12 57 -8 95 -39 115v2h122l-1 -2c-28 -18 -53 -62 -63 -109l-66 -311c-30 -141 -127 -236 -275 -236z
M475 697c-78 0 -100 48 -82 119h2c14 -49 53 -54 94 -54c43 0 84 3 117 54h3c-18 -71 -50 -119 -134 -119z" />
    <glyph glyph-name="ubreve" unicode="&#x16d;" horiz-adv-x="540" 
d="M68 320l-7 2c22 76 55 123 115 123c71 0 74 -65 63 -115l-40 -183c-10 -49 1 -100 60 -101c47 -2 112 56 126 121l58 271h89l-69 -319c-11 -52 0 -65 22 -66c29 0 59 62 70 91l6 -1c-25 -79 -62 -143 -125 -143c-62 0 -70 59 -62 104c-29 -44 -76 -104 -160 -104
c-40 0 -70 10 -88 31c-21 25 -26 63 -14 114l40 188c11 52 -3 65 -20 66c-29 1 -54 -48 -64 -79zM251 616h2c14 -49 53 -54 94 -54c43 0 84 3 118 54h2c-18 -71 -50 -119 -134 -119c-78 0 -100 48 -82 119z" />
    <glyph glyph-name="Uring" unicode="&#x16e;" horiz-adv-x="589" 
d="M300 0c-146 0 -227 76 -190 245l66 312c12 56 9 79 -11 99v2h164v-2c-29 -20 -48 -43 -60 -99l-68 -323c-29 -134 27 -208 137 -206c102 3 190 72 220 213l64 300c12 57 -8 95 -39 115v2h122l-1 -2c-28 -18 -53 -62 -63 -109l-66 -311c-30 -141 -127 -236 -275 -236z
M432 697c-62 0 -102 37 -90 94c12 56 66 96 131 96c64 -1 105 -38 93 -95s-70 -95 -134 -95zM405 791c-8 -35 -5 -81 30 -81s60 44 68 82c8 35 3 82 -33 82c-34 0 -58 -47 -65 -83z" />
    <glyph glyph-name="uring" unicode="&#x16f;" horiz-adv-x="541" 
d="M68 320l-7 2c22 76 55 123 115 123c71 0 74 -65 63 -115l-40 -183c-10 -49 1 -100 60 -101c47 -2 112 56 126 121l58 271h89l-69 -319c-11 -52 0 -65 22 -66c29 0 59 62 70 91l6 -1c-25 -79 -62 -143 -125 -143c-62 0 -70 59 -62 104c-29 -44 -76 -104 -160 -104
c-40 0 -70 10 -88 31c-21 25 -26 63 -14 114l40 188c11 52 -3 65 -20 66c-29 1 -54 -48 -64 -79zM227 591c12 56 66 96 131 96c64 0 105 -38 93 -95s-70 -95 -134 -95c-62 0 -102 37 -90 94zM320 510c36 0 61 45 68 82c8 35 3 82 -32 82s-58 -46 -66 -83
c-7 -35 -5 -81 30 -81z" />
    <glyph glyph-name="Uhungarumlaut" unicode="&#x170;" horiz-adv-x="589" 
d="M300 0c-146 0 -227 76 -190 245l66 312c12 56 9 79 -11 99v2h164v-2c-29 -20 -48 -43 -60 -99l-68 -323c-29 -134 27 -208 137 -206c102 3 190 72 220 213l64 300c12 57 -8 95 -39 115v2h122l-1 -2c-28 -18 -53 -62 -63 -109l-66 -311c-30 -141 -127 -236 -275 -236z
M445 697l109 133l54 -55l-156 -78h-7zM308 697h-8l110 133l54 -55z" />
    <glyph glyph-name="uhungarumlaut" unicode="&#x171;" horiz-adv-x="540" 
d="M68 320l-7 2c22 76 55 123 115 123c71 0 74 -65 63 -115l-40 -183c-10 -49 1 -100 60 -101c47 -2 112 56 126 121l58 271h89l-69 -319c-11 -52 0 -65 22 -66c29 0 59 62 70 91l6 -1c-25 -79 -62 -143 -125 -143c-62 0 -70 59 -62 104c-29 -44 -76 -104 -160 -104
c-40 0 -70 10 -88 31c-21 25 -26 63 -14 114l40 188c11 52 -3 65 -20 66c-29 1 -54 -48 -64 -79zM464 630l54 -55l-156 -78h-8zM319 630l54 -55l-156 -78h-7z" />
    <glyph glyph-name="Uogonek" unicode="&#x172;" horiz-adv-x="589" 
d="M281 1c-136 6 -206 83 -171 244l66 312c12 56 9 79 -11 99v2h164v-2c-29 -20 -48 -43 -60 -99l-68 -323c-29 -134 27 -208 137 -206c102 3 190 72 220 213l64 300c12 57 -8 95 -39 115v2h122l-1 -2c-28 -18 -53 -62 -63 -109l-66 -311c-29 -136 -120 -231 -262 -236
c-34 -30 -65 -76 -73 -116c-8 -37 7 -58 40 -60c18 0 44 6 64 23h2c-22 -33 -58 -62 -108 -62c-49 0 -82 30 -70 88s65 102 113 128z" />
    <glyph glyph-name="uogonek" unicode="&#x173;" horiz-adv-x="541" 
d="M176 445c71 0 74 -65 63 -115l-40 -183c-10 -49 1 -100 60 -101c47 -2 112 56 126 121l58 271h89l-69 -319c-11 -52 0 -65 22 -66c29 0 59 62 70 91l6 -1c-25 -79 -62 -143 -125 -143c-62 0 -70 59 -62 104c-27 -41 -70 -98 -147 -103c-34 -31 -65 -77 -74 -117
c-8 -37 7 -58 40 -60c19 0 44 6 64 23h3c-23 -33 -59 -62 -108 -62c-50 0 -83 30 -71 88s67 102 116 128c-32 3 -56 13 -71 30c-21 25 -26 63 -14 114l40 188c11 52 -3 65 -20 66c-29 1 -54 -48 -64 -79l-7 2c22 76 55 123 115 123z" />
    <glyph glyph-name="Wcircumflex" unicode="&#x174;" horiz-adv-x="917" 
d="M157 656v2h142l-1 -2c-22 -28 -22 -47 -17 -71l84 -477l179 330l-26 160c-4 20 -16 45 -27 58v2h140v-2c-23 -28 -22 -47 -18 -71l74 -478l225 416c25 45 31 102 17 133v2h109v-2c-32 -28 -84 -95 -119 -158l-269 -492h-39l-62 404l-219 -404h-38l-108 592
c-4 20 -16 45 -27 58zM487 697h-12l122 128l71 -9l25 -119h-10l-69 72z" />
    <glyph glyph-name="wcircumflex" unicode="&#x175;" horiz-adv-x="712" 
d="M68 320l-8 2c23 76 56 123 116 123c70 0 74 -65 63 -115l-39 -183c-14 -63 4 -112 50 -112c54 -1 106 73 121 137l62 266h86l-61 -271c-11 -48 -23 -131 51 -132c34 -1 71 28 102 79c43 69 79 227 53 307v2l93 22c4 -89 -41 -242 -122 -342c-49 -61 -101 -103 -171 -103
c-63 0 -101 38 -101 102c-39 -56 -86 -102 -155 -102c-37 0 -65 11 -82 31c-21 25 -26 63 -15 114l41 188c11 52 -4 65 -20 66c-29 1 -54 -48 -64 -79zM358 497h-7l122 127l71 -8l25 -119h-8l-71 72z" />
    <glyph glyph-name="Ycircumflex" unicode="&#x176;" horiz-adv-x="609" 
d="M158 656v2h146v-2c-18 -31 -19 -49 -8 -77l121 -297l169 235c37 52 54 105 40 139v2h104v-2c-35 -30 -92 -98 -135 -158l-169 -233l-34 -158c-12 -56 -10 -79 11 -98l-1 -3h-157l1 3c28 20 41 42 52 98l30 142l-135 337c-13 31 -24 53 -35 70zM371 697h-11l122 128l71 -9
l25 -119h-10l-69 72z" />
    <glyph glyph-name="ycircumflex" unicode="&#x177;" horiz-adv-x="488" 
d="M68 320l-7 2c17 59 43 123 120 123c58 0 80 -50 97 -111l86 -304c51 88 90 188 90 307c0 31 -5 60 -14 84v2l92 22c3 -65 -19 -165 -64 -260c-54 -115 -210 -408 -355 -408c-9 0 -19 2 -27 5l26 100h2c19 -25 44 -33 67 -33c41 0 86 55 118 97l-112 387
c-14 52 -34 61 -55 60c-30 -1 -54 -42 -64 -73zM374 569l-133 -72h-6l121 127l71 -8l26 -119h-8z" />
    <glyph glyph-name="Ydieresis" unicode="&#x178;" horiz-adv-x="609" 
d="M158 656v2h146v-2c-18 -31 -19 -49 -8 -77l121 -297l169 235c37 52 54 105 40 139v2h104v-2c-35 -30 -92 -98 -135 -158l-169 -233l-34 -158c-12 -56 -10 -79 11 -98l-1 -3h-157l1 3c28 20 41 42 52 98l30 142l-135 337c-13 31 -24 53 -35 70zM502 747c5 28 32 51 60 51
s45 -23 39 -51s-32 -50 -61 -50c-27 0 -44 22 -38 50zM342 747c6 28 33 51 61 51s45 -23 39 -51s-33 -50 -61 -50c-27 0 -45 22 -39 50z" />
    <glyph glyph-name="Zacute" unicode="&#x179;" horiz-adv-x="506" 
d="M480 7h-464v2l464 632h-138c-62 0 -135 -27 -209 -111h-2l28 128h444l-465 -635h153c92 0 143 27 216 114h2zM351 697l109 133l54 -55l-156 -78h-7z" />
    <glyph glyph-name="zacute" unicode="&#x17a;" horiz-adv-x="419" 
d="M30 6h-2c1 87 99 154 202 228c56 42 126 83 161 116c-60 -5 -128 4 -170 8c-82 8 -114 -3 -128 -53h-7c2 17 5 37 8 53c13 53 40 87 106 87c58 0 124 -15 186 -16c35 0 68 -1 99 9h2c-6 -67 -133 -142 -242 -216c-66 -46 -120 -89 -142 -128c18 5 37 7 57 7
c47 0 97 -10 138 -14c70 -6 107 11 127 73h6c-5 -30 -15 -77 -25 -102c-13 -35 -40 -58 -96 -58c-57 0 -135 19 -202 20c-29 0 -52 -1 -78 -14zM228 497l109 133l54 -54l-156 -79h-7z" />
    <glyph glyph-name="Zdotaccent" unicode="&#x17b;" horiz-adv-x="506" 
d="M480 7h-464v2l464 632h-138c-62 0 -135 -27 -209 -111h-2l28 128h444l-465 -635h153c92 0 143 27 216 114h2zM399 697c-28 0 -45 22 -39 50s33 51 60 51c28 0 45 -23 39 -51c-5 -28 -32 -50 -60 -50z" />
    <glyph glyph-name="zdotaccent" unicode="&#x17c;" horiz-adv-x="419" 
d="M28 6c1 87 99 154 202 228c56 42 126 83 161 116c-60 -5 -128 4 -170 8c-82 8 -114 -3 -128 -53h-7c2 17 5 37 8 53c13 53 40 87 106 87c58 0 124 -15 186 -16c35 0 68 -1 99 9h2c-6 -67 -133 -142 -242 -216c-66 -46 -120 -89 -142 -128c18 5 37 7 57 7
c47 0 97 -10 138 -14c70 -6 107 11 127 73h6c-5 -30 -15 -77 -25 -102c-13 -35 -40 -58 -96 -58c-57 0 -135 19 -202 20c-29 0 -52 -1 -78 -14h-2zM248 547c6 28 33 51 60 51c29 0 46 -23 40 -51c-6 -27 -33 -50 -61 -50c-27 0 -45 23 -39 50z" />
    <glyph glyph-name="Zcaron" unicode="&#x17d;" horiz-adv-x="506" 
d="M480 7h-464v2l464 632h-138c-62 0 -135 -27 -209 -111h-2l28 128h444l-465 -635h153c92 0 143 27 216 114h2zM361 705l-25 120h10l69 -73l128 73h11l-122 -128z" />
    <glyph glyph-name="zcaron" unicode="&#x17e;" horiz-adv-x="419" 
d="M28 6c1 87 99 154 202 228c56 42 126 83 161 116c-60 -5 -128 4 -170 8c-82 8 -114 -3 -128 -53h-7c2 17 5 37 8 53c13 53 40 87 106 87c58 0 124 -15 186 -16c35 0 68 -1 99 9h2c-6 -67 -133 -142 -242 -216c-66 -46 -120 -89 -142 -128c18 5 37 7 57 7
c47 0 97 -10 138 -14c70 -6 107 11 127 73h6c-5 -30 -15 -77 -25 -102c-13 -35 -40 -58 -96 -58c-57 0 -135 19 -202 20c-29 0 -52 -1 -78 -14h-2zM222 625h8l71 -73l132 73h7l-122 -128l-71 9z" />
    <glyph glyph-name="uni0218" unicode="&#x218;" horiz-adv-x="517" 
d="M245 -1c-73 0 -143 16 -200 45l36 167h3c9 -115 49 -193 162 -195c82 -2 161 40 179 126c16 79 -38 115 -105 146c-93 43 -208 77 -183 195c24 113 150 181 257 181c82 0 126 -9 189 -48l-49 -117h-2c-3 96 -66 147 -147 148c-67 2 -147 -37 -166 -109
c-25 -97 67 -127 152 -165c55 -25 105 -48 131 -93c32 -57 12 -142 -45 -197c-60 -59 -136 -84 -212 -84zM223 -156c-28 -1 -47 21 -40 52c7 27 34 50 62 50c31 0 47 -23 41 -53c-9 -46 -58 -89 -92 -111l-9 8c24 19 41 37 54 56c-5 -2 -11 -2 -16 -2z" />
    <glyph glyph-name="uni0219" unicode="&#x219;" horiz-adv-x="367" 
d="M181 0c-56 0 -104 10 -150 34l28 122h2c8 -73 47 -140 131 -140c45 0 93 19 104 67c10 46 -34 69 -85 92c-67 29 -136 60 -123 136c16 89 118 134 200 134c54 0 85 -9 127 -33l-34 -99h-2c-8 61 -41 115 -113 115c-42 0 -93 -22 -103 -67c-13 -61 45 -87 105 -111
c63 -26 114 -59 105 -122c-14 -89 -112 -128 -192 -128zM159 -156c-29 -1 -48 21 -40 52c6 27 33 50 62 50c30 0 46 -23 41 -53c-9 -46 -58 -89 -92 -111l-9 8c23 19 41 37 54 56c-6 -2 -11 -2 -16 -2z" />
    <glyph glyph-name="uni021A" unicode="&#x21a;" horiz-adv-x="555" 
d="M131 530l27 128h502l-24 -129l-2 1c-36 85 -90 111 -148 111h-34l-114 -534c-12 -56 -6 -79 14 -98v-3l-160 1v2c29 19 41 42 53 98l113 534h-34c-66 0 -124 -25 -191 -111h-2zM269 -156c-29 -1 -47 21 -40 52c6 27 34 50 62 50c31 0 46 -23 41 -53
c-9 -46 -58 -89 -92 -111l-9 8c23 19 41 37 54 56c-6 -2 -11 -2 -16 -2z" />
    <glyph glyph-name="uni021B" unicode="&#x21b;" horiz-adv-x="253" 
d="M149 0c-56 0 -79 39 -66 101l68 322h-64l3 15h64l22 103c27 2 67 10 91 27h3l-27 -130h85l-3 -15h-86l-64 -304c-11 -52 1 -65 22 -66c29 0 59 62 70 91l6 -1c-24 -79 -61 -143 -124 -143zM126 -156c-28 -1 -47 21 -40 52c7 27 34 50 62 50c31 0 47 -23 41 -53
c-8 -46 -58 -89 -91 -111l-10 8c24 19 42 37 55 56c-6 -2 -11 -2 -17 -2z" />
    <glyph glyph-name="uni0237" unicode="&#x237;" horiz-adv-x="208" 
d="M-18 -205l1 6c57 37 79 110 95 183l74 348c12 53 -3 66 -19 67c-29 1 -55 -48 -65 -79l-7 2c22 76 57 123 115 123c68 0 74 -65 63 -115l-71 -331c-25 -112 -70 -176 -186 -204z" />
    <glyph glyph-name="Wgrave" unicode="&#x1e80;" horiz-adv-x="917" 
d="M184 598c-4 20 -16 45 -27 58v2h142l-1 -2c-22 -28 -22 -47 -17 -71l84 -477l179 330l-26 160c-4 20 -16 45 -27 58v2h140v-2c-23 -28 -22 -47 -18 -71l74 -478l225 416c25 45 31 102 17 133v2h109v-2c-32 -28 -84 -95 -119 -158l-269 -492h-39l-62 404l-219 -404h-38z
M641 697l-156 78l54 55l110 -133h-8z" />
    <glyph glyph-name="wgrave" unicode="&#x1e81;" horiz-adv-x="712" 
d="M60 322c23 76 56 123 116 123c70 0 74 -65 63 -115l-39 -183c-14 -63 4 -112 50 -112c54 -1 106 73 121 137l62 266h86l-61 -271c-11 -48 -23 -131 51 -132c34 -1 71 28 102 79c43 69 79 227 53 307v2l93 22c4 -89 -41 -242 -122 -342c-49 -61 -101 -103 -171 -103
c-63 0 -101 38 -101 102c-39 -56 -86 -102 -155 -102c-37 0 -65 11 -82 31c-21 25 -26 63 -15 114l41 188c11 52 -4 65 -20 66c-29 1 -54 -48 -64 -79zM517 497l-156 79l54 54l110 -133h-8z" />
    <glyph glyph-name="Wacute" unicode="&#x1e82;" horiz-adv-x="917" 
d="M184 598c-4 20 -16 45 -27 58v2h142l-1 -2c-22 -28 -22 -47 -17 -71l84 -477l179 330l-26 160c-4 20 -16 45 -27 58v2h140v-2c-23 -28 -22 -47 -18 -71l74 -478l225 416c25 45 31 102 17 133v2h109v-2c-32 -28 -84 -95 -119 -158l-269 -492h-39l-62 404l-219 -404h-38z
M548 697l109 133l54 -55l-156 -78h-7z" />
    <glyph glyph-name="wacute" unicode="&#x1e83;" horiz-adv-x="712" 
d="M60 322c23 76 56 123 116 123c70 0 74 -65 63 -115l-39 -183c-14 -63 4 -112 50 -112c54 -1 106 73 121 137l62 266h86l-61 -271c-11 -48 -23 -131 51 -132c34 -1 71 28 102 79c43 69 79 227 53 307v2l93 22c4 -89 -41 -242 -122 -342c-49 -61 -101 -103 -171 -103
c-63 0 -101 38 -101 102c-39 -56 -86 -102 -155 -102c-37 0 -65 11 -82 31c-21 25 -26 63 -15 114l41 188c11 52 -4 65 -20 66c-29 1 -54 -48 -64 -79zM381 497h-8l110 133l54 -54z" />
    <glyph glyph-name="Wdieresis" unicode="&#x1e84;" horiz-adv-x="917" 
d="M157 656v2h142l-1 -2c-22 -28 -22 -47 -17 -71l84 -477l179 330l-26 160c-4 20 -16 45 -27 58v2h140v-2c-23 -28 -22 -47 -18 -71l74 -478l225 416c25 45 31 102 17 133v2h109v-2c-32 -28 -84 -95 -119 -158l-269 -492h-39l-62 404l-219 -404h-38l-108 592
c-4 20 -16 45 -27 58zM676 697c-28 0 -45 22 -39 50c5 28 32 51 60 51s45 -23 39 -51s-32 -50 -60 -50zM479 697c-27 0 -45 22 -39 50s33 51 61 51s45 -23 39 -51s-33 -50 -61 -50z" />
    <glyph glyph-name="wdieresis" unicode="&#x1e85;" horiz-adv-x="712" 
d="M68 320l-8 2c23 76 56 123 116 123c70 0 74 -65 63 -115l-39 -183c-14 -63 4 -112 50 -112c54 -1 106 73 121 137l62 266h86l-61 -271c-11 -48 -23 -131 51 -132c34 -1 71 28 102 79c43 69 79 227 53 307v2l93 22c4 -89 -41 -242 -122 -342c-49 -61 -101 -103 -171 -103
c-63 0 -101 38 -101 102c-39 -56 -86 -102 -155 -102c-37 0 -65 11 -82 31c-21 25 -26 63 -15 114l41 188c11 52 -4 65 -20 66c-29 1 -54 -48 -64 -79zM346 497c-27 0 -45 23 -39 51c6 27 33 50 61 50s45 -23 39 -50c-6 -28 -33 -51 -61 -51zM515 497c-28 0 -45 23 -39 51
c5 27 33 50 60 50c28 0 45 -23 39 -50c-6 -28 -32 -51 -60 -51z" />
    <glyph glyph-name="pi" unicode="&#x3c0;" horiz-adv-x="656" 
d="M126 397h-2l26 125h573l-14 -69h-80l-77 -360c-10 -50 0 -68 15 -84v-3h-121l94 447h-184l-76 -360c-11 -50 -1 -68 15 -84l-1 -3h-121l93 447h-41c-36 0 -72 -21 -99 -56z" />
    <glyph glyph-name="Ccedilla" unicode="&#xc7;" horiz-adv-x="616" 
d="M114 341c47 203 217 323 400 323c90 0 140 -21 183 -59l-74 -133h-2c14 104 -27 172 -116 173c-139 1 -251 -97 -294 -275c-21 -86 -20 -170 20 -234c32 -51 91 -83 171 -83c76 0 167 40 228 119l7 -4c-67 -103 -167 -168 -296 -168c-17 0 -34 1 -49 3l-14 -22
c21 6 39 7 56 7c71 -1 101 -45 89 -103c-15 -71 -76 -108 -151 -108c-38 0 -74 11 -97 31l51 91h2c-24 -76 6 -106 38 -106c55 -1 86 48 94 89c11 57 -13 87 -55 88c-14 1 -29 -2 -45 -10l-6 5l19 41c-150 30 -200 162 -159 335z" />
    <glyph glyph-name="ccedilla" unicode="&#xe7;" horiz-adv-x="434" 
d="M177 6c-92 23 -127 107 -105 209c27 126 126 230 279 230c44 0 86 -10 123 -34l-55 -103h-2c5 67 -24 120 -91 120c-80 0 -148 -90 -165 -192c-9 -49 -6 -93 10 -127c20 -44 60 -67 111 -66c60 0 118 47 151 101l5 -3c-35 -82 -117 -141 -206 -141c-13 0 -25 1 -36 3
l-10 -22c22 6 40 7 56 7c71 -1 102 -45 89 -103c-15 -71 -75 -108 -150 -108c-38 0 -74 11 -97 31l51 91h1c-24 -76 6 -106 39 -106c54 -1 85 48 93 89c12 57 -13 87 -54 88c-15 1 -30 -2 -45 -10l-7 5z" />
    <glyph glyph-name="Eth" unicode="&#xd0;" horiz-adv-x="602" 
d="M253 6l-234 1v1c29 20 41 42 52 98l44 207h-52l4 20h53l47 224c12 56 10 79 -10 98v2h235c189 -1 275 -120 231 -329c-45 -208 -180 -322 -370 -322zM145 23h78c152 0 261 103 305 307c43 204 -22 310 -174 310h-78l-65 -307h169l-5 -20h-169z" />
    <glyph glyph-name="yen" unicode="&#xa5;" horiz-adv-x="613" 
d="M156 656v2h150v-2c-19 -31 -20 -49 -9 -77l120 -293l171 231c38 51 54 105 41 139v2h99l-1 -2c-34 -30 -90 -99 -134 -158l-173 -233l-6 -31l93 -1l-5 -20h-93l-17 -79h93l-4 -20h-93l-1 -7c-12 -56 -10 -79 10 -98v-3h-152l1 3c29 20 41 42 52 98l2 7h-93l4 20h93l17 79
h-93l4 21h93l4 15l-138 337c-13 31 -24 53 -35 70z" />
    <glyph glyph-name="Oslash" unicode="&#xd8;" horiz-adv-x="701" 
d="M100 240c0 214 154 424 376 424c39 0 73 -6 102 -18l82 135h22l-86 -142c76 -35 121 -107 121 -212c0 -214 -156 -427 -378 -427c-43 0 -82 8 -115 22l-65 -108h-22l70 117c-68 38 -107 110 -107 209zM570 597l-316 -526c23 -29 58 -49 110 -49c191 0 258 249 258 408
c0 67 -14 128 -52 167zM195 233c0 -61 15 -111 49 -142l313 519c-26 20 -61 32 -106 32c-193 0 -256 -250 -256 -409z" />
    <glyph glyph-name="AE" unicode="&#xc6;" horiz-adv-x="802" 
d="M122 7h-108v1c34 32 69 67 108 117l332 435c20 26 26 63 -12 96l1 2h439l-25 -128h-3c-25 90 -90 112 -149 112h-104l-64 -301h107c48 0 85 14 133 69h1l-32 -148h-1c-27 48 -57 63 -104 63h-107l-64 -302h127c56 0 120 13 197 110h2l-29 -126h-435l1 2
c30 14 54 42 66 97l29 137h-197l-93 -121c-29 -38 -38 -86 -16 -114v-1zM504 601l-260 -341h188z" />
    <glyph glyph-name="Hcircumflex" unicode="&#x124;" horiz-adv-x="610" 
d="M186 6h-167v3c29 19 41 42 53 98l96 450c12 56 9 79 -11 99v2h167v-2c-29 -19 -51 -41 -63 -97l-42 -197h297l42 197c12 56 -1 78 -22 97v2h168l-1 -2c-28 -20 -40 -43 -52 -99l-96 -450c-12 -56 -10 -79 11 -98v-3h-168v2c29 20 51 42 63 98l51 239h-297l-50 -239
c-12 -56 1 -78 21 -98v-2zM351 697h-12l122 128l71 -9l26 -119h-11l-69 72z" />
    <glyph glyph-name="hcircumflex" unicode="&#x125;" horiz-adv-x="553" 
d="M153 6h-88l124 573c6 29 6 58 -32 76v2c43 2 108 19 143 40h2l-79 -362c32 43 101 110 188 110c40 0 70 -10 88 -31c21 -25 25 -63 14 -114l-37 -181c-10 -52 1 -65 22 -66c29 0 59 62 70 91l6 -1c-25 -79 -61 -143 -124 -143c-56 0 -79 39 -67 101l42 195
c6 29 3 57 -12 76c-11 14 -29 22 -54 23c-59 1 -135 -61 -149 -128zM269 697h-6l121 128l71 -9l26 -119h-8l-71 72z" />
    <glyph glyph-name="Hbar" unicode="&#x126;" horiz-adv-x="610" 
d="M186 6h-167v3c28 19 41 42 53 98l81 381h-44l5 20h43l11 49c12 56 9 79 -11 99v2h167v-2c-29 -19 -51 -41 -63 -97l-11 -51h297l11 51c12 56 -1 78 -22 97v2h168l-1 -2c-28 -20 -40 -43 -52 -99l-11 -49h45l-4 -20h-45l-81 -381c-12 -56 -10 -79 11 -98v-3h-168v2
c29 20 51 42 63 98l51 239h-297l-50 -239c-12 -56 1 -78 21 -98v-2zM219 362h297l27 126h-297z" />
    <glyph glyph-name="hbar" unicode="&#x127;" horiz-adv-x="574" 
d="M153 6h-88l104 482h-36l5 20h35l16 71c6 29 6 58 -32 76v2c43 2 108 19 143 40h2l-41 -189h179l-4 -20h-179l-34 -153c32 43 101 110 188 110c40 0 70 -10 88 -31c21 -25 25 -63 14 -114l-37 -181c-10 -52 1 -65 22 -66c29 0 59 62 70 91l6 -1
c-25 -79 -61 -143 -124 -143c-56 0 -79 39 -67 101l42 195c6 29 3 57 -12 76c-11 14 -29 22 -54 23c-59 1 -135 -61 -149 -128z" />
    <glyph glyph-name="Itilde" unicode="&#x128;" horiz-adv-x="219" 
d="M183 6h-156v3c28 20 41 42 53 98l96 450c11 56 9 79 -11 99v2h156v-2c-29 -20 -41 -43 -52 -99l-96 -450c-12 -56 -10 -79 11 -98zM109 708c13 54 52 100 107 96c24 -2 41 -14 63 -25c18 -8 38 -16 66 -16c31 0 48 16 59 41l4 -1c-12 -56 -43 -106 -104 -106
c-26 0 -49 12 -69 23c-21 11 -43 22 -66 23c-20 0 -40 -7 -54 -35h-6z" />
    <glyph glyph-name="itilde" unicode="&#x129;" horiz-adv-x="272" 
d="M69 320l-7 2c23 76 57 123 115 123c70 0 75 -65 64 -115l-46 -211c-11 -52 0 -65 22 -66c29 0 59 62 70 91l6 -1c-25 -79 -61 -143 -124 -143c-56 0 -79 39 -66 101l50 231c12 53 -3 66 -19 67c-29 1 -55 -48 -65 -79zM71 508c12 54 52 100 106 96c25 -2 42 -14 64 -25
c18 -8 38 -16 66 -16c31 0 48 16 59 41l4 -1c-12 -56 -43 -106 -104 -106c-26 0 -49 12 -69 23c-21 11 -43 22 -66 23c-20 0 -40 -7 -55 -35h-5z" />
    <glyph glyph-name="Imacron" unicode="&#x12a;" horiz-adv-x="223" 
d="M27 6v3c28 20 41 42 53 98l96 450c11 56 9 79 -11 99v2h156v-2c-29 -20 -41 -43 -52 -99l-96 -450c-12 -56 -10 -79 11 -98l-1 -3h-156zM143 697l6 28h222l-6 -28h-222z" />
    <glyph glyph-name="imacron" unicode="&#x12b;" horiz-adv-x="273" 
d="M69 320l-7 2c23 76 57 123 115 123c70 0 75 -65 64 -115l-46 -211c-11 -52 0 -65 22 -66c29 0 59 62 70 91l6 -1c-25 -79 -61 -143 -124 -143c-56 0 -79 39 -66 101l50 231c12 53 -3 66 -19 67c-29 1 -55 -48 -65 -79zM309 497h-210l5 21h209z" />
    <glyph glyph-name="Iogonek" unicode="&#x12e;" horiz-adv-x="231" 
d="M62 -215c-49 0 -82 30 -70 88c13 64 75 108 128 133h-93v3c28 20 41 42 53 98l96 450c11 56 9 79 -11 99v2h156v-2c-29 -20 -41 -43 -52 -99l-96 -450c-12 -56 -10 -79 11 -98l-1 -3h-39c-36 -30 -71 -79 -80 -122c-8 -37 7 -58 40 -60c18 0 44 6 64 23h2
c-22 -33 -58 -62 -108 -62z" />
    <glyph glyph-name="iogonek" unicode="&#x12f;" horiz-adv-x="273" 
d="M111 -215c-50 0 -82 30 -70 88c12 60 66 102 116 128c-48 5 -67 43 -55 100l50 231c12 53 -3 66 -19 67c-29 1 -55 -48 -65 -79l-7 2c23 76 57 123 115 123c70 0 74 -65 64 -115l-45 -211c-11 -52 0 -65 21 -66c30 0 59 62 71 91l6 -1c-23 -72 -55 -130 -105 -141
c-35 -31 -67 -77 -75 -118c-8 -37 7 -58 40 -60c18 0 43 6 64 23h2c-23 -33 -58 -62 -108 -62zM203 495c-30 0 -50 25 -44 56c7 31 38 57 68 57c32 0 51 -26 44 -57c-6 -31 -36 -56 -68 -56z" />
    <glyph glyph-name="Idotaccent" unicode="&#x130;" horiz-adv-x="238" 
d="M27 9c28 20 41 42 53 98l96 450c11 56 9 79 -11 99v2h156v-2c-29 -20 -41 -43 -52 -99l-96 -450c-12 -56 -10 -79 11 -98l-1 -3h-156v3zM249 697c-27 0 -45 22 -39 50s33 51 60 51c29 0 46 -23 40 -51s-33 -50 -61 -50z" />
    <glyph glyph-name="dotlessi" unicode="&#x131;" horiz-adv-x="273" 
d="M62 322c23 76 57 123 115 123c70 0 75 -65 64 -115l-46 -211c-11 -52 0 -65 22 -66c29 0 59 62 70 91l6 -1c-25 -79 -61 -143 -124 -143c-56 0 -79 39 -66 101l50 231c12 53 -3 66 -19 67c-29 1 -55 -48 -65 -79z" />
    <glyph glyph-name="thorn" unicode="&#xfe;" horiz-adv-x="465" 
d="M-11 -223l202 920h85l-77 -364c33 58 87 112 154 112c106 0 150 -80 133 -190c-22 -145 -133 -255 -278 -255c-28 0 -54 5 -78 13l-52 -236h-89zM213 17c82 0 155 111 174 197c20 87 15 196 -65 195c-62 -2 -114 -85 -135 -134l-45 -206c4 -32 27 -52 71 -52z" />
    <glyph glyph-name="Thorn" unicode="&#xde;" horiz-adv-x="517" 
d="M132 6l-87 1l148 693h91l-31 -138h74c66 0 141 -14 186 -55c34 -30 52 -74 37 -146c-41 -191 -233 -194 -356 -194h-27zM249 545l-78 -361h67c107 0 190 63 214 172c28 134 -43 189 -178 189h-25z" />
    <glyph glyph-name="section" unicode="&#xa7;" horiz-adv-x="516" 
d="M192 -182c-70 0 -137 15 -192 44l35 159h2c9 -111 47 -184 156 -186c78 -2 154 38 171 120c15 76 -36 111 -100 140c-90 41 -200 74 -176 186c12 54 46 97 91 125c-14 23 -19 50 -12 85c23 108 143 173 246 173c78 0 120 -9 181 -46l-47 -112h-2c-3 92 -64 139 -141 140
c-64 1 -141 -34 -159 -103c-24 -93 65 -122 146 -158c53 -24 100 -46 125 -89c31 -54 11 -135 -42 -188c-11 -10 -22 -20 -34 -28c25 -56 5 -132 -45 -181c-58 -58 -131 -81 -203 -81zM167 334c-25 -93 64 -122 145 -158c43 -20 83 -38 109 -68c12 15 21 32 25 53
c16 76 -39 114 -103 143c-52 24 -112 45 -147 81c-14 -14 -24 -31 -29 -51z" />
    <glyph glyph-name="eth" unicode="&#xf0;" horiz-adv-x="520" 
d="M78 167c0 147 114 278 265 278c29 0 59 -6 84 -21c-7 40 -19 76 -36 106l-161 -45l-3 20l153 43c-40 58 -102 96 -185 111v6c104 -5 187 -40 244 -101l134 38l3 -20l-121 -34c46 -58 71 -135 71 -228c0 -162 -90 -320 -268 -320c-104 0 -180 59 -180 167zM326 428
c-119 0 -157 -181 -157 -275c0 -69 26 -136 105 -136c119 0 158 180 158 274c0 70 -26 137 -106 137z" />
    <glyph glyph-name="g.1" horiz-adv-x="488" 
d="M-4 -117l129 90c-51 11 -93 31 -81 82c9 43 55 73 98 87c-37 22 -64 56 -64 109c1 117 134 194 243 194c50 0 84 -18 105 -18c45 -1 69 50 82 116h2l62 -56c-25 -41 -79 -66 -125 -73c34 -21 58 -55 58 -105c-1 -120 -132 -196 -245 -196c-34 0 -71 6 -101 21
c-14 -6 -34 -20 -38 -37c-10 -47 89 -46 180 -57c86 -9 162 -27 145 -105c-21 -99 -148 -146 -264 -146c-102 0 -191 35 -186 94zM171 250c0 -66 36 -120 106 -120c89 0 136 94 136 178c0 67 -37 119 -108 119c-87 0 -134 -89 -134 -177zM197 -195c73 0 160 31 170 86
c7 44 -40 56 -103 63c-39 7 -83 9 -122 16c-33 -26 -62 -54 -69 -86c-12 -53 54 -79 124 -79z" />
    <glyph glyph-name="OE" unicode="&#x152;" horiz-adv-x="1014" 
d="M339 0c-148 0 -239 89 -239 240c0 214 154 424 376 424c109 0 188 -48 221 -134c8 42 20 102 -5 126v2h407l-26 -128h-3c-25 90 -90 112 -149 112h-108l-63 -301h106c48 0 85 14 133 69h1l-32 -148h-1c-27 48 -57 63 -104 63h-107l-64 -302h127c56 0 120 13 197 110h2
l-29 -126h-425v2c35 24 49 82 60 131c-66 -83 -162 -140 -275 -140zM451 642c-193 0 -256 -250 -256 -409c0 -115 41 -211 169 -211c191 0 258 249 258 408c0 116 -43 212 -171 212z" />
    <glyph glyph-name="oe" unicode="&#x153;" horiz-adv-x="820" 
d="M73 167c0 149 114 278 264 278c88 0 155 -41 174 -120c47 70 123 120 223 120c81 0 135 -39 129 -99c-11 -120 -224 -131 -314 -140c-3 -37 1 -73 13 -99c20 -43 60 -65 110 -64c60 0 120 47 152 101l6 -3c-36 -82 -120 -141 -209 -141c-88 0 -142 45 -158 114
c-47 -68 -123 -114 -211 -114c-103 0 -179 58 -179 167zM164 153c0 -69 25 -136 105 -136c118 0 158 179 158 274c0 70 -27 137 -106 137c-119 0 -157 -181 -157 -275zM728 430c-105 -3 -165 -114 -178 -206c88 11 232 45 244 143c5 40 -25 63 -66 63z" />
    <glyph glyph-name="ae" unicode="&#xe6;" horiz-adv-x="711" 
d="M145 0c-66 0 -110 34 -93 106c17 67 70 101 138 122c52 17 110 26 169 34l15 59c16 62 4 110 -54 109c-62 -1 -127 -60 -162 -116h-2v92c53 31 111 39 167 39c75 0 117 -22 129 -65c44 39 102 65 172 65c81 0 135 -39 130 -99c-11 -120 -224 -131 -315 -140
c-2 -37 2 -73 14 -99c20 -43 60 -65 110 -64c60 0 119 47 151 101l6 -3c-35 -82 -119 -141 -208 -141c-63 0 -117 23 -145 74c-74 -39 -120 -74 -222 -74zM618 430c-103 -3 -166 -115 -177 -206c87 11 231 45 243 143c5 40 -24 63 -66 63zM147 116c-14 -57 14 -84 63 -84
c32 0 66 12 99 28l47 188c-73 -16 -187 -50 -209 -132z" />
    <glyph glyph-name="y.1" horiz-adv-x="494" 
d="M193 -223c-49 0 -146 12 -146 75c0 81 143 102 228 159c-16 -6 -40 -11 -61 -11c-39 0 -69 10 -88 31c-20 25 -25 63 -14 114l41 188c11 52 -4 65 -20 66c-29 1 -54 -48 -65 -79l-7 2c23 76 56 123 116 123c70 0 74 -65 63 -115l-40 -183c-11 -49 1 -100 59 -101
c48 -2 113 58 127 124l57 268h89l-95 -438c-26 -121 -111 -223 -244 -223zM120 -152c0 -30 25 -54 71 -54c67 -1 111 56 135 118c21 55 35 126 47 190c-38 -74 -114 -122 -174 -161c-16 -11 -36 -25 -53 -41c-16 -14 -26 -33 -26 -52z" />
    <glyph glyph-name="f_y" horiz-adv-x="687" 
d="M108 -139l-93 -20l124 582h-64l1 2l70 31l8 33c26 124 99 205 217 208c39 1 83 -6 110 -27l-67 -123h-3c2 44 2 132 -51 132c-57 -1 -92 -68 -115 -175l-14 -66h141c64 0 82 -19 100 -83l91 -325c51 88 90 188 90 307c0 31 -4 60 -14 84v2l92 22c3 -65 -19 -165 -64 -260
c-54 -116 -210 -408 -355 -408c-9 0 -19 2 -27 5l26 100h2c19 -25 44 -33 67 -33c41 0 86 55 118 97l-136 477h-134z" />
    <glyph glyph-name="t_y" horiz-adv-x="685" 
d="M149 0c-56 0 -79 39 -66 101l68 322h-64l3 15h64l22 103c27 2 67 10 91 27h3l-27 -130h127c64 0 82 -19 100 -83l91 -325c51 88 90 188 90 307c0 31 -5 60 -14 84v2l92 22c3 -65 -19 -165 -64 -260c-54 -115 -210 -408 -355 -408c-9 0 -19 2 -27 5l26 100h2
c19 -25 44 -33 67 -33c41 0 86 55 118 97l-136 477h-121l-64 -304c-11 -52 1 -65 22 -66c29 0 59 62 70 91l6 -1c-24 -79 -61 -143 -124 -143z" />
    </font>
</defs>
</svg>
