<?xml version="1.0" standalone="no"?>
<!DOCTYPE svg PUBLIC "-//W3C//DTD SVG 1.1//EN" "http://www.w3.org/Graphics/SVG/1.1/DTD/svg11.dtd" >
<svg xmlns="http://www.w3.org/2000/svg" xmlns:xlink="http://www.w3.org/1999/xlink" version="1.1">
<metadata>
Created by FontForge 20201107 at Mon Dec 27 23:35:21 2021
 By Unknown
</metadata>
<defs>
<font id="Blacklist-SemiBold" horiz-adv-x="510" >
  <font-face 
    font-family="Blacklist"
    font-weight="600"
    font-stretch="normal"
    units-per-em="1000"
    panose-1="0 0 0 0 0 0 0 0 0 0"
    ascent="750"
    descent="-250"
    x-height="438"
    cap-height="658"
    bbox="-38 -442 1222 899"
    underline-thickness="50"
    underline-position="-125"
    stemh="20"
    stemv="114"
    unicode-range="U+000D-FB06"
  />
<missing-glyph horiz-adv-x="500" 
 />
    <glyph glyph-name="f_f" unicode="ff" horiz-adv-x="588" 
d="M55 421h-66v1l66 37v29c0 133 62 210 188 210c37 0 63 -4 92 -17l-27 -120h-3l-41 118c-79 1 -96 -68 -96 -174v-66h158v49c0 133 63 210 189 210c36 0 63 -4 92 -17l-28 -120h-2l-41 118c-79 1 -96 -68 -96 -174v-66h116v-18h-116v-334c0 -41 15 -60 32 -78v-2h-177v2
c16 18 32 37 32 79l-1 333h-158v-334c0 -41 15 -60 32 -78v-2h-177v2c17 18 32 37 32 79v333z" />
    <glyph glyph-name="fi" unicode="fi" horiz-adv-x="479" 
d="M55 421h-66v1l66 37v29c0 140 79 210 211 210c48 1 94 -7 133 -26l-61 -140h-2l-42 146c-90 5 -126 -55 -126 -170v-69h103v-18h-103v-334c0 -41 15 -60 32 -78v-2h-177v2c17 18 32 37 32 79v333zM276 405c46 3 114 19 148 40h1v-358c0 -41 15 -60 31 -78v-2h-176v2
c16 18 32 37 32 79v241c0 31 -8 58 -36 74v2z" />
    <glyph glyph-name="fl" unicode="fl" horiz-adv-x="499" 
d="M55 425h-66v2l66 36v25c0 140 69 210 206 210c41 0 73 -9 102 -28c32 4 61 15 80 28h2v-611c0 -41 15 -60 31 -78v-2h-176v2c16 18 31 37 31 79v474l-54 116c-80 4 -109 -64 -109 -170v-64h119v-19h-119v-338c0 -41 15 -60 32 -78v-2h-177v2c17 18 32 37 32 79v337z" />
    <glyph glyph-name="f_f_l" unicode="ffl" horiz-adv-x="768" 
d="M-11 421v1l65 37v29c0 133 63 210 189 210c36 0 62 -4 92 -17l-28 -120h-2l-41 118c-79 1 -96 -68 -96 -174v-66h156v49c0 141 70 210 207 210c40 0 72 -9 102 -28c31 4 60 15 79 28h3l-1 -611c0 -41 15 -60 31 -78v-2h-176v2c16 18 32 37 32 79v474l-55 116
c-80 4 -108 -64 -108 -170v-69h118v-18h-118v-334c0 -41 15 -60 31 -78v-2h-177v2c17 18 32 37 32 79v333h-156v-334c0 -41 15 -60 31 -78v-2h-176v2c16 18 31 37 31 79v333h-65z" />
    <glyph glyph-name="f_f_i" unicode="ffi" horiz-adv-x="752" 
d="M54 421h-65v1l65 37l1 29c0 133 62 210 188 210c36 0 63 -4 92 -17l-28 -120h-2l-41 118c-79 1 -96 -68 -96 -174v-66h160v49c0 134 72 210 202 210c49 1 76 -7 115 -25l-39 -129h-2l-42 134c-91 6 -121 -58 -121 -173v-66h104v-18h-104v-334c0 -41 15 -60 32 -78v-2
h-177v2c17 18 32 37 32 79v333h-160v-334c0 -41 15 -60 32 -78v-2h-177v2c16 18 32 37 32 79zM550 403v2c46 3 114 19 147 40h2v-358c0 -41 14 -60 31 -78v-2h-176v2c16 18 31 37 31 79v241c0 31 -7 58 -35 74z" />
    <glyph glyph-name="f_b" unicode="fb" horiz-adv-x="793" 
d="M-11 421v2l65 41v25c0 140 71 209 207 209c41 0 72 -9 102 -28c31 5 61 15 80 28h2v-309c25 22 73 56 137 56c114 0 184 -88 184 -220c0 -122 -74 -225 -223 -225c-62 0 -101 21 -123 46l-87 -42h-2v557l-55 117c-79 5 -108 -63 -108 -169v-70h119v-18h-119v-333
c0 -42 15 -61 31 -79v-2h-176v2c16 18 31 37 31 79v333h-65zM444 96c15 -54 53 -76 89 -76c73 0 114 62 113 186c-1 43 -8 100 -30 142c-19 34 -49 57 -92 55c-31 -1 -61 -21 -79 -42z" />
    <glyph glyph-name="f_k" unicode="fk" horiz-adv-x="767" 
d="M54 421h-65v1l65 37v29c0 140 70 210 207 210c41 0 72 -9 102 -28c31 4 61 15 80 28h2v-477l126 116c27 23 40 57 38 99v2h126v-2c-24 -47 -76 -78 -113 -98l-60 -38l195 -291v-2h-167v2c8 24 -1 50 -14 69l-102 152l-29 -36v-107c0 -41 14 -60 31 -78v-2h-177v2
c17 18 32 37 32 79v473l-55 117c-79 4 -108 -64 -108 -170v-69h119v-18h-119v-334c0 -41 15 -60 31 -78v-2h-176v2c16 18 31 37 31 79v333z" />
    <glyph glyph-name="f_h" unicode="fh" horiz-adv-x="791" 
d="M-11 421v2l65 36v30c0 140 71 209 207 209c41 0 72 -9 102 -28c31 5 61 15 80 28h2v-310c33 19 104 57 158 57c99 0 138 -61 138 -156l1 -202c0 -41 15 -60 31 -78v-2h-177v2c17 18 32 37 32 78v202c0 63 -30 101 -95 101c-31 0 -64 -10 -88 -22l-1 -281
c0 -41 15 -60 31 -78v-2h-176v2c16 18 32 37 32 79v473l-55 117c-79 5 -108 -63 -108 -169v-70h119v-18h-119v-333c0 -42 15 -61 31 -79v-2h-176v2c16 18 31 37 31 79v333h-65z" />
    <glyph glyph-name=".notdef" horiz-adv-x="500" 
 />
    <glyph glyph-name="uni0000" horiz-adv-x="0" 
 />
    <glyph glyph-name="uni000D" unicode="&#xd;" horiz-adv-x="250" 
 />
    <glyph glyph-name="space" unicode=" " horiz-adv-x="208" 
 />
    <glyph glyph-name="A" unicode="A" horiz-adv-x="595" 
d="M127 7h-115v2c28 39 48 77 69 136l156 426c6 15 -5 60 -28 85v2h130l193 -565c9 -27 24 -59 50 -84v-2h-180v2c13 18 15 58 6 85l-46 135h-228l-32 -89c-17 -44 -5 -94 25 -131v-2zM141 249l214 1l-103 304z" />
    <glyph glyph-name="B" unicode="B" horiz-adv-x="568" 
d="M27 656v2h216c126 0 256 -26 256 -168c0 -73 -46 -132 -138 -141c101 -8 180 -57 180 -172c0 -152 -128 -170 -255 -170h-259v2c25 19 34 44 34 100v446c0 56 -9 81 -34 101zM236 334h-58v-307h90c97 0 150 52 150 142c0 124 -78 165 -182 165zM235 638h-57v-284h61
c97 0 148 40 148 130c0 100 -47 154 -152 154z" />
    <glyph glyph-name="O" unicode="O" horiz-adv-x="693" 
d="M37 312c0 210 144 353 334 353c177 0 285 -119 285 -312c0 -208 -145 -353 -334 -353c-175 0 -285 122 -285 312zM156 386c-1 -127 25 -361 197 -361c147 0 183 139 184 258c2 128 -26 356 -198 356c-147 0 -182 -134 -183 -253z" />
    <glyph glyph-name="D" unicode="D" horiz-adv-x="626" 
d="M27 658l259 -1c190 -1 303 -125 303 -329c0 -203 -113 -321 -303 -321h-259v2c25 19 34 44 34 100v446c0 56 -9 81 -34 101v2zM178 27h74c129 0 215 100 215 303c0 204 -86 307 -215 307h-74v-610z" />
    <glyph glyph-name="C" unicode="C" horiz-adv-x="622" 
d="M37 338c3 206 152 326 342 326c91 0 148 -20 202 -57l-52 -146h-1c-14 111 -68 181 -154 183c-120 1 -215 -85 -218 -272c-1 -81 14 -157 65 -219c44 -54 113 -85 190 -85c72 0 153 34 196 104l5 -3c-50 -105 -136 -169 -272 -169c-194 0 -305 136 -303 338z" />
    <glyph glyph-name="E" unicode="E" horiz-adv-x="502" 
d="M27 7v2c25 19 35 44 35 100v447c0 55 -10 81 -35 100v2h417l18 -140h-2c-57 84 -135 121 -193 121h-89v-295h92c48 0 84 20 122 75h1v-163h-1c-39 49 -74 68 -122 68h-92v-298h110c56 0 117 19 193 115h2l-21 -134h-435z" />
    <glyph glyph-name="F" unicode="F" horiz-adv-x="480" 
d="M222 6l-195 1v2c25 20 35 45 35 101v446c0 55 -10 81 -35 100v2h417l18 -140h-2c-57 84 -135 121 -193 121h-89v-295h91c49 0 85 20 123 75h1v-163h-1c-39 49 -74 68 -123 68h-91v-215c0 -56 19 -81 44 -101v-2z" />
    <glyph glyph-name="G" unicode="G" horiz-adv-x="657" 
d="M379 664c85 0 144 -17 202 -57l-52 -146h-1c-14 111 -68 181 -154 183c-124 1 -216 -91 -216 -280c0 -169 82 -330 270 -337c20 -1 41 3 61 9v207c0 48 -32 76 -78 96v2l220 -1v-2c-28 -19 -38 -47 -38 -95v-196c-71 -33 -148 -47 -234 -47c-205 0 -322 130 -322 331
c0 204 144 333 342 333z" />
    <glyph glyph-name="H" unicode="H" horiz-adv-x="623" 
d="M222 6l-195 1v2c25 19 35 45 35 101v446c0 55 -10 81 -35 100v2l195 1v-2c-25 -20 -44 -45 -44 -100v-191h273v191c0 55 -20 80 -45 100v2l195 -1v-2c-24 -19 -34 -45 -34 -100v-446c0 -56 10 -82 34 -101v-2l-195 -1v2c25 20 45 45 45 100v238h-273v-238
c0 -55 19 -80 44 -100v-2z" />
    <glyph glyph-name="I" unicode="I" horiz-adv-x="240" 
d="M31 658h184v-2c-25 -19 -34 -45 -34 -100v-446c0 -56 9 -82 34 -101v-2l-184 -1v3c24 20 34 45 34 101v446c0 56 -10 81 -34 101v1z" />
    <glyph glyph-name="J" unicode="J" horiz-adv-x="376" 
d="M165 0c-61 -1 -114 9 -149 31l6 142h2c39 -106 76 -156 118 -152c69 6 67 92 67 184v352c0 55 -20 80 -44 100v2l194 -1v-2c-24 -19 -34 -45 -34 -100v-347c0 -118 -27 -207 -160 -209z" />
    <glyph glyph-name="L" unicode="L" horiz-adv-x="518" 
d="M27 658h191v-1c-25 -20 -40 -45 -40 -101v-529h112c56 0 139 43 199 112h2l-22 -132h-442v2c25 19 34 44 34 100v447c0 55 -9 81 -34 100v2z" />
    <glyph glyph-name="M" unicode="M" horiz-adv-x="764" 
d="M159 7h-137v2c23 17 42 67 42 118v428c0 56 -13 82 -37 101v2h156l212 -490l193 490h153v-2c-25 -19 -35 -45 -35 -100v-447c0 -56 10 -81 35 -100v-2h-191v2c28 23 40 40 40 100l-1 498l-234 -599h-16l-255 585v-449c0 -67 44 -118 75 -135v-2z" />
    <glyph glyph-name="N" unicode="N" horiz-adv-x="584" 
d="M22 7v2c23 17 42 67 42 118v428c0 56 -13 82 -37 101v2h149l333 -507l1 377c0 67 -39 111 -70 128v2h132v-2c-22 -17 -42 -67 -42 -118v-536h-61l-385 584v-442c0 -67 44 -118 75 -135v-2h-137z" />
    <glyph glyph-name="Q" unicode="Q" horiz-adv-x="689" 
d="M354 664c184 8 302 -104 302 -311c0 -198 -130 -338 -303 -352c31 -9 58 -23 89 -38c42 -20 88 -40 142 -39c36 0 72 19 97 43l2 -1c-45 -81 -119 -104 -184 -105c-60 0 -104 22 -143 47c-44 27 -79 57 -122 58c-31 1 -54 -12 -73 -31l-1 1c23 40 55 63 92 71
c-131 28 -215 137 -215 305c0 206 137 344 317 352zM353 25c147 0 183 139 184 258c2 127 -26 357 -198 357c-147 0 -182 -135 -183 -254c-1 -126 25 -361 197 -361z" />
    <glyph glyph-name="P" unicode="P" horiz-adv-x="569" 
d="M222 7h-195v2c25 20 35 45 35 101v446c0 56 -10 81 -35 101v1l234 1c132 0 278 -46 278 -201c0 -194 -196 -195 -331 -195h-30v-154c0 -56 19 -81 44 -100v-2zM178 283h74c97 0 165 62 165 169c0 132 -84 186 -205 186h-34v-355z" />
    <glyph glyph-name="R" unicode="R" horiz-adv-x="586" 
d="M222 7h-195v2c25 20 35 45 35 101v446c0 56 -10 81 -35 101v1l234 1c132 0 278 -46 278 -201c0 -110 -63 -158 -142 -179l177 -270v-2h-170v2c3 16 4 42 -9 62l-125 192h-92v-154c0 -56 19 -81 44 -100v-2zM178 283h74c97 0 165 62 165 169c0 132 -84 186 -205 186h-34
v-355z" />
    <glyph glyph-name="K" unicode="K" horiz-adv-x="588" 
d="M222 6l-195 1v2c25 19 35 45 35 101v446c0 55 -10 81 -35 100v2l195 1v-2c-25 -20 -44 -45 -44 -100v-244l169 172c58 57 86 130 49 171v2h148v-2l-244 -250l208 -310c16 -24 43 -65 70 -87v-2h-191v2c12 25 8 50 -7 73l-162 238l-40 -34v-178c0 -55 19 -80 44 -100v-2z
" />
    <glyph glyph-name="U" unicode="U" horiz-adv-x="601" 
d="M21 658h193v-1c-25 -20 -42 -45 -42 -101v-323c0 -135 74 -201 173 -200c96 2 176 70 176 212v283c0 67 -38 111 -69 128v2h131v-2c-22 -17 -42 -67 -42 -118v-295c0 -155 -88 -243 -232 -243c-143 0 -254 71 -254 246v310c0 55 -9 81 -34 100v2z" />
    <glyph glyph-name="T" unicode="T" horiz-adv-x="592" 
d="M20 518h-2l18 140h518l18 -140h-2c-57 84 -135 120 -193 120h-24v-529c0 -56 16 -81 40 -100v-2h-190v2c24 20 34 45 34 101v528h-24c-60 0 -136 -36 -193 -120z" />
    <glyph glyph-name="V" unicode="V" horiz-adv-x="655" 
d="M17 657v1h178v-2c-18 -30 -12 -50 -1 -76l188 -456l150 388c18 46 8 111 -15 144v2h121v-2c-26 -26 -70 -108 -98 -180l-183 -469h-51l-244 586c-11 24 -32 52 -45 64z" />
    <glyph glyph-name="W" unicode="W" horiz-adv-x="952" 
d="M62 593c-11 24 -32 52 -45 64v1h178v-2c-18 -30 -13 -50 -1 -76l185 -449l90 279l-70 183c-10 25 -32 52 -45 64v1h178v-2c-18 -30 -12 -49 -1 -76l167 -448l130 380c18 50 8 111 -14 144l-1 2h122v-2c-26 -26 -74 -111 -98 -180l-164 -469h-51l-141 372l-124 -372h-51z
" />
    <glyph glyph-name="S" unicode="S" horiz-adv-x="511" 
d="M27 476c0 120 118 188 229 188c83 0 131 -9 202 -47l-27 -125h-2c-25 96 -100 149 -177 152c-70 2 -135 -35 -138 -102c-4 -85 86 -116 175 -152c62 -25 122 -50 160 -96c50 -60 46 -156 -4 -214c-48 -57 -122 -83 -200 -83c-75 0 -149 16 -215 46l1 176h2
c37 -114 98 -197 207 -201c81 -3 146 37 144 119c-1 78 -61 112 -135 142c-103 42 -222 79 -222 197z" />
    <glyph glyph-name="X" unicode="X" horiz-adv-x="575" 
d="M17 658h188v-2c-17 -34 -9 -57 8 -85l114 -190l50 78c42 66 67 145 47 197v2h118l1 -2l-204 -295l169 -280c18 -30 42 -63 52 -73v-1h-186v2c15 32 8 57 -9 85l-115 189l-50 -79c-42 -67 -67 -149 -43 -195v-2h-118l-1 2l201 294l-170 281c-18 30 -41 63 -52 73v1z" />
    <glyph glyph-name="Y" unicode="Y" horiz-adv-x="636" 
d="M17 657v1h190v-2c-15 -31 -12 -52 5 -80l172 -283l110 208c32 63 30 120 8 155v2h117v-2c-34 -36 -83 -115 -117 -180l-107 -206v-160c0 -56 10 -82 34 -101v-2l-184 -1v3c24 20 34 45 34 101v135l-209 341c-19 30 -39 56 -53 71z" />
    <glyph glyph-name="Z" unicode="Z" horiz-adv-x="518" 
d="M473 7h-448v2l320 629h-112c-61 1 -141 -36 -197 -119h-3l18 139h433v-2l-320 -629h119c78 0 157 61 212 118h2z" />
    <glyph glyph-name="a" unicode="a" horiz-adv-x="456" 
d="M17 108c-1 64 39 99 96 120c47 19 104 28 162 36v55c0 63 -17 108 -69 107c-61 0 -111 -68 -134 -128l-2 1l-27 105c45 32 103 41 162 41c136 -1 184 -55 184 -149v-188c0 -38 14 -62 46 -62c7 0 14 1 21 4l1 -1c-16 -28 -60 -49 -99 -49c-36 0 -65 19 -76 45
c-43 -30 -92 -45 -144 -45c-67 0 -120 34 -121 108zM275 247c-62 -15 -139 -55 -139 -128c1 -53 32 -77 72 -77c24 0 47 8 68 19c-1 6 -1 12 -1 18v168z" />
    <glyph glyph-name="b" unicode="b" horiz-adv-x="509" 
d="M10 656v2c46 3 115 19 149 40h2v-309c25 22 73 56 137 56c115 0 184 -88 184 -220c0 -122 -74 -225 -223 -225c-62 0 -101 21 -123 46l-87 -42h-2v578c0 31 -7 59 -37 74zM161 361v-265c14 -54 52 -76 89 -76c72 0 114 62 112 186c0 43 -7 100 -30 142
c-18 34 -48 57 -91 55c-32 -1 -61 -21 -80 -42z" />
    <glyph glyph-name="period" unicode="." horiz-adv-x="267" 
d="M72 63c0 34 27 62 61 62c35 0 62 -28 62 -62c0 -35 -27 -63 -62 -63c-34 0 -61 28 -61 63z" />
    <glyph glyph-name="c" unicode="c" horiz-adv-x="438" 
d="M236 0c-136 0 -208 92 -208 215c0 134 87 230 240 230c46 0 91 -10 136 -33l-35 -113l-3 1c-11 64 -47 125 -113 125c-73 0 -114 -80 -112 -176c4 -95 45 -195 154 -199c46 -1 90 17 128 56l3 -2c-41 -70 -107 -104 -190 -104z" />
    <glyph glyph-name="d" unicode="d" 
d="M251 445c45 0 76 -9 99 -24v161c0 31 -8 59 -37 74v2c45 3 114 19 148 40h2v-629l25 -44v-2l-136 -18l-2 -1v50c-25 -25 -77 -54 -137 -54c-115 0 -186 88 -186 220c0 123 76 225 224 225zM147 240c2 -74 20 -200 117 -200c34 0 66 18 86 43v262c-14 55 -51 81 -88 81
c-73 0 -116 -62 -115 -186z" />
    <glyph glyph-name="s" unicode="s" horiz-adv-x="387" 
d="M28 306c0 93 95 140 177 140c51 0 89 -10 134 -33l-12 -103h-2c-24 60 -73 116 -142 116c-38 0 -76 -21 -76 -63c0 -55 60 -74 121 -97c65 -24 130 -51 131 -129c1 -43 -18 -78 -46 -100c-32 -25 -77 -37 -120 -37c-55 0 -110 9 -159 32v126h2c23 -71 83 -139 167 -139
c39 0 79 17 79 61c0 45 -51 64 -108 86c-69 26 -145 56 -146 140z" />
    <glyph glyph-name="i" unicode="i" horiz-adv-x="224" 
d="M170 445h1v-358c0 -41 15 -60 31 -78v-2h-176v2c16 18 32 37 32 79v241c0 31 -8 58 -36 74v2c46 3 114 19 148 40zM41 558c0 38 32 69 69 69c38 0 69 -31 69 -69c0 -39 -31 -69 -69 -69c-37 0 -69 30 -69 69z" />
    <glyph glyph-name="j" unicode="j" horiz-adv-x="222" 
d="M143 -124c-29 -45 -72 -70 -147 -86v7c56 40 63 122 63 196v336c0 31 -8 58 -35 74v2c45 3 113 19 147 40h1v-434c0 -52 -8 -98 -29 -135zM111 489c-37 0 -68 30 -68 69c0 38 31 69 68 69c39 0 69 -31 69 -69c0 -39 -30 -69 -69 -69z" />
    <glyph glyph-name="e" unicode="e" horiz-adv-x="454" 
d="M236 0c-130 0 -210 89 -209 216c0 131 88 229 231 229c109 0 166 -65 169 -169h-286c0 -6 0 -12 -1 -18c0 -8 1 -16 1 -25c6 -91 60 -180 161 -180c45 0 90 21 124 55l4 -3c-44 -71 -113 -105 -194 -105zM265 426c-74 0 -113 -65 -122 -131h97c56 0 94 24 94 68
c0 36 -29 63 -69 63z" />
    <glyph glyph-name="f" unicode="f" horiz-adv-x="319" 
d="M55 421h-66v1l66 37v29c0 133 62 210 188 210c37 0 63 -4 92 -17l-27 -120h-3l-41 118c-79 1 -96 -68 -96 -174v-66h117v-18h-117v-334c0 -41 15 -60 32 -78v-2h-177v2c17 18 32 37 32 79v333z" />
    <glyph glyph-name="k" unicode="k" horiz-adv-x="488" 
d="M17 656v2c46 3 114 19 147 40h2v-477l126 116c27 23 41 57 38 99v2h126v-2c-24 -47 -76 -78 -112 -98l-60 -38l194 -291v-2h-167l1 2c7 24 -1 50 -14 69l-102 152l-30 -36v-107c0 -41 15 -60 31 -78v-2h-176v2c16 18 31 37 31 79v494c0 31 -7 58 -35 74z" />
    <glyph glyph-name="l" unicode="l" horiz-adv-x="224" 
d="M22 656v2c46 3 114 19 147 40h2v-611c0 -41 15 -60 31 -78v-2h-176v2c16 18 31 37 31 79v494c0 31 -7 58 -35 74z" />
    <glyph glyph-name="o" unicode="o" horiz-adv-x="509" 
d="M26 210c0 147 115 235 245 235c124 0 212 -70 212 -208c0 -146 -115 -238 -245 -238c-124 0 -212 74 -212 211zM146 258c0 -78 12 -237 116 -237c85 0 101 103 101 170c0 78 -12 233 -117 233c-82 0 -100 -101 -100 -166z" />
    <glyph glyph-name="p" unicode="p" horiz-adv-x="520" 
d="M22 403v2c46 2 115 19 149 40h2v-56c26 22 73 56 137 56c115 0 184 -88 184 -220c0 -122 -74 -225 -223 -225c-45 0 -76 10 -98 25v-158c0 -42 14 -60 31 -79v-2h-177v2c17 19 32 37 32 79v462c0 31 -7 59 -37 74zM173 361v-267c14 -52 50 -74 86 -74
c73 0 116 62 115 186c-1 45 -8 107 -34 149c-18 30 -48 50 -88 48c-31 -1 -60 -21 -79 -42z" />
    <glyph glyph-name="q" unicode="q" horiz-adv-x="512" 
d="M251 445c57 0 89 -13 125 -44l85 44h1l1 -578c0 -35 10 -55 31 -78v-3h-177v3c22 23 32 43 32 78v188c-33 -32 -85 -55 -136 -55c-122 0 -186 96 -186 220c0 131 84 225 224 225zM147 247c0 -74 19 -206 117 -206c33 0 66 17 85 42l1 263c-7 42 -45 80 -88 80
c-88 0 -115 -96 -115 -179z" />
    <glyph glyph-name="u" unicode="u" horiz-adv-x="492" 
d="M164 445h2v-289c0 -63 30 -101 94 -101c25 1 49 12 72 25l1 249c0 31 -8 58 -36 74v2c46 3 114 19 147 40h2v-345c0 -30 9 -53 42 -73v-2l-147 -21l-3 15l-5 40c-35 -26 -93 -59 -143 -59c-99 0 -138 61 -138 156v173c0 31 -7 58 -35 74v2c46 3 114 19 147 40z" />
    <glyph glyph-name="v" unicode="v" horiz-adv-x="508" 
d="M17 436v2h176v-2c-17 -29 -12 -49 -1 -74l116 -251l75 173c18 42 20 114 -3 152v2h111v-2c-26 -30 -93 -162 -108 -195l-100 -234h-51l-170 364c-13 29 -34 54 -45 65z" />
    <glyph glyph-name="w" unicode="w" horiz-adv-x="748" 
d="M62 371c-14 29 -34 54 -45 65v2h175v-2c-17 -29 -12 -49 0 -74l113 -248l62 159l-43 98c-13 29 -34 54 -45 65v2h175v-2c-16 -29 -11 -49 0 -74l101 -247l69 169c17 42 18 114 -4 152v2h110v-2c-29 -38 -82 -141 -104 -195l-95 -234h-51l-103 242l-95 -242h-51z" />
    <glyph glyph-name="y" unicode="y" horiz-adv-x="508" 
d="M62 371c-14 29 -34 54 -45 65v2h176v-2c-17 -29 -12 -49 -1 -74l116 -251l75 173c18 42 20 114 -3 152v2h111v-2c-26 -30 -93 -162 -108 -195l-103 -241c-37 -87 -89 -182 -174 -210l-68 110v3c23 -9 49 -13 75 -13c59 1 121 54 150 117h-29z" />
    <glyph glyph-name="x" unicode="x" horiz-adv-x="455" 
d="M17 436v2h178v-2c-14 -34 3 -58 12 -72l67 -104c36 49 64 116 62 176v2h102v-2l-154 -192l114 -180c11 -18 25 -36 45 -55v-2h-175v2c11 18 2 43 -6 56l-70 111c-36 -50 -62 -116 -63 -167v-2h-101v2l154 183l-119 189c-14 23 -29 42 -46 55z" />
    <glyph glyph-name="n" unicode="n" horiz-adv-x="519" 
d="M169 445h2v-57c34 19 104 57 158 57c99 0 138 -61 138 -156v-202c1 -41 15 -60 32 -78v-2h-177v2c16 18 31 37 31 78v202c0 63 -29 101 -94 101c-31 0 -64 -10 -88 -22v-281c0 -41 14 -60 30 -78v-2h-175v2c16 18 31 37 31 79v241c0 31 -7 58 -35 74v2
c46 3 114 19 147 40z" />
    <glyph glyph-name="z" unicode="z" horiz-adv-x="400" 
d="M19 7v2l220 411h-72c-17 0 -101 -50 -141 -86h-2l14 104h337v-2l-220 -411h82c18 0 98 46 146 87h1l-17 -105h-348z" />
    <glyph glyph-name="t" unicode="t" horiz-adv-x="293" 
d="M61 420h-55v18c46 7 118 64 153 116h16v-116h99v-18h-99v-294c0 -49 25 -68 61 -69c20 0 40 8 57 17l1 -1c-38 -50 -87 -74 -141 -73c-48 0 -92 28 -92 92v328z" />
    <glyph glyph-name="m" unicode="m" horiz-adv-x="795" 
d="M57 329c0 31 -7 58 -35 74v2c46 3 114 19 147 40h2v-53c36 20 98 53 147 53c50 0 93 -16 119 -60c27 15 107 60 168 60c99 0 138 -61 138 -156v-202c1 -41 15 -60 32 -78v-2h-177v2c17 18 32 37 32 78v202c0 63 -30 101 -95 101c-32 0 -66 -11 -90 -22
c8 -22 10 -48 11 -79v-202c0 -41 15 -60 32 -78v-2h-177v2c16 18 31 37 31 78v202c0 63 -30 101 -95 101c-26 0 -54 -8 -76 -17v-286c0 -41 14 -60 30 -78v-2h-175v2c16 18 31 37 31 79v241z" />
    <glyph glyph-name="h" unicode="h" horiz-adv-x="512" 
d="M164 698h2v-310c34 19 104 57 159 57c100 0 136 -61 138 -156v-202c0 -41 15 -60 32 -78v-2h-177v2c16 18 31 37 31 78v202c0 34 -8 61 -26 77c-16 16 -40 24 -69 24c-30 0 -64 -10 -88 -22v-281c0 -41 14 -60 31 -78v-2h-177v2c17 18 32 37 32 79v494c0 31 -7 58 -35 74
v2c46 3 114 19 147 40z" />
    <glyph glyph-name="g" unicode="g" horiz-adv-x="495" 
d="M13 -125l113 83c-54 11 -102 31 -102 88c0 49 40 77 83 91c-51 23 -86 65 -86 129c0 116 124 179 238 179c40 0 69 -8 91 -7c33 1 55 23 55 118h2l85 -65c-17 -45 -67 -63 -117 -68c55 -25 91 -70 91 -134c0 -116 -117 -176 -239 -176c-34 0 -67 5 -96 15
c-10 -5 -21 -14 -21 -27c-1 -43 104 -37 202 -49c86 -10 170 -32 167 -122c-3 -103 -129 -150 -251 -150c-107 0 -209 35 -215 95zM235 424c-65 -2 -97 -59 -97 -118c0 -80 33 -173 113 -171c66 1 98 59 98 119c0 80 -34 172 -114 170zM101 -126c0 -50 69 -74 137 -74
c71 0 147 27 145 77c-1 36 -36 48 -88 55c-47 8 -100 14 -148 22c-26 -25 -46 -51 -46 -80z" />
    <glyph glyph-name="r" unicode="r" horiz-adv-x="371" 
d="M169 445h2v-77c32 42 80 77 142 77c13 0 31 -4 43 -13l-24 -110h-2c-24 29 -58 56 -92 55c-25 0 -48 -12 -67 -35v-255c0 -41 14 -60 31 -78v-2h-176v2c16 18 31 37 31 79v241c0 31 -7 58 -35 74v2c46 3 114 19 147 40z" />
    <glyph glyph-name="comma" unicode="," horiz-adv-x="244" 
d="M134 4c-34 0 -61 26 -61 62c1 34 28 62 62 62c36 0 61 -29 62 -63c2 -57 -42 -109 -77 -133l-19 9c24 22 40 45 50 65c-5 -1 -11 -2 -17 -2z" />
    <glyph glyph-name="zero" unicode="0" horiz-adv-x="567" 
d="M266 0c-165 0 -224 173 -224 312c0 158 74 352 260 352c166 0 223 -178 223 -316c0 -160 -72 -348 -259 -348zM284 642c-121 0 -121 -243 -121 -313c0 -69 3 -308 121 -308c117 0 121 239 121 308c-1 70 0 313 -121 313z" />
    <glyph glyph-name="one" unicode="1" horiz-adv-x="287" 
d="M32 564v3l179 94h2v-557c0 -57 22 -78 42 -95v-2l-205 -1v2c21 18 46 38 46 96v384c0 38 -8 71 -64 76z" />
    <glyph glyph-name="two" unicode="2" horiz-adv-x="506" 
d="M44 603c53 44 125 61 196 61c131 1 225 -53 224 -171c0 -159 -202 -295 -324 -374l189 2c49 1 84 9 145 62h2l-37 -177h-391v59c123 117 296 266 296 454c0 73 -39 124 -108 125c-68 1 -129 -54 -162 -165h-2z" />
    <glyph glyph-name="three" unicode="3" horiz-adv-x="514" 
d="M37 60l21 146h2c20 -125 78 -187 164 -186c76 1 137 59 137 153c0 91 -73 157 -171 157h-44v19h44c76 0 150 76 149 160c-1 93 -47 135 -115 135c-93 -1 -124 -90 -140 -169h-2l-33 129c50 41 118 60 192 60c97 0 209 -38 209 -152c0 -94 -90 -152 -175 -168
c100 -3 207 -49 207 -165c0 -135 -122 -179 -261 -179c-66 0 -134 19 -184 60z" />
    <glyph glyph-name="four" unicode="4" horiz-adv-x="508" 
d="M22 191v16l342 451h48v-357l58 4v-113h-57v-88c0 -57 22 -78 43 -95v-2l-206 -1v2c21 18 46 38 46 96v87h-274zM105 280l191 12v249z" />
    <glyph glyph-name="five" unicode="5" horiz-adv-x="480" 
d="M210 0c-76 0 -142 20 -184 56l29 135h2c13 -123 68 -170 134 -170c72 0 131 65 131 180c0 125 -60 193 -141 191c-51 -1 -91 -27 -111 -59h-28l42 325h192c65 0 106 -3 139 36h2l-19 -150h-303l-29 -182c38 37 89 60 156 61c107 0 222 -59 221 -207
c-1 -162 -126 -216 -233 -216z" />
    <glyph glyph-name="six" unicode="6" horiz-adv-x="542" 
d="M266 0c-146 0 -224 105 -224 245c0 226 154 365 354 419l1 -1c-116 -60 -193 -155 -219 -284c37 32 93 54 143 54c117 0 184 -81 184 -194c0 -146 -94 -239 -239 -239zM164 237c0 -77 14 -217 116 -217c85 0 107 116 107 182c0 73 -32 186 -122 186
c-32 0 -66 -14 -90 -35c-8 -38 -11 -77 -11 -116z" />
    <glyph glyph-name="seven" unicode="7" horiz-adv-x="449" 
d="M14 487l32 171h379v-83c-84 -127 -160 -251 -194 -519c-7 -43 -33 -56 -62 -56c-34 0 -64 25 -57 73c26 200 152 357 272 471h-208c-97 0 -109 -8 -160 -57h-2z" />
    <glyph glyph-name="eight" unicode="8" horiz-adv-x="521" 
d="M38 153c0 90 73 141 152 164c-74 36 -140 80 -140 167c0 113 108 180 220 180c94 0 190 -44 187 -143c-1 -84 -79 -122 -147 -136c85 -43 177 -95 177 -204c0 -135 -122 -181 -237 -181c-96 0 -212 37 -212 153zM207 308c-50 -35 -78 -95 -78 -153
c0 -76 48 -135 125 -135c68 0 125 43 125 119c0 73 -61 113 -123 145c-16 8 -33 16 -49 24zM149 538c0 -72 72 -108 142 -143c42 30 78 72 78 136s-42 113 -113 112c-63 -1 -107 -50 -107 -105z" />
    <glyph glyph-name="nine" unicode="9" horiz-adv-x="541" 
d="M221 231c-117 0 -184 81 -184 194c0 146 93 239 238 239c147 0 225 -105 225 -245c0 -226 -154 -365 -354 -419l-1 1c116 60 192 156 219 284c-38 -32 -94 -54 -143 -54zM261 644c-85 0 -106 -115 -106 -181c0 -74 32 -187 122 -187c32 0 66 14 89 36c9 38 12 77 12 115
c0 77 -14 217 -117 217z" />
    <glyph glyph-name="hyphen" unicode="-" horiz-adv-x="361" 
d="M40 314v24h280v-24h-280z" />
    <glyph glyph-name="plus" unicode="+" horiz-adv-x="303" 
d="M38 340h102v103h24v-103h101v-24h-101v-107h-24v107h-102v24z" />
    <glyph glyph-name="asterisk" unicode="*" horiz-adv-x="352" 
d="M36 547l43 79l90 -100l-38 132h92l-42 -133l87 101l48 -74l-130 -36l126 -28l-45 -77l-86 95l42 -121h-93l38 120l-87 -94l-43 77l126 28z" />
    <glyph glyph-name="asciicircum" unicode="^" horiz-adv-x="488" 
d="M36 508l195 219h36l199 -219h-32l-187 189l-180 -189h-31z" />
    <glyph glyph-name="colon" unicode=":" horiz-adv-x="282" 
d="M78 369c0 35 28 63 62 63c35 0 62 -28 62 -63c0 -34 -27 -63 -62 -63c-34 0 -62 29 -62 63zM78 72c0 34 28 62 62 62c35 0 62 -28 62 -62c0 -35 -27 -63 -62 -63c-34 0 -62 28 -62 63z" />
    <glyph glyph-name="tilde" unicode="&#x2dc;" horiz-adv-x="383" 
d="M44 508l-7 1c2 54 33 110 95 106c29 -1 50 -13 76 -24c20 -9 43 -16 75 -16c29 0 48 13 55 35l5 -1c-1 -54 -21 -115 -86 -115c-30 0 -57 11 -82 23c-26 11 -54 21 -79 23c-18 0 -42 -6 -52 -32z" />
    <glyph glyph-name="backslash" unicode="\" horiz-adv-x="437" 
d="M28 751h26l328 -837h-26z" />
    <glyph glyph-name="slash" unicode="/" horiz-adv-x="334" 
d="M-8 -86l328 837h26l-328 -837h-26z" />
    <glyph glyph-name="ampersand" unicode="&#x26;" horiz-adv-x="649" 
d="M56 64c-46 55 -41 140 5 194c35 41 88 67 133 83c-15 20 -29 40 -43 60c-22 33 -37 68 -37 113c0 105 98 151 191 151c58 0 105 -16 135 -49c36 -41 32 -100 -4 -144c-29 -34 -87 -64 -133 -87c57 -70 116 -141 178 -206c36 58 78 199 23 279v2l118 -20
c0 -101 -76 -215 -128 -274c58 -58 120 -105 171 -100v-3l-123 -63c-35 0 -82 37 -125 79c-53 -51 -130 -79 -200 -79c-62 0 -123 18 -161 64zM208 324c-48 -38 -69 -87 -69 -132c0 -74 49 -142 136 -144c59 -2 103 22 129 44c-69 74 -135 152 -196 232zM297 644
c-41 1 -85 -26 -84 -89c1 -43 32 -94 77 -153c37 33 79 77 80 136c5 71 -28 105 -73 106z" />
    <glyph glyph-name="semicolon" unicode=";" horiz-adv-x="283" 
d="M140 0c-34 0 -61 27 -61 62c1 34 28 62 62 62c36 0 62 -28 62 -63c0 -49 -36 -95 -62 -132l-39 2c12 15 45 55 55 71c-5 -1 -11 -2 -17 -2zM142 306c-34 0 -62 29 -62 63c0 35 28 63 62 63c35 0 62 -28 62 -63c0 -34 -27 -63 -62 -63z" />
    <glyph glyph-name="less" unicode="&#x3c;" horiz-adv-x="358" 
d="M28 242l285 202l6 -26l-258 -184l258 -202l-6 -25l-285 221v14z" />
    <glyph glyph-name="exclam" unicode="!" horiz-adv-x="272" 
d="M131 204l-59 454h128l-57 -454h-12zM74 63c0 34 27 62 61 62c36 0 63 -28 63 -62c0 -35 -27 -63 -63 -63c-34 0 -61 28 -61 63z" />
    <glyph glyph-name="equal" unicode="=" horiz-adv-x="388" 
d="M55 242l98 18l185 -5l-99 -19zM55 395v25h283v-25h-283z" />
    <glyph glyph-name="greater" unicode="&#x3e;" horiz-adv-x="364" 
d="M329 209l-286 -202l-5 25l257 184l-257 202l5 26l285 -222z" />
    <glyph glyph-name="quotesingle" unicode="'" horiz-adv-x="216" 
d="M84 494l-15 164h94l-71 -164h-8z" />
    <glyph glyph-name="numbersign" unicode="#" horiz-adv-x="663" 
d="M611 399h-131l-62 -162h193v-24h-203l-83 -213h-27l83 213h-193l-83 -213h-27l83 213h-121v24h131l63 162h-194v24h203l92 236h26l-91 -236h193l93 236h26l-92 -236h121v-24zM454 399h-194l-63 -162h194z" />
    <glyph glyph-name="at" unicode="@" horiz-adv-x="801" 
d="M41 318c0 208 165 340 364 340c195 0 343 -115 343 -327c0 -123 -49 -232 -170 -232c-48 0 -95 24 -109 74c-33 -30 -60 -45 -113 -45c-108 0 -166 83 -166 190c0 131 86 210 216 210c81 0 174 -38 174 -131v-167c0 -33 6 -85 47 -90c75 -7 101 116 101 190
c0 201 -138 308 -323 308c-188 0 -343 -124 -343 -320c0 -186 143 -305 323 -305c55 0 116 9 155 48l15 -14c-44 -44 -110 -54 -170 -54c-191 0 -344 127 -344 325zM405 162c25 0 46 13 61 42v209c0 57 -22 96 -64 96c-72 0 -97 -92 -97 -169c0 -75 23 -179 100 -178z" />
    <glyph glyph-name="percent" unicode="%" horiz-adv-x="807" 
d="M600 0c-88 0 -169 57 -169 161c0 103 82 159 169 159c88 0 169 -56 169 -159c0 -104 -81 -161 -169 -161zM45 505c0 103 82 159 169 159c88 0 169 -56 169 -159c0 -105 -81 -161 -169 -161s-169 56 -169 161zM214 644c-45 0 -74 -50 -73 -139c0 -90 27 -141 73 -141
c45 0 74 52 74 141s-29 139 -74 139zM600 300c-45 0 -74 -49 -73 -139c0 -89 27 -140 73 -141c45 0 74 52 74 141c0 90 -29 139 -74 139zM113 6l572 652h32l-571 -652h-33z" />
    <glyph glyph-name="parenleft" unicode="(" horiz-adv-x="359" 
d="M339 728l1 -12c-61 -2 -117 -43 -149 -113c-56 -121 -56 -311 -24 -453c23 -105 85 -195 179 -194v-11c-16 -2 -38 -2 -54 0c-162 9 -263 158 -263 368c0 246 136 413 310 415z" />
    <glyph glyph-name="parenright" unicode=")" horiz-adv-x="373" 
d="M20 714v12c15 2 37 1 53 0c162 -9 264 -155 264 -365c0 -246 -137 -416 -311 -419v12c60 3 117 48 149 117c56 122 56 312 24 453c-23 105 -86 191 -179 190z" />
    <glyph glyph-name="braceleft" unicode="{" horiz-adv-x="284" 
d="M21 329v8c32 7 51 73 51 116v113c0 148 63 162 189 162v-13c-79 -3 -73 -45 -73 -124v-107c0 -77 -19 -135 -106 -151c87 -6 106 -66 106 -130v-141c0 -60 2 -106 73 -106v-13c-100 -1 -189 9 -189 150v147c0 40 -19 83 -51 89z" />
    <glyph glyph-name="braceright" unicode="}" horiz-adv-x="279" 
d="M94 609c0 60 -1 107 -72 106v13c100 1 188 -9 188 -149v-148c0 -40 19 -83 51 -88v-9c-32 -6 -51 -73 -51 -116v-113c0 -148 -62 -162 -188 -162v13c79 3 72 45 72 124v108c0 77 19 134 106 150c-87 6 -106 67 -106 130v141z" />
    <glyph glyph-name="bar" unicode="|" horiz-adv-x="190" 
d="M108 -57h-25v785h25v-785z" />
    <glyph glyph-name="bracketleft" unicode="[" horiz-adv-x="294" 
d="M48 728h223v-11l-107 -17v-730l107 -16v-11h-223v785z" />
    <glyph glyph-name="bracketright" unicode="]" horiz-adv-x="299" 
d="M131 702l-108 15v11h223v-785h-223v11l108 18v730z" />
    <glyph glyph-name="endash" unicode="&#x2013;" horiz-adv-x="592" 
d="M58 273v24h469v-24h-469z" />
    <glyph glyph-name="emdash" unicode="&#x2014;" horiz-adv-x="724" 
d="M58 273v24h625v-24h-625z" />
    <glyph glyph-name="macron" unicode="&#xaf;" horiz-adv-x="350" 
d="M37 631v24h279v-24h-279z" />
    <glyph glyph-name="ellipsis" unicode="&#x2026;" horiz-adv-x="562" 
d="M290 0c-33 0 -60 28 -60 62s27 62 60 62c35 0 62 -28 62 -62s-27 -62 -62 -62zM467 0c-34 0 -61 28 -61 62s27 62 61 62c35 0 61 -28 61 -62s-26 -62 -61 -62zM111 0c-34 0 -60 28 -60 62s26 62 60 62c35 0 62 -28 62 -62s-27 -62 -62 -62z" />
    <glyph glyph-name="brokenbar" unicode="&#xa6;" horiz-adv-x="266" 
d="M128 -57l-1 355h25v-355h-24zM152 403h-24v344h24v-344z" />
    <glyph glyph-name="paragraph" unicode="&#xb6;" horiz-adv-x="569" 
d="M251 658h211l-1 -628h93v-23h-348v23h100v216h-20c-144 0 -242 64 -242 205c0 126 100 207 207 207zM439 635h-111l1 -605h109z" />
    <glyph glyph-name="question" unicode="?" horiz-adv-x="453" 
d="M222 664c101 0 206 -42 204 -160c-1 -140 -168 -191 -260 -206l1 -94h-19l-21 97c88 34 181 130 181 224c0 68 -38 119 -110 118c-92 0 -123 -90 -122 -171h-2l-49 121c43 50 127 71 197 71zM105 63c0 34 27 62 61 62c36 0 63 -28 63 -62c0 -35 -27 -63 -63 -63
c-34 0 -61 28 -61 63z" />
    <glyph glyph-name="underscore" unicode="_" horiz-adv-x="481" 
d="M58 7v24h379v-24h-379z" />
    <glyph glyph-name="breve" unicode="&#x2d8;" horiz-adv-x="325" 
d="M163 494c-78 0 -114 48 -111 131h2c28 -47 66 -50 109 -50c45 0 83 2 110 50h2c-3 -83 -28 -131 -112 -131z" />
    <glyph glyph-name="dotaccent" unicode="&#x2d9;" horiz-adv-x="279" 
d="M75 553c0 33 25 59 58 59s58 -26 58 -59s-25 -59 -58 -59s-58 26 -58 59z" />
    <glyph glyph-name="ring" unicode="&#x2da;" horiz-adv-x="312" 
d="M32 593c0 64 57 102 123 101c65 0 127 -35 127 -100c0 -66 -62 -100 -127 -100c-61 0 -123 32 -123 99zM111 593c0 -32 9 -82 45 -82c34 0 48 47 48 82c0 34 -12 85 -48 85c-34 0 -45 -50 -45 -85z" />
    <glyph glyph-name="caron" unicode="&#x2c7;" horiz-adv-x="315" 
d="M46 635h11l90 -70l123 70h10l-100 -141l-83 9z" />
    <glyph glyph-name="grave" unicode="`" horiz-adv-x="271" 
d="M207 508l-161 81l83 69l88 -150h-10z" />
    <glyph glyph-name="acute" unicode="&#xb4;" horiz-adv-x="286" 
d="M150 658l83 -69l-161 -81h-10z" />
    <glyph glyph-name="circumflex" unicode="&#x2c6;" horiz-adv-x="341" 
d="M48 494l100 141l83 -9l51 -132h-11l-91 70l-122 -70h-10z" />
    <glyph glyph-name="ogonek" unicode="&#x2db;" horiz-adv-x="258" 
d="M160 18h13c-35 -28 -62 -84 -62 -128c0 -39 21 -57 51 -58c17 -1 38 6 53 18h2c-15 -34 -45 -68 -99 -68c-51 0 -95 30 -95 92c-1 85 84 126 137 144z" />
    <glyph glyph-name="cedilla" unicode="&#xb8;" horiz-adv-x="302" 
d="M33 -194l35 93h2c-6 -76 26 -102 57 -103c47 0 67 45 67 85c-1 49 -26 83 -66 85c-12 0 -25 -2 -37 -8l-10 7l10 71h26l-13 -55c20 5 38 7 54 7c71 -1 111 -45 111 -103c0 -67 -49 -108 -133 -108c-38 0 -76 10 -103 29z" />
    <glyph glyph-name="hungarumlaut" unicode="&#x2dd;" horiz-adv-x="436" 
d="M210 494l89 150l82 -69l-161 -81h-10zM53 494l88 150l83 -69l-161 -81h-10z" />
    <glyph glyph-name="dieresis" unicode="&#xa8;" horiz-adv-x="405" 
d="M112 503c-32 0 -58 26 -58 59c0 32 26 59 58 59c34 0 59 -27 59 -59c0 -33 -25 -59 -59 -59zM285 503c-33 0 -58 26 -58 59c0 32 25 59 58 59s59 -27 59 -59c0 -33 -26 -59 -59 -59z" />
    <glyph glyph-name="quoteleft" unicode="&#x2018;" horiz-adv-x="257" 
d="M129 700l19 -8c-24 -23 -40 -45 -50 -65c5 1 11 2 17 2c34 0 61 -26 61 -62c-1 -34 -28 -62 -62 -62c-36 0 -61 28 -62 63c-2 57 42 108 77 132z" />
    <glyph glyph-name="quoteright" unicode="&#x2019;" horiz-adv-x="257" 
d="M81 636c1 33 27 61 62 61c36 0 61 -28 62 -63c2 -57 -42 -108 -78 -132l-18 8c24 23 40 45 50 65c-5 -1 -11 -2 -17 -2c-34 0 -61 27 -61 63z" />
    <glyph glyph-name="sterling" unicode="&#xa3;" horiz-adv-x="504" 
d="M35 9c50 45 109 152 109 229c0 29 -8 54 -18 78h-85v24h73c-22 43 -48 85 -50 139c-5 119 87 185 204 185c60 0 133 -16 169 -63l-68 -130l-1 1c3 19 3 30 3 47c-2 87 -40 125 -93 125c-50 0 -101 -35 -101 -104c0 -95 46 -140 68 -200h125v-24h-119c4 -12 6 -23 7 -36
c0 -95 -77 -150 -135 -182l189 3c55 1 87 13 140 58h2l-31 -152h-388v2z" />
    <glyph glyph-name="asciitilde" unicode="~" horiz-adv-x="381" 
d="M124 401c53 0 96 -46 157 -46c30 0 46 4 56 34h2c1 -62 -14 -119 -89 -119c-65 0 -122 48 -169 48c-21 0 -34 -11 -41 -30h-2v10c0 53 29 103 86 103z" />
    <glyph glyph-name="currency" unicode="&#xa4;" horiz-adv-x="591" 
d="M80 123l-15 18l81 76c-37 38 -60 90 -60 147s23 109 60 146l-81 76l15 19l84 -79c36 30 82 47 132 47s96 -17 132 -47l83 79l16 -19l-82 -76c37 -38 60 -89 60 -146s-23 -109 -60 -147l82 -76l-16 -18l-83 78c-36 -29 -82 -47 -132 -47s-96 18 -132 47zM110 364
c0 -103 83 -186 186 -186c102 0 186 83 186 186s-84 186 -186 186c-103 0 -186 -83 -186 -186z" />
    <glyph glyph-name="fraction" unicode="&#x2044;" horiz-adv-x="532" 
d="M31 -86l452 832h27l-451 -832h-28z" />
    <glyph glyph-name="germandbls" unicode="&#xdf;" horiz-adv-x="580" 
d="M180 7h-151v2c30 25 36 69 36 108v347c0 140 114 197 225 197c92 0 195 -37 195 -145l-174 -166c118 8 239 -42 239 -175c0 -134 -108 -175 -203 -175c-52 0 -101 16 -120 46l40 101h2c-2 -90 32 -129 73 -129c61 0 91 53 92 130c1 89 -38 186 -165 188l-30 40l145 132
c9 61 -21 136 -93 134c-65 -1 -111 -42 -111 -135v-500z" />
    <glyph glyph-name="minus" unicode="&#x2212;" horiz-adv-x="370" 
d="M55 316v23h263v-23h-263z" />
    <glyph glyph-name="plusminus" unicode="&#xb1;" horiz-adv-x="343" 
d="M163 316h-104v24h104v109h24v-109h101v-24h-101v-113h-24v113zM60 84h228v-24h-228v24z" />
    <glyph glyph-name="quotedbl" unicode="&#x22;" horiz-adv-x="358" 
d="M252 691c35 0 59 -27 60 -60c2 -55 -39 -102 -73 -126l-21 6c24 22 40 44 50 63c-5 -1 -11 -2 -16 -2c-33 0 -58 26 -58 60c0 32 26 59 58 59zM56 632c0 32 26 59 58 59c35 0 59 -27 60 -60c2 -55 -39 -102 -73 -126l-21 6c24 22 40 44 50 63c-5 -1 -11 -2 -16 -2
c-33 0 -58 26 -58 60z" />
    <glyph glyph-name="quotedblleft" unicode="&#x201c;" horiz-adv-x="342" 
d="M256 714l19 -9c-25 -22 -41 -45 -51 -65c6 2 11 2 17 2c34 0 61 -26 61 -62c0 -34 -27 -61 -61 -61c-37 0 -62 28 -63 62c-2 57 42 109 78 133zM113 714l18 -9c-24 -22 -40 -45 -50 -65c5 2 11 2 17 2c34 0 61 -26 61 -62c-1 -34 -27 -61 -61 -61c-37 0 -62 28 -63 62
c-2 57 42 109 78 133z" />
    <glyph glyph-name="quotedblright" unicode="&#x201d;" horiz-adv-x="340" 
d="M186 652c0 34 27 62 61 62c36 0 62 -28 63 -63c2 -57 -42 -108 -78 -132l-19 8c25 23 41 45 51 65c-6 -1 -11 -2 -17 -2c-34 0 -62 27 -61 62zM43 652c0 34 27 62 61 62c36 0 61 -28 63 -63c1 -57 -42 -108 -78 -132l-19 8c25 23 41 45 51 65c-6 -1 -11 -2 -17 -2
c-34 0 -62 27 -61 62z" />
    <glyph glyph-name="quotesinglbase" unicode="&#x201a;" horiz-adv-x="273" 
d="M148 0c-35 0 -62 27 -62 62c1 34 28 62 62 62c36 0 61 -28 62 -63c2 -57 -41 -108 -77 -132l-19 8c24 23 40 45 50 65c-5 -1 -11 -2 -16 -2z" />
    <glyph glyph-name="quotedblbase" unicode="&#x201e;" horiz-adv-x="381" 
d="M79 62c1 34 27 62 62 62c36 0 61 -28 62 -63c2 -57 -42 -108 -77 -132l-19 8c24 23 40 45 50 65c-5 -1 -11 -2 -17 -2c-34 0 -61 27 -61 62zM227 62c0 34 27 62 61 62c36 0 61 -28 62 -63c2 -57 -41 -108 -77 -132l-19 8c24 23 40 45 50 65c-5 -1 -11 -2 -16 -2
c-35 0 -62 27 -61 62z" />
    <glyph glyph-name="multiply" unicode="&#xd7;" horiz-adv-x="418" 
d="M216 339l107 128l19 -16l-109 -131l107 -129l-19 -16l-105 125l-104 -125l-19 16l107 129l-109 131l19 16z" />
    <glyph glyph-name="divide" unicode="&#xf7;" horiz-adv-x="322" 
d="M168 391c-34 0 -61 28 -61 63s27 63 61 63c35 0 62 -29 62 -63c0 -35 -27 -63 -62 -63zM107 195c0 35 27 63 61 63c35 0 62 -28 62 -63c0 -34 -27 -62 -62 -62c-34 0 -61 28 -61 62zM292 316h-254v24h254v-24z" />
    <glyph glyph-name="dollar" unicode="$" horiz-adv-x="545" 
d="M39 476c0 115 108 182 214 187v65h24v-64c78 -1 125 -10 193 -47l-27 -125h-2c-24 90 -91 145 -164 153v-245c8 -4 17 -7 24 -10c62 -25 122 -50 160 -96c50 -60 46 -156 -4 -214c-44 -52 -109 -78 -180 -82v-65h-24v65c-74 0 -146 16 -211 45l1 176h2
c33 -103 93 -202 208 -205v268c-7 3 -15 6 -22 9c-94 38 -192 78 -192 185zM396 137c-1 73 -57 107 -119 135v-256c68 6 120 47 119 121zM126 542c-4 -69 56 -103 127 -132v237c-65 -2 -124 -41 -127 -105z" />
    <glyph glyph-name="Euro" unicode="&#x20ac;" horiz-adv-x="668" 
d="M34 252h40c-3 19 -4 39 -4 60c0 32 3 61 9 90h-45v24h52c42 147 165 239 317 239c101 0 170 -36 204 -86l-87 -46h-3c-29 59 -73 106 -146 106c-130 0 -173 -105 -181 -213h185v-24h-186c-1 -6 -1 -11 -1 -16c0 -38 2 -86 10 -134h177v-24h-173c22 -106 73 -205 186 -205
c97 0 139 87 159 171h2l82 -47c-59 -93 -137 -147 -277 -147c-148 0 -249 87 -277 228h-43v24z" />
    <glyph glyph-name="dotlessi" unicode="&#x131;" horiz-adv-x="230" 
d="M28 403v2c46 3 114 19 147 40h2l-1 -358c0 -41 15 -60 31 -78v-2h-176v2c17 18 32 37 32 79v241c0 31 -7 58 -35 74z" />
    <glyph glyph-name="bullet" unicode="&#x2022;" horiz-adv-x="344" 
d="M62 284c0 57 44 104 102 104c59 0 104 -47 104 -104c0 -58 -45 -105 -104 -105c-58 0 -102 47 -102 105z" />
    <glyph glyph-name="exclamdown" unicode="&#xa1;" horiz-adv-x="243" 
d="M69 0l54 467h12l56 -467h-122zM93 599c0 34 15 62 35 62c19 0 33 -28 33 -62c0 -35 -14 -63 -33 -63c-20 0 -35 28 -35 63z" />
    <glyph glyph-name="questiondown" unicode="&#xbf;" horiz-adv-x="472" 
d="M39 160c1 140 168 191 260 207l-1 93h18l22 -97c-88 -34 -181 -130 -181 -224c0 -68 38 -119 110 -118c92 0 122 90 122 171h2l48 -121c-42 -50 -126 -71 -196 -71c-102 0 -206 42 -204 160zM297 538c-35 0 -62 28 -62 63c0 34 27 63 62 63c34 0 61 -29 61 -63
c0 -35 -27 -63 -61 -63z" />
    <glyph glyph-name="logicalnot" unicode="&#xac;" horiz-adv-x="506" 
d="M420 273h-365v24h390l-1 -158h-24v134z" />
    <glyph glyph-name="registered" unicode="&#xae;" horiz-adv-x="468" 
d="M49 548c0 103 83 186 186 186s186 -83 186 -186s-83 -186 -186 -186s-186 83 -186 186zM72 548c0 -90 72 -163 163 -163c90 0 163 73 163 163s-73 163 -163 163c-91 0 -163 -73 -163 -163zM145 666v1h88c45 0 96 -16 96 -69c0 -38 -22 -54 -49 -61l62 -93v-1h-74v1
c1 6 2 14 -3 22l-41 65h-14v-52c0 -20 7 -28 16 -35v-1h-81v1c8 7 12 16 12 35v153c0 19 -4 27 -12 34zM210 547h20c20 0 43 12 43 49c0 44 -25 55 -52 55h-11v-104z" />
    <glyph glyph-name="copyright" unicode="&#xa9;" horiz-adv-x="760" 
d="M372 664c184 0 332 -148 332 -332s-148 -332 -332 -332s-332 148 -332 332s148 332 332 332zM372 24c171 0 308 137 308 308s-137 308 -308 308s-308 -137 -308 -308s137 -308 308 -308zM152 336c0 155 119 238 256 238c63 0 110 -19 148 -43l-43 -121h-1
c-6 97 -51 145 -109 144c-55 -1 -136 -39 -136 -190c0 -105 55 -213 173 -213c52 0 100 25 133 70l3 -2c-32 -67 -95 -119 -197 -119c-132 0 -227 87 -227 236z" />
    <glyph glyph-name="trademark" unicode="&#x2122;" horiz-adv-x="570" 
d="M265 436l-1 2c8 5 19 20 19 39v150c0 20 -7 28 -16 35v2h68l71 -157l60 157h67v-2c-9 -7 -16 -15 -16 -35v-156c0 -20 10 -26 21 -33v-2h-86v1c11 8 16 12 16 34v171l-77 -205h-7l-91 201v-153c0 -27 22 -44 31 -48v-1h-59zM30 606h-1l10 58h192l11 -58h-2
c-20 29 -43 48 -64 48h-16v-184c0 -19 7 -25 16 -32v-2h-82v2c8 6 16 13 16 33v183h-16c-21 0 -44 -19 -64 -48z" />
    <glyph glyph-name="cent" unicode="&#xa2;" horiz-adv-x="441" 
d="M232 0c-133 2 -204 93 -204 215c0 128 80 221 220 229v148h25v-147c43 -1 89 -11 131 -33l-35 -112h-3c-10 58 -40 112 -93 123v-370c7 -2 14 -3 22 -3c46 -1 90 17 128 56l3 -2c-35 -59 -88 -92 -153 -101v-60h-25v57h-16zM141 258c0 -79 26 -168 107 -197v363
c-80 -3 -106 -101 -107 -166z" />
    <glyph glyph-name="uni03BC" unicode="&#x3bc;" horiz-adv-x="522" 
d="M25 403v2c45 3 113 19 146 40h2v-289c0 -63 30 -101 95 -101c25 1 49 12 72 25v249c0 31 -8 58 -36 74v2c46 3 114 19 148 40h1l1 -345c0 -30 8 -53 41 -73v-2l-146 -21l-4 15l-5 40c-35 -26 -92 -59 -143 -59c-38 0 -70 8 -97 35l58 -154l-90 -41c-5 85 -8 214 -8 316
v173c0 31 -7 58 -35 74z" />
    <glyph glyph-name="perthousand" unicode="&#x2030;" horiz-adv-x="1306" 
d="M641 0c-88 0 -169 57 -169 161c0 103 82 159 169 159c88 0 169 -56 169 -159c0 -104 -81 -161 -169 -161zM1052 0c-87 0 -168 57 -168 161c0 103 81 159 168 159c88 0 170 -56 170 -159c0 -104 -81 -161 -170 -161zM230 344c-88 0 -169 56 -169 161c0 103 82 159 169 159
c88 0 169 -56 169 -159c0 -105 -81 -161 -169 -161zM230 644c-45 0 -74 -50 -73 -139c0 -90 27 -141 73 -141c45 0 74 52 74 141s-29 139 -74 139zM1052 300c-45 0 -73 -49 -73 -139c0 -89 28 -140 73 -141c46 0 75 52 74 141c0 90 -28 139 -74 139zM641 300
c-45 0 -74 -49 -73 -139c0 -89 27 -140 73 -141c45 0 74 52 74 141c0 90 -29 139 -74 139zM142 7l571 651h33l-571 -651h-33z" />
    <glyph glyph-name="guilsinglleft" unicode="&#x2039;" horiz-adv-x="442" 
d="M86 242l305 187l7 -12l-147 -183l147 -200l-7 -12l-305 206v14z" />
    <glyph glyph-name="guilsinglright" unicode="&#x203a;" horiz-adv-x="415" 
d="M44 417l7 12l305 -187v-14l-305 -206l-7 12l147 200z" />
    <glyph glyph-name="guillemotleft" unicode="&#xab;" horiz-adv-x="607" 
d="M259 242l305 187l7 -12l-147 -183l147 -200l-7 -12l-305 206v14zM31 242l305 187l7 -12l-147 -183l147 -200l-7 -12l-305 206v14z" />
    <glyph glyph-name="guillemotright" unicode="&#xbb;" horiz-adv-x="607" 
d="M36 417l7 12l305 -187v-14l-305 -206l-7 12l147 200zM264 417l7 12l305 -187l-1 -14l-304 -206l-7 12l147 200z" />
    <glyph glyph-name="periodcentered" unicode="&#xb7;" horiz-adv-x="254" 
d="M55 314c0 42 33 76 74 76c43 0 76 -34 76 -76s-33 -76 -76 -76c-41 0 -74 34 -74 76z" />
    <glyph glyph-name="ordmasculine" unicode="&#xba;" horiz-adv-x="329" 
d="M153 316c-87 0 -117 90 -117 163c0 83 38 185 136 185c87 0 117 -93 117 -166c0 -84 -37 -182 -136 -182zM163 653c-59 0 -59 -128 -59 -165c0 -36 1 -161 59 -161c57 -1 58 125 58 161c0 37 1 165 -58 165z" />
    <glyph glyph-name="onesuperior" unicode="&#xb9;" horiz-adv-x="186" 
d="M124 661h1v-294c0 -30 9 -40 20 -50v-1h-108v1c11 10 22 20 22 50v199c0 16 -7 36 -34 40v2c33 8 71 27 99 53z" />
    <glyph glyph-name="twosuperior" unicode="&#xb2;" horiz-adv-x="306" 
d="M43 632c28 23 66 32 104 32c70 1 119 -28 119 -91c0 -50 -36 -92 -78 -130c-35 -30 -57 -43 -90 -65l98 1c26 1 45 5 77 33h1l-21 -97h-207v31c65 63 151 142 151 241c0 37 -16 66 -52 66c-36 1 -68 -28 -86 -87h-1z" />
    <glyph glyph-name="threesuperior" unicode="&#xb3;" horiz-adv-x="286" 
d="M29 343l11 78h1c10 -67 41 -99 87 -99c40 0 72 31 72 81c0 48 -38 83 -90 83h-23v11h23c40 0 79 40 79 84c0 50 -25 72 -61 72c-50 0 -66 -48 -75 -89h-1l-17 68c26 22 63 32 102 32c52 0 111 -20 111 -81c0 -50 -48 -80 -93 -89c53 -1 110 -26 110 -88
c0 -71 -65 -95 -138 -95c-36 0 -72 10 -98 32z" />
    <glyph glyph-name="onequarter" unicode="&#xbc;" horiz-adv-x="696" 
d="M543 104h-140v8l181 237h25v-185l30 3v-63h-30v-46c0 -30 9 -40 20 -49v-2h-107v2c11 9 21 19 21 49v46zM194 661h1v-294c0 -30 8 -40 19 -49v-2h-107v2c11 9 21 19 21 49v199c0 16 -7 36 -34 39v3c34 8 72 27 100 53zM502 658l-257 -651h-27l258 651h26zM543 277
l-95 -127l95 9v118z" />
    <glyph glyph-name="onehalf" unicode="&#xbd;" horiz-adv-x="707" 
d="M419 323c28 23 67 32 104 32c70 1 120 -28 119 -90c0 -50 -35 -93 -78 -130c-34 -30 -57 -44 -90 -66l98 2c26 0 45 4 77 32h2l-22 -96h-207v31c65 62 152 141 152 240c0 37 -16 66 -53 67c-36 0 -68 -29 -86 -88h-1zM194 661h1v-294c0 -30 8 -40 19 -49v-2h-107v2
c11 9 21 19 21 49v199c0 16 -7 36 -34 39v3c34 8 72 27 100 53zM225 7h-27l258 651h26z" />
    <glyph glyph-name="threequarters" unicode="&#xbe;" horiz-adv-x="723" 
d="M570 104h-140v8l180 237h26v-185l30 3v-63h-30v-46c0 -30 9 -40 20 -49v-2h-107v2c11 9 21 19 21 49v46zM94 343l11 78h1c11 -67 42 -99 87 -99c41 0 73 31 73 81c0 48 -39 83 -91 83h-23v11h23c40 0 80 40 79 84c0 50 -24 72 -61 72c-49 0 -66 -48 -74 -89h-1l-18 68
c27 22 63 32 102 32c52 0 112 -19 112 -81c0 -50 -48 -80 -94 -89c53 -1 110 -26 110 -88c0 -71 -64 -95 -138 -95c-36 0 -72 10 -98 32zM288 7h-26l257 651h26zM475 150l95 9v118z" />
    <glyph glyph-name="degree" unicode="&#xb0;" horiz-adv-x="397" 
d="M199 659c90 0 163 -73 163 -163c0 -91 -73 -163 -163 -163s-163 72 -163 163c0 90 73 163 163 163zM61 496c0 -77 62 -139 138 -139c77 0 138 62 138 139c0 76 -61 138 -138 138c-76 0 -138 -62 -138 -138z" />
    <glyph glyph-name="dagger" unicode="&#x2020;" horiz-adv-x="367" 
d="M45 338h127v320h25v-320h128v-24h-128v-307h-25v307h-127v24z" />
    <glyph glyph-name="daggerdbl" unicode="&#x2021;" horiz-adv-x="375" 
d="M43 236v24h129v135h-129v25h129v238h24v-238h130v-25h-130v-135h130v-24h-130v-229h-24v229h-129z" />
    <glyph glyph-name="grave.case" horiz-adv-x="213" 
d="M178 515l-161 81l83 69l88 -150h-10z" />
    <glyph glyph-name="acute.case" horiz-adv-x="211" 
d="M106 665l82 -69l-160 -81h-11z" />
    <glyph glyph-name="macron.case" horiz-adv-x="285" 
d="M44 525v37h204v-37h-204z" />
    <glyph glyph-name="circumflex.case" horiz-adv-x="295" 
d="M33 515l100 141l83 -9l51 -132h-12l-90 70l-119 -70h-13z" />
    <glyph glyph-name="caron.case" horiz-adv-x="285" 
d="M41 656h12l90 -70l119 70h13l-100 -142l-83 9z" />
    <glyph glyph-name="dieresis.case" horiz-adv-x="369" 
d="M45 573c0 33 26 59 58 59c33 0 59 -26 59 -59s-26 -59 -59 -59c-32 0 -58 26 -58 59zM274 514c-32 0 -58 26 -58 59s26 59 58 59c33 0 59 -26 59 -59s-26 -59 -59 -59z" />
    <glyph glyph-name="breve.case" horiz-adv-x="293" 
d="M155 515c-79 0 -114 48 -112 131h3c27 -47 65 -50 109 -50s83 2 109 50h3c-3 -83 -29 -131 -112 -131z" />
    <glyph glyph-name="tilde.case" horiz-adv-x="355" 
d="M35 528l-8 1c3 54 34 110 95 107c29 -2 50 -14 77 -25c20 -9 43 -16 75 -16c29 0 48 13 55 35l5 -1c-1 -54 -22 -115 -87 -115c-30 0 -57 11 -82 23c-26 11 -54 21 -78 23c-19 0 -42 -6 -52 -32z" />
    <glyph glyph-name="dotaccent.case" horiz-adv-x="190" 
d="M38 573c0 33 26 59 58 59c34 0 59 -26 59 -59s-25 -59 -59 -59c-32 0 -58 26 -58 59z" />
    <glyph glyph-name="hungarumlaut.case" horiz-adv-x="375" 
d="M192 515l88 150l83 -69l-161 -81h-10zM35 515l88 150l82 -69l-160 -81h-10z" />
    <glyph glyph-name="caron.salt" horiz-adv-x="287" 
d="M28 650h13l92 -58l109 58h12l-113 -136h-29z" />
    <glyph glyph-name="commaaccent.salt" horiz-adv-x="286" 
d="M151 -226c-34 0 -62 27 -61 63c0 33 27 61 61 61c36 0 61 -28 63 -63c2 -57 -42 -108 -78 -132l-19 9c25 22 41 44 51 65c-6 -2 -11 -3 -17 -3z" />
    <glyph glyph-name="ring.case" horiz-adv-x="307" 
d="M31 613c-1 65 56 102 123 102c64 0 126 -35 126 -101c0 -65 -62 -100 -126 -100c-62 0 -123 33 -123 99zM109 613c0 -31 10 -82 45 -82s49 47 49 83c0 33 -13 85 -48 85s-46 -51 -46 -86z" />
    <glyph glyph-name="uni02C9" unicode="&#x2c9;" horiz-adv-x="308" 
d="M52 494v36h195v-36h-195z" />
    <glyph glyph-name="uni2215" unicode="&#x2215;" horiz-adv-x="401" 
d="M56 6l259 651h46l-258 -651h-47z" />
    <glyph glyph-name="uni2219" unicode="&#x2219;" horiz-adv-x="283" 
d="M86 238v119h117v-119h-117z" />
    <glyph glyph-name="radical" unicode="&#x221a;" horiz-adv-x="730" 
d="M10 177l122 90l162 -269l348 774h51l-354 -876h-70l-161 297l-65 -48z" />
    <glyph glyph-name="notequal" unicode="&#x2260;" horiz-adv-x="489" 
d="M53 259h149l39 129h-188v39h199l48 159h24l-47 -159h147v-39h-159l-38 -129h197v-39h-209l-46 -157h-26l47 157h-137v39z" />
    <glyph glyph-name="lessequal" unicode="&#x2264;" horiz-adv-x="507" 
d="M402 7h-303v42h303v-42zM383 451l-214 -144l215 -144l-13 -48l-285 192l285 193z" />
    <glyph glyph-name="greaterequal" unicode="&#x2265;" horiz-adv-x="453" 
d="M375 49v-42h-303v42h303zM90 163l214 144l-214 144l12 49l285 -193l-285 -192z" />
    <glyph glyph-name="uni0394" unicode="&#x394;" horiz-adv-x="688" 
d="M63 7v72l236 557h88l218 -557v-72h-542zM154 79h331l-168 445z" />
    <glyph glyph-name="product" unicode="&#x220f;" horiz-adv-x="795" 
d="M58 586v78h670v-78h-96v-578l-117 -1v579h-234v-578l-117 -1v579h-106z" />
    <glyph glyph-name="summation" unicode="&#x2211;" horiz-adv-x="612" 
d="M57 7l188 300l-189 279v78h473v-99h-310l155 -231l-232 -327h430v-78h-515v78z" />
    <glyph glyph-name="approxequal" unicode="&#x2248;" horiz-adv-x="446" 
d="M154 423c52 -3 95 -43 157 -43c40 0 60 6 73 37h2c4 -59 -23 -117 -106 -115c-57 1 -123 36 -159 41c-27 5 -50 3 -63 -27h-3c-2 47 26 110 99 107zM151 255c51 -3 94 -43 156 -43c40 0 60 6 73 37h2c4 -59 -22 -117 -106 -115c-57 1 -123 36 -159 41
c-26 5 -50 3 -63 -27h-2c-3 47 25 110 99 107z" />
    <glyph glyph-name="lozenge" unicode="&#x25ca;" horiz-adv-x="676" 
d="M54 307l286 238l285 -238l-285 -237zM137 307l203 -167l203 167l-203 167z" />
    <glyph glyph-name="uni2113" unicode="&#x2113;" horiz-adv-x="599" 
d="M14 350l47 70c19 -19 42 -32 68 -42c42 153 146 304 297 307c83 2 134 -48 134 -126c0 -172 -192 -276 -345 -275c-2 -18 -4 -34 -4 -48c0 -70 21 -153 107 -153c73 0 117 56 148 117l55 -25c-35 -96 -108 -175 -226 -175c-138 0 -188 112 -188 233c0 20 2 41 5 63
c-38 10 -72 27 -98 54zM274 366c91 12 211 101 211 192c0 30 -14 56 -53 56c-97 0 -167 -132 -199 -252c14 0 28 2 41 4z" />
    <glyph glyph-name="lira" unicode="&#x20a4;" horiz-adv-x="505" 
d="M423 7h-388v2c47 43 102 140 108 215h-102v24h103c-2 25 -9 47 -18 68h-85v24h73c-22 43 -48 85 -50 139c-5 119 87 185 204 185c60 0 133 -16 169 -63l-68 -130l-1 1c3 19 3 30 3 47c-2 87 -40 125 -93 125c-50 0 -101 -35 -101 -104c0 -95 46 -140 68 -200h125v-24
h-119c4 -12 6 -23 7 -36c0 -11 -2 -22 -4 -32h115v-24h-123c-22 -62 -80 -101 -123 -126l189 3c55 1 87 13 140 58h2z" />
    <glyph glyph-name="uni03A9" unicode="&#x3a9;" horiz-adv-x="810" 
d="M405 658c179 0 329 -104 329 -290c-1 -132 -106 -239 -213 -283h211v-78h-280v81c102 52 156 165 156 288c1 123 -59 254 -203 254s-203 -133 -202 -254c0 -123 53 -236 156 -288v-81h-280v78h211c-110 44 -213 151 -213 283c-1 186 149 290 328 290z" />
    <glyph glyph-name="ordfeminine" unicode="&#xaa;" horiz-adv-x="322" 
d="M35 457c-1 38 23 58 57 71c28 11 62 16 96 21v32c0 38 -11 64 -41 64c-36 0 -66 -40 -79 -76l-2 1l-16 62c27 18 61 24 96 24c80 -1 108 -32 108 -88v-112c0 -22 9 -36 28 -36c4 0 8 1 12 2h1c-9 -17 -35 -29 -59 -29c-21 0 -38 11 -44 26c-26 -17 -55 -26 -85 -26
c-40 0 -71 20 -72 64zM188 539c-36 -10 -83 -33 -83 -76c0 -32 19 -45 43 -45c14 0 28 5 40 11v11v99z" />
    <glyph glyph-name="Agrave" unicode="&#xc0;" horiz-adv-x="595" 
d="M127 7h-115v2c28 39 48 77 69 136l156 426c6 15 -5 60 -28 85v2h130l193 -565c9 -27 24 -59 50 -84v-2h-180v2c13 18 15 58 6 85l-46 135h-228l-32 -89c-17 -44 -5 -94 25 -131v-2zM252 554l-111 -305l214 1zM329 699l-160 81l82 69l89 -150h-11z" />
    <glyph glyph-name="Aacute" unicode="&#xc1;" horiz-adv-x="595" 
d="M127 7h-115v2c28 39 48 77 69 136l156 426c6 15 -5 60 -28 85v2h130l193 -565c9 -27 24 -59 50 -84v-2h-180v2c13 18 15 58 6 85l-46 135h-228l-32 -89c-17 -44 -5 -94 25 -131v-2zM252 554l-111 -305l214 1zM218 698h-11l89 151l82 -69z" />
    <glyph glyph-name="Acircumflex" unicode="&#xc2;" horiz-adv-x="595" 
d="M127 7h-115v2c28 39 48 77 69 136l156 426c6 15 -5 60 -28 85v2h130l193 -565c9 -27 24 -59 50 -84v-2h-180v2c13 18 15 58 6 85l-46 135h-228l-32 -89c-17 -44 -5 -94 25 -131v-2zM252 554l-111 -305l214 1zM154 698l100 142l84 -9l50 -133h-12l-89 70l-120 -70h-13z
" />
    <glyph glyph-name="Atilde" unicode="&#xc3;" horiz-adv-x="595" 
d="M12 9c28 39 48 77 69 136l156 426c6 15 -5 60 -28 85v2h130l193 -565c9 -27 24 -59 50 -84v-2h-180v2c13 18 15 58 6 85l-46 135h-228l-32 -89c-17 -44 -5 -94 25 -131v-2h-115v2zM252 554l-111 -305l214 1zM130 711c3 54 34 110 95 107c29 -2 50 -14 76 -25
c21 -9 44 -16 76 -16c28 0 47 13 54 35l6 -1c-2 -54 -22 -115 -87 -115c-30 0 -57 11 -82 23c-26 11 -54 21 -78 23c-19 1 -43 -6 -52 -32z" />
    <glyph glyph-name="Adieresis" unicode="&#xc4;" horiz-adv-x="595" 
d="M12 7v2c28 39 48 77 69 136l156 426c6 15 -5 60 -28 85v2h130l193 -565c9 -27 24 -59 50 -84v-2h-180v2c13 18 15 58 6 85l-46 135h-228l-32 -89c-17 -44 -5 -94 25 -131v-2h-115zM252 554l-111 -305l214 1zM369 698c-33 0 -58 27 -58 59c0 33 25 60 58 60s59 -27 59 -60
c0 -32 -26 -59 -59 -59zM198 698c-33 0 -58 27 -58 59c0 33 25 60 58 60s58 -27 58 -60c0 -32 -25 -59 -58 -59z" />
    <glyph glyph-name="Aring" unicode="&#xc5;" horiz-adv-x="595" 
d="M12 7v2c28 39 48 77 69 136l156 426c6 15 -5 60 -28 85v2h130l193 -565c9 -27 24 -59 50 -84v-2h-180v2c13 18 15 58 6 85l-46 135h-228l-32 -89c-17 -44 -5 -94 25 -131v-2h-115zM157 797c0 64 57 102 123 102c65 0 127 -35 127 -101s-62 -100 -127 -100
c-61 0 -123 33 -123 99zM141 249l214 1l-103 304zM236 797c0 -31 9 -82 45 -82c34 0 48 47 48 83c0 33 -12 84 -48 84c-34 0 -45 -50 -45 -85z" />
    <glyph glyph-name="Egrave" unicode="&#xc8;" horiz-adv-x="502" 
d="M27 7v2c25 19 35 44 35 100v447c0 55 -10 81 -35 100v2h417l18 -140h-2c-57 84 -135 121 -193 121h-89v-295h92c48 0 84 20 122 75h1v-163h-1c-39 49 -74 68 -122 68h-92v-298h110c56 0 117 19 193 115h2l-21 -134h-435zM326 698l-160 82l82 69l89 -151h-11z" />
    <glyph glyph-name="Eacute" unicode="&#xc9;" horiz-adv-x="502" 
d="M27 7v2c25 19 35 44 35 100v447c0 55 -10 81 -35 100v2h417l18 -140h-2c-57 84 -135 121 -193 121h-89v-295h92c48 0 84 20 122 75h1v-163h-1c-39 49 -74 68 -122 68h-92v-298h110c56 0 117 19 193 115h2l-21 -134h-435zM166 698l88 151l83 -69l-161 -82h-10z" />
    <glyph glyph-name="Ecircumflex" unicode="&#xca;" horiz-adv-x="502" 
d="M27 7v2c25 19 35 44 35 100v447c0 55 -10 81 -35 100v2h417l18 -140h-2c-57 84 -135 121 -193 121h-89v-295h92c48 0 84 20 122 75h1v-163h-1c-39 49 -74 68 -122 68h-92v-298h110c56 0 117 19 193 115h2l-21 -134h-435zM147 698h-13l100 142l84 -9l51 -133h-13l-89 70z
" />
    <glyph glyph-name="Edieresis" unicode="&#xcb;" horiz-adv-x="502" 
d="M27 7v2c25 19 35 44 35 100v447c0 55 -10 81 -35 100v2h417l18 -140h-2c-57 84 -135 121 -193 121h-89v-295h92c48 0 84 20 122 75h1v-163h-1c-39 49 -74 68 -122 68h-92v-298h110c56 0 117 19 193 115h2l-21 -134h-435zM285 757c0 33 26 60 58 60c34 0 59 -27 59 -60
c0 -32 -25 -59 -59 -59c-32 0 -58 27 -58 59zM114 757c0 33 26 60 58 60c34 0 59 -27 59 -60c0 -32 -25 -59 -59 -59c-32 0 -58 27 -58 59z" />
    <glyph glyph-name="Igrave" unicode="&#xcc;" horiz-adv-x="240" 
d="M31 658h184v-2c-25 -19 -34 -45 -34 -100v-446c0 -56 9 -82 34 -101v-2l-184 -1v3c24 20 34 45 34 101v446c0 56 -10 81 -34 101v1zM34 780l83 69l88 -151h-10z" />
    <glyph glyph-name="Iacute" unicode="&#xcd;" horiz-adv-x="240" 
d="M31 658h184v-2c-25 -19 -34 -45 -34 -100v-446c0 -56 9 -82 34 -101v-2l-184 -1v3c24 20 34 45 34 101v446c0 56 -10 81 -34 101v1zM45 698h-11l89 151l82 -69z" />
    <glyph glyph-name="Icircumflex" unicode="&#xce;" horiz-adv-x="240" 
d="M31 658h184v-2c-25 -19 -34 -45 -34 -100v-446c0 -56 9 -82 34 -101v-2l-184 -1v3c24 20 34 45 34 101v446c0 56 -10 81 -34 101v1zM3 698l100 142l84 -9l51 -133h-13l-89 70l-120 -70h-13z" />
    <glyph glyph-name="Idieresis" unicode="&#xcf;" horiz-adv-x="240" 
d="M31 658h184v-2c-25 -19 -34 -45 -34 -100v-446c0 -56 9 -82 34 -101v-2l-184 -1v3c24 20 34 45 34 101v446c0 56 -10 81 -34 101v1zM-24 757c0 33 26 60 58 60c33 0 59 -27 59 -60c0 -32 -26 -59 -59 -59c-32 0 -58 27 -58 59zM205 698c-32 0 -58 27 -58 59
c0 33 26 60 58 60c33 0 59 -27 59 -60c0 -32 -26 -59 -59 -59z" />
    <glyph glyph-name="Ograve" unicode="&#xd2;" horiz-adv-x="693" 
d="M37 312c0 210 144 353 334 353c177 0 285 -119 285 -312c0 -208 -145 -353 -334 -353c-175 0 -285 122 -285 312zM156 386c-1 -127 25 -361 197 -361c147 0 183 139 184 258c2 128 -26 356 -198 356c-147 0 -182 -134 -183 -253zM422 698l-161 82l82 69l89 -151h-10z" />
    <glyph glyph-name="Oacute" unicode="&#xd3;" horiz-adv-x="693" 
d="M37 312c0 210 144 353 334 353c177 0 285 -119 285 -312c0 -208 -145 -353 -334 -353c-175 0 -285 122 -285 312zM156 386c-1 -127 25 -361 197 -361c147 0 183 139 184 258c2 128 -26 356 -198 356c-147 0 -182 -134 -183 -253zM262 698l88 150l82 -69l-160 -81h-10z
" />
    <glyph glyph-name="Ocircumflex" unicode="&#xd4;" horiz-adv-x="693" 
d="M37 312c0 210 144 353 334 353c177 0 285 -119 285 -312c0 -208 -145 -353 -334 -353c-175 0 -285 122 -285 312zM156 386c-1 -127 25 -361 197 -361c147 0 183 139 184 258c2 128 -26 356 -198 356c-147 0 -182 -134 -183 -253zM229 698l101 142l83 -9l51 -133h-13
l-89 70l-120 -70h-13z" />
    <glyph glyph-name="Otilde" unicode="&#xd5;" horiz-adv-x="693" 
d="M37 312c0 210 144 353 334 353c177 0 285 -119 285 -312c0 -208 -145 -353 -334 -353c-175 0 -285 122 -285 312zM156 386c-1 -127 25 -361 197 -361c147 0 183 139 184 258c2 128 -26 356 -198 356c-147 0 -182 -134 -183 -253zM196 713c3 55 34 110 95 107
c29 -1 50 -14 76 -25c21 -8 44 -16 76 -16c28 0 47 14 54 36l6 -2c-2 -53 -22 -115 -87 -115c-30 0 -57 12 -82 23c-26 12 -54 22 -78 23c-19 1 -43 -5 -52 -32z" />
    <glyph glyph-name="Odieresis" unicode="&#xd6;" horiz-adv-x="693" 
d="M37 312c0 210 144 353 334 353c177 0 285 -119 285 -312c0 -208 -145 -353 -334 -353c-175 0 -285 122 -285 312zM156 386c-1 -127 25 -361 197 -361c147 0 183 139 184 258c2 128 -26 356 -198 356c-147 0 -182 -134 -183 -253zM376 758c0 32 26 59 58 59
c34 0 59 -27 59 -59c0 -33 -25 -60 -59 -60c-32 0 -58 27 -58 60zM205 758c0 32 26 59 58 59c33 0 59 -27 59 -59c0 -33 -26 -60 -59 -60c-32 0 -58 27 -58 60z" />
    <glyph glyph-name="Ugrave" unicode="&#xd9;" horiz-adv-x="601" 
d="M21 658h193v-1c-25 -20 -42 -45 -42 -101v-323c0 -135 74 -201 173 -200c96 2 176 70 176 212v283c0 67 -38 111 -69 128v2h131v-2c-22 -17 -42 -67 -42 -118v-295c0 -155 -88 -243 -232 -243c-143 0 -254 71 -254 246v310c0 55 -9 81 -34 100v2zM354 698l-160 82l82 69
l89 -151h-11z" />
    <glyph glyph-name="Uacute" unicode="&#xda;" horiz-adv-x="601" 
d="M21 658h193v-1c-25 -20 -42 -45 -42 -101v-323c0 -135 74 -201 173 -200c96 2 176 70 176 212v283c0 67 -38 111 -69 128v2h131v-2c-22 -17 -42 -67 -42 -118v-295c0 -155 -88 -243 -232 -243c-143 0 -254 71 -254 246v310c0 55 -9 81 -34 100v2zM250 698l89 151l82 -69
l-160 -82h-11z" />
    <glyph glyph-name="Ucircumflex" unicode="&#xdb;" horiz-adv-x="601" 
d="M21 658h193v-1c-25 -20 -42 -45 -42 -101v-323c0 -135 74 -201 173 -200c96 2 176 70 176 212v283c0 67 -38 111 -69 128v2h131v-2c-22 -17 -42 -67 -42 -118v-295c0 -155 -88 -243 -232 -243c-143 0 -254 71 -254 246v310c0 55 -9 81 -34 100v2zM208 698h-13l100 142
l83 -9l51 -133h-12l-90 70z" />
    <glyph glyph-name="Udieresis" unicode="&#xdc;" horiz-adv-x="601" 
d="M21 658h193v-1c-25 -20 -42 -45 -42 -101v-323c0 -135 74 -201 173 -200c96 2 176 70 176 212v283c0 67 -38 111 -69 128v2h131v-2c-22 -17 -42 -67 -42 -118v-295c0 -155 -88 -243 -232 -243c-143 0 -254 71 -254 246v310c0 55 -9 81 -34 100v2zM177 757
c0 33 25 60 58 60s59 -27 59 -60c0 -32 -26 -59 -59 -59s-58 27 -58 59zM348 757c0 33 26 60 58 60c33 0 59 -27 59 -60c0 -32 -26 -59 -59 -59c-32 0 -58 27 -58 59z" />
    <glyph glyph-name="Ntilde" unicode="&#xd1;" horiz-adv-x="584" 
d="M22 7v2c23 17 42 67 42 118v428c0 56 -13 82 -37 101v2h149l333 -507l1 377c0 67 -39 111 -70 128v2h132v-2c-22 -17 -42 -67 -42 -118v-536h-61l-385 584v-442c0 -67 44 -118 75 -135v-2h-137zM165 712l-7 1c2 55 33 110 95 107c29 -1 50 -14 76 -25
c20 -8 43 -16 75 -16c29 0 48 14 55 36l5 -2c-1 -54 -21 -115 -86 -115c-30 0 -57 12 -82 23c-26 12 -54 22 -79 23c-18 1 -42 -5 -52 -32z" />
    <glyph glyph-name="Yacute" unicode="&#xdd;" horiz-adv-x="636" 
d="M17 658h190v-2c-15 -31 -12 -52 5 -80l172 -283l110 208c32 63 30 120 8 155v2h117v-2c-34 -36 -83 -115 -117 -180l-107 -206v-160c0 -56 10 -82 34 -101v-2l-184 -1v3c24 20 34 45 34 101v135l-209 341c-19 30 -39 56 -53 71v1zM307 698h-11l89 151l82 -69z" />
    <glyph glyph-name="agrave" unicode="&#xe0;" horiz-adv-x="456" 
d="M17 108c-1 64 39 99 96 120c47 19 104 28 162 36v55c0 63 -17 108 -69 107c-61 0 -111 -68 -134 -128l-2 1l-27 105c45 32 103 41 162 41c136 -1 184 -55 184 -149v-188c0 -38 14 -62 46 -62c7 0 14 1 21 4l1 -1c-16 -28 -60 -49 -99 -49c-36 0 -65 19 -76 45
c-43 -30 -92 -45 -144 -45c-67 0 -120 34 -121 108zM275 247c-62 -15 -139 -55 -139 -128c1 -53 32 -77 72 -77c24 0 47 8 68 19c-1 6 -1 12 -1 18v168zM127 575l82 69l89 -150h-11z" />
    <glyph glyph-name="aacute" unicode="&#xe1;" horiz-adv-x="456" 
d="M17 108c-1 64 39 99 96 120c47 19 104 28 162 36v55c0 63 -17 108 -69 107c-61 0 -111 -68 -134 -128l-2 1l-27 105c45 32 103 41 162 41c136 -1 184 -55 184 -149v-188c0 -38 14 -62 46 -62c7 0 14 1 21 4l1 -1c-16 -28 -60 -49 -99 -49c-36 0 -65 19 -76 45
c-43 -30 -92 -45 -144 -45c-67 0 -120 34 -121 108zM275 247c-62 -15 -139 -55 -139 -128c1 -53 32 -77 72 -77c24 0 47 8 68 19c-1 6 -1 12 -1 18v168zM157 494h-10l89 150l82 -69z" />
    <glyph glyph-name="acircumflex" unicode="&#xe2;" horiz-adv-x="456" 
d="M17 108c-1 64 39 99 96 120c47 19 104 28 162 36v55c0 63 -17 108 -69 107c-61 0 -111 -68 -134 -128l-2 1l-27 105c45 32 103 41 162 41c136 -1 184 -55 184 -149v-188c0 -38 14 -62 46 -62c7 0 14 1 21 4l1 -1c-16 -28 -60 -49 -99 -49c-36 0 -65 19 -76 45
c-43 -30 -92 -45 -144 -45c-67 0 -120 34 -121 108zM275 247c-62 -15 -139 -55 -139 -128c1 -53 32 -77 72 -77c24 0 47 8 68 19c-1 6 -1 12 -1 18v168zM105 494l101 142l83 -9l51 -133h-11l-91 70l-122 -70h-11z" />
    <glyph glyph-name="atilde" unicode="&#xe3;" horiz-adv-x="456" 
d="M17 108c-1 64 39 99 96 120c47 19 104 28 162 36v55c0 63 -17 108 -69 107c-61 0 -111 -68 -134 -128l-2 1l-27 105c45 32 103 41 162 41c136 -1 184 -55 184 -149v-188c0 -38 14 -62 46 -62c7 0 14 1 21 4l1 -1c-16 -28 -60 -49 -99 -49c-36 0 -65 19 -76 45
c-43 -30 -92 -45 -144 -45c-67 0 -120 34 -121 108zM71 509c3 55 34 110 95 107c29 -1 50 -14 76 -25c20 -8 44 -16 75 -16c29 0 48 14 55 36l5 -2c-1 -54 -21 -115 -86 -115c-30 0 -57 12 -82 23c-26 12 -54 22 -79 23c-18 1 -42 -5 -51 -32zM275 247
c-62 -15 -139 -55 -139 -128c1 -53 32 -77 72 -77c24 0 47 8 68 19c-1 6 -1 12 -1 18v168z" />
    <glyph glyph-name="adieresis" unicode="&#xe4;" horiz-adv-x="465" 
d="M17 108c-1 64 39 99 96 120c47 19 104 28 162 36v55c0 63 -17 108 -69 107c-61 0 -111 -68 -134 -128l-2 1l-27 105c45 32 103 41 162 41c136 -1 184 -55 184 -149v-188c0 -38 14 -62 46 -62c7 0 14 1 21 4l1 -1c-16 -28 -60 -49 -99 -49c-36 0 -65 19 -76 45
c-43 -30 -92 -45 -144 -45c-67 0 -120 34 -121 108zM275 247c-62 -15 -139 -55 -139 -128c1 -53 32 -77 72 -77c24 0 47 8 68 19c-1 6 -1 12 -1 18v168zM130 494c-32 0 -58 26 -58 59c0 32 26 59 58 59c34 0 59 -27 59 -59c0 -33 -25 -59 -59 -59zM303 494
c-33 0 -58 26 -58 59c0 32 25 59 58 59s58 -27 58 -59c0 -33 -25 -59 -58 -59z" />
    <glyph glyph-name="aring" unicode="&#xe5;" horiz-adv-x="456" 
d="M17 108c-1 64 39 99 96 120c47 19 104 28 162 36v55c0 63 -17 108 -69 107c-61 0 -111 -68 -134 -128l-2 1l-27 105c45 32 103 41 162 41c136 -1 184 -55 184 -149v-188c0 -38 14 -62 46 -62c7 0 14 1 21 4l1 -1c-16 -28 -60 -49 -99 -49c-36 0 -65 19 -76 45
c-43 -30 -92 -45 -144 -45c-67 0 -120 34 -121 108zM91 593c0 64 56 102 123 102c65 -1 126 -35 126 -101s-61 -100 -126 -100c-62 0 -123 33 -123 99zM275 247c-62 -15 -139 -55 -139 -128c1 -53 32 -77 72 -77c24 0 47 8 68 19c-1 6 -1 12 -1 18v168zM169 593
c0 -31 10 -82 45 -82s49 47 49 83c0 33 -12 84 -48 84c-34 0 -46 -50 -46 -85z" />
    <glyph glyph-name="egrave" unicode="&#xe8;" horiz-adv-x="454" 
d="M236 0c-130 0 -210 89 -209 216c0 131 88 229 231 229c109 0 166 -65 169 -169h-286c0 -6 0 -12 -1 -18c0 -8 1 -16 1 -25c6 -91 60 -180 161 -180c45 0 90 21 124 55l4 -3c-44 -71 -113 -105 -194 -105zM265 426c-74 0 -113 -65 -122 -131h97c56 0 94 24 94 68
c0 36 -29 63 -69 63zM307 502l-161 81l82 69l89 -150h-10z" />
    <glyph glyph-name="eacute" unicode="&#xe9;" horiz-adv-x="454" 
d="M236 0c-130 0 -210 89 -209 216c0 131 88 229 231 229c109 0 166 -65 169 -169h-286c0 -6 0 -12 -1 -18c0 -8 1 -16 1 -25c6 -91 60 -180 161 -180c45 0 90 21 124 55l4 -3c-44 -71 -113 -105 -194 -105zM143 295h97c56 0 94 24 94 68c0 36 -29 63 -69 63
c-74 0 -113 -65 -122 -131zM159 502h-10l88 150l83 -69z" />
    <glyph glyph-name="ecircumflex" unicode="&#xea;" horiz-adv-x="454" 
d="M236 0c-130 0 -210 89 -209 216c0 131 88 229 231 229c109 0 166 -65 169 -169h-286c0 -6 0 -12 -1 -18c0 -8 1 -16 1 -25c6 -91 60 -180 161 -180c45 0 90 21 124 55l4 -3c-44 -71 -113 -105 -194 -105zM265 426c-74 0 -113 -65 -122 -131h97c56 0 94 24 94 68
c0 36 -29 63 -69 63zM110 494l100 141l83 -9l51 -132h-11l-91 70l-122 -70h-10z" />
    <glyph glyph-name="edieresis" unicode="&#xeb;" horiz-adv-x="454" 
d="M236 0c-130 0 -210 89 -209 216c0 131 88 229 231 229c109 0 166 -65 169 -169h-286c0 -6 0 -12 -1 -18c0 -8 1 -16 1 -25c6 -91 60 -180 161 -180c45 0 90 21 124 55l4 -3c-44 -71 -113 -105 -194 -105zM265 426c-74 0 -113 -65 -122 -131h97c56 0 94 24 94 68
c0 36 -29 63 -69 63zM85 561c0 33 26 59 58 59c33 0 59 -26 59 -59c0 -32 -26 -59 -59 -59c-32 0 -58 27 -58 59zM257 561c0 33 26 59 58 59c34 0 59 -26 59 -59c0 -32 -25 -59 -59 -59c-32 0 -58 27 -58 59z" />
    <glyph glyph-name="igrave" unicode="&#xec;" horiz-adv-x="230" 
d="M28 403v2c46 3 114 19 147 40h2l-1 -358c0 -41 15 -60 31 -78v-2h-176v2c17 18 32 37 32 79v241c0 31 -7 58 -35 74zM184 502l-160 81l82 69l89 -150h-11z" />
    <glyph glyph-name="iacute" unicode="&#xed;" horiz-adv-x="230" 
d="M175 445h2l-1 -358c0 -41 15 -60 31 -78v-2h-176v2c17 18 32 37 32 79v241c0 31 -7 58 -35 74v2c46 3 114 19 147 40zM37 502l89 150l82 -69l-160 -81h-11z" />
    <glyph glyph-name="icircumflex" unicode="&#xee;" horiz-adv-x="230" 
d="M28 403v2c46 3 114 19 147 40h2l-1 -358c0 -41 15 -60 31 -78v-2h-176v2c17 18 32 37 32 79v241c0 31 -7 58 -35 74zM8 494h-10l100 141l83 -9l51 -132h-11l-91 70z" />
    <glyph glyph-name="idieresis" unicode="&#xef;" horiz-adv-x="230" 
d="M28 403v2c46 3 114 19 147 40h2l-1 -358c0 -41 15 -60 31 -78v-2h-176v2c17 18 32 37 32 79v241c0 31 -7 58 -35 74zM142 561c0 33 25 59 58 59s59 -26 59 -59c0 -32 -26 -59 -59 -59s-58 27 -58 59zM-31 561c0 33 26 59 58 59c34 0 59 -26 59 -59c0 -32 -25 -59 -59 -59
c-32 0 -58 27 -58 59z" />
    <glyph glyph-name="ntilde" unicode="&#xf1;" horiz-adv-x="519" 
d="M22 403v2c46 3 114 19 147 40h2v-57c34 19 104 57 158 57c99 0 138 -61 138 -156v-202c1 -41 15 -60 32 -78v-2h-177v2c16 18 31 37 31 78v202c0 63 -29 101 -94 101c-31 0 -64 -10 -88 -22v-281c0 -41 14 -60 30 -78v-2h-175v2c16 18 31 37 31 79v241c0 31 -7 58 -35 74
zM211 615c29 -1 50 -13 76 -24c21 -9 44 -16 76 -16c28 0 47 13 54 35l6 -1c-2 -54 -22 -115 -87 -115c-30 0 -57 11 -82 23c-26 11 -54 21 -78 23c-19 0 -43 -6 -52 -32l-8 1c3 54 34 110 95 106z" />
    <glyph glyph-name="ograve" unicode="&#xf2;" 
d="M26 210c0 147 115 235 245 235c124 0 212 -70 212 -208c0 -146 -115 -238 -245 -238c-124 0 -212 74 -212 211zM246 424c-82 0 -100 -101 -100 -166c0 -78 12 -237 116 -237c85 0 101 103 101 170c0 78 -12 233 -117 233zM149 575l82 69l89 -150h-11z" />
    <glyph glyph-name="oacute" unicode="&#xf3;" 
d="M26 210c0 147 115 235 245 235c124 0 212 -70 212 -208c0 -146 -115 -238 -245 -238c-124 0 -212 74 -212 211zM246 424c-82 0 -100 -101 -100 -166c0 -78 12 -237 116 -237c85 0 101 103 101 170c0 78 -12 233 -117 233zM184 494l88 150l82 -69l-160 -81h-10z" />
    <glyph glyph-name="ocircumflex" unicode="&#xf4;" 
d="M26 210c0 147 115 235 245 235c124 0 212 -70 212 -208c0 -146 -115 -238 -245 -238c-124 0 -212 74 -212 211zM146 258c0 -78 12 -237 116 -237c85 0 101 103 101 170c0 78 -12 233 -117 233c-82 0 -100 -101 -100 -166zM138 494l100 141l83 -9l51 -132h-11l-91 70
l-122 -70h-10z" />
    <glyph glyph-name="otilde" unicode="&#xf5;" 
d="M26 210c0 147 115 235 245 235c124 0 212 -70 212 -208c0 -146 -115 -238 -245 -238c-124 0 -212 74 -212 211zM246 424c-82 0 -100 -101 -100 -166c0 -78 12 -237 116 -237c85 0 101 103 101 170c0 78 -12 233 -117 233zM109 508l-7 1c2 54 33 110 94 106
c29 -1 50 -13 77 -24c20 -9 43 -16 75 -16c29 0 48 13 55 35l5 -1c-1 -54 -21 -115 -86 -115c-31 0 -57 11 -82 23c-27 11 -54 21 -79 23c-19 0 -42 -6 -52 -32z" />
    <glyph glyph-name="odieresis" unicode="&#xf6;" 
d="M26 210c0 147 115 235 245 235c124 0 212 -70 212 -208c0 -146 -115 -238 -245 -238c-124 0 -212 74 -212 211zM146 258c0 -78 12 -237 116 -237c85 0 101 103 101 170c0 78 -12 233 -117 233c-82 0 -100 -101 -100 -166zM168 495c-32 0 -58 26 -58 59c0 32 26 59 58 59
c34 0 59 -27 59 -59c0 -33 -25 -59 -59 -59zM341 495c-33 0 -58 26 -58 59c0 32 25 59 58 59s58 -27 58 -59c0 -33 -25 -59 -58 -59z" />
    <glyph glyph-name="oslash" unicode="&#xf8;" 
d="M26 210c0 147 115 235 245 235c14 0 27 -1 40 -2l121 308h26l-123 -313c89 -21 148 -89 148 -201c0 -146 -115 -238 -245 -238c-25 0 -49 4 -71 10l-36 -95h-27l40 102c-72 29 -118 95 -118 194zM317 390l-129 -328c17 -25 41 -41 74 -41c85 0 101 103 101 170
c0 55 -6 149 -46 199zM173 90l125 318c-14 10 -31 16 -52 16c-82 0 -100 -101 -100 -166c0 -45 4 -116 27 -168z" />
    <glyph glyph-name="ugrave" unicode="&#xf9;" horiz-adv-x="492" 
d="M164 445h2v-289c0 -63 30 -101 94 -101c25 1 49 12 72 25l1 249c0 31 -8 58 -36 74v2c46 3 114 19 147 40h2v-345c0 -30 9 -53 42 -73v-2l-147 -21l-3 15l-5 40c-35 -26 -93 -59 -143 -59c-99 0 -138 61 -138 156v173c0 31 -7 58 -35 74v2c46 3 114 19 147 40zM131 575
l82 69l89 -150h-11z" />
    <glyph glyph-name="uacute" unicode="&#xfa;" horiz-adv-x="492" 
d="M164 445h2v-289c0 -63 30 -101 94 -101c25 1 49 12 72 25l1 249c0 31 -8 58 -36 74v2c46 3 114 19 147 40h2v-345c0 -30 9 -53 42 -73v-2l-147 -21l-3 15l-5 40c-35 -26 -93 -59 -143 -59c-99 0 -138 61 -138 156v173c0 31 -7 58 -35 74v2c46 3 114 19 147 40zM176 494
l89 150l82 -69l-160 -81h-11z" />
    <glyph glyph-name="ucircumflex" unicode="&#xfb;" horiz-adv-x="492" 
d="M164 445h2v-289c0 -63 30 -101 94 -101c25 1 49 12 72 25l1 249c0 31 -8 58 -36 74v2c46 3 114 19 147 40h2v-345c0 -30 9 -53 42 -73v-2l-147 -21l-3 15l-5 40c-35 -26 -93 -59 -143 -59c-99 0 -138 61 -138 156v173c0 31 -7 58 -35 74v2c46 3 114 19 147 40zM143 494
h-10l101 141l83 -9l51 -132h-11l-91 70z" />
    <glyph glyph-name="udieresis" unicode="&#xfc;" horiz-adv-x="492" 
d="M164 445h2v-289c0 -63 30 -101 94 -101c25 1 49 12 72 25l1 249c0 31 -8 58 -36 74v2c46 3 114 19 147 40h2v-345c0 -30 9 -53 42 -73v-2l-147 -21l-3 15l-5 40c-35 -26 -93 -59 -143 -59c-99 0 -138 61 -138 156v173c0 31 -7 58 -35 74v2c46 3 114 19 147 40zM274 562
c0 32 26 59 58 59c33 0 59 -27 59 -59c0 -33 -26 -59 -59 -59c-32 0 -58 26 -58 59zM160 621c33 0 58 -27 58 -59c0 -33 -25 -59 -58 -59s-58 26 -58 59c0 32 25 59 58 59z" />
    <glyph glyph-name="yacute" unicode="&#xfd;" horiz-adv-x="508" 
d="M62 371c-14 29 -34 54 -45 65v2h176v-2c-17 -29 -12 -49 -1 -74l116 -251l75 173c18 42 20 114 -3 152v2h111v-2c-26 -30 -93 -162 -108 -195l-103 -241c-37 -87 -89 -182 -174 -210l-68 110v3c23 -9 49 -13 75 -13c59 1 121 54 150 117h-29zM214 494h-10l89 150l82 -69z
" />
    <glyph glyph-name="ydieresis" unicode="&#xff;" horiz-adv-x="508" 
d="M17 436v2h176v-2c-17 -29 -12 -49 -1 -74l116 -251l75 173c18 42 20 114 -3 152v2h111v-2c-26 -30 -93 -162 -108 -195l-103 -241c-37 -87 -89 -182 -174 -210l-68 110v3c23 -9 49 -13 75 -13c59 1 121 54 150 117h-29l-172 364c-14 29 -34 54 -45 65zM348 494
c-32 0 -58 26 -58 59s26 59 58 59c33 0 59 -26 59 -59s-26 -59 -59 -59zM176 494c-33 0 -58 26 -58 59s25 59 58 59s58 -26 58 -59s-25 -59 -58 -59z" />
    <glyph glyph-name="Amacron" unicode="&#x100;" horiz-adv-x="595" 
d="M12 7v2c28 39 48 77 69 136l156 426c6 15 -5 60 -28 85v2h130l193 -565c9 -27 24 -59 50 -84v-2h-180v2c13 18 15 58 6 85l-46 135h-228l-32 -89c-17 -44 -5 -94 25 -131v-2h-115zM141 249l214 1l-103 304zM377 699h-205v36h205v-36z" />
    <glyph glyph-name="amacron" unicode="&#x101;" horiz-adv-x="456" 
d="M17 108c-1 64 39 99 96 120c47 19 104 28 162 36v55c0 63 -17 108 -69 107c-61 0 -111 -68 -134 -128l-2 1l-27 105c45 32 103 41 162 41c136 -1 184 -55 184 -149v-188c0 -38 14 -62 46 -62c7 0 14 1 21 4l1 -1c-16 -28 -60 -49 -99 -49c-36 0 -65 19 -76 45
c-43 -30 -92 -45 -144 -45c-67 0 -120 34 -121 108zM275 247c-62 -15 -139 -55 -139 -128c1 -53 32 -77 72 -77c24 0 47 8 68 19c-1 6 -1 12 -1 18v168zM79 518h279v-24h-279v24z" />
    <glyph glyph-name="Abreve" unicode="&#x102;" horiz-adv-x="595" 
d="M12 7v2c28 39 48 77 69 136l156 426c6 15 -5 60 -28 85v2h130l193 -565c9 -27 24 -59 50 -84v-2h-180v2c13 18 15 58 6 85l-46 135h-228l-32 -89c-17 -44 -5 -94 25 -131v-2h-115zM252 554l-111 -305l214 1zM289 698c-78 0 -114 48 -111 131h2c28 -46 66 -50 109 -50
c45 0 84 2 110 50h2c-3 -83 -28 -131 -112 -131z" />
    <glyph glyph-name="abreve" unicode="&#x103;" horiz-adv-x="456" 
d="M17 108c-1 64 39 99 96 120c47 19 104 28 162 36v55c0 63 -17 108 -69 107c-61 0 -111 -68 -134 -128l-2 1l-27 105c45 32 103 41 162 41c136 -1 184 -55 184 -149v-188c0 -38 14 -62 46 -62c7 0 14 1 21 4l1 -1c-16 -28 -60 -49 -99 -49c-36 0 -65 19 -76 45
c-43 -30 -92 -45 -144 -45c-67 0 -120 34 -121 108zM275 247c-62 -15 -139 -55 -139 -128c1 -53 32 -77 72 -77c24 0 47 8 68 19c-1 6 -1 12 -1 18v168zM215 494c-79 0 -115 48 -112 131h2c28 -47 66 -50 110 -50s83 2 109 50h2c-2 -83 -28 -131 -111 -131z" />
    <glyph glyph-name="Aogonek" unicode="&#x104;" horiz-adv-x="595" 
d="M12 9c28 39 48 77 69 136l156 426c6 15 -5 60 -28 85v2h130l193 -565c9 -27 24 -59 50 -84v-2h-59c-28 -30 -49 -78 -49 -117s21 -57 51 -58c17 -1 37 6 52 18h2c-15 -34 -45 -68 -99 -68c-50 0 -94 30 -95 92c-1 69 55 110 105 133h-88v2c13 18 15 58 6 85l-46 135h-228
l-32 -89c-17 -44 -5 -94 25 -131v-2h-115v2zM141 249l214 1l-103 304z" />
    <glyph glyph-name="aogonek" unicode="&#x105;" horiz-adv-x="460" 
d="M17 108c-1 64 39 99 96 120c47 19 104 28 162 36v55c0 63 -17 108 -69 107c-61 0 -111 -68 -134 -128l-2 1l-27 105c45 32 103 41 162 41c136 -1 184 -55 184 -149v-188c0 -38 14 -62 46 -62c7 0 14 1 21 4l1 -1c-11 -19 -36 -36 -65 -43c-28 -30 -48 -77 -48 -116
s20 -57 51 -58c17 -1 37 6 52 18h2c-15 -34 -45 -68 -99 -68c-50 0 -94 30 -95 92s45 102 91 126c-31 4 -54 22 -64 45c-43 -30 -92 -45 -144 -45c-67 0 -120 34 -121 108zM275 247c-62 -15 -139 -55 -139 -128c1 -53 32 -77 72 -77c24 0 47 8 68 19c-1 8 -1 12 -1 20v166z
" />
    <glyph glyph-name="Cacute" unicode="&#x106;" horiz-adv-x="622" 
d="M37 338c3 206 152 326 342 326c91 0 148 -20 202 -57l-52 -146h-1c-14 111 -68 181 -154 183c-120 1 -215 -85 -218 -272c-1 -81 14 -157 65 -219c44 -54 113 -85 190 -85c72 0 153 34 196 104l5 -3c-50 -105 -136 -169 -272 -169c-194 0 -305 136 -303 338zM325 698
l88 151l82 -69l-160 -82h-10z" />
    <glyph glyph-name="Ccircumflex" unicode="&#x108;" horiz-adv-x="622" 
d="M37 338c3 206 152 326 342 326c91 0 148 -20 202 -57l-52 -146h-1c-14 111 -68 181 -154 183c-120 1 -215 -85 -218 -272c-1 -81 14 -157 65 -219c44 -54 113 -85 190 -85c72 0 153 34 196 104l5 -3c-50 -105 -136 -169 -272 -169c-194 0 -305 136 -303 338zM247 698h-12
l100 142l83 -9l51 -133h-12l-90 70z" />
    <glyph glyph-name="Cdotaccent" unicode="&#x10a;" horiz-adv-x="622" 
d="M37 338c3 206 152 326 342 326c91 0 148 -20 202 -57l-52 -146h-1c-14 111 -68 181 -154 183c-120 1 -215 -85 -218 -272c-1 -81 14 -157 65 -219c44 -54 113 -85 190 -85c72 0 153 34 196 104l5 -3c-50 -105 -136 -169 -272 -169c-194 0 -305 136 -303 338zM316 757
c0 33 26 60 58 60c33 0 59 -27 59 -60c0 -32 -26 -59 -59 -59c-32 0 -58 27 -58 59z" />
    <glyph glyph-name="Ccaron" unicode="&#x10c;" horiz-adv-x="622" 
d="M37 338c3 206 152 326 342 326c91 0 148 -20 202 -57l-52 -146h-1c-14 111 -68 181 -154 183c-120 1 -215 -85 -218 -272c-1 -81 14 -157 65 -219c44 -54 113 -85 190 -85c72 0 153 34 196 104l5 -3c-50 -105 -136 -169 -272 -169c-194 0 -305 136 -303 338zM264 840h12
l89 -70l120 70h13l-100 -142l-84 9z" />
    <glyph glyph-name="cacute" unicode="&#x107;" horiz-adv-x="438" 
d="M236 0c-136 0 -208 92 -208 215c0 134 87 230 240 230c46 0 91 -10 136 -33l-35 -113l-3 1c-11 64 -47 125 -113 125c-73 0 -114 -80 -112 -176c4 -95 45 -195 154 -199c46 -1 90 17 128 56l3 -2c-41 -70 -107 -104 -190 -104zM201 494h-10l89 150l82 -69z" />
    <glyph glyph-name="ccircumflex" unicode="&#x109;" horiz-adv-x="438" 
d="M236 0c-136 0 -208 92 -208 215c0 134 87 230 240 230c46 0 91 -10 136 -33l-35 -113l-3 1c-11 64 -47 125 -113 125c-73 0 -114 -80 -112 -176c4 -95 45 -195 154 -199c46 -1 90 17 128 56l3 -2c-41 -70 -107 -104 -190 -104zM139 494h-10l101 141l83 -9l51 -132h-11
l-91 70z" />
    <glyph glyph-name="cdotaccent" unicode="&#x10b;" horiz-adv-x="438" 
d="M236 0c-136 0 -208 92 -208 215c0 134 87 230 240 230c46 0 91 -10 136 -33l-35 -113l-3 1c-11 64 -47 125 -113 125c-73 0 -114 -80 -112 -176c4 -95 45 -195 154 -199c46 -1 90 17 128 56l3 -2c-41 -70 -107 -104 -190 -104zM192 553c0 33 26 59 58 59
c33 0 59 -26 59 -59s-26 -59 -59 -59c-32 0 -58 26 -58 59z" />
    <glyph glyph-name="ccaron" unicode="&#x10d;" horiz-adv-x="438" 
d="M236 0c-136 0 -208 92 -208 215c0 134 87 230 240 230c46 0 91 -10 136 -33l-35 -113l-3 1c-11 64 -47 125 -113 125c-73 0 -114 -80 -112 -176c4 -95 45 -195 154 -199c46 -1 90 17 128 56l3 -2c-41 -70 -107 -104 -190 -104zM143 635h12l90 -70l123 70h10l-100 -141
l-84 9z" />
    <glyph glyph-name="Dcaron" unicode="&#x10e;" horiz-adv-x="627" 
d="M27 7v2c25 19 34 44 34 100v446c0 56 -9 81 -34 101v2l259 -1c190 -1 303 -125 303 -329c0 -203 -113 -321 -303 -321h-259zM178 27h74c129 0 215 100 215 303c0 204 -86 307 -215 307h-74v-610zM191 840h12l89 -70l120 70h13l-100 -141l-84 9z" />
    <glyph glyph-name="dcaron" unicode="&#x10f;" horiz-adv-x="746" 
d="M251 445c45 0 76 -9 99 -24v161c0 31 -8 59 -37 74v2c45 3 114 19 148 40h2v-629l25 -44v-2l-136 -18l-2 -1v50c-25 -25 -77 -54 -137 -54c-115 0 -186 88 -186 220c0 123 76 225 224 225zM147 240c2 -74 20 -200 117 -200c34 0 66 18 86 43v262c-14 55 -51 81 -88 81
c-73 0 -116 -62 -115 -186zM533 566l-51 132h12l90 -70l119 70h13l-100 -141z" />
    <glyph glyph-name="Dcroat" unicode="&#x110;" horiz-adv-x="627" 
d="M6 314v24h55v217c0 56 -9 81 -34 101v2l259 -1c190 -1 303 -125 303 -329c0 -203 -113 -321 -303 -321h-259v2c25 19 34 44 34 100v205h-55zM178 637v-299h153v-24h-153v-287h74c129 0 215 100 215 303c0 204 -86 307 -215 307h-74z" />
    <glyph glyph-name="dcroat" unicode="&#x111;" 
d="M27 220c0 123 76 225 224 225c45 0 76 -9 99 -24v125h-130v24h130v12c0 31 -8 59 -37 74v2c45 3 114 19 148 40h2v-128h47v-24h-47v-477l25 -44v-2l-136 -18l-2 -1v50c-25 -25 -77 -54 -137 -54c-115 0 -186 88 -186 220zM147 240c2 -74 20 -200 117 -200
c34 0 66 18 86 43v262c-14 55 -51 81 -88 81c-73 0 -116 -62 -115 -186z" />
    <glyph glyph-name="Emacron" unicode="&#x112;" horiz-adv-x="502" 
d="M27 7v2c25 19 35 44 35 100v447c0 55 -10 81 -35 100v2h417l18 -140h-2c-57 84 -135 121 -193 121h-89v-295h92c48 0 84 20 122 75h1v-163h-1c-39 49 -74 68 -122 68h-92v-298h110c56 0 117 19 193 115h2l-21 -134h-435zM155 698v37h204v-37h-204z" />
    <glyph glyph-name="emacron" unicode="&#x113;" horiz-adv-x="454" 
d="M236 0c-130 0 -210 89 -209 216c0 131 88 229 231 229c109 0 166 -65 169 -169h-286c0 -6 0 -12 -1 -18c0 -8 1 -16 1 -25c6 -91 60 -180 161 -180c45 0 90 21 124 55l4 -3c-44 -71 -113 -105 -194 -105zM265 426c-74 0 -113 -65 -122 -131h97c56 0 94 24 94 68
c0 36 -29 63 -69 63zM112 518h279v-24h-279v24z" />
    <glyph glyph-name="Ebreve" unicode="&#x114;" horiz-adv-x="502" 
d="M462 7h-435v2c25 19 35 44 35 100v447c0 55 -10 81 -35 100v2h417l18 -140h-2c-57 84 -135 121 -193 121h-89v-295h92c48 0 84 20 122 75h1v-163h-1c-39 49 -74 68 -122 68h-92v-298h110c56 0 117 19 193 115h2zM254 698c-79 0 -115 48 -112 131h2c28 -46 66 -50 110 -50
s83 2 109 50h3c-3 -83 -29 -131 -112 -131z" />
    <glyph glyph-name="ebreve" unicode="&#x115;" horiz-adv-x="454" 
d="M236 0c-130 0 -210 89 -209 216c0 131 88 229 231 229c109 0 166 -65 169 -169h-286c0 -6 0 -12 -1 -18c0 -8 1 -16 1 -25c6 -91 60 -180 161 -180c45 0 90 21 124 55l4 -3c-44 -71 -113 -105 -194 -105zM143 295h97c56 0 94 24 94 68c0 36 -29 63 -69 63
c-74 0 -113 -65 -122 -131zM234 494c-78 0 -114 48 -111 131h2c28 -47 66 -50 109 -50c45 0 84 2 110 50h2c-3 -83 -28 -131 -112 -131z" />
    <glyph glyph-name="Edotaccent" unicode="&#x116;" horiz-adv-x="502" 
d="M27 7v2c25 19 35 44 35 100v447c0 55 -10 81 -35 100v2h417l18 -140h-2c-57 84 -135 121 -193 121h-89v-295h92c48 0 84 20 122 75h1v-163h-1c-39 49 -74 68 -122 68h-92v-298h110c56 0 117 19 193 115h2l-21 -134h-435zM253 698c-32 0 -58 27 -58 59c0 33 26 60 58 60
c34 0 59 -27 59 -60c0 -32 -25 -59 -59 -59z" />
    <glyph glyph-name="edotaccent" unicode="&#x117;" horiz-adv-x="454" 
d="M236 0c-130 0 -210 89 -209 216c0 131 88 229 231 229c109 0 166 -65 169 -169h-286c0 -6 0 -12 -1 -18c0 -8 1 -16 1 -25c6 -91 60 -180 161 -180c45 0 90 21 124 55l4 -3c-44 -71 -113 -105 -194 -105zM143 295h97c56 0 94 24 94 68c0 36 -29 63 -69 63
c-74 0 -113 -65 -122 -131zM169 553c0 33 25 59 58 59s58 -26 58 -59s-25 -59 -58 -59s-58 26 -58 59z" />
    <glyph glyph-name="Eogonek" unicode="&#x118;" horiz-adv-x="502" 
d="M27 9c25 19 35 44 35 100v447c0 55 -10 81 -35 100v2h417l18 -140h-2c-57 84 -135 121 -193 121h-89v-295h92c48 0 84 20 122 75h1v-163h-1c-39 49 -74 68 -122 68h-92v-298h110c56 0 117 19 193 115h2l-21 -134h-67c-29 -30 -50 -78 -50 -117s21 -57 51 -58
c17 -1 37 6 52 18h2c-15 -34 -45 -68 -99 -68c-50 0 -94 30 -95 92c-1 69 55 110 105 133h-334v2z" />
    <glyph glyph-name="eogonek" unicode="&#x119;" horiz-adv-x="454" 
d="M223 0c-122 6 -197 94 -196 216c0 131 88 229 231 229c109 0 166 -65 169 -169h-286c0 -6 0 -12 -1 -18c0 -8 1 -16 1 -25c6 -91 60 -180 161 -180c45 0 90 21 124 55l4 -3c-38 -62 -96 -95 -163 -103c-27 -30 -46 -75 -46 -112c0 -39 21 -57 51 -58c17 -1 38 6 52 18h3
c-15 -34 -45 -68 -99 -68c-51 0 -95 30 -95 92c-1 62 45 103 90 126zM143 295h97c56 0 94 24 94 68c0 36 -29 63 -69 63c-74 0 -113 -65 -122 -131z" />
    <glyph glyph-name="Ecaron" unicode="&#x11a;" horiz-adv-x="502" 
d="M27 7v2c25 19 35 44 35 100v447c0 55 -10 81 -35 100v2h417l18 -140h-2c-57 84 -135 121 -193 121h-89v-295h92c48 0 84 20 122 75h1v-163h-1c-39 49 -74 68 -122 68h-92v-298h110c56 0 117 19 193 115h2l-21 -134h-435zM205 707l-51 133h12l90 -70l119 70h13l-100 -142z
" />
    <glyph glyph-name="ecaron" unicode="&#x11b;" horiz-adv-x="454" 
d="M236 0c-130 0 -210 89 -209 216c0 131 88 229 231 229c109 0 166 -65 169 -169h-286c0 -6 0 -12 -1 -18c0 -8 1 -16 1 -25c6 -91 60 -180 161 -180c45 0 90 21 124 55l4 -3c-44 -71 -113 -105 -194 -105zM143 295h97c56 0 94 24 94 68c0 36 -29 63 -69 63
c-74 0 -113 -65 -122 -131zM188 503l-50 132h11l90 -70l123 70h10l-100 -141z" />
    <glyph glyph-name="Gcircumflex" unicode="&#x11c;" horiz-adv-x="657" 
d="M37 331c0 204 144 333 342 333c85 0 144 -17 202 -57l-52 -146h-1c-14 111 -68 181 -154 183c-124 1 -216 -91 -216 -280c0 -169 82 -330 270 -337c20 -1 41 3 61 9v207c0 48 -32 76 -78 96v2l220 -1v-2c-28 -19 -38 -47 -38 -95v-196c-71 -33 -148 -47 -234 -47
c-205 0 -322 130 -322 331zM235 698l100 142l84 -9l51 -133h-13l-89 70l-120 -70h-13z" />
    <glyph glyph-name="gcircumflex" unicode="&#x11d;" horiz-adv-x="495" 
d="M13 -125l113 83c-54 11 -102 31 -102 88c0 49 40 77 83 91c-51 23 -86 65 -86 129c0 116 124 179 238 179c40 0 69 -8 91 -7c33 1 55 23 55 118h2l85 -65c-17 -45 -67 -63 -117 -68c55 -25 91 -70 91 -134c0 -116 -117 -176 -239 -176c-34 0 -67 5 -96 15
c-10 -5 -21 -14 -21 -27c-1 -43 104 -37 202 -49c86 -10 170 -32 167 -122c-3 -103 -129 -150 -251 -150c-107 0 -209 35 -215 95zM235 424c-65 -2 -97 -59 -97 -118c0 -80 33 -173 113 -171c66 1 98 59 98 119c0 80 -34 172 -114 170zM101 -126c0 -50 69 -74 137 -74
c71 0 147 27 145 77c-1 36 -36 48 -88 55c-47 8 -100 14 -148 22c-26 -25 -46 -51 -46 -80zM140 494h-10l100 141l84 -9l51 -132h-12l-90 70z" />
    <glyph glyph-name="Gbreve" unicode="&#x11e;" horiz-adv-x="657" 
d="M37 331c0 204 144 333 342 333c85 0 144 -17 202 -57l-52 -146h-1c-14 111 -68 181 -154 183c-124 1 -216 -91 -216 -280c0 -169 82 -330 270 -337c20 -1 41 3 61 9v207c0 48 -32 76 -78 96v2l220 -1v-2c-28 -19 -38 -47 -38 -95v-196c-71 -33 -148 -47 -234 -47
c-205 0 -322 130 -322 331zM253 829h2c27 -46 65 -50 109 -50s83 2 110 50h2c-3 -83 -28 -131 -112 -131c-79 0 -114 48 -111 131z" />
    <glyph glyph-name="gbreve" unicode="&#x11f;" horiz-adv-x="495" 
d="M13 -125l113 83c-54 11 -102 31 -102 88c0 49 40 77 83 91c-51 23 -86 65 -86 129c0 116 124 179 238 179c40 0 69 -8 91 -7c33 1 55 23 55 118h2l85 -65c-17 -45 -67 -63 -117 -68c55 -25 91 -70 91 -134c0 -116 -117 -176 -239 -176c-34 0 -67 5 -96 15
c-10 -5 -21 -14 -21 -27c-1 -43 104 -37 202 -49c86 -10 170 -32 167 -122c-3 -103 -129 -150 -251 -150c-107 0 -209 35 -215 95zM138 306c0 -80 33 -173 113 -171c66 1 98 59 98 119c0 80 -34 172 -114 170c-65 -2 -97 -59 -97 -118zM101 -126c0 -50 69 -74 137 -74
c71 0 147 27 145 77c-1 36 -36 48 -88 55c-47 8 -100 14 -148 22c-26 -25 -46 -51 -46 -80zM247 494c-79 0 -114 48 -111 131h2c27 -47 65 -50 109 -50s83 2 110 50h2c-3 -83 -28 -131 -112 -131z" />
    <glyph glyph-name="Gdotaccent" unicode="&#x120;" horiz-adv-x="657" 
d="M379 664c85 0 144 -17 202 -57l-52 -146h-1c-14 111 -68 181 -154 183c-124 1 -216 -91 -216 -280c0 -169 82 -330 270 -337c20 -1 41 3 61 9v207c0 48 -32 76 -78 96v2l220 -1v-2c-28 -19 -38 -47 -38 -95v-196c-71 -33 -148 -47 -234 -47c-205 0 -322 130 -322 331
c0 204 144 333 342 333zM365 817c33 0 59 -27 59 -60c0 -32 -26 -59 -59 -59c-32 0 -58 27 -58 59c0 33 26 60 58 60z" />
    <glyph glyph-name="gdotaccent" unicode="&#x121;" horiz-adv-x="495" 
d="M13 -125l113 83c-54 11 -102 31 -102 88c0 49 40 77 83 91c-51 23 -86 65 -86 129c0 116 124 179 238 179c40 0 69 -8 91 -7c33 1 55 23 55 118h2l85 -65c-17 -45 -67 -63 -117 -68c55 -25 91 -70 91 -134c0 -116 -117 -176 -239 -176c-34 0 -67 5 -96 15
c-10 -5 -21 -14 -21 -27c-1 -43 104 -37 202 -49c86 -10 170 -32 167 -122c-3 -103 -129 -150 -251 -150c-107 0 -209 35 -215 95zM138 306c0 -80 33 -173 113 -171c66 1 98 59 98 119c0 80 -34 172 -114 170c-65 -2 -97 -59 -97 -118zM101 -126c0 -50 69 -74 137 -74
c71 0 147 27 145 77c-1 36 -36 48 -88 55c-47 8 -100 14 -148 22c-26 -25 -46 -51 -46 -80zM191 553c0 33 26 59 58 59c33 0 59 -26 59 -59s-26 -59 -59 -59c-32 0 -58 26 -58 59z" />
    <glyph glyph-name="uni0122" unicode="&#x122;" horiz-adv-x="657" 
d="M37 331c0 204 144 333 342 333c85 0 144 -17 202 -57l-52 -146h-1c-14 111 -68 181 -154 183c-124 1 -216 -91 -216 -280c0 -169 82 -330 270 -337c20 -1 41 3 61 9v207c0 48 -32 76 -78 96v2l220 -1v-2c-28 -19 -38 -47 -38 -95v-196c-71 -33 -148 -47 -234 -47
c-205 0 -322 130 -322 331zM369 -175c-34 0 -61 27 -61 62c0 34 27 62 61 62c36 0 62 -28 63 -63c2 -57 -44 -108 -80 -132l-17 8c25 23 41 45 51 65c-6 -1 -11 -2 -17 -2z" />
    <glyph glyph-name="uni0123" unicode="&#x123;" horiz-adv-x="495" 
d="M13 -125l113 83c-54 11 -102 31 -102 88c0 49 40 77 83 91c-51 23 -86 65 -86 129c0 116 124 179 238 179c40 0 69 -8 91 -7c33 1 55 23 55 118h2l85 -65c-17 -45 -67 -63 -117 -68c55 -25 91 -70 91 -134c0 -116 -117 -176 -239 -176c-34 0 -67 5 -96 15
c-10 -5 -21 -14 -21 -27c-1 -43 104 -37 202 -49c86 -10 170 -32 167 -122c-3 -103 -129 -150 -251 -150c-107 0 -209 35 -215 95zM138 306c0 -80 33 -173 113 -171c66 1 98 59 98 119c0 80 -34 172 -114 170c-65 -2 -97 -59 -97 -118zM101 -126c0 -50 69 -74 137 -74
c71 0 147 27 145 77c-1 36 -36 48 -88 55c-47 8 -100 14 -148 22c-26 -25 -46 -51 -46 -80zM247 -371c-34 0 -62 27 -61 63c0 33 27 61 61 61c36 0 61 -28 63 -63c2 -57 -44 -108 -80 -132l-17 9c25 22 41 44 51 65c-6 -2 -11 -3 -17 -3z" />
    <glyph glyph-name="Hcircumflex" unicode="&#x124;" horiz-adv-x="623" 
d="M27 7v2c25 19 35 45 35 101v446c0 55 -10 81 -35 100v2l195 1v-2c-25 -20 -44 -45 -44 -100v-191h273v191c0 55 -20 80 -45 100v2l195 -1v-2c-24 -19 -34 -45 -34 -100v-446c0 -56 10 -82 34 -101v-2l-195 -1v2c25 20 45 45 45 100v238h-273v-238c0 -55 19 -80 44 -100
v-2zM197 698l100 142l83 -9l51 -133h-12l-90 70l-119 -70h-13z" />
    <glyph glyph-name="hcircumflex" unicode="&#x125;" horiz-adv-x="512" 
d="M17 656v2c46 3 114 19 147 40h2v-310c34 19 104 57 159 57c100 0 136 -61 138 -156v-202c0 -41 15 -60 32 -78v-2h-177v2c16 18 31 37 31 78v202c0 34 -8 61 -26 77c-16 16 -40 24 -69 24c-30 0 -64 -10 -88 -22v-281c0 -41 14 -60 31 -78v-2h-177v2c17 18 32 37 32 79
v494c0 31 -7 58 -35 74zM91 698l100 142l84 -9l51 -133h-12l-90 70l-123 -70h-10z" />
    <glyph glyph-name="Hbar" unicode="&#x126;" horiz-adv-x="623" 
d="M18 519h44v37c0 55 -10 81 -35 100v2l195 1v-2c-25 -20 -44 -45 -44 -100v-38h273v38c0 55 -20 80 -45 100v2l195 -1v-2c-24 -19 -34 -45 -34 -100v-37h38v-24h-38v-385c0 -56 10 -82 34 -101v-2l-195 -1v2c25 20 45 45 45 100v238h-273v-238c0 -55 19 -80 44 -100v-2
l-195 1v2c25 19 35 45 35 101v385h-44v24zM451 495h-273v-129h273v129z" />
    <glyph glyph-name="hbar" unicode="&#x127;" horiz-adv-x="512" 
d="M11 494v24h41v64c0 31 -7 58 -35 74v2c46 3 114 19 147 40h2v-180h211v-24h-211v-106c34 19 104 57 159 57c100 0 136 -61 138 -156v-202c0 -41 15 -60 32 -78v-2h-177v2c16 18 31 37 31 78v202c0 34 -8 61 -26 77c-16 16 -40 24 -69 24c-30 0 -64 -10 -88 -22v-281
c0 -41 14 -60 31 -78v-2h-177v2c17 18 32 37 32 79v406h-41z" />
    <glyph glyph-name="Itilde" unicode="&#x128;" horiz-adv-x="240" 
d="M31 658h184v-2c-25 -19 -34 -45 -34 -100v-446c0 -56 9 -82 34 -101v-2l-184 -1v3c24 20 34 45 34 101v446c0 56 -10 81 -34 101v1zM-33 713c2 54 33 110 95 107c29 -2 49 -14 76 -25c20 -9 43 -16 75 -16c29 0 48 13 55 36l5 -2c-1 -54 -21 -115 -86 -115
c-30 0 -57 11 -82 23c-26 12 -54 21 -79 23c-18 1 -42 -6 -52 -32z" />
    <glyph glyph-name="itilde" unicode="&#x129;" horiz-adv-x="230" 
d="M28 403v2c46 3 114 19 147 40h2l-1 -358c0 -41 15 -60 31 -78v-2h-176v2c17 18 32 37 32 79v241c0 31 -7 58 -35 74zM-31 508l-7 1c2 54 33 110 95 106c29 -1 50 -13 76 -24c20 -9 43 -16 75 -16c29 0 48 13 55 35l5 -1c-1 -54 -21 -115 -86 -115c-30 0 -57 11 -82 23
c-26 11 -54 21 -79 23c-18 0 -42 -6 -52 -32z" />
    <glyph glyph-name="Imacron" unicode="&#x12a;" horiz-adv-x="240" 
d="M65 494h-61v24h61v38c0 56 -10 81 -34 101v1h184v-2c-25 -19 -34 -45 -34 -100v-38h59v-24h-59v-384c0 -56 9 -82 34 -101v-2l-184 -1v3c24 20 34 45 34 101v384z" />
    <glyph glyph-name="imacron" unicode="&#x12b;" horiz-adv-x="230" 
d="M28 403v2c46 3 114 19 147 40h2l-1 -358c0 -41 15 -60 31 -78v-2h-176v2c17 18 32 37 32 79v241c0 31 -7 58 -35 74zM209 494h-199v24h199v-24z" />
    <glyph glyph-name="Iogonek" unicode="&#x12e;" horiz-adv-x="240" 
d="M31 658h184v-2c-25 -19 -34 -45 -34 -100v-446c0 -56 9 -82 34 -101v-2h-44c-28 -30 -49 -78 -49 -117s21 -57 51 -58c17 -1 37 6 52 18h2c-15 -34 -45 -68 -99 -68c-50 0 -94 30 -95 92c-1 68 55 110 104 133l-106 -1v3c24 20 34 45 34 101v446c0 56 -10 81 -34 101v1z
" />
    <glyph glyph-name="iogonek" unicode="&#x12f;" horiz-adv-x="224" 
d="M120 7h-94v2c16 18 32 37 32 79v241c0 31 -8 58 -36 74v2c46 3 114 19 148 40h1v-358c0 -41 15 -60 31 -78v-2h-48c-29 -30 -50 -78 -50 -117s21 -57 51 -58c17 -1 37 6 52 18h2c-15 -34 -45 -68 -99 -68c-50 0 -94 30 -95 92c0 69 55 110 105 133zM55 572
c8 30 39 49 69 41c30 -7 49 -39 41 -69c-8 -31 -38 -49 -69 -42c-30 8 -48 39 -41 70z" />
    <glyph glyph-name="Idotaccent" unicode="&#x130;" horiz-adv-x="240" 
d="M31 658h184v-2c-25 -19 -34 -45 -34 -100v-446c0 -56 9 -82 34 -101v-2l-184 -1v3c24 20 34 45 34 101v446c0 56 -10 81 -34 101v1zM63 757c0 33 25 60 58 60s58 -27 58 -60c0 -32 -25 -59 -58 -59s-58 27 -58 59z" />
    <glyph glyph-name="Jcircumflex" unicode="&#x134;" horiz-adv-x="376" 
d="M165 0c-61 -1 -114 9 -149 31l4 142h2c41 -104 78 -156 120 -152c69 6 67 92 67 184v352c0 55 -20 80 -44 100v2l194 -1v-2c-24 -19 -34 -45 -34 -100v-347c0 -118 -27 -207 -160 -209zM151 698h-13l100 142l83 -9l51 -133h-12l-90 70z" />
    <glyph glyph-name="jcircumflex" unicode="&#x135;" horiz-adv-x="222" 
d="M-4 -210v7c56 40 63 122 63 196v336c0 31 -8 58 -35 74v2c45 3 113 19 147 40h1v-434c0 -52 -8 -98 -29 -135c-29 -45 -72 -70 -147 -86zM-2 494h-11l101 141l83 -9l51 -132h-11l-91 70z" />
    <glyph glyph-name="uni0136" unicode="&#x136;" horiz-adv-x="588" 
d="M222 6l-195 1v2c25 19 35 45 35 101v446c0 55 -10 81 -35 100v2l195 1v-2c-25 -20 -44 -45 -44 -100v-244l169 172c58 57 86 130 49 171v2h148v-2l-244 -250l208 -310c16 -24 43 -65 70 -87v-2h-191v2c12 25 8 50 -7 73l-162 238l-40 -34v-178c0 -55 19 -80 44 -100v-2z
M307 -175c-34 0 -61 27 -61 62c0 34 27 62 61 62c37 0 62 -28 63 -63c2 -57 -44 -108 -80 -132l-17 8c25 23 41 45 51 65c-6 -1 -11 -2 -17 -2z" />
    <glyph glyph-name="uni0137" unicode="&#x137;" horiz-adv-x="488" 
d="M164 698h2v-477l126 116c27 23 41 57 38 99v2h126v-2c-24 -47 -76 -78 -112 -98l-60 -38l194 -291v-2h-167l1 2c7 24 -1 50 -14 69l-102 152l-30 -36v-107c0 -41 15 -60 31 -78v-2h-176v2c16 18 31 37 31 79v494c0 31 -7 58 -35 74v2c46 3 114 19 147 40zM256 -175
c-35 0 -62 27 -62 62c1 34 28 62 62 62c36 0 61 -28 62 -63c2 -57 -44 -108 -80 -132l-16 8c24 23 40 45 50 65c-5 -1 -11 -2 -16 -2z" />
    <glyph glyph-name="kgreenlandic" unicode="&#x138;" horiz-adv-x="520" 
d="M53 7v568h114v-268l209 268h97l-212 -264l235 -304h-145l-184 247v-247h-114z" />
    <glyph glyph-name="Lacute" unicode="&#x139;" horiz-adv-x="519" 
d="M27 658h191v-1c-25 -20 -40 -45 -40 -101v-529h112c56 0 139 43 199 112h2l-22 -132h-442v2c25 19 34 44 34 100v447c0 55 -9 81 -34 100v2zM85 698l88 150l83 -69l-161 -81h-10z" />
    <glyph glyph-name="lacute" unicode="&#x13a;" horiz-adv-x="223" 
d="M169 698h2v-611c0 -41 15 -60 31 -78v-2h-176v2c16 18 31 37 31 79v494c0 31 -7 58 -35 74v2c46 3 114 19 147 40zM26 698l89 151l82 -69l-160 -82h-11z" />
    <glyph glyph-name="uni013B" unicode="&#x13b;" horiz-adv-x="519" 
d="M27 658h191v-1c-25 -20 -40 -45 -40 -101v-529h112c56 0 139 43 199 112h2l-22 -132h-442v2c25 19 34 44 34 100v447c0 55 -9 81 -34 100v2zM259 -175c-34 0 -61 27 -61 62c1 34 27 62 61 62c37 0 62 -28 63 -63c2 -57 -44 -108 -80 -132l-16 8c24 23 40 45 50 65
c-5 -1 -11 -2 -17 -2z" />
    <glyph glyph-name="uni013C" unicode="&#x13c;" horiz-adv-x="223" 
d="M22 656v2c46 3 114 19 147 40h2v-611c0 -41 15 -60 31 -78v-2h-176v2c16 18 31 37 31 79v494c0 31 -7 58 -35 74z" />
    <glyph glyph-name="Lcaron" unicode="&#x13d;" horiz-adv-x="519" 
d="M27 658h191v-1c-25 -20 -40 -45 -40 -101v-529h112c56 0 139 43 199 112h2l-22 -132h-442v2c25 19 34 44 34 100v447c0 55 -9 81 -34 100v2zM31 834h13l92 -58l109 58h12l-113 -136h-30z" />
    <glyph glyph-name="lcaron" unicode="&#x13e;" horiz-adv-x="230" 
d="M22 656v2c46 3 114 19 147 40h2v-611c0 -41 15 -60 31 -78v-2h-176v2c16 18 31 37 31 79v494c0 31 -7 58 -35 74zM96 698l-84 136h13l92 -58l109 58h12l-113 -136h-29z" />
    <glyph glyph-name="Ldot" unicode="&#x13f;" horiz-adv-x="519" 
d="M27 658h191v-1c-25 -20 -40 -45 -40 -101v-529h112c56 0 139 43 199 112h2l-22 -132h-442v2c25 19 34 44 34 100v447c0 55 -9 81 -34 100v2zM329 220c-42 0 -74 34 -74 76s32 76 74 76c43 0 75 -34 75 -76s-32 -76 -75 -76z" />
    <glyph glyph-name="ldot" unicode="&#x140;" horiz-adv-x="404" 
d="M169 698h2v-611c0 -41 15 -60 31 -78v-2h-176v2c16 18 31 37 31 79v494c0 31 -7 58 -35 74v2c46 3 114 19 147 40zM296 390c43 0 76 -34 76 -76s-33 -76 -76 -76c-41 0 -74 34 -74 76s33 76 74 76z" />
    <glyph glyph-name="Lslash" unicode="&#x141;" horiz-adv-x="519" 
d="M3 297l58 13v246c0 55 -9 81 -34 100v2h191v-1c-25 -20 -40 -45 -40 -101v-222l123 29v-24l-123 -29v-283h112c56 0 139 43 199 112h2l-22 -132h-442v2c25 19 34 44 34 100v177l-58 -13v24z" />
    <glyph glyph-name="lslash" unicode="&#x142;" horiz-adv-x="223" 
d="M57 287l-59 -14v24l59 14v271c0 31 -7 58 -35 74v2c46 3 114 19 147 40h2v-364l57 13v-24l-57 -13v-223c0 -41 15 -60 31 -78v-2h-176v2c16 18 31 37 31 79v199z" />
    <glyph glyph-name="Nacute" unicode="&#x143;" horiz-adv-x="584" 
d="M22 7v2c23 17 42 67 42 118v428c0 56 -13 82 -37 101v2h149l333 -507l1 377c0 67 -39 111 -70 128v2h132v-2c-22 -17 -42 -67 -42 -118v-536h-61l-385 584v-442c0 -67 44 -118 75 -135v-2h-137zM247 698l89 151l82 -69l-160 -82h-11z" />
    <glyph glyph-name="nacute" unicode="&#x144;" horiz-adv-x="519" 
d="M169 445h2v-57c34 19 104 57 158 57c99 0 138 -61 138 -156v-202c1 -41 15 -60 32 -78v-2h-177v2c16 18 31 37 31 78v202c0 63 -29 101 -94 101c-31 0 -64 -10 -88 -22v-281c0 -41 14 -60 30 -78v-2h-175v2c16 18 31 37 31 79v241c0 31 -7 58 -35 74v2
c46 3 114 19 147 40zM184 500h-10l89 150l82 -69z" />
    <glyph glyph-name="uni0145" unicode="&#x145;" horiz-adv-x="584" 
d="M22 7v2c23 17 42 67 42 118v428c0 56 -13 82 -37 101v2h149l333 -507l1 377c0 67 -39 111 -70 128v2h132v-2c-22 -17 -42 -67 -42 -118v-536h-61l-385 584v-442c0 -67 44 -118 75 -135v-2h-137zM283 -175c-35 0 -62 27 -61 62c0 34 27 62 61 62c36 0 61 -28 62 -63
c2 -57 -44 -108 -79 -132l-17 8c24 23 40 45 50 65c-5 -1 -11 -2 -16 -2z" />
    <glyph glyph-name="uni0146" unicode="&#x146;" horiz-adv-x="519" 
d="M169 445h2v-57c34 19 104 57 158 57c99 0 138 -61 138 -156v-202c1 -41 15 -60 32 -78v-2h-177v2c16 18 31 37 31 78v202c0 63 -29 101 -94 101c-31 0 -64 -10 -88 -22v-281c0 -41 14 -60 30 -78v-2h-175v2c16 18 31 37 31 79v241c0 31 -7 58 -35 74v2
c46 3 114 19 147 40zM259 -175c-34 0 -61 27 -61 62c1 34 27 62 61 62c37 0 62 -28 63 -63c2 -57 -44 -108 -80 -132l-16 8c24 23 40 45 50 65c-5 -1 -11 -2 -17 -2z" />
    <glyph glyph-name="Ncaron" unicode="&#x147;" horiz-adv-x="584" 
d="M22 7v2c23 17 42 67 42 118v428c0 56 -13 82 -37 101v2h149l333 -507l1 377c0 67 -39 111 -70 128v2h132v-2c-22 -17 -42 -67 -42 -118v-536h-61l-385 584v-442c0 -67 44 -118 75 -135v-2h-137zM212 840h13l89 -70l120 70h13l-101 -142l-83 9z" />
    <glyph glyph-name="ncaron" unicode="&#x148;" horiz-adv-x="519" 
d="M22 403v2c46 3 114 19 147 40h2v-57c34 19 104 57 158 57c99 0 138 -61 138 -156v-202c1 -41 15 -60 32 -78v-2h-177v2c16 18 31 37 31 78v202c0 63 -29 101 -94 101c-31 0 -64 -10 -88 -22v-281c0 -41 14 -60 30 -78v-2h-175v2c16 18 31 37 31 79v241c0 31 -7 58 -35 74
zM142 635h11l91 -70l123 70h10l-101 -141l-83 9z" />
    <glyph glyph-name="napostrophe" unicode="&#x149;" horiz-adv-x="617" 
d="M267 445h2v-57c34 19 104 57 158 57c100 0 138 -61 138 -156l1 -202c0 -41 15 -60 31 -78v-2h-177v2c17 18 32 37 32 78v202c0 63 -30 101 -95 101c-30 0 -64 -10 -88 -22v-281c0 -41 14 -60 31 -78v-2h-176v2c17 18 32 37 32 79v241c0 31 -8 58 -35 74v2
c45 3 113 19 146 40zM12 674c0 34 27 61 61 61c36 0 61 -28 62 -62c2 -57 -41 -109 -77 -133l-19 9c25 22 41 45 51 65c-6 -2 -11 -2 -17 -2c-34 0 -62 26 -61 62z" />
    <glyph glyph-name="Omacron" unicode="&#x14c;" horiz-adv-x="693" 
d="M37 312c0 210 144 353 334 353c177 0 285 -119 285 -312c0 -208 -145 -353 -334 -353c-175 0 -285 122 -285 312zM156 386c-1 -127 25 -361 197 -361c147 0 183 139 184 258c2 128 -26 356 -198 356c-147 0 -182 -134 -183 -253zM184 698v24h326v-24h-326z" />
    <glyph glyph-name="omacron" unicode="&#x14d;" 
d="M26 210c0 147 115 235 245 235c124 0 212 -70 212 -208c0 -146 -115 -238 -245 -238c-124 0 -212 74 -212 211zM246 424c-82 0 -100 -101 -100 -166c0 -78 12 -237 116 -237c85 0 101 103 101 170c0 78 -12 233 -117 233zM378 494h-250v24h250v-24z" />
    <glyph glyph-name="Obreve" unicode="&#x14e;" horiz-adv-x="693" 
d="M37 312c0 210 144 353 334 353c177 0 285 -119 285 -312c0 -208 -145 -353 -334 -353c-175 0 -285 122 -285 312zM156 386c-1 -127 25 -361 197 -361c147 0 183 139 184 258c2 128 -26 356 -198 356c-147 0 -182 -134 -183 -253zM347 698c-79 0 -114 48 -111 131h2
c27 -46 65 -50 109 -50s83 2 110 50h2c-3 -83 -29 -131 -112 -131z" />
    <glyph glyph-name="obreve" unicode="&#x14f;" 
d="M26 210c0 147 115 235 245 235c124 0 212 -70 212 -208c0 -146 -115 -238 -245 -238c-124 0 -212 74 -212 211zM146 258c0 -78 12 -237 116 -237c85 0 101 103 101 170c0 78 -12 233 -117 233c-82 0 -100 -101 -100 -166zM255 494c-79 0 -115 48 -112 131h2
c28 -47 66 -50 110 -50s83 2 109 50h2c-2 -83 -28 -131 -111 -131z" />
    <glyph glyph-name="Ohungarumlaut" unicode="&#x150;" horiz-adv-x="693" 
d="M37 312c0 210 144 353 334 353c177 0 285 -119 285 -312c0 -208 -145 -353 -334 -353c-175 0 -285 122 -285 312zM156 386c-1 -127 25 -361 197 -361c147 0 183 139 184 258c2 128 -26 356 -198 356c-147 0 -182 -134 -183 -253zM375 698l88 151l83 -69l-161 -82h-10z
M217 698l89 151l82 -69l-160 -82h-11z" />
    <glyph glyph-name="ohungarumlaut" unicode="&#x151;" 
d="M26 210c0 147 115 235 245 235c124 0 212 -70 212 -208c0 -146 -115 -238 -245 -238c-124 0 -212 74 -212 211zM246 424c-82 0 -100 -101 -100 -166c0 -78 12 -237 116 -237c85 0 101 103 101 170c0 78 -12 233 -117 233zM133 494h-11l89 150l82 -69zM280 494l88 150
l82 -69l-160 -81h-10z" />
    <glyph glyph-name="Racute" unicode="&#x154;" horiz-adv-x="586" 
d="M222 7h-195v2c25 20 35 45 35 101v446c0 56 -10 81 -35 101v1l234 1c132 0 278 -46 278 -201c0 -110 -63 -158 -142 -179l177 -270v-2h-170v2c3 16 4 42 -9 62l-125 192h-92v-154c0 -56 19 -81 44 -100v-2zM212 638h-34v-355h74c97 0 165 62 165 169
c0 132 -84 186 -205 186zM208 698l88 151l83 -69l-161 -82h-10z" />
    <glyph glyph-name="racute" unicode="&#x155;" horiz-adv-x="371" 
d="M22 403v2c46 3 114 19 147 40h2v-77c32 42 80 77 142 77c13 0 31 -4 43 -13l-24 -110h-2c-24 29 -58 56 -92 55c-25 0 -48 -12 -67 -35v-255c0 -41 14 -60 31 -78v-2h-176v2c16 18 31 37 31 79v241c0 31 -7 58 -35 74zM111 494h-11l89 150l82 -69z" />
    <glyph glyph-name="uni0156" unicode="&#x156;" horiz-adv-x="586" 
d="M222 7h-195v2c25 20 35 45 35 101v446c0 56 -10 81 -35 101v1l234 1c132 0 278 -46 278 -201c0 -110 -63 -158 -142 -179l177 -270v-2h-170v2c3 16 4 42 -9 62l-125 192h-92v-154c0 -56 19 -81 44 -100v-2zM178 638v-355h74c97 0 165 62 165 169c0 132 -84 186 -205 186
h-34zM292 -175c-35 0 -62 27 -62 62c1 34 28 62 62 62c36 0 61 -28 62 -63c2 -57 -44 -108 -80 -132l-16 8c24 23 40 45 50 65c-5 -1 -11 -2 -16 -2z" />
    <glyph glyph-name="uni0157" unicode="&#x157;" horiz-adv-x="371" 
d="M169 445h2v-77c32 42 80 77 142 77c13 0 31 -4 43 -13l-24 -110h-2c-24 29 -58 56 -92 55c-25 0 -48 -12 -67 -35v-255c0 -41 14 -60 31 -78v-2h-176v2c16 18 31 37 31 79v241c0 31 -7 58 -35 74v2c46 3 114 19 147 40zM121 -175c-34 0 -62 27 -61 62c0 34 27 62 61 62
c36 0 61 -28 63 -63c2 -57 -44 -108 -80 -132l-17 8c25 23 41 45 51 65c-6 -1 -11 -2 -17 -2z" />
    <glyph glyph-name="Rcaron" unicode="&#x158;" horiz-adv-x="586" 
d="M222 7h-195v2c25 20 35 45 35 101v446c0 56 -10 81 -35 101v1l234 1c132 0 278 -46 278 -201c0 -110 -63 -158 -142 -179l177 -270v-2h-170v2c3 16 4 42 -9 62l-125 192h-92v-154c0 -56 19 -81 44 -100v-2zM212 638h-34v-355h74c97 0 165 62 165 169
c0 132 -84 186 -205 186zM227 708l-51 132h12l90 -70l120 70h12l-100 -141z" />
    <glyph glyph-name="rcaron" unicode="&#x159;" horiz-adv-x="371" 
d="M22 403v2c46 3 114 19 147 40h2v-77c32 42 80 77 142 77c13 0 31 -4 43 -13l-24 -110h-2c-24 29 -58 56 -92 55c-25 0 -48 -12 -67 -35v-255c0 -41 14 -60 31 -78v-2h-176v2c16 18 31 37 31 79v241c0 31 -7 58 -35 74zM119 503l-51 132h12l90 -70l123 70h10l-100 -141z
" />
    <glyph glyph-name="Sacute" unicode="&#x15a;" horiz-adv-x="511" 
d="M249 279c-103 42 -222 79 -222 197c0 120 118 188 229 188c83 0 131 -9 202 -47l-27 -125h-2c-25 96 -100 149 -177 152c-70 2 -135 -35 -138 -102c-4 -85 86 -116 175 -152c62 -25 122 -50 160 -96c50 -60 46 -156 -4 -214c-48 -57 -122 -83 -200 -83
c-75 0 -149 16 -215 46l1 176h2c37 -114 98 -197 207 -201c81 -3 146 37 144 119c-1 78 -61 112 -135 142zM216 698h-11l89 151l82 -69z" />
    <glyph glyph-name="sacute" unicode="&#x15b;" horiz-adv-x="387" 
d="M28 306c0 93 95 140 177 140c51 0 89 -10 134 -33l-12 -103h-2c-24 60 -73 116 -142 116c-38 0 -76 -21 -76 -63c0 -55 60 -74 121 -97c65 -24 130 -51 131 -129c1 -43 -18 -78 -46 -100c-32 -25 -77 -37 -120 -37c-55 0 -110 9 -159 32v126h2c23 -71 83 -139 167 -139
c39 0 79 17 79 61c0 45 -51 64 -108 86c-69 26 -145 56 -146 140zM127 494h-11l89 150l82 -69z" />
    <glyph glyph-name="Scircumflex" unicode="&#x15c;" horiz-adv-x="511" 
d="M27 476c0 120 118 188 229 188c83 0 131 -9 202 -47l-27 -125h-2c-25 96 -100 149 -177 152c-70 2 -135 -35 -138 -102c-4 -85 86 -116 175 -152c62 -25 122 -50 160 -96c50 -60 46 -156 -4 -214c-48 -57 -122 -83 -200 -83c-75 0 -149 16 -215 46l1 176h2
c37 -114 98 -197 207 -201c81 -3 146 37 144 119c-1 78 -61 112 -135 142c-103 42 -222 79 -222 197zM135 698l100 141l84 -9l51 -132h-13l-89 70l-120 -70h-13z" />
    <glyph glyph-name="scircumflex" unicode="&#x15d;" horiz-adv-x="387" 
d="M28 306c0 93 95 140 177 140c51 0 89 -10 134 -33l-12 -103h-2c-24 60 -73 116 -142 116c-38 0 -76 -21 -76 -63c0 -55 60 -74 121 -97c65 -24 130 -51 131 -129c1 -43 -18 -78 -46 -100c-32 -25 -77 -37 -120 -37c-55 0 -110 9 -159 32v126h2c23 -71 83 -139 167 -139
c39 0 79 17 79 61c0 45 -51 64 -108 86c-69 26 -145 56 -146 140zM86 494h-10l100 141l84 -9l51 -132h-12l-90 70z" />
    <glyph glyph-name="Scedilla" unicode="&#x15e;" horiz-adv-x="511" 
d="M249 279c-103 42 -222 79 -222 197c0 120 118 188 229 188c83 0 131 -9 202 -47l-27 -125h-2c-25 96 -100 149 -177 152c-70 2 -135 -35 -138 -102c-4 -85 86 -116 175 -152c62 -25 122 -50 160 -96c50 -60 46 -156 -4 -214c-48 -57 -122 -83 -200 -83c-15 0 -29 1 -44 2
l-6 -18c20 5 38 7 55 7c71 -1 111 -45 111 -103c0 -67 -49 -108 -133 -108c-38 0 -76 10 -103 29l34 93h2c-6 -76 27 -102 57 -103c47 0 67 45 67 85c0 49 -26 83 -66 85c-12 0 -24 -2 -37 -8l-9 7l6 37c-52 6 -102 20 -149 41l1 176h2c37 -114 98 -197 207 -201
c81 -3 146 37 144 119c-1 78 -61 112 -135 142z" />
    <glyph glyph-name="scedilla" unicode="&#x15f;" horiz-adv-x="387" 
d="M28 306c0 93 95 140 177 140c51 0 89 -10 134 -33l-12 -103h-2c-24 60 -73 116 -142 116c-38 0 -76 -21 -76 -63c0 -55 60 -74 121 -97c65 -24 130 -51 131 -129c1 -43 -18 -78 -46 -100c-32 -25 -77 -37 -120 -37c-14 0 -27 1 -41 2l-6 -21c20 5 38 7 54 7
c71 -1 111 -45 111 -103c0 -67 -49 -108 -133 -108c-38 0 -76 10 -103 29l35 93h2c-6 -76 26 -102 57 -103c47 0 67 45 67 85c-1 49 -26 83 -66 85c-12 0 -25 -2 -37 -8l-10 7l7 39c-33 5 -66 14 -96 28v126h2c23 -71 83 -139 167 -139c39 0 79 17 79 61
c0 45 -51 64 -108 86c-69 26 -145 56 -146 140z" />
    <glyph glyph-name="Scaron" unicode="&#x160;" horiz-adv-x="511" 
d="M27 476c0 120 118 188 229 188c83 0 131 -9 202 -47l-27 -125h-2c-25 96 -100 149 -177 152c-70 2 -135 -35 -138 -102c-4 -85 86 -116 175 -152c62 -25 122 -50 160 -96c50 -60 46 -156 -4 -214c-48 -57 -122 -83 -200 -83c-75 0 -149 16 -215 46l1 176h2
c37 -114 98 -197 207 -201c81 -3 146 37 144 119c-1 78 -61 112 -135 142c-103 42 -222 79 -222 197zM161 840h13l89 -70l120 70h13l-100 -141l-84 9z" />
    <glyph glyph-name="scaron" unicode="&#x161;" horiz-adv-x="387" 
d="M28 306c0 93 95 140 177 140c51 0 89 -10 134 -33l-12 -103h-2c-24 60 -73 116 -142 116c-38 0 -76 -21 -76 -63c0 -55 60 -74 121 -97c65 -24 130 -51 131 -129c1 -43 -18 -78 -46 -100c-32 -25 -77 -37 -120 -37c-55 0 -110 9 -159 32v126h2c23 -71 83 -139 167 -139
c39 0 79 17 79 61c0 45 -51 64 -108 86c-69 26 -145 56 -146 140zM133 503l-51 132h12l90 -70l123 70h10l-100 -141z" />
    <glyph glyph-name="uni0162" unicode="&#x162;" horiz-adv-x="592" 
d="M18 518l18 140h518l18 -140h-2c-57 84 -135 120 -193 120h-24v-529c0 -56 16 -81 40 -100v-2h-83l-6 -33c60 10 120 -19 120 -84c0 -56 -44 -109 -137 -109c-30 0 -49 3 -84 13v12c77 -9 138 16 139 69c1 41 -18 68 -67 69l11 63h-83v2c24 20 34 45 34 101v528h-24
c-60 0 -136 -36 -193 -120h-2z" />
    <glyph glyph-name="uni0163" unicode="&#x163;" horiz-adv-x="305" 
d="M17 420v18c47 7 118 64 154 116h15v-116h99v-18h-99v-294c0 -49 26 -68 61 -69c21 0 41 8 57 17l2 -1c-34 -44 -75 -68 -123 -72c-4 0 -8 -1 -11 -1l-5 -26c60 10 120 -19 120 -84c0 -56 -44 -109 -137 -109c-30 0 -49 3 -84 13v12c77 -9 138 16 139 69
c1 41 -18 68 -67 69l10 58c-40 6 -76 34 -76 90v328h-55z" />
    <glyph glyph-name="Tcaron" unicode="&#x164;" horiz-adv-x="592" 
d="M18 518l18 140h518l18 -140h-2c-57 84 -135 120 -193 120h-24v-529c0 -56 16 -81 40 -100v-2h-190v2c24 20 34 45 34 101v528h-24c-60 0 -136 -36 -193 -120h-2zM259 707l-51 133h12l89 -70l120 70h13l-100 -142z" />
    <glyph glyph-name="tcaron" unicode="&#x165;" horiz-adv-x="331" 
d="M17 420v18c47 7 118 64 154 116h15v-116h99v-18h-99v-294c0 -49 26 -68 61 -69c21 0 41 8 57 17l2 -1c-38 -50 -88 -74 -142 -73c-47 0 -92 28 -92 92v328h-55zM231 515h-7l1 156h109z" />
    <glyph glyph-name="Tbar" unicode="&#x166;" horiz-adv-x="592" 
d="M18 518l18 140h518l18 -140h-2c-57 84 -135 120 -193 120h-24v-302h143v-25h-143v-202c0 -56 16 -81 40 -100v-2h-190v2c24 20 34 45 34 101v201h-145v25h145v302h-24c-60 0 -136 -36 -193 -120h-2z" />
    <glyph glyph-name="tbar" unicode="&#x167;" horiz-adv-x="305" 
d="M72 420h-55v18c47 7 118 64 154 116h15v-116h99v-18h-99v-294c0 -49 26 -68 61 -69c21 0 41 8 57 17l2 -1c-38 -50 -88 -74 -142 -73c-47 0 -92 28 -92 92v328zM37 658h222v-24h-222v24z" />
    <glyph glyph-name="Utilde" unicode="&#x168;" horiz-adv-x="601" 
d="M21 658h193v-1c-25 -20 -42 -45 -42 -101v-323c0 -135 74 -201 173 -200c96 2 176 70 176 212v283c0 67 -38 111 -69 128v2h131v-2c-22 -17 -42 -67 -42 -118v-295c0 -155 -88 -243 -232 -243c-143 0 -254 71 -254 246v310c0 55 -9 81 -34 100v2zM167 713
c3 55 34 110 95 107c29 -1 50 -14 76 -25c21 -8 44 -16 76 -16c29 0 48 14 55 36l5 -2c-2 -54 -22 -115 -87 -115c-30 0 -57 12 -82 23c-26 12 -54 22 -78 23c-19 1 -43 -5 -52 -32z" />
    <glyph glyph-name="utilde" unicode="&#x169;" horiz-adv-x="492" 
d="M164 445h2v-289c0 -63 30 -101 94 -101c25 1 49 12 72 25l1 249c0 31 -8 58 -36 74v2c46 3 114 19 147 40h2v-345c0 -30 9 -53 42 -73v-2l-147 -21l-3 15l-5 40c-35 -26 -93 -59 -143 -59c-99 0 -138 61 -138 156v173c0 31 -7 58 -35 74v2c46 3 114 19 147 40zM188 615
c29 -1 50 -13 76 -24c20 -9 44 -16 75 -16c29 0 48 13 55 35l5 -1c-1 -54 -21 -115 -86 -115c-30 0 -57 11 -82 23c-26 11 -54 21 -78 23c-19 0 -43 -6 -52 -32l-8 1c3 54 34 110 95 106z" />
    <glyph glyph-name="Umacron" unicode="&#x16a;" horiz-adv-x="601" 
d="M21 658h193v-1c-25 -20 -42 -45 -42 -101v-323c0 -135 74 -201 173 -200c96 2 176 70 176 212v283c0 67 -38 111 -69 128v2h131v-2c-22 -17 -42 -67 -42 -118v-295c0 -155 -88 -243 -232 -243c-143 0 -254 71 -254 246v310c0 55 -9 81 -34 100v2zM461 698h-283v24h283
v-24z" />
    <glyph glyph-name="umacron" unicode="&#x16b;" horiz-adv-x="492" 
d="M164 445h2v-289c0 -63 30 -101 94 -101c25 1 49 12 72 25l1 249c0 31 -8 58 -36 74v2c46 3 114 19 147 40h2v-345c0 -30 9 -53 42 -73v-2l-147 -21l-3 15l-5 40c-35 -26 -93 -59 -143 -59c-99 0 -138 61 -138 156v173c0 31 -7 58 -35 74v2c46 3 114 19 147 40zM374 494
h-253v24h253v-24z" />
    <glyph glyph-name="Ubreve" unicode="&#x16c;" horiz-adv-x="601" 
d="M21 658h193v-1c-25 -20 -42 -45 -42 -101v-323c0 -135 74 -201 173 -200c96 2 176 70 176 212v283c0 67 -38 111 -69 128v2h131v-2c-22 -17 -42 -67 -42 -118v-295c0 -155 -88 -243 -232 -243c-143 0 -254 71 -254 246v310c0 55 -9 81 -34 100v2zM320 698
c-79 0 -115 48 -112 131h2c28 -46 66 -50 110 -50s83 2 109 50h3c-3 -83 -29 -131 -112 -131z" />
    <glyph glyph-name="ubreve" unicode="&#x16d;" horiz-adv-x="492" 
d="M164 445h2v-289c0 -63 30 -101 94 -101c25 1 49 12 72 25l1 249c0 31 -8 58 -36 74v2c46 3 114 19 147 40h2v-345c0 -30 9 -53 42 -73v-2l-147 -21l-3 15l-5 40c-35 -26 -93 -59 -143 -59c-99 0 -138 61 -138 156v173c0 31 -7 58 -35 74v2c46 3 114 19 147 40zM135 625h2
c27 -47 65 -50 109 -50s83 2 110 50h2c-3 -83 -29 -131 -112 -131c-79 0 -114 48 -111 131z" />
    <glyph glyph-name="Uring" unicode="&#x16e;" horiz-adv-x="601" 
d="M21 658h193v-1c-25 -20 -42 -45 -42 -101v-323c0 -135 74 -201 173 -200c96 2 176 70 176 212v283c0 67 -38 111 -69 128v2h131v-2c-22 -17 -42 -67 -42 -118v-295c0 -155 -88 -243 -232 -243c-143 0 -254 71 -254 246v310c0 55 -9 81 -34 100v2zM192 797
c-1 64 56 102 123 102c65 -1 126 -35 126 -101s-61 -100 -126 -100c-62 0 -123 33 -123 99zM270 797c0 -31 10 -82 45 -82s49 47 49 83c0 33 -12 84 -48 84c-35 0 -46 -50 -46 -85z" />
    <glyph glyph-name="uring" unicode="&#x16f;" horiz-adv-x="492" 
d="M164 445h2v-289c0 -63 30 -101 94 -101c25 1 49 12 72 25l1 249c0 31 -8 58 -36 74v2c46 3 114 19 147 40h2v-345c0 -30 9 -53 42 -73v-2l-147 -21l-3 15l-5 40c-35 -26 -93 -59 -143 -59c-99 0 -138 61 -138 156v173c0 31 -7 58 -35 74v2c46 3 114 19 147 40zM246 694
c65 0 127 -35 127 -100c0 -66 -62 -100 -126 -100c-62 0 -123 32 -124 99c0 64 57 102 123 101zM202 593c0 -32 10 -82 45 -82s49 47 49 82c0 34 -13 85 -48 85s-46 -50 -46 -85z" />
    <glyph glyph-name="Uhungarumlaut" unicode="&#x170;" horiz-adv-x="601" 
d="M21 658h193v-1c-25 -20 -42 -45 -42 -101v-323c0 -135 74 -201 173 -200c96 2 176 70 176 212v283c0 67 -38 111 -69 128v2h131v-2c-22 -17 -42 -67 -42 -118v-295c0 -155 -88 -243 -232 -243c-143 0 -254 71 -254 246v310c0 55 -9 81 -34 100v2zM323 698l88 151l83 -69
l-161 -82h-10zM176 698h-10l88 151l82 -69z" />
    <glyph glyph-name="uhungarumlaut" unicode="&#x171;" horiz-adv-x="492" 
d="M164 445h2v-289c0 -63 30 -101 94 -101c25 1 49 12 72 25l1 249c0 31 -8 58 -36 74v2c46 3 114 19 147 40h2v-345c0 -30 9 -53 42 -73v-2l-147 -21l-3 15l-5 40c-35 -26 -93 -59 -143 -59c-99 0 -138 61 -138 156v173c0 31 -7 58 -35 74v2c46 3 114 19 147 40zM102 494
l88 150l82 -69l-160 -81h-10zM269 494h-10l89 150l82 -69z" />
    <glyph glyph-name="Uogonek" unicode="&#x172;" horiz-adv-x="601" 
d="M21 658h193v-1c-25 -20 -42 -45 -42 -101v-323c0 -135 74 -201 173 -200c96 2 176 70 176 212v283c0 67 -38 111 -69 128v2h131v-2c-22 -17 -42 -67 -42 -118v-295c0 -147 -78 -235 -213 -242c-25 -30 -44 -74 -44 -111c0 -39 21 -57 51 -58c17 -1 37 6 52 18h2
c-14 -34 -45 -68 -99 -68c-50 0 -94 30 -94 92c-1 63 45 103 91 127c-134 6 -232 80 -232 245v310c0 55 -9 81 -34 100v2z" />
    <glyph glyph-name="uogonek" unicode="&#x173;" horiz-adv-x="492" 
d="M164 445h2v-289c0 -63 30 -101 94 -101c25 1 49 12 72 25l1 249c0 31 -8 58 -36 74v2c46 3 114 19 147 40h2v-345c0 -30 9 -53 42 -73v-2l-147 -21l-3 15l-5 40c-29 -21 -74 -47 -116 -55c-27 -30 -47 -76 -47 -114c0 -39 21 -57 51 -58c17 -1 38 6 52 18h3
c-15 -34 -45 -68 -99 -68c-51 0 -95 30 -95 92c-1 63 46 103 92 127c-90 6 -122 70 -122 155v173c0 31 -7 58 -35 74v2c46 3 114 19 147 40z" />
    <glyph glyph-name="Wcircumflex" unicode="&#x174;" horiz-adv-x="952" 
d="M62 593c-11 24 -32 52 -45 64v1h178v-2c-18 -30 -13 -50 -1 -76l185 -449l90 279l-70 183c-10 25 -32 52 -45 64v1h178v-2c-18 -30 -12 -49 -1 -76l167 -448l130 380c18 50 8 111 -14 144l-1 2h122v-2c-26 -26 -74 -111 -98 -180l-164 -469h-51l-141 372l-124 -372h-51z
M345 698h-13l100 142l84 -9l51 -133h-13l-89 70z" />
    <glyph glyph-name="wcircumflex" unicode="&#x175;" horiz-adv-x="748" 
d="M17 436v2h175v-2c-17 -29 -12 -49 0 -74l113 -248l62 159l-43 98c-13 29 -34 54 -45 65v2h175v-2c-16 -29 -11 -49 0 -74l101 -247l69 169c17 42 18 114 -4 152v2h110v-2c-29 -38 -82 -141 -104 -195l-95 -234h-51l-103 242l-95 -242h-51l-169 364c-14 29 -34 54 -45 65z
M267 494h-10l100 141l83 -9l51 -132h-11l-90 70z" />
    <glyph glyph-name="Ycircumflex" unicode="&#x176;" horiz-adv-x="636" 
d="M17 658h190v-2c-15 -31 -12 -52 5 -80l172 -283l110 208c32 63 30 120 8 155v2h117v-2c-34 -36 -83 -115 -117 -180l-107 -206v-160c0 -56 10 -82 34 -101v-2l-184 -1v3c24 20 34 45 34 101v135l-209 341c-19 30 -39 56 -53 71v1zM243 698h-13l100 142l84 -9l51 -133h-13
l-89 70z" />
    <glyph glyph-name="ycircumflex" unicode="&#x177;" horiz-adv-x="508" 
d="M62 371c-14 29 -34 54 -45 65v2h176v-2c-17 -29 -12 -49 -1 -74l116 -251l75 173c18 42 20 114 -3 152v2h111v-2c-26 -30 -93 -162 -108 -195l-103 -241c-37 -87 -89 -182 -174 -210l-68 110v3c23 -9 49 -13 75 -13c59 1 121 54 150 117h-29zM143 494l100 141l84 -9
l51 -132h-12l-90 70l-123 -70h-10z" />
    <glyph glyph-name="Ydieresis" unicode="&#x178;" horiz-adv-x="636" 
d="M17 657v1h190v-2c-15 -31 -12 -52 5 -80l172 -283l110 208c32 63 30 120 8 155v2h117v-2c-34 -36 -83 -115 -117 -180l-107 -206v-160c0 -56 10 -82 34 -101v-2l-184 -1v3c24 20 34 45 34 101v135l-209 341c-19 30 -39 56 -53 71zM423 817c33 0 59 -27 59 -60
c0 -32 -26 -59 -59 -59c-32 0 -58 27 -58 59c0 33 26 60 58 60zM252 817c33 0 59 -27 59 -60c0 -32 -26 -59 -59 -59c-32 0 -58 27 -58 59c0 33 26 60 58 60z" />
    <glyph glyph-name="Zacute" unicode="&#x179;" horiz-adv-x="518" 
d="M473 7h-448v2l320 629h-112c-61 1 -141 -36 -197 -119h-3l18 139h433v-2l-320 -629h119c78 0 157 61 212 118h2zM214 698l88 151l82 -69l-160 -82h-10z" />
    <glyph glyph-name="zacute" unicode="&#x17a;" horiz-adv-x="400" 
d="M19 7v2l220 411h-72c-17 0 -101 -50 -141 -86h-2l14 104h337v-2l-220 -411h82c18 0 98 46 146 87h1l-17 -105h-348zM140 494h-11l89 150l82 -69z" />
    <glyph glyph-name="Zdotaccent" unicode="&#x17b;" horiz-adv-x="518" 
d="M25 7v2l320 629h-112c-61 1 -141 -36 -197 -119h-3l18 139h433v-2l-320 -629h119c78 0 157 61 212 118h2l-24 -138h-448zM213 757c0 33 26 60 58 60c33 0 59 -27 59 -60c0 -32 -26 -59 -59 -59c-32 0 -58 27 -58 59z" />
    <glyph glyph-name="zdotaccent" unicode="&#x17c;" horiz-adv-x="400" 
d="M19 9l220 411h-72c-17 0 -101 -50 -141 -86h-2l14 104h337v-2l-220 -411h82c18 0 98 46 146 87h1l-17 -105h-348v2zM141 553c0 33 26 59 58 59c34 0 59 -26 59 -59s-25 -59 -59 -59c-32 0 -58 26 -58 59z" />
    <glyph glyph-name="Zcaron" unicode="&#x17d;" horiz-adv-x="518" 
d="M473 7h-448v2l320 629h-112c-61 1 -141 -36 -197 -119h-3l18 139h433v-2l-320 -629h119c78 0 157 61 212 118h2zM181 840h12l89 -70l120 70h13l-100 -142l-83 9z" />
    <glyph glyph-name="zcaron" unicode="&#x17e;" horiz-adv-x="400" 
d="M19 9l220 411h-72c-17 0 -101 -50 -141 -86h-2l14 104h337v-2l-220 -411h82c18 0 98 46 146 87h1l-17 -105h-348v2zM150 503l-50 132h11l90 -70l123 70h10l-100 -141z" />
    <glyph glyph-name="uni0218" unicode="&#x218;" horiz-adv-x="511" 
d="M27 476c0 120 118 188 229 188c83 0 131 -9 202 -47l-27 -125h-2c-25 96 -100 149 -177 152c-70 2 -135 -35 -138 -102c-4 -85 86 -116 175 -152c62 -25 122 -50 160 -96c50 -60 46 -156 -4 -214c-48 -57 -122 -83 -200 -83c-75 0 -149 16 -215 46l1 176h2
c37 -114 98 -197 207 -201c81 -3 146 37 144 119c-1 78 -61 112 -135 142c-103 42 -222 79 -222 197zM262 -175c-34 0 -61 27 -61 62c1 34 27 62 62 62c36 0 61 -28 62 -63c2 -57 -44 -108 -80 -132l-16 8c24 23 40 45 50 65c-5 -1 -11 -2 -17 -2z" />
    <glyph glyph-name="uni0219" unicode="&#x219;" horiz-adv-x="387" 
d="M28 306c0 93 95 140 177 140c51 0 89 -10 134 -33l-12 -103h-2c-24 60 -73 116 -142 116c-38 0 -76 -21 -76 -63c0 -55 60 -74 121 -97c65 -24 130 -51 131 -129c1 -43 -18 -78 -46 -100c-32 -25 -77 -37 -120 -37c-55 0 -110 9 -159 32v126h2c23 -71 83 -139 167 -139
c39 0 79 17 79 61c0 45 -51 64 -108 86c-69 26 -145 56 -146 140zM194 -175c-34 0 -61 27 -61 62c0 34 27 62 61 62c37 0 62 -28 63 -63c2 -57 -44 -108 -80 -132l-17 8c25 23 41 45 51 65c-6 -1 -11 -2 -17 -2z" />
    <glyph glyph-name="uni021A" unicode="&#x21a;" horiz-adv-x="592" 
d="M20 518h-2l18 140h518l18 -140h-2c-57 84 -135 120 -193 120h-24v-529c0 -56 16 -81 40 -100v-2h-190v2c24 20 34 45 34 101v528h-24c-60 0 -136 -36 -193 -120zM296 -175c-35 0 -62 27 -62 62c1 34 28 62 62 62c36 0 61 -28 62 -63c2 -57 -44 -108 -80 -132l-16 8
c24 23 40 45 50 65c-5 -1 -11 -2 -16 -2z" />
    <glyph glyph-name="uni021B" unicode="&#x21b;" horiz-adv-x="305" 
d="M17 420v18c47 7 118 64 154 116h15v-116h99v-18h-99v-294c0 -49 26 -68 61 -69c21 0 41 8 57 17l2 -1c-38 -50 -88 -74 -142 -73c-47 0 -92 28 -92 92v328h-55zM170 -175c-34 0 -61 27 -61 62c1 34 27 62 62 62c36 0 61 -28 62 -63c2 -57 -44 -108 -80 -132l-16 8
c24 23 40 45 50 65c-5 -1 -11 -2 -17 -2z" />
    <glyph glyph-name="uni0237" unicode="&#x237;" horiz-adv-x="222" 
d="M143 -124c-29 -45 -72 -70 -147 -86v7c56 40 63 122 63 196v336c0 31 -8 58 -35 74v2c45 3 113 19 147 40h1v-434c0 -52 -8 -98 -29 -135z" />
    <glyph glyph-name="Wgrave" unicode="&#x1e80;" horiz-adv-x="952" 
d="M62 593c-11 24 -32 52 -45 64v1h178v-2c-18 -30 -13 -50 -1 -76l185 -449l90 279l-70 183c-10 25 -32 52 -45 64v1h178v-2c-18 -30 -12 -49 -1 -76l167 -448l130 380c18 50 8 111 -14 144l-1 2h122v-2c-26 -26 -74 -111 -98 -180l-164 -469h-51l-141 372l-124 -372h-51z
M529 698l-160 82l82 69l89 -151h-11z" />
    <glyph glyph-name="wgrave" unicode="&#x1e81;" horiz-adv-x="748" 
d="M17 436v2h175v-2c-17 -29 -12 -49 0 -74l113 -248l62 159l-43 98c-13 29 -34 54 -45 65v2h175v-2c-16 -29 -11 -49 0 -74l101 -247l69 169c17 42 18 114 -4 152v2h110v-2c-29 -38 -82 -141 -104 -195l-95 -234h-51l-103 242l-95 -242h-51l-169 364c-14 29 -34 54 -45 65z
M415 494l-160 81l82 69l89 -150h-11z" />
    <glyph glyph-name="Wacute" unicode="&#x1e82;" horiz-adv-x="952" 
d="M17 657v1h178v-2c-18 -30 -13 -50 -1 -76l185 -449l90 279l-70 183c-10 25 -32 52 -45 64v1h178v-2c-18 -30 -12 -49 -1 -76l167 -448l130 380c18 50 8 111 -14 144l-1 2h122v-2c-26 -26 -74 -111 -98 -180l-164 -469h-51l-141 372l-124 -372h-51l-244 586
c-11 24 -32 52 -45 64zM423 698l89 151l82 -69l-161 -82h-10z" />
    <glyph glyph-name="wacute" unicode="&#x1e83;" horiz-adv-x="748" 
d="M17 436v2h175v-2c-17 -29 -12 -49 0 -74l113 -248l62 159l-43 98c-13 29 -34 54 -45 65v2h175v-2c-16 -29 -11 -49 0 -74l101 -247l69 169c17 42 18 114 -4 152v2h110v-2c-29 -38 -82 -141 -104 -195l-95 -234h-51l-103 242l-95 -242h-51l-169 364c-14 29 -34 54 -45 65z
M316 494l88 150l83 -69l-161 -81h-10z" />
    <glyph glyph-name="Wdieresis" unicode="&#x1e84;" horiz-adv-x="952" 
d="M17 657v1h178v-2c-18 -30 -13 -50 -1 -76l185 -449l90 279l-70 183c-10 25 -32 52 -45 64v1h178v-2c-18 -30 -12 -49 -1 -76l167 -448l130 380c18 50 8 111 -14 144l-1 2h122v-2c-26 -26 -74 -111 -98 -180l-164 -469h-51l-141 372l-124 -372h-51l-244 586
c-11 24 -32 52 -45 64zM525 757c0 33 26 60 58 60c34 0 59 -27 59 -60c0 -32 -25 -59 -59 -59c-32 0 -58 27 -58 59zM378 698c-32 0 -58 27 -58 59c0 33 26 60 58 60c33 0 59 -27 59 -60c0 -32 -26 -59 -59 -59z" />
    <glyph glyph-name="wdieresis" unicode="&#x1e85;" horiz-adv-x="748" 
d="M62 371c-14 29 -34 54 -45 65v2h175v-2c-17 -29 -12 -49 0 -74l113 -248l62 159l-43 98c-13 29 -34 54 -45 65v2h175v-2c-16 -29 -11 -49 0 -74l101 -247l69 169c17 42 18 114 -4 152v2h110v-2c-29 -38 -82 -141 -104 -195l-95 -234h-51l-103 242l-95 -242h-51zM468 494
c-32 0 -58 26 -58 59s26 59 58 59c33 0 59 -26 59 -59s-26 -59 -59 -59zM292 494c-33 0 -58 26 -58 59s25 59 58 59s58 -26 58 -59s-25 -59 -58 -59z" />
    <glyph glyph-name="pi" unicode="&#x3c0;" horiz-adv-x="701" 
d="M38 535h624v-95h-74v-343c0 -50 15 -70 34 -88v-2h-150l-1 433h-186v-343c0 -50 16 -70 34 -88v-2h-150l-1 433h-41c-36 0 -68 -21 -88 -56h-1v151z" />
    <glyph glyph-name="Ccedilla" unicode="&#xc7;" horiz-adv-x="622" 
d="M37 338c3 206 152 326 342 326c91 0 148 -20 202 -57l-52 -146h-1c-14 111 -68 181 -154 183c-120 1 -215 -85 -218 -272c-1 -81 14 -157 65 -219c44 -54 113 -85 190 -85c72 0 153 34 196 104l5 -3c-50 -105 -136 -169 -272 -169c-11 0 -23 0 -34 1l-5 -20
c20 5 38 7 54 7c71 -1 111 -45 111 -103c0 -67 -49 -108 -133 -108c-38 0 -76 10 -103 29l35 93h2c-6 -76 26 -102 57 -103c47 0 67 45 67 85c-1 49 -26 83 -66 85c-12 0 -25 -2 -37 -8l-10 7l7 39c-161 23 -250 152 -248 334z" />
    <glyph glyph-name="ccedilla" unicode="&#xe7;" horiz-adv-x="438" 
d="M179 6c-99 22 -151 104 -151 209c0 134 87 230 240 230c46 0 91 -10 136 -33l-35 -113l-3 1c-11 64 -47 125 -113 125c-73 0 -114 -80 -112 -176c4 -95 45 -195 154 -199c46 -1 90 17 128 56l3 -2c-41 -70 -107 -104 -190 -104c-12 0 -24 1 -35 2l-5 -21c20 5 38 7 54 7
c71 -1 111 -45 111 -103c0 -67 -49 -108 -133 -108c-38 0 -76 10 -102 29l34 93h2c-6 -76 27 -102 57 -103c47 0 67 45 67 85c-1 49 -26 83 -66 85c-12 0 -25 -2 -37 -8l-10 7z" />
    <glyph glyph-name="Eth" unicode="&#xd0;" horiz-adv-x="627" 
d="M6 314v24h55v217c0 56 -9 81 -34 101v2l259 -1c190 -1 303 -125 303 -329c0 -203 -113 -321 -303 -321h-259v2c25 19 34 44 34 100v205h-55zM178 637v-299h153v-24h-153v-287h74c129 0 215 100 215 303c0 204 -86 307 -215 307h-74z" />
    <glyph glyph-name="yen" unicode="&#xa5;" horiz-adv-x="636" 
d="M17 657v1h190v-2c-15 -31 -12 -52 5 -80l172 -283l110 208c32 63 30 120 8 155v2h117v-2c-34 -36 -83 -115 -117 -180l-107 -206v-36h83v-24h-83v-71h83v-24h-83v-5c0 -56 10 -82 34 -101v-2l-184 -1v3c24 20 34 45 34 101v5h-84v24h84v71h-84v24h84v11l-209 341
c-19 30 -39 56 -53 71z" />
    <glyph glyph-name="Oslash" unicode="&#xd8;" horiz-adv-x="693" 
d="M37 312c0 210 144 353 334 353c32 0 61 -4 88 -12l39 98h25l-41 -105c111 -41 174 -145 174 -293c0 -208 -145 -353 -334 -353c-31 0 -61 4 -88 12l-38 -98h-26l41 105c-109 42 -174 147 -174 293zM254 63c26 -23 58 -38 99 -38c147 0 183 139 184 258
c1 89 -13 225 -79 300zM156 386c-1 -89 13 -226 80 -301l204 518c-26 22 -59 36 -101 36c-147 0 -182 -134 -183 -253z" />
    <glyph glyph-name="AE" unicode="&#xc6;" horiz-adv-x="827" 
d="M110 142l228 418c14 26 12 61 -36 96v2h467l18 -140h-2c-57 84 -135 121 -193 121h-89v-295h91c49 0 85 20 123 75h1v-163h-1c-39 49 -74 68 -123 68h-91v-298h110c56 0 116 19 193 115h2l-21 -134h-443v2c26 17 42 44 42 100v136h-197l-59 -108c-23 -41 -24 -95 5 -128
v-2h-120v2c32 35 65 78 95 133zM200 265l186 1v342z" />
    <glyph glyph-name="section" unicode="&#xa7;" horiz-adv-x="501" 
d="M118 377c-39 27 -66 63 -66 117c0 109 107 170 207 170c75 0 119 -8 183 -43l-24 -113h-2c-23 87 -91 133 -161 136c-62 2 -121 -30 -125 -91c-4 -77 80 -101 161 -134c56 -23 110 -46 144 -88c45 -54 41 -144 -5 -196c-6 -9 -13 -16 -21 -23c9 -7 18 -16 26 -25
c45 -54 41 -142 -5 -195c-43 -52 -110 -75 -181 -75c-68 0 -134 14 -195 41l2 160h2c33 -104 88 -177 187 -180c73 -3 132 31 131 105c-2 71 -58 98 -125 125c-93 39 -199 76 -199 183c0 55 27 97 66 126zM121 316c-4 -77 88 -109 169 -142c32 -13 64 -26 91 -43
c7 11 11 24 11 39c-1 71 -72 116 -139 143c-38 16 -79 31 -113 51c-11 -13 -18 -29 -19 -48z" />
    <glyph glyph-name="Thorn" unicode="&#xde;" horiz-adv-x="613" 
d="M62 7v677h115v-129h84c133 0 278 -42 278 -199c0 -194 -196 -196 -331 -196h-30v-154zM178 180h74c97 0 165 62 165 168c0 133 -84 187 -205 187h-34v-355z" />
    <glyph glyph-name="thorn" unicode="&#xfe;" horiz-adv-x="462" 
d="M43 699l114 -1l-1 -309c26 22 74 56 138 56c114 0 183 -88 183 -220c0 -122 -74 -225 -222 -225c-53 0 -82 13 -99 28v-238h-113v909zM245 20c73 0 114 62 112 186c0 43 -7 100 -30 142c-18 34 -48 57 -91 55c-32 -1 -61 -21 -80 -42v-265c14 -54 53 -76 89 -76z" />
    <glyph glyph-name="eth" unicode="&#xf0;" horiz-adv-x="524" 
d="M26 210c0 147 115 235 245 235c21 0 41 -3 59 -9c-12 43 -30 85 -59 120l-170 -62v25l155 56c-35 35 -82 61 -149 72v5c82 -1 151 -21 207 -57l157 56v-25l-133 -47c48 -37 83 -86 107 -141c43 -98 58 -242 -5 -335c-45 -65 -119 -104 -202 -104c-124 0 -212 74 -212 211
zM146 258c0 -78 12 -237 116 -237c85 0 101 103 101 170c0 78 -12 233 -117 233c-82 0 -100 -101 -100 -166z" />
    <glyph glyph-name="t_t" horiz-adv-x="570" 
d="M17 420v18c47 7 118 64 154 116h15v-116h94c47 0 120 64 156 116h15v-116h100v-18h-100v-294c0 -49 26 -68 62 -69c20 0 40 8 57 17l1 -1c-38 -50 -87 -74 -142 -73c-47 0 -92 28 -92 92l1 328h-152v-294c0 -49 26 -68 61 -69c21 0 41 8 57 17l2 -1
c-38 -50 -88 -74 -142 -73c-47 0 -92 28 -92 92v328h-55z" />
    <glyph glyph-name="OE" unicode="&#x152;" horiz-adv-x="1032" 
d="M322 0c-176 0 -285 122 -285 312c0 210 144 353 333 353c96 0 172 -35 221 -100l-1 12c-2 42 -12 62 -33 79v2h417l18 -140h-2c-57 84 -135 121 -193 121h-89v-295h91c49 0 85 20 123 75h1v-163h-1c-39 49 -74 68 -123 68h-91v-298h110c56 0 116 19 193 115h2l-21 -134
h-435v2c25 19 34 44 34 100v32c-59 -88 -157 -141 -269 -141zM156 386c-1 -127 24 -361 197 -361c147 0 183 139 184 258c1 128 -27 356 -198 356c-147 0 -182 -134 -183 -253z" />
    <glyph glyph-name="oe" unicode="&#x153;" horiz-adv-x="838" 
d="M29 210c0 147 114 235 244 235c80 0 145 -30 181 -89c39 55 103 89 188 89c109 0 166 -65 169 -169h-286c0 -6 0 -12 -1 -18c0 -98 50 -205 162 -205c45 0 90 21 124 55l3 -3c-43 -71 -112 -105 -193 -105c-84 0 -146 37 -180 97c-45 -62 -119 -98 -199 -98
c-124 0 -212 74 -212 211zM149 258c0 -78 11 -237 115 -237c86 0 102 103 102 170c0 78 -13 233 -117 233c-83 0 -100 -101 -100 -166zM527 295h97c56 0 94 24 94 68c0 36 -29 63 -69 63c-74 0 -113 -65 -122 -131z" />
    <glyph glyph-name="ae" unicode="&#xe6;" horiz-adv-x="705" 
d="M17 108c-1 64 40 99 97 120c47 19 104 28 161 36v55c0 63 -17 108 -69 107c-61 0 -110 -68 -133 -128l-2 1l-27 105c44 32 103 41 161 41c76 -1 125 -19 150 -57c37 35 88 57 153 57c110 0 167 -65 170 -169h-286c0 -6 -1 -12 -1 -18c0 -98 50 -205 162 -205
c45 0 90 21 124 55l3 -3c-43 -71 -112 -105 -193 -105c-67 0 -121 24 -157 64c-58 -31 -122 -64 -191 -64c-67 0 -121 34 -122 108zM185 206c-30 -22 -49 -52 -48 -87c0 -53 31 -79 72 -79c24 0 45 8 66 19v188c-36 -9 -66 -24 -90 -41zM516 426c-75 0 -113 -64 -122 -131
h96c57 0 94 24 94 68c0 36 -28 63 -68 63z" />
    <glyph glyph-name="T_h" horiz-adv-x="1021" 
d="M18 518l18 140h493c49 0 112 20 144 40h2v-310c34 19 104 57 158 57c100 0 138 -61 138 -156l1 -202c0 -41 15 -60 31 -78v-2h-177v2c17 18 32 37 32 78v202c0 63 -30 101 -95 101c-30 0 -64 -10 -88 -22v-281c0 -41 14 -60 31 -78v-2h-177v2c17 18 32 37 32 79v443
c-56 74 -128 107 -184 107h-24v-529c0 -56 16 -81 40 -100v-2h-190v2c24 20 34 45 34 101v528h-24c-60 0 -136 -36 -193 -120h-2z" />
    <glyph glyph-name="s_t" unicode="&#xfb06;" horiz-adv-x="673" 
d="M205 446c26 0 49 -3 71 -9c-33 34 -50 75 -50 116c0 91 76 160 171 160c76 0 156 -43 156 -161v-114h100v-18h-100l1 -294c0 -49 25 -68 61 -69c20 0 40 8 57 17l1 -1c-38 -50 -87 -74 -142 -73c-47 0 -92 28 -91 92v328h-55v18c68 5 137 55 137 135
c0 83 -65 121 -126 121c-82 0 -146 -60 -146 -138c0 -63 42 -111 89 -143l-12 -103h-2c-24 60 -73 116 -142 116c-38 0 -76 -21 -76 -63c0 -55 60 -74 121 -97c65 -24 130 -51 131 -129c1 -43 -18 -78 -46 -100c-32 -25 -77 -37 -120 -37c-55 0 -110 9 -159 32v126h2
c23 -71 83 -139 167 -139c39 0 79 17 79 61c0 45 -51 64 -108 86c-69 26 -145 56 -146 140c0 93 95 140 177 140z" />
    </font>
</defs>
</svg>
