<svg width="24" height="24" viewBox="0 0 24 24" fill="none" xmlns="http://www.w3.org/2000/svg">
<path d="M13.9083 12.6953C13.9083 12.4192 13.6844 12.1953 13.4083 12.1953C13.1321 12.1953 12.9083 12.4192 12.9083 12.6953H13.9083ZM12.9083 14.9979C12.9083 15.274 13.1321 15.4979 13.4083 15.4979C13.6844 15.4979 13.9083 15.274 13.9083 14.9979H12.9083ZM12.9083 12.6953V14.9979H13.9083V12.6953H12.9083Z" fill="#1C2028"/>
<path d="M10.8729 12.6953C10.8729 12.4192 10.6491 12.1953 10.3729 12.1953C10.0968 12.1953 9.87292 12.4192 9.87292 12.6953H10.8729ZM9.87292 14.9979C9.87292 15.274 10.0968 15.4979 10.3729 15.4979C10.6491 15.4979 10.8729 15.274 10.8729 14.9979H9.87292ZM9.87292 12.6953V14.9979H10.8729V12.6953H9.87292Z" fill="#1C2028"/>
<path d="M2.08502 10.0088L4.04315 7.61896H20.2199L22 10.0088H2.08502Z" stroke="#1C2028" stroke-linejoin="round"/>
<path d="M2 11.6081V10.0381H21.915V11.6081H2Z" stroke="#1C2028" stroke-linejoin="round"/>
<path d="M3.67816 7.4617V5.0719H20.4068V7.4617H3.67816Z" fill="#1C2028" stroke="#1C2028" stroke-linejoin="round"/>
<path d="M21.2035 11.7587V18.9281" stroke="#1C2028" stroke-linejoin="round"/>
<path d="M11.644 11.7587V18.9281" stroke="#1C2028" stroke-linejoin="round"/>
<path d="M2.88159 11.7587V18.9281" stroke="#1C2028" stroke-linejoin="round"/>
</svg>
