<svg width="24" height="24" viewBox="0 0 24 24" fill="none" xmlns="http://www.w3.org/2000/svg">
<path d="M4 11V4.59998H20V11H4Z" fill="#1C2028" stroke="#1C2028" stroke-linejoin="round"/>
<path d="M4 13V19.4H20V13H4Z" stroke="#1C2028" stroke-linejoin="round"/>
<path d="M12 19.4V13" stroke="#1C2028" stroke-linejoin="round"/>
<path d="M10.8999 16.1998C10.8999 16.476 10.676 16.6998 10.3999 16.6998C10.1238 16.6998 9.8999 16.476 9.8999 16.1998H10.8999ZM9.8999 14.5998C9.8999 14.3237 10.1238 14.0998 10.3999 14.0998C10.676 14.0998 10.8999 14.3237 10.8999 14.5998H9.8999ZM9.8999 16.1998V14.5998H10.8999V16.1998H9.8999Z" fill="#1C2028"/>
<path d="M14.1001 16.1998C14.1001 16.476 13.8762 16.6998 13.6001 16.6998C13.324 16.6998 13.1001 16.476 13.1001 16.1998H14.1001ZM13.1001 14.5998C13.1001 14.3237 13.324 14.0998 13.6001 14.0998C13.8762 14.0998 14.1001 14.3237 14.1001 14.5998H13.1001ZM13.1001 16.1998V14.5998H14.1001V16.1998H13.1001Z" fill="#1C2028"/>
</svg>
