<svg width="24" height="24" viewBox="0 0 24 24" fill="none" xmlns="http://www.w3.org/2000/svg">
<path d="M14.2161 6.02356C14.2161 5.74742 13.9922 5.52356 13.7161 5.52356C13.4399 5.52356 13.2161 5.74742 13.2161 6.02356H14.2161ZM13.2161 8.62711C13.2161 8.90325 13.4399 9.12711 13.7161 9.12711C13.9922 9.12711 14.2161 8.90325 14.2161 8.62711H13.2161ZM13.2161 6.02356V8.62711H14.2161V6.02356H13.2161Z" fill="#1C2028"/>
<path d="M10.7839 6.02356C10.7839 5.74742 10.5601 5.52356 10.2839 5.52356C10.0078 5.52356 9.78394 5.74742 9.78394 6.02356H10.7839ZM9.78394 8.62711C9.78394 8.90325 10.0078 9.12711 10.2839 9.12711C10.5601 9.12711 10.7839 8.90325 10.7839 8.62711H9.78394ZM9.78394 6.02356V8.62711H10.7839V6.02356H9.78394Z" fill="#1C2028"/>
<path d="M11.941 4.72205V17.5031" stroke="#1C2028" stroke-linejoin="round"/>
<path d="M2 5.19525V17.3846H22V5.19525" stroke="#1C2028" stroke-linejoin="round"/>
<path d="M2.82831 19.278V17.3845H21.2898V19.278H2.82831Z" fill="#1C2028" stroke="#1C2028" stroke-linejoin="round"/>
</svg>
