<svg width="24" height="24" viewBox="0 0 24 24" fill="none" xmlns="http://www.w3.org/2000/svg">
<path d="M20 13V19.4H4V13H20Z" fill="#1C2028" stroke="#1C2028" stroke-linejoin="round"/>
<path d="M20 11V4.59998H4V11H20Z" stroke="#1C2028" stroke-linejoin="round"/>
<path d="M12 4.59998V11" stroke="#1C2028" stroke-linejoin="round"/>
<path d="M13.1001 7.80017C13.1001 7.52403 13.324 7.30017 13.6001 7.30017C13.8762 7.30017 14.1001 7.52403 14.1001 7.80017H13.1001ZM14.1001 9.40017C14.1001 9.67631 13.8762 9.90017 13.6001 9.90017C13.324 9.90017 13.1001 9.67631 13.1001 9.40017H14.1001ZM14.1001 7.80017V9.40017H13.1001V7.80017H14.1001Z" fill="#1C2028"/>
<path d="M9.8999 7.80017C9.8999 7.52403 10.1238 7.30017 10.3999 7.30017C10.676 7.30017 10.8999 7.52403 10.8999 7.80017H9.8999ZM10.8999 9.40017C10.8999 9.67631 10.676 9.90017 10.3999 9.90017C10.1238 9.90017 9.8999 9.67631 9.8999 9.40017H10.8999ZM10.8999 7.80017V9.40017H9.8999V7.80017H10.8999Z" fill="#1C2028"/>
</svg>
