<svg width="24" height="24" viewBox="0 0 24 24" fill="none" xmlns="http://www.w3.org/2000/svg">
<path d="M6.69552 22H16.6955C17.0408 22 17.3205 21.7203 17.3205 21.375V3.875C17.3205 3.77804 17.2979 3.6823 17.2546 3.59546L16.6296 2.34546C16.5237 2.13375 16.3073 2 16.0705 2H7.32054C7.08372 2 6.86732 2.13375 6.76148 2.34546L6.13648 3.59546C6.09323 3.68213 6.07056 3.77804 6.07056 3.875V21.375C6.07056 21.7203 6.35027 22 6.69556 22H6.69552ZM7.51356 2.9375H15.8774L16.1899 3.5625H7.20106L7.51356 2.9375ZM7.00802 4.1875H16.383V21.0625H7.00802V4.1875Z" fill="#1C2028"/>
<path d="M16.625 15.4783H16.9293C17.4816 15.4783 17.9293 15.926 17.9293 16.4783V18.8262C17.9293 19.3784 17.4816 19.8262 16.9293 19.8262H16.625" stroke="#1C2028" stroke-width="0.7"/>
</svg>
