<svg width="24" height="24" viewBox="0 0 24 24" fill="none" xmlns="http://www.w3.org/2000/svg">
<path d="M2 22H22C22.3453 22 22.625 21.7203 22.625 21.375V3.87498C22.625 3.66607 22.5206 3.47076 22.3467 3.35498L20.4717 2.10498C20.369 2.03645 20.2485 2 20.125 2H3.875C3.75154 2 3.63104 2.03645 3.52832 2.10498L1.65332 3.35498C1.47946 3.47078 1.375 3.66609 1.375 3.87498V21.375C1.375 21.7203 1.65471 22 2 22ZM21.6875 21.0625H12.3125V4.18748H21.6875V21.0625ZM3.96964 2.93748H20.0304L20.9679 3.56248H3.03214L3.96964 2.93748ZM2.31264 4.18748H11.6876V21.0625H2.31264V4.18748Z" fill="#1C2028"/>
<path d="M13.875 19.8125C14.0475 19.8125 14.1875 19.6725 14.1875 19.5V15.75C14.1875 15.5775 14.0475 15.4375 13.875 15.4375C13.7025 15.4375 13.5625 15.5775 13.5625 15.75V19.5C13.5625 19.6725 13.7025 19.8125 13.875 19.8125Z" fill="#1C2028"/>
<path d="M10.125 15.4375C9.95253 15.4375 9.8125 15.5775 9.8125 15.75V19.5C9.8125 19.6725 9.95253 19.8125 10.125 19.8125C10.2975 19.8125 10.4375 19.6725 10.4375 19.5V15.75C10.4375 15.5775 10.2975 15.4375 10.125 15.4375Z" fill="#1C2028"/>
</svg>
