<?xml version="1.0" encoding="utf-8"?>
<!-- Generator: Adobe Illustrator 24.3.0, SVG Export Plug-In . SVG Version: 6.00 Build 0)  -->
<svg version="1.1" id="Calque_1" xmlns="http://www.w3.org/2000/svg" xmlns:xlink="http://www.w3.org/1999/xlink" x="0px" y="0px"
	 viewBox="0 0 24 24" style="enable-background:new 0 0 24 24;" xml:space="preserve">
<style type="text/css">
	.st0{fill:#1C2028;}
</style>
<g>
	<path class="st0" d="M19,9.6c0-4-3.1-7.3-6.8-7.3c-3.8,0-6.8,3.3-6.8,7.3l0,0v6.9H4.6c-0.1,0-0.3,0.1-0.3,0.3l0,5.2
		c0,0.2,0.1,0.3,0.3,0.3h4.1C8.8,22.3,9,22.1,9,22v-2.1l1.3-0.6c0.3-0.1,0.5-0.4,0.7-0.7c0.1-0.3,0.1-0.6,0-0.9
		c-0.1-0.3-0.4-0.5-0.7-0.6C10,17,9.7,17,9.4,17.2L9,17.4v-0.6c0-0.2-0.1-0.3-0.3-0.3H8.1l0-6.9c0-2.4,1.8-4.3,4.1-4.3
		c2.2,0,4.1,1.9,4.1,4.3c0,0.1,0,0.1,0.1,0.2c0,0.1,0.1,0.1,0.2,0.1h2.3C18.9,9.8,19,9.7,19,9.6z M10.2,17.6c0.2,0,0.3,0.1,0.3,0.3
		c0.1,0.1,0.1,0.3,0,0.4c-0.1,0.2-0.2,0.3-0.4,0.4L7.5,20c-0.4,0.2-0.7,0.1-0.9-0.2c-0.1-0.1-0.1-0.3,0-0.4C6.7,19.2,6.8,19,7,18.9
		l2.6-1.2C9.8,17.6,10,17.6,10.2,17.6z M8.4,17.6l-1.6,0.8c-0.3,0.1-0.5,0.4-0.7,0.7C6,19.4,6,19.7,6.1,20c0.2,0.4,0.6,0.6,1,0.6
		c0.2,0,0.4,0,0.5-0.1l0.8-0.4l0,1.6H4.9V17h0.7l0,0l0,0h2.2l0,0l0,0h0.6L8.4,17.6z M12.2,4.7c-2.5,0-4.6,2.2-4.6,4.9v6.9H5.9V9.6
		l0,0c0-3.7,2.8-6.7,6.3-6.7c3.4,0,6.2,2.9,6.3,6.5h-1.7C16.6,6.7,14.6,4.7,12.2,4.7z"/>
	<path class="st0" d="M8.7,22.4H4.6c-0.2,0-0.4-0.2-0.4-0.4l0-5.2c0-0.2,0.2-0.4,0.4-0.4h0.6V9.6c0-4.1,3.1-7.4,7-7.4
		c3.8,0,7,3.3,7,7.4c0,0.2-0.2,0.4-0.4,0.4h-2.3c-0.1,0-0.2,0-0.3-0.1c-0.1-0.1-0.1-0.2-0.1-0.3c0-2.3-1.8-4.2-3.9-4.2
		c-2.2,0-3.9,1.9-3.9,4.2v6.8h0.5c0.2,0,0.4,0.2,0.4,0.4v0.4l0.3-0.1c0.3-0.2,0.7-0.2,1-0.1c0.3,0.1,0.6,0.3,0.7,0.7
		c0.1,0.3,0.1,0.7,0,1c-0.1,0.3-0.4,0.6-0.7,0.7L9.1,20v2C9.1,22.2,8.9,22.4,8.7,22.4z M4.6,16.6c-0.1,0-0.1,0.1-0.1,0.2l0,5.2
		c0,0.1,0.1,0.2,0.1,0.2h4.1c0.1,0,0.1-0.1,0.1-0.2v-2.2l1.4-0.7c0.3-0.1,0.5-0.3,0.6-0.6c0.1-0.3,0.1-0.6,0-0.8
		c-0.1-0.3-0.3-0.4-0.6-0.5c-0.3-0.1-0.5-0.1-0.8,0.1l-0.6,0.3v-0.8c0-0.1-0.1-0.2-0.1-0.2H8V9.6c0-2.5,1.9-4.5,4.2-4.5
		c2.3,0,4.2,2,4.2,4.5c0,0,0,0.1,0,0.1c0,0,0,0,0.1,0h2.3c0.1,0,0.1-0.1,0.1-0.2c0-4-3-7.2-6.7-7.2c-3.7,0-6.7,3.2-6.7,7.2l0,7.1
		H4.6z M8.6,21.8H4.8v-4.9h3.8l0,0.8l-1.7,0.8c-0.3,0.1-0.5,0.3-0.6,0.6c-0.1,0.3-0.1,0.6,0,0.8c0.1,0.3,0.5,0.6,0.9,0.6
		c0.2,0,0.3,0,0.5-0.1l0.9-0.5L8.6,21.8z M5,21.6h3.3l0-1.2l-0.6,0.3c-0.2,0.1-0.4,0.1-0.6,0.1c-0.5,0-0.9-0.3-1.1-0.7
		c-0.1-0.3-0.1-0.7,0-1c0.1-0.3,0.4-0.6,0.7-0.7l1.6-0.7l0-0.4l-3.3,0V21.6z M7.1,20.2c-0.1,0-0.2,0-0.3,0c-0.2-0.1-0.3-0.2-0.4-0.3
		c-0.1-0.2-0.1-0.4,0-0.5c0.1-0.2,0.2-0.4,0.5-0.5l2.6-1.2c0.2-0.1,0.4-0.1,0.6-0.1l0,0c0.2,0.1,0.3,0.2,0.4,0.4
		c0.1,0.2,0.1,0.4,0,0.5c-0.1,0.2-0.2,0.4-0.5,0.5l-2.6,1.2C7.4,20.2,7.3,20.2,7.1,20.2z M10,17.7c-0.1,0-0.2,0-0.3,0.1L7.1,19
		c-0.2,0.1-0.3,0.2-0.3,0.3c-0.1,0.1-0.1,0.2,0,0.3c0,0.1,0.1,0.2,0.2,0.2c0.1,0.1,0.3,0,0.5,0l2.6-1.2c0.2-0.1,0.3-0.2,0.3-0.3
		c0.1-0.1,0.1-0.2,0-0.3c0-0.1-0.1-0.2-0.2-0.2h0C10.1,17.7,10,17.7,10,17.7z M7.7,16.6h-2V9.6c0-3.8,2.9-6.9,6.5-6.9
		c3.5,0,6.3,2.9,6.4,6.6l0,0.1h-2l0-0.1c-0.1-2.5-2.1-4.5-4.5-4.5c-2.5,0-4.5,2.1-4.5,4.8V16.6z M6,16.4h1.5V9.6c0-2.8,2.1-5,4.7-5
		c2.5,0,4.5,2,4.7,4.6h1.5c-0.2-3.5-2.9-6.2-6.2-6.2C8.8,2.9,6,5.9,6,9.6L6,16.4z"/>
</g>
</svg>
