<svg width="24" height="24" viewBox="0 0 24 24" fill="none" xmlns="http://www.w3.org/2000/svg">
<path d="M13.9737 9.73596C13.9737 9.45982 13.7499 9.23596 13.4737 9.23596C13.1976 9.23596 12.9737 9.45982 12.9737 9.73596H13.9737ZM12.9737 12.0518C12.9737 12.3279 13.1976 12.5518 13.4737 12.5518C13.7499 12.5518 13.9737 12.3279 13.9737 12.0518H12.9737ZM12.9737 9.73596V12.0518H13.9737V9.73596H12.9737Z" fill="#1C2028"/>
<path d="M10.9211 9.73596C10.9211 9.45982 10.6972 9.23596 10.4211 9.23596C10.1449 9.23596 9.92108 9.45982 9.92108 9.73596H10.9211ZM9.92108 12.0518C9.92108 12.3279 10.1449 12.5518 10.4211 12.5518C10.6972 12.5518 10.9211 12.3279 10.9211 12.0518H9.92108ZM9.92108 9.73596V12.0518H10.9211V9.73596H9.92108Z" fill="#1C2028"/>
<path d="M2 6.26293L3.96648 4.78925H20.2123L22 6.26293H2Z" fill="#1C2028" stroke="#1C2028" stroke-linejoin="round"/>
<path d="M2 7.84189V6.26294H22V7.84189H2Z" fill="#1C2028" stroke="#1C2028" stroke-linejoin="round"/>
<path d="M20.8419 7.84235V19.2108" stroke="#1C2028" stroke-linejoin="round"/>
<path d="M11.8948 7.84235V19.2108" stroke="#1C2028" stroke-linejoin="round"/>
<path d="M3.05292 7.84235V19.2108" stroke="#1C2028" stroke-linejoin="round"/>
</svg>
