<svg width="24" height="24" viewBox="0 0 24 24" fill="none" xmlns="http://www.w3.org/2000/svg">
<mask id="path-1-inside-1_298_10711" fill="white">
<path d="M12 17C16.1136 17 19.5591 14.1397 20.4562 10.2995C20.7075 9.22386 19.7883 8.31628 18.6837 8.31628H5.31622C4.21165 8.31628 3.29244 9.22386 3.54371 10.2995C4.44083 14.1397 7.88637 17 12 17Z"/>
</mask>
<path d="M20.4562 10.2995L19.4824 10.072L19.4824 10.072L20.4562 10.2995ZM3.54371 10.2995L2.56993 10.527L2.56993 10.527L3.54371 10.2995ZM19.4824 10.072C18.6887 13.4699 15.6386 16 12 16V18C16.5886 18 20.4296 14.8095 21.43 10.527L19.4824 10.072ZM12 16C8.36137 16 5.31129 13.4699 4.5175 10.072L2.56993 10.527C3.57038 14.8095 7.41137 18 12 18V16ZM5.31622 9.31628H18.6837V7.31628H5.31622V9.31628ZM4.5175 10.072C4.47451 9.88799 4.5225 9.72655 4.65338 9.58599C4.79539 9.43348 5.03367 9.31628 5.31622 9.31628V7.31628C3.74232 7.31628 2.13476 8.66413 2.56993 10.527L4.5175 10.072ZM21.43 10.527C21.8652 8.66413 20.2576 7.31628 18.6837 7.31628V9.31628C18.9663 9.31628 19.2046 9.43348 19.3466 9.58599C19.4774 9.72655 19.5254 9.88799 19.4824 10.072L21.43 10.527Z" fill="#1C2028" mask="url(#path-1-inside-1_298_10711)"/>
<line x1="6.25854" y1="6.5" x2="18.2842" y2="6.5" stroke="#1C2028" stroke-linecap="round"/>
</svg>
