<?xml version="1.0" encoding="utf-8"?>
<!-- Generator: Adobe Illustrator 24.3.0, SVG Export Plug-In . SVG Version: 6.00 Build 0)  -->
<svg version="1.1" id="Calque_1" xmlns="http://www.w3.org/2000/svg" xmlns:xlink="http://www.w3.org/1999/xlink" x="0px" y="0px"
	 viewBox="0 0 24 24" style="enable-background:new 0 0 24 24;" xml:space="preserve">
<style type="text/css">
	.st0{fill:#1C2028;}
</style>
<path class="st0" d="M21.6,2.3C21.4,2,21,1.9,20.7,1.9H3.4C2.6,1.9,2,2.5,2,3.2v17.3c0,0.4,0.1,0.7,0.4,0.9c0.2,0.3,0.6,0.4,0.9,0.4
	h17.3c0.7,0,1.3-0.6,1.3-1.3l0-17.3C22,2.9,21.9,2.5,21.6,2.3L21.6,2.3z M21.1,14.7l-0.8,0.8L16,19.9l-2.5-2.5l7.7-7.7L21.1,14.7z
	 M9.8,21l3-3l2.5,2.5L14.8,21H9.8z M7.6,21l-2-2l8.8-8.8l2.5,2.5l-4.4,4.4L8.6,21H7.6z M2.9,9.1l5.2-5.2l2.5,2.5l-7.7,7.7L2.9,9.1z
	 M14.2,2.8l-3,3L8.7,3.2l0.5-0.5H14.2z M16.4,2.8l2,2l-4.4,4.4l-4.4,4.4l-2.5-2.5l4.4-4.4l3.9-3.9L16.4,2.8z M21.1,8.4L17.5,12
	L15,9.5l6.1-6.1L21.1,8.4z M19.1,4.2l-1.4-1.4h2.8L19.1,4.2z M7,16.3l-2.4,2.4l-1.7,1.7v-5l3.6-3.6L9,14.2L7,16.3z M5,19.6L6.4,21
	H3.5L5,19.6z M3.4,2.8h4.6l-5,5V3.2C2.9,3,3.1,2.8,3.4,2.8L3.4,2.8z M20.7,21h-4.6l5-5v4.6C21.1,20.8,20.9,21,20.7,21L20.7,21z"/>
</svg>
