<svg xmlns="http://www.w3.org/2000/svg" viewBox="0 0 54 47.39"><defs><style>.cls-1{fill:#3c6575;}</style></defs><g id="Calque_2" data-name="Calque 2"><g id="Calque_1-2" data-name="Calque 1"><path class="cls-1" d="M2.08,42.35H15.76a8.21,8.21,0,0,1,6.12,2.75l.19.2a7.76,7.76,0,0,0,.8.72l.33.23a8.89,8.89,0,0,0,.79.45l.14.07a3.38,3.38,0,0,0,.44.18,5.58,5.58,0,0,0,.58.18,4.88,4.88,0,0,0,.52.13,6.71,6.71,0,0,0,.9.12H27a6.9,6.9,0,0,0,1.36-.14,2.53,2.53,0,0,0,.4-.1c.23-.06.45-.13.67-.21h.07l.34-.15.1,0h0a7,7,0,0,0,.84-.48l.29-.2a7.25,7.25,0,0,0,.85-.81l.07-.07.11-.12a8,8,0,0,1,2.74-2,7.92,7.92,0,0,1,3.32-.7H51.92a2.07,2.07,0,0,0,1.47-.61,1.84,1.84,0,0,0,.45-.68,2,2,0,0,0,.16-.8V7.57a2.08,2.08,0,0,0-2.08-2.06H47.81V1.39A1.4,1.4,0,0,0,47.7.86a1.34,1.34,0,0,0-.29-.45A1.37,1.37,0,0,0,47,.11,1.4,1.4,0,0,0,46.43,0H37.86A16,16,0,0,0,27,4.28,16,16,0,0,0,16.14,0H7.57a1.41,1.41,0,0,0-1,.4,1.39,1.39,0,0,0-.41,1V5.51H2.08A2.08,2.08,0,0,0,0,7.57V40.26a2.09,2.09,0,0,0,.61,1.48,2.12,2.12,0,0,0,1.47.61ZM37.86,2.76h7.19V33.37H37.86a15.92,15.92,0,0,0-9.48,3.13V6.79a13.17,13.17,0,0,1,9.48-4ZM9,2.76h7.19a13,13,0,0,1,5.15,1.05,13.18,13.18,0,0,1,4.33,3V36.5a15.92,15.92,0,0,0-9.48-3.13H9ZM2.76,8.27H6.19v26.5a1.36,1.36,0,0,0,.41,1,1.38,1.38,0,0,0,1,.41h8.57A13.12,13.12,0,0,1,26,40.56a1.53,1.53,0,0,0,.46.34,1.39,1.39,0,0,0,1.13,0,1.32,1.32,0,0,0,.46-.34,13.16,13.16,0,0,1,9.83-4.41h8.58a1.38,1.38,0,0,0,1-.41,1.36,1.36,0,0,0,.41-1V8.27h3.43V39.62h-13a10.81,10.81,0,0,0-8.16,3.65l0,0-.05,0a4.79,4.79,0,0,1-.55.46l-.17.11a3.1,3.1,0,0,1-.5.29h0l-.08,0-.22.09a2.92,2.92,0,0,1-.42.13l-.23,0a3.55,3.55,0,0,1-.79.09h-.24a3.31,3.31,0,0,1-.55-.07,1.16,1.16,0,0,1-.32-.08l-.34-.11-.25-.1-.1-.05a3.43,3.43,0,0,1-.49-.28l-.19-.13a4.14,4.14,0,0,1-.5-.44l-.1-.11a10.94,10.94,0,0,0-3.69-2.7,10.8,10.8,0,0,0-4.47-1h-13Z"/><path class="cls-1" d="M12.84,9.75h2.29a13.15,13.15,0,0,1,5.81,1.36,1.41,1.41,0,0,0,1,0,1.38,1.38,0,0,0,.19-2.5,16,16,0,0,0-7-1.65H12.84a1.38,1.38,0,1,0,0,2.75Z"/><path class="cls-1" d="M12.84,15.84h2.29a13.29,13.29,0,0,1,5.81,1.36,1.36,1.36,0,0,0,1,0,1.39,1.39,0,0,0,.76-.69,1.34,1.34,0,0,0,.08-1,1.4,1.4,0,0,0-.65-.8,16,16,0,0,0-7-1.65H12.84a1.41,1.41,0,0,0-1,.4,1.39,1.39,0,0,0,1,2.36Z"/><path class="cls-1" d="M12.84,21.94h2.29a13.15,13.15,0,0,1,5.81,1.36,1.38,1.38,0,0,0,1.79-.65,1.38,1.38,0,0,0-.57-1.82,15.84,15.84,0,0,0-7-1.65H12.84a1.38,1.38,0,1,0,0,2.75Z"/><path class="cls-1" d="M20.94,29.4a1.36,1.36,0,0,0,.53.16A1.3,1.3,0,0,0,22,29.5a1.21,1.21,0,0,0,.48-.27,1.58,1.58,0,0,0,.34-.43,1.44,1.44,0,0,0,.14-.54,1.42,1.42,0,0,0-.08-.54,1.49,1.49,0,0,0-.29-.47,1.28,1.28,0,0,0-.45-.32,15.84,15.84,0,0,0-7-1.65H12.84a1.38,1.38,0,1,0,0,2.75h2.29A13.16,13.16,0,0,1,20.94,29.4Z"/><path class="cls-1" d="M32.35,11.25a1.43,1.43,0,0,0,.61-.14,13.1,13.1,0,0,1,5.83-1.36h2.29a1.38,1.38,0,0,0,1-.41,1.35,1.35,0,0,0,0-1.94,1.38,1.38,0,0,0-1-.41H38.79a16,16,0,0,0-5.51,1,15.26,15.26,0,0,0-1.56.67,1.44,1.44,0,0,0-.64.65,1.39,1.39,0,0,0-.09.9,1.37,1.37,0,0,0,1.34,1.06Z"/><path class="cls-1" d="M32.35,17.35A1.31,1.31,0,0,0,33,17.2a13.24,13.24,0,0,1,5.83-1.36h2.29a1.37,1.37,0,0,0,1-.4,1.36,1.36,0,0,0,0-1.95,1.37,1.37,0,0,0-1-.4H38.79a15.72,15.72,0,0,0-5.51,1c-.53.2-1.05.42-1.56.67a1.44,1.44,0,0,0-.64.65,1.4,1.4,0,0,0,.39,1.67,1.43,1.43,0,0,0,.86.3Z"/><path class="cls-1" d="M32.35,23.44A1.43,1.43,0,0,0,33,23.3a13.1,13.1,0,0,1,5.83-1.36h2.29a1.38,1.38,0,0,0,1-2.36,1.41,1.41,0,0,0-1-.4H38.79a16,16,0,0,0-5.51,1,15.26,15.26,0,0,0-1.56.67A1.37,1.37,0,0,0,31,22.38a1.37,1.37,0,0,0,1.34,1.06Z"/><path class="cls-1" d="M32.35,29.53a1.3,1.3,0,0,0,.61-.14A13.09,13.09,0,0,1,38.79,28h2.29a1.38,1.38,0,0,0,1-2.36,1.41,1.41,0,0,0-1-.4H38.79a16,16,0,0,0-5.51,1,15.26,15.26,0,0,0-1.56.67A1.37,1.37,0,0,0,31,28.48a1.37,1.37,0,0,0,1.34,1.06Z"/></g></g></svg>