<svg xmlns="http://www.w3.org/2000/svg" viewBox="0 0 40.38 50"><defs><style>.cls-1{fill:#3c6575;}</style></defs><g id="Calque_2" data-name="Calque 2"><g id="Calque_1-2" data-name="Calque 1"><path class="cls-1" d="M40.38,10.58V39.42a5.77,5.77,0,0,1-5.76,5.77H27.88a1.92,1.92,0,1,1,0-3.84h6.74A2,2,0,0,0,36,40.78a1.92,1.92,0,0,0,.56-1.36V10.58A1.92,1.92,0,0,0,36,9.22a2,2,0,0,0-1.36-.57H27.88a1.92,1.92,0,1,1,0-3.84h6.74a5.77,5.77,0,0,1,5.76,5.77ZM22.12,1.92V48.08a1.93,1.93,0,1,1-3.85,0V45.19H5.77A5.77,5.77,0,0,1,0,39.42V10.58A5.77,5.77,0,0,1,5.77,4.81h12.5V1.92a1.93,1.93,0,0,1,3.85,0ZM18.27,41.35V8.65H5.77a1.93,1.93,0,0,0-1.92,1.93V39.42a1.93,1.93,0,0,0,1.92,1.93Z"/></g></g></svg>