<svg xmlns="http://www.w3.org/2000/svg" xmlns:xlink="http://www.w3.org/1999/xlink" viewBox="0 0 78.06 78.06"><defs><clipPath id="a" transform="translate(0 0.06)"><rect width="78" height="78" style="fill:none"/></clipPath></defs><g style="clip-path:url(#a)"><path d="M39-.06A39,39,0,1,1,0,39,39,39,0,0,1,39-.06Z" transform="translate(0 0.06)" style="fill:#f9f7f4"/></g><path d="M12.67,23.06A2.6,2.6,0,0,1,14,21.91a1.75,1.75,0,0,1,1.52.14l-.39.74a1.21,1.21,0,0,0-1-.09A1.89,1.89,0,0,0,13,24.51a1,1,0,0,0,.52.76.81.81,0,0,0,.85.08,4.31,4.31,0,0,0,1-.86c.29-.29.54-.53.75-.7a3.13,3.13,0,0,1,.67-.42,1.23,1.23,0,0,1,.69-.14,1.62,1.62,0,0,1,.71.26,1.7,1.7,0,0,1,.9,1.33,3.31,3.31,0,0,1-1.86,3,1.81,1.81,0,0,1-1.63-.1L16,27a1.18,1.18,0,0,0,1.07,0,1.9,1.9,0,0,0,.92-.84,2,2,0,0,0,.35-1.12,1,1,0,0,0-.53-.81.92.92,0,0,0-.4-.14.86.86,0,0,0-.36,0,1.34,1.34,0,0,0-.39.22,4.8,4.8,0,0,0-.39.32l-.46.45a6.61,6.61,0,0,1-.65.61,3.07,3.07,0,0,1-.61.4,1.34,1.34,0,0,1-.72.15,1.89,1.89,0,0,1-1.6-1.48A2.39,2.39,0,0,1,12.67,23.06Z" transform="translate(0 0.06)" style="fill:#1c2128"/><path d="M17.86,20.62a2.5,2.5,0,0,1,2.37-2.4,2.55,2.55,0,0,1,2.45,2.42,2.41,2.41,0,0,1-4.82,0ZM20.18,19a1.62,1.62,0,0,0-1.59,1.61,1.72,1.72,0,0,0,.57,1.19,1.74,1.74,0,0,0,1.2.56,1.55,1.55,0,0,0,1.13-.48A1.51,1.51,0,0,0,22,20.7a1.7,1.7,0,0,0-.57-1.19A1.76,1.76,0,0,0,20.18,19Z" transform="translate(0 0.06)" style="fill:#1c2128"/><path d="M21.81,13.22,22.1,13l.4.55a2.36,2.36,0,0,0-.23.13.93.93,0,0,0-.4.61,1,1,0,0,0,.22.74l.45.63,1-.68.39.55-1,.68,2.29,3.18-.63.45L22.3,16.7l-.72.52-.39-.55.72-.52-.44-.62a1.62,1.62,0,0,1-.36-1.25A1.6,1.6,0,0,1,21.81,13.22Z" transform="translate(0 0.06)" style="fill:#1c2128"/><path d="M25.29,14.58a2.38,2.38,0,0,1,1.24-1.32,2.43,2.43,0,0,1,3.3,3,2.27,2.27,0,0,1-1.23,1.32,2.28,2.28,0,0,1-3.16-1.12A2.33,2.33,0,0,1,25.29,14.58ZM28,13.79a1.63,1.63,0,0,0-2,1,1.76,1.76,0,0,0,.14,1.31,1.74,1.74,0,0,0,.94.93,1.61,1.61,0,0,0,2-1A2,2,0,0,0,28,13.79Z" transform="translate(0 0.06)" style="fill:#1c2128"/><path d="M32.41,11.18l.21.72a1.31,1.31,0,0,0-.83.61,1.21,1.21,0,0,0-.11,1L32.4,16l-.74.22L30.4,11.81l.73-.21.19.67a1.16,1.16,0,0,1,.31-.64A1.65,1.65,0,0,1,32.41,11.18Z" transform="translate(0 0.06)" style="fill:#1c2128"/><path d="M36.21,14.61a2.93,2.93,0,0,0,.43-.12l.11.69a4.15,4.15,0,0,1-.61.14,1.48,1.48,0,0,1-1.08-.19,1.41,1.41,0,0,1-.53-1l-.37-2.51-.84.12-.1-.66.84-.13-.22-1.57.77-.11.23,1.56,1.22-.18.1.67-1.22.18.33,2.36C35.36,14.43,35.67,14.68,36.21,14.61Z" transform="translate(0 0.06)" style="fill:#1c2128"/><path d="M39.54,10.44l0,.75a1.35,1.35,0,0,0-1,.38,1.2,1.2,0,0,0-.34.91l.07,2.64-.78,0-.12-4.59.76,0,0,.69a1.18,1.18,0,0,1,.46-.54A1.65,1.65,0,0,1,39.54,10.44Z" transform="translate(0 0.06)" style="fill:#1c2128"/><path d="M42.56,10.67a1.75,1.75,0,0,1,1.23.63,1.82,1.82,0,0,1,.28,1.37l-.37,2.86-.78-.1.07-.54a1.69,1.69,0,0,1-1.44.45,1.67,1.67,0,0,1-1-.48,1.2,1.2,0,0,1-.28-1c.11-.85.73-1.23,1.85-1.15l1.18.09,0-.22q.15-1.1-.81-1.23a1,1,0,0,0-.77.18,1,1,0,0,0-.34.64L40.59,12a1.58,1.58,0,0,1,.63-1A1.73,1.73,0,0,1,42.56,10.67Zm.63,2.74-1.09-.07c-.67,0-1,.16-1.09.6s.19.68.74.76a1.35,1.35,0,0,0,1-.19,1.24,1.24,0,0,0,.47-.91Z" transform="translate(0 0.06)" style="fill:#1c2128"/><path d="M47.93,9.42l-1,2.92a1.49,1.49,0,0,1,.77-.32,2.28,2.28,0,0,1,2.27,1.26,2.37,2.37,0,0,1,0,1.85,2.42,2.42,0,0,1-1.16,1.43,2.12,2.12,0,0,1-1.71.07,2,2,0,0,1-.87-.54,1.44,1.44,0,0,1-.39-.79l-.25.71-.7-.25L47.2,9.17Zm.39,3.32a1.47,1.47,0,0,0-1.13,0,1.59,1.59,0,0,0-.77,1l-.09.26a1.59,1.59,0,0,0,0,1.23,1.47,1.47,0,0,0,.87.74,1.45,1.45,0,0,0,1.19-.06,1.75,1.75,0,0,0,.83-1,1.72,1.72,0,0,0,0-1.32A1.47,1.47,0,0,0,48.32,12.74Z" transform="translate(0 0.06)" style="fill:#1c2128"/><path d="M53.79,14.61a1.74,1.74,0,0,1,.87,1.07,1.86,1.86,0,0,1-.3,1.36l-1.51,2.47-.67-.41.28-.46a1.74,1.74,0,0,1-1.5-.18,1.67,1.67,0,0,1-.75-.87,1.17,1.17,0,0,1,.16-1c.44-.72,1.16-.82,2.16-.28l1,.55.11-.18c.39-.63.31-1.12-.24-1.45a1,1,0,0,0-.78-.16,1,1,0,0,0-.57.45l-.65-.44a1.54,1.54,0,0,1,1-.7A1.73,1.73,0,0,1,53.79,14.61Zm-.54,2.76-1-.51c-.59-.32-1-.28-1.24.1s-.1.7.37,1a1.34,1.34,0,0,0,.94.22,1.24,1.24,0,0,0,.8-.64Z" transform="translate(0 0.06)" style="fill:#1c2128"/><path d="M55.6,21a2.11,2.11,0,0,0,.37.26l-.45.53A3.68,3.68,0,0,1,55,21.4a1.47,1.47,0,0,1-.56-.94,1.36,1.36,0,0,1,.43-1.07l1.66-1.92-.65-.56.44-.51L57,17l1-1.2.6.51-1,1.2.93.8-.44.51-.93-.8-1.57,1.8A.75.75,0,0,0,55.6,21Z" transform="translate(0 0.06)" style="fill:#1c2128"/><path d="M57.78,23.3a2,2,0,0,0,.33.31l-.52.45a2.63,2.63,0,0,1-.45-.43,1.47,1.47,0,0,1-.42-1,1.4,1.4,0,0,1,.57-1L59.2,20l-.57-.64.51-.45.57.65,1.19-1,.52.59-1.2,1L61,21l-.51.45-.82-.93-1.8,1.56A.75.75,0,0,0,57.78,23.3Z" transform="translate(0 0.06)" style="fill:#1c2128"/><path d="M62,27,60,24a1.44,1.44,0,0,0-.64.92,1.39,1.39,0,0,0,.22,1.05,1.49,1.49,0,0,0,.64.59,1,1,0,0,0,.75.05l.37.68a1.74,1.74,0,0,1-1.25,0,2.4,2.4,0,0,1-1.41-2.64,2.73,2.73,0,0,1,2.93-1.88,2.21,2.21,0,0,1,1.42,1,2,2,0,0,1,.31,1.63,2.31,2.31,0,0,1-1.08,1.36Zm.54-2.86a1.33,1.33,0,0,0-1.92-.47L62.06,26a1.51,1.51,0,0,0,.65-.83A1.3,1.3,0,0,0,62.49,24.09Z" transform="translate(0 0.06)" style="fill:#1c2128"/><path d="M48.81,30.46a.32.32,0,0,1,.26.51L31,54a.31.31,0,0,1-.25.13h-1.6a.32.32,0,0,1-.25-.51l18-23a.3.3,0,0,1,.25-.13ZM28.87,35.52a5.07,5.07,0,1,1,5.06,5.07A5.07,5.07,0,0,1,28.87,35.52Zm1.9,0a3.17,3.17,0,1,0,3.16-3.16A3.17,3.17,0,0,0,30.77,35.52ZM49.13,49A5.07,5.07,0,1,1,44.06,44,5.07,5.07,0,0,1,49.13,49Zm-1.9,0a3.17,3.17,0,1,0-3.17,3.17A3.17,3.17,0,0,0,47.23,49Z" transform="translate(0 0.06)" style="fill:#1c2128"/></svg>