<svg xmlns="http://www.w3.org/2000/svg" xmlns:xlink="http://www.w3.org/1999/xlink" viewBox="0 0 78.06 78.06"><defs><clipPath id="a" transform="translate(0 0.06)"><rect width="78" height="78" style="fill:none"/></clipPath></defs><g style="clip-path:url(#a)"><path d="M39-.06A39,39,0,1,1,0,39,39,39,0,0,1,39-.06Z" transform="translate(0 0.06)" style="fill:#f9f7f4"/></g><path d="M21.92,13.38l2.32-1.25a3.14,3.14,0,0,1,2.48-.32,3.34,3.34,0,0,1,2,1.74,3.31,3.31,0,0,1,.36,2.6,3.18,3.18,0,0,1-1.63,1.91L25.13,19.3Zm1.06.23,2.53,4.68,1.59-.85A2.36,2.36,0,0,0,28.31,16,2.73,2.73,0,0,0,28,13.94a2.76,2.76,0,0,0-1.52-1.42,2.32,2.32,0,0,0-1.87.22Z" transform="translate(0 0.06)" style="fill:#1c2128"/><path d="M29.34,10a.49.49,0,0,1,.3-.25.53.53,0,0,1,.39,0,.47.47,0,0,1,.25.3.45.45,0,0,1,0,.39.5.5,0,0,1-.69.21.46.46,0,0,1-.24-.29A.44.44,0,0,1,29.34,10ZM32,16.11l-.73.24L29.92,12l.74-.23Z" transform="translate(0 0.06)" style="fill:#1c2128"/><path d="M34.53,10.77l.15.73a1.37,1.37,0,0,0-.87.55,1.23,1.23,0,0,0-.18,1l.53,2.58-.76.16-.92-4.5.74-.15.14.68a1.24,1.24,0,0,1,.36-.62A1.62,1.62,0,0,1,34.53,10.77Z" transform="translate(0 0.06)" style="fill:#1c2128"/><path d="M40.08,13.05l-3.54.14a1.53,1.53,0,0,0,.47,1,1.39,1.39,0,0,0,1,.33,1.43,1.43,0,0,0,.83-.25,1.06,1.06,0,0,0,.43-.62l.77,0a1.73,1.73,0,0,1-.66,1.06,2.18,2.18,0,0,1-1.32.47,2.24,2.24,0,0,1-1.67-.58,2.38,2.38,0,0,1-.7-1.72,2.37,2.37,0,0,1,.56-1.76,2.21,2.21,0,0,1,1.6-.7,2,2,0,0,1,1.57.55,2.28,2.28,0,0,1,.62,1.61Zm-2.19-1.92a1.35,1.35,0,0,0-1.38,1.43l2.77-.11a1.49,1.49,0,0,0-.4-1A1.28,1.28,0,0,0,37.89,11.13Z" transform="translate(0 0.06)" style="fill:#1c2128"/><path d="M43.81,10.86a2.15,2.15,0,0,1,1.3.69,1.88,1.88,0,0,1,.45,1.35l-.76-.07a1.2,1.2,0,0,0-.28-.87,1.28,1.28,0,0,0-.82-.44,1.34,1.34,0,0,0-1.12.27A1.79,1.79,0,0,0,42,13a1.81,1.81,0,0,0,.2,1.31,1.36,1.36,0,0,0,1,.62,1.33,1.33,0,0,0,.92-.13,1.14,1.14,0,0,0,.55-.68l.74.2a1.88,1.88,0,0,1-.88,1.07,2.37,2.37,0,0,1-2.93-.69,2.37,2.37,0,0,1-.34-1.83,2.39,2.39,0,0,1,.91-1.62A2.23,2.23,0,0,1,43.81,10.86Z" transform="translate(0 0.06)" style="fill:#1c2128"/><path d="M47.82,16.12a4.32,4.32,0,0,0,.44.1l-.23.66a4.44,4.44,0,0,1-.6-.16,1.42,1.42,0,0,1-.87-.67,1.35,1.35,0,0,1,0-1.15l.83-2.39-.81-.28.22-.64.81.28.53-1.5.74.26-.53,1.49,1.17.4-.22.64-1.17-.4L47.34,15A.76.76,0,0,0,47.82,16.12Z" transform="translate(0 0.06)" style="fill:#1c2128"/><path d="M53.26,17.33l-3.11-1.71A1.49,1.49,0,0,0,50,16.74a1.44,1.44,0,0,0,.7.82,1.54,1.54,0,0,0,.84.21,1.12,1.12,0,0,0,.69-.31l.65.41a1.71,1.71,0,0,1-1.11.57,2.19,2.19,0,0,1-1.37-.28,2.26,2.26,0,0,1-1.14-1.36A2.4,2.4,0,0,1,49.57,15,2.35,2.35,0,0,1,51,13.75a2.18,2.18,0,0,1,1.73.22,2,2,0,0,1,1.07,1.28,2.34,2.34,0,0,1-.3,1.71Zm-.9-2.77a1.43,1.43,0,0,0-1-.17,1.41,1.41,0,0,0-.86.68l2.43,1.33a1.42,1.42,0,0,0,.16-1A1.23,1.23,0,0,0,52.36,14.56Z" transform="translate(0 0.06)" style="fill:#1c2128"/><path d="M20.13,60.52l2.78-.26.73.61-2.71.28v3.31l-.74-.62,0-2.61-.68.07-1,1.16L17.94,62l4.37-5.27.58.48Z" transform="translate(0 0.06)" style="fill:#1c2128"/><path d="M24.58,62.13a2.5,2.5,0,1,1-1.38,1.16A2.21,2.21,0,0,1,24.58,62.13Zm2.19,1.73a1.57,1.57,0,0,0-1.94-1.06,1.63,1.63,0,0,0-1,.86,1.67,1.67,0,0,0-.2,1.28,1.47,1.47,0,0,0,.75.93,1.51,1.51,0,0,0,1.19.13,1.73,1.73,0,0,0,1-.87A1.64,1.64,0,0,0,26.77,63.86Z" transform="translate(0 0.06)" style="fill:#1c2128"/><path d="M31.68,64.6l-.24.69a1.35,1.35,0,0,0-1,0,1.23,1.23,0,0,0-.62.72L29,68.48l-.72-.24L29.71,64l.7.24-.22.64a1.15,1.15,0,0,1,.61-.34A1.52,1.52,0,0,1,31.68,64.6Z" transform="translate(0 0.06)" style="fill:#1c2128"/><path d="M33.75,69.07a2.44,2.44,0,0,0,.44.05l-.14.66a3.07,3.07,0,0,1-.6-.07,1.45,1.45,0,0,1-.93-.54,1.37,1.37,0,0,1-.14-1.12l.51-2.43-.82-.17.13-.64L33,65l.32-1.52.75.15-.32,1.52,1.18.24-.13.65-1.18-.24-.49,2.28C33,68.63,33.23,69,33.75,69.07Z" transform="translate(0 0.06)" style="fill:#1c2128"/><path d="M36.39,70,35.63,70l.44-4.47.75.07Zm-.1-6.51a.53.53,0,0,1,.36-.11.51.51,0,0,1,.46.55.49.49,0,0,1-.19.33.44.44,0,0,1-.36.11.45.45,0,0,1-.34-.18.43.43,0,0,1-.11-.36A.46.46,0,0,1,36.29,63.52Z" transform="translate(0 0.06)" style="fill:#1c2128"/><path d="M40.67,65.52A1.65,1.65,0,0,1,42,66a1.81,1.81,0,0,1,.56,1.31L42.66,70l-.76,0-.15-2.63a1.29,1.29,0,0,0-.36-.88,1.07,1.07,0,0,0-.84-.29,1.14,1.14,0,0,0-.84.41,1.21,1.21,0,0,0-.3.9l.15,2.62-.76,0-.24-4.49.72,0,0,.67a1.43,1.43,0,0,1,.51-.56A1.64,1.64,0,0,1,40.67,65.52Z" transform="translate(0 0.06)" style="fill:#1c2128"/><path d="M45.93,64.65a2,2,0,0,1,1,0,1.54,1.54,0,0,1,.76.4l-.2-.71.69-.19,1.27,4.57a2,2,0,0,1-.16,1.62,2.12,2.12,0,0,1-1.35,1,2.3,2.3,0,0,1-1.54,0,1.87,1.87,0,0,1-1-.93l.73-.23a1.07,1.07,0,0,0,.63.57,1.6,1.6,0,0,0,1,0,1.46,1.46,0,0,0,.9-.62,1.37,1.37,0,0,0,.1-1.08l-.27-1a1.36,1.36,0,0,1-.43.69,2,2,0,0,1-.86.46A2.07,2.07,0,0,1,45.52,69a2.66,2.66,0,0,1-.91-3.28A2.08,2.08,0,0,1,45.93,64.65Zm.28.61a1.45,1.45,0,0,0-.92.71,1.75,1.75,0,0,0-.08,1.31A1.7,1.7,0,0,0,46,68.34,1.57,1.57,0,0,0,48,67.81a1.51,1.51,0,0,0,.08-1.2L48,66.36a1.5,1.5,0,0,0-.69-1A1.39,1.39,0,0,0,46.21,65.26Z" transform="translate(0 0.06)" style="fill:#1c2128"/><path d="M54.51,63.81l-3.06,1.62a1.45,1.45,0,0,0,.84.7A1.35,1.35,0,0,0,53.34,66a1.39,1.39,0,0,0,.62-.57,1,1,0,0,0,.12-.72l.69-.32a1.73,1.73,0,0,1-.13,1.22,2.14,2.14,0,0,1-1,1,2.17,2.17,0,0,1-1.71.2,2.38,2.38,0,0,1-1.35-1.22,2.33,2.33,0,0,1-.25-1.79,2.16,2.16,0,0,1,1.12-1.3,1.94,1.94,0,0,1,1.61-.18,2.28,2.28,0,0,1,1.24,1.16Zm-2.74-.76a1.43,1.43,0,0,0-.71.77,1.41,1.41,0,0,0,.1,1.07l2.4-1.27a1.44,1.44,0,0,0-.77-.7A1.23,1.23,0,0,0,51.77,63.05Z" transform="translate(0 0.06)" style="fill:#1c2128"/><path d="M56.13,59.29a1.68,1.68,0,0,1,1.28-.41,1.76,1.76,0,0,1,1.23.71l1.75,2.1-.59.49-1.68-2a1.26,1.26,0,0,0-.82-.49,1,1,0,0,0-.84.27,1.1,1.1,0,0,0-.44.83,1.22,1.22,0,0,0,.3.89l1.68,2-.58.49-2.88-3.46.56-.46.43.52A1.34,1.34,0,0,1,55.6,60,1.68,1.68,0,0,1,56.13,59.29Z" transform="translate(0 0.06)" style="fill:#1c2128"/><path d="M48.81,27.46a.32.32,0,0,1,.26.51L31,51a.31.31,0,0,1-.25.13h-1.6a.32.32,0,0,1-.25-.51l18-23a.3.3,0,0,1,.25-.13ZM28.87,32.52a5.07,5.07,0,1,1,5.06,5.07A5.07,5.07,0,0,1,28.87,32.52Zm1.9,0a3.17,3.17,0,1,0,3.16-3.16A3.17,3.17,0,0,0,30.77,32.52ZM49.13,46A5.07,5.07,0,1,1,44.06,41,5.07,5.07,0,0,1,49.13,46Zm-1.9,0a3.17,3.17,0,1,0-3.17,3.17A3.17,3.17,0,0,0,47.23,46Z" transform="translate(0 0.06)" style="fill:#1c2128"/></svg>