<svg xmlns="http://www.w3.org/2000/svg" xmlns:xlink="http://www.w3.org/1999/xlink" viewBox="0 0 78.06 78.06"><defs><clipPath id="a" transform="translate(0 0.06)"><rect width="78" height="78" style="fill:none"/></clipPath></defs><g style="clip-path:url(#a)"><path d="M39-.06A39,39,0,1,1,0,39,39,39,0,0,1,39-.06Z" transform="translate(0 0.06)" style="fill:#f9f7f4"/></g><path d="M20.88,23.34l-.54.64-5.15-4.33.53-.63Z" transform="translate(0 0.06)" style="fill:#1c2128"/><path d="M22.76,15.39a1.62,1.62,0,0,1,1.3-.36,1.92,1.92,0,0,1,1.2.78L27,18l-.61.47-1.65-2.12a1.4,1.4,0,0,0-.8-.54,1.07,1.07,0,0,0-.86.23,1.08,1.08,0,0,0-.43.74,1.22,1.22,0,0,0,.21.85l0,0,1.71,2.2-.61.48-1.66-2.12a1.34,1.34,0,0,0-.8-.54,1,1,0,0,0-.83.21,1.15,1.15,0,0,0-.46.83,1.3,1.3,0,0,0,.3.91l1.64,2.12-.61.47-2.82-3.62.58-.45.43.54a1.43,1.43,0,0,1,.62-1.46,1.73,1.73,0,0,1,.86-.37,1.54,1.54,0,0,1,.89.16,1.63,1.63,0,0,1,.07-.9A1.69,1.69,0,0,1,22.76,15.39Z" transform="translate(0 0.06)" style="fill:#1c2128"/><path d="M31.3,11.41a1.63,1.63,0,0,1,1.34.09,2,2,0,0,1,.89,1.13l.91,2.65-.73.25L32.83,13a1.34,1.34,0,0,0-.58-.77,1,1,0,0,0-.88-.06,1.09,1.09,0,0,0-.66.56,1.28,1.28,0,0,0-.07.87l0,.05.9,2.64-.74.25L30,14a1.39,1.39,0,0,0-.58-.76,1,1,0,0,0-.86-.08,1.13,1.13,0,0,0-.7.63,1.27,1.27,0,0,0,0,1l.87,2.54-.74.25-1.48-4.34.69-.24.23.66a1.43,1.43,0,0,1,1.07-1.19,1.65,1.65,0,0,1,.93-.06,1.51,1.51,0,0,1,.78.43A1.69,1.69,0,0,1,30.5,12,1.83,1.83,0,0,1,31.3,11.41Z" transform="translate(0 0.06)" style="fill:#1c2128"/><path d="M39.5,13,36,13.25a1.46,1.46,0,0,0,.49,1,1.4,1.4,0,0,0,1,.32,1.46,1.46,0,0,0,.82-.27,1,1,0,0,0,.41-.63h.78a1.72,1.72,0,0,1-.64,1.08,2.41,2.41,0,0,1-3-.05,2.39,2.39,0,0,1-.74-1.7,2.39,2.39,0,0,1,.52-1.77,2.22,2.22,0,0,1,1.59-.74,2,2,0,0,1,1.58.52,2.29,2.29,0,0,1,.66,1.6Zm-2.24-1.86a1.32,1.32,0,0,0-1.34,1.45l2.76-.17a1.41,1.41,0,0,0-.42-1A1.22,1.22,0,0,0,37.26,11.17Z" transform="translate(0 0.06)" style="fill:#1c2128"/><path d="M44.76,15.74,44,15.62l.12-.74a1.56,1.56,0,0,1-.72.5,2,2,0,0,1-1,.08A2.13,2.13,0,0,1,41,14.58a2.38,2.38,0,0,1-.35-1.81,2.38,2.38,0,0,1,.89-1.62,2.12,2.12,0,0,1,1.67-.4,2,2,0,0,1,.92.37,1.4,1.4,0,0,1,.52.65l.48-3.06.77.12Zm-1.6-4.3a1.46,1.46,0,0,0-1.16.27,1.73,1.73,0,0,0-.63,1.17,1.75,1.75,0,0,0,.24,1.31,1.58,1.58,0,0,0,2.14.38,1.59,1.59,0,0,0,.58-1.09l0-.27A1.55,1.55,0,0,0,44.15,12,1.5,1.5,0,0,0,43.16,11.44Z" transform="translate(0 0.06)" style="fill:#1c2128"/><path d="M46.76,16.42,46,16.18l1.43-4.36.74.24Zm1.36-6.51a.5.5,0,0,1,.38,0,.51.51,0,0,1,.3.26.44.44,0,0,1,0,.39.48.48,0,0,1-.25.29.53.53,0,0,1-.39,0,.47.47,0,0,1-.3-.25.45.45,0,0,1,0-.39A.51.51,0,0,1,48.12,9.91Z" transform="translate(0 0.06)" style="fill:#1c2128"/><path d="M51.54,13.37a1.71,1.71,0,0,1,1,1,1.8,1.8,0,0,1-.17,1.39L51,18.34l-.7-.35.24-.48a1.72,1.72,0,0,1-1.5-.05,1.61,1.61,0,0,1-.83-.79,1.2,1.2,0,0,1,.06-1c.38-.76,1.08-.92,2.12-.48l1.09.46.1-.19c.33-.67.2-1.15-.37-1.43a1,1,0,0,0-.79-.08.94.94,0,0,0-.53.49L49.24,14a1.55,1.55,0,0,1,.93-.78A1.71,1.71,0,0,1,51.54,13.37Zm-.29,2.8-1-.42c-.62-.26-1-.19-1.22.21s0,.71.46,1a1.31,1.31,0,0,0,1,.13,1.24,1.24,0,0,0,.74-.71Z" transform="translate(0 0.06)" style="fill:#1c2128"/><path d="M53.91,19.55a3.1,3.1,0,0,0,.39.23l-.4.56a3.5,3.5,0,0,1-.53-.31,1.5,1.5,0,0,1-.65-.9,1.39,1.39,0,0,1,.33-1.1L54.53,16l-.7-.49.4-.55.69.49.93-1.28.64.45-.93,1.29,1,.71-.39.55-1-.71-1.4,1.93A.74.74,0,0,0,53.91,19.55Z" transform="translate(0 0.06)" style="fill:#1c2128"/><path d="M58.79,22.25l-2.51-2.51a1.54,1.54,0,0,0-.43,1,1.42,1.42,0,0,0,.45,1,1.52,1.52,0,0,0,.74.44,1,1,0,0,0,.75-.11l.51.58a1.73,1.73,0,0,1-1.23.24,2.4,2.4,0,0,1-1.94-2.28A2.35,2.35,0,0,1,55.91,19a2.43,2.43,0,0,1,1.68-.78,2.17,2.17,0,0,1,1.6.71,2,2,0,0,1,.66,1.52A2.37,2.37,0,0,1,59.08,22Zm-.08-2.91a1.5,1.5,0,0,0-1-.46,1.4,1.4,0,0,0-1,.42l2,2a1.43,1.43,0,0,0,.45-1A1.26,1.26,0,0,0,58.71,19.34Z" transform="translate(0 0.06)" style="fill:#1c2128"/><path d="M20.79,64.34l-.54-.45.46-.57a1.51,1.51,0,0,1-.85.06,2,2,0,0,1-.9-.44,2.07,2.07,0,0,1-.79-1.48,2.3,2.3,0,0,1,.61-1.7,2.33,2.33,0,0,1,1.55-.91,2.23,2.23,0,0,1,2.2,1.27,1.35,1.35,0,0,1,.11.8l1.94-2.33.58.48Zm.8-4.41a1.43,1.43,0,0,0-1.11-.36,1.7,1.7,0,0,0-1.11.68,1.72,1.72,0,0,0-.46,1.22,1.47,1.47,0,0,0,.55,1,1.41,1.41,0,0,0,1.06.35,1.51,1.51,0,0,0,1-.62l.17-.2a1.59,1.59,0,0,0,.42-1.13A1.42,1.42,0,0,0,21.59,59.93Z" transform="translate(0 0.06)" style="fill:#1c2128"/><path d="M23.52,66l-.65-.38,2.28-3.87.65.38Zm2.67-5.94a.51.51,0,0,1,.38.06.48.48,0,0,1,.22.3.46.46,0,0,1-.05.38.5.5,0,0,1-.3.23.5.5,0,0,1-.38-.06.5.5,0,0,1-.18-.68A.49.49,0,0,1,26.19,60.08Z" transform="translate(0 0.06)" style="fill:#1c2128"/><path d="M28.6,63.46a1.59,1.59,0,0,1,.91.78,1.54,1.54,0,0,1,.08,1.1l-.71-.25a.79.79,0,0,0-.56-1,.94.94,0,0,0-.65-.1.62.62,0,0,0-.39.37.65.65,0,0,0,0,.13.24.24,0,0,0,0,.12s0,.08,0,.11a.23.23,0,0,0,.07.11l.09.1.12.1.13.11.17.12.16.12a3.49,3.49,0,0,1,.91.89,1,1,0,0,1,0,.91,1.29,1.29,0,0,1-.83.77,2,2,0,0,1-1.28-.15,2,2,0,0,1-1-.81,1.44,1.44,0,0,1-.12-1.14l.72.24c-.13.5.09.86.66,1.11a1.18,1.18,0,0,0,.69.1.55.55,0,0,0,.42-.36.51.51,0,0,0,0-.52,3.7,3.7,0,0,0-.7-.62l-.41-.3a4,4,0,0,1-.32-.29.93.93,0,0,1-.23-.34,1,1,0,0,1-.06-.36,1.12,1.12,0,0,1,.1-.45,1.22,1.22,0,0,1,.78-.71A1.78,1.78,0,0,1,28.6,63.46Z" transform="translate(0 0.06)" style="fill:#1c2128"/><path d="M33.48,65a2.09,2.09,0,0,1,1.23.73,1.79,1.79,0,0,1,.38,1.34l-.73-.1a1.17,1.17,0,0,0-.24-.86,1.25,1.25,0,0,0-.78-.47,1.34,1.34,0,0,0-1.11.21A1.83,1.83,0,0,0,31.58,67a1.8,1.8,0,0,0,.13,1.28,1.34,1.34,0,0,0,.92.66,1.38,1.38,0,0,0,.91-.09,1.16,1.16,0,0,0,.57-.64l.7.23a1.77,1.77,0,0,1-.9,1,2.35,2.35,0,0,1-2.84-.82,2.67,2.67,0,0,1,.72-3.33A2.13,2.13,0,0,1,33.48,65Z" transform="translate(0 0.06)" style="fill:#1c2128"/><path d="M37.21,66.2a2.24,2.24,0,0,1,1.66-.63,2.37,2.37,0,0,1,1.63,4,2.31,2.31,0,0,1-4-1.71A2.21,2.21,0,0,1,37.21,66.2Zm2.76.48a1.47,1.47,0,0,0-1.1-.45,1.43,1.43,0,0,0-1.11.44,1.93,1.93,0,0,0,0,2.44,1.57,1.57,0,0,0,2.21,0,1.93,1.93,0,0,0,0-2.44Z" transform="translate(0 0.06)" style="fill:#1c2128"/><path d="M47.19,69.1l-.71.15-.14-.65a1.33,1.33,0,0,1-.36.62,1.55,1.55,0,0,1-.8.39,1.51,1.51,0,0,1-1.27-.24,1.86,1.86,0,0,1-.7-1.19l-.57-2.72.74-.15.55,2.61a1.22,1.22,0,0,0,.45.8.94.94,0,0,0,.83.16,1,1,0,0,0,.73-.52,1.29,1.29,0,0,0,.13-.93l-.54-2.57.74-.15Z" transform="translate(0 0.06)" style="fill:#1c2128"/><path d="M49.9,63.23a1.72,1.72,0,0,1,1.35,0,1.89,1.89,0,0,1,1,1l1.1,2.5-.7.31-1.07-2.41a1.25,1.25,0,0,0-.64-.69,1.07,1.07,0,0,0-.89,0,1.12,1.12,0,0,0-.65.68,1.23,1.23,0,0,0,0,.94L50.49,68l-.69.3L48,64.16l.66-.29.27.61a1.45,1.45,0,0,1,.27-.71A1.81,1.81,0,0,1,49.9,63.23Z" transform="translate(0 0.06)" style="fill:#1c2128"/><path d="M56.55,64a3.29,3.29,0,0,0,.34-.28l.38.57a4.37,4.37,0,0,1-.48.37,1.45,1.45,0,0,1-1,.28,1.38,1.38,0,0,1-.89-.69L53.5,62.15l-.7.46-.37-.55.7-.47-.85-1.29.64-.43.85,1.3,1-.66.36.55-1,.66,1.28,2A.74.74,0,0,0,56.55,64Z" transform="translate(0 0.06)" style="fill:#1c2128"/><path d="M56.71,58.8a1.65,1.65,0,0,1,1.09-.51,1.5,1.5,0,0,1,1,.38l-.52.55a.8.8,0,0,0-1.18.07,1,1,0,0,0-.35.56.58.58,0,0,0,.17.5.94.94,0,0,0,.1.1l.11,0,.11,0a.21.21,0,0,0,.13,0l.13,0,.14-.06.15-.08.18-.1.18-.1a3.46,3.46,0,0,1,1.18-.46,1,1,0,0,1,.84.35,1.24,1.24,0,0,1,.36,1.07,2,2,0,0,1-.67,1.11,2,2,0,0,1-1.14.57,1.48,1.48,0,0,1-1.09-.37l.52-.55c.39.32.82.27,1.28-.15a1.17,1.17,0,0,0,.38-.58.58.58,0,0,0-.16-.54.5.5,0,0,0-.48-.19,3.45,3.45,0,0,0-.85.38L57.9,61a3.2,3.2,0,0,1-.4.17.87.87,0,0,1-.39.07,1.11,1.11,0,0,1-.72-.37,1.19,1.19,0,0,1-.33-1A1.79,1.79,0,0,1,56.71,58.8Z" transform="translate(0 0.06)" style="fill:#1c2128"/><path d="M48.81,27.46a.32.32,0,0,1,.26.51L31,51a.31.31,0,0,1-.25.13h-1.6a.32.32,0,0,1-.25-.51l18-23a.3.3,0,0,1,.25-.13ZM28.87,32.52a5.07,5.07,0,1,1,5.06,5.07A5.07,5.07,0,0,1,28.87,32.52Zm1.9,0a3.17,3.17,0,1,0,3.16-3.16A3.17,3.17,0,0,0,30.77,32.52ZM49.13,46A5.07,5.07,0,1,1,44.06,41,5.07,5.07,0,0,1,49.13,46Zm-1.9,0a3.17,3.17,0,1,0-3.17,3.17A3.17,3.17,0,0,0,47.23,46Z" transform="translate(0 0.06)" style="fill:#1c2128"/></svg>