<svg xmlns="http://www.w3.org/2000/svg" xmlns:xlink="http://www.w3.org/1999/xlink" viewBox="0 0 78.06 78.06"><defs><clipPath id="a" transform="translate(0 0.06)"><rect width="78" height="78" style="fill:none"/></clipPath></defs><g style="clip-path:url(#a)"><path d="M39-.06A39,39,0,1,1,0,39,39,39,0,0,1,39-.06Z" transform="translate(0 0.06)" style="fill:#f9f7f4"/></g><path d="M10.65,36.33a2,2,0,0,1,.31-1,1.52,1.52,0,0,1,.66-.58l-.76-.07.06-.72,4.84.4a2,2,0,0,1,1.49.73,2.22,2.22,0,0,1,.43,1.64,2.34,2.34,0,0,1-.57,1.46,1.9,1.9,0,0,1-1.24.62l0-.78a1.08,1.08,0,0,0,.77-.41,1.68,1.68,0,0,0,.35-.92,1.52,1.52,0,0,0-.28-1.08,1.35,1.35,0,0,0-1-.48l-1-.09a1.44,1.44,0,0,1,.51.66,2.11,2.11,0,0,1,.13,1,2.09,2.09,0,0,1-.78,1.53,2.38,2.38,0,0,1-1.78.47A2.37,2.37,0,0,1,11.16,38,2.08,2.08,0,0,1,10.65,36.33Zm.68,0a1.47,1.47,0,0,0,.35,1.14A1.81,1.81,0,0,0,12.9,38a1.78,1.78,0,0,0,1.29-.33,1.49,1.49,0,0,0,.54-1.07,1.45,1.45,0,0,0-.32-1.09A1.52,1.52,0,0,0,13.29,35l-.27,0a1.6,1.6,0,0,0-1.2.31A1.43,1.43,0,0,0,11.33,36.28Z" transform="translate(0 0.06)" style="fill:#1c2128"/><path d="M11.86,30l.73.19a1.34,1.34,0,0,0,.1,1,1.23,1.23,0,0,0,.78.58l2.55.66-.2.75L11.38,32l.19-.73.68.18a1.23,1.23,0,0,1-.4-.6A1.62,1.62,0,0,1,11.86,30Z" transform="translate(0 0.06)" style="fill:#1c2128"/><path d="M12.93,27.12a1.74,1.74,0,0,1,.94-1,1.86,1.86,0,0,1,1.39.11l2.65,1.16-.31.72-.5-.22a1.71,1.71,0,0,1,0,1.51,1.62,1.62,0,0,1-.75.86,1.18,1.18,0,0,1-1,0c-.78-.34-1-1-.58-2.1l.41-1.1L15,27c-.68-.3-1.16-.15-1.41.43a.94.94,0,0,0,0,.8.93.93,0,0,0,.51.5l-.35.7a1.48,1.48,0,0,1-.82-.89A1.69,1.69,0,0,1,12.93,27.12Zm2.81.16-.38,1c-.22.63-.14,1,.27,1.21s.71,0,.94-.51a1.3,1.3,0,0,0,.08-1,1.22,1.22,0,0,0-.74-.7Z" transform="translate(0 0.06)" style="fill:#1c2128"/><path d="M19,24.44a3.69,3.69,0,0,0,.2-.4l.58.37a2.89,2.89,0,0,1-.29.55,1.41,1.41,0,0,1-.86.68,1.35,1.35,0,0,1-1.11-.27L15.4,24l-.46.72-.57-.37.46-.72-1.32-.86.42-.66,1.33.86.67-1,.56.36-.67,1,2,1.31A.76.76,0,0,0,19,24.44Z" transform="translate(0 0.06)" style="fill:#1c2128"/><path d="M15.2,19.59a.52.52,0,0,1,.11-.38.5.5,0,0,1,.34-.18.48.48,0,0,1,.38.11.46.46,0,0,1,.18.34.52.52,0,0,1-.11.38.48.48,0,0,1-.34.18.51.51,0,0,1-.38-.1A.48.48,0,0,1,15.2,19.59Zm5.6,3.59-.49.6-3.57-2.89.49-.6Z" transform="translate(0 0.06)" style="fill:#1c2128"/><path d="M19.53,17.74a1.71,1.71,0,0,1,1.11-.51,1.54,1.54,0,0,1,1.06.39l-.54.56a.81.81,0,0,0-1.2.07,1,1,0,0,0-.36.57.59.59,0,0,0,.17.51.26.26,0,0,0,.11.1.22.22,0,0,0,.11.05l.11,0a.32.32,0,0,0,.13,0l.14,0,.14-.07.15-.08.18-.1.19-.1a3.63,3.63,0,0,1,1.21-.47,1,1,0,0,1,.85.36,1.27,1.27,0,0,1,.37,1.09,2,2,0,0,1-.68,1.14,2,2,0,0,1-1.17.57,1.51,1.51,0,0,1-1.12-.37l.54-.57c.4.34.83.29,1.3-.14a1.29,1.29,0,0,0,.39-.6.58.58,0,0,0-.16-.55.49.49,0,0,0-.48-.19,3.34,3.34,0,0,0-.87.38l-.47.26a3.2,3.2,0,0,1-.4.17,1,1,0,0,1-.41.07,1.09,1.09,0,0,1-.36-.1,1.07,1.07,0,0,1-.37-.28,1.2,1.2,0,0,1-.34-1A1.87,1.87,0,0,1,19.53,17.74Z" transform="translate(0 0.06)" style="fill:#1c2128"/><path d="M25.67,13.31a1.74,1.74,0,0,1,1.36-.2,1.8,1.8,0,0,1,1,1l1.36,2.55-.69.37-.26-.48a1.69,1.69,0,0,1-.91,1.2,1.59,1.59,0,0,1-1.13.21,1.19,1.19,0,0,1-.81-.65c-.4-.75-.11-1.42.85-2l1-.61-.1-.19c-.35-.66-.81-.84-1.37-.54a1,1,0,0,0-.53.6,1,1,0,0,0,.09.71l-.71.34a1.57,1.57,0,0,1-.09-1.21A1.74,1.74,0,0,1,25.67,13.31Zm2.1,1.87-.93.58q-.86.53-.54,1.11c.2.39.55.45,1,.19a1.28,1.28,0,0,0,.66-.7,1.22,1.22,0,0,0-.14-1Z" transform="translate(0 0.06)" style="fill:#1c2128"/><path d="M30.72,11.21a1.79,1.79,0,0,1,1.38.06,1.84,1.84,0,0,1,.82,1.13l.84,2.77-.75.22-.16-.51a1.7,1.7,0,0,1-1.12,1,1.67,1.67,0,0,1-1.15,0,1.19,1.19,0,0,1-.67-.8c-.25-.81.16-1.42,1.22-1.81l1.11-.4-.07-.21c-.21-.71-.63-1-1.24-.79a1,1,0,0,0-.63.48,1,1,0,0,0-.05.73l-.76.19a1.53,1.53,0,0,1,.14-1.21A1.76,1.76,0,0,1,30.72,11.21Zm1.71,2.24-1,.38q-.95.36-.75,1c.13.42.46.55,1,.39a1.3,1.3,0,0,0,.78-.57,1.19,1.19,0,0,0,0-1Z" transform="translate(0 0.06)" style="fill:#1c2128"/><path d="M36.68,10.05a1.73,1.73,0,0,1,1.33.4,1.86,1.86,0,0,1,.62,1.31l.26,2.78-.78.07-.25-2.68a1.34,1.34,0,0,0-.4-.88,1.07,1.07,0,0,0-.87-.26,1.17,1.17,0,0,0-.85.44,1.23,1.23,0,0,0-.26.93l.24,2.67L35,14.9l-.42-4.57.73-.06.07.68a1.41,1.41,0,0,1,.49-.6A1.7,1.7,0,0,1,36.68,10.05Z" transform="translate(0 0.06)" style="fill:#1c2128"/><path d="M42.54,10.15a2.05,2.05,0,0,1,1,.36,1.54,1.54,0,0,1,.55.68l.1-.75.72.09-.61,4.82a2,2,0,0,1-.79,1.45,2.22,2.22,0,0,1-1.66.37,2.35,2.35,0,0,1-1.43-.64,1.88,1.88,0,0,1-.56-1.26l.77.07a1.07,1.07,0,0,0,.37.78,1.68,1.68,0,0,0,.91.39A1.46,1.46,0,0,0,43,16.28a1.35,1.35,0,0,0,.53-1l.12-1a1.45,1.45,0,0,1-.68.48,2.13,2.13,0,0,1-1,.09A2.09,2.09,0,0,1,40.45,14a2.39,2.39,0,0,1-.4-1.8,2.36,2.36,0,0,1,.84-1.64A2.13,2.13,0,0,1,42.54,10.15Zm0,.69a1.46,1.46,0,0,0-1.16.3,1.79,1.79,0,0,0-.59,1.2,1.82,1.82,0,0,0,.27,1.3,1.46,1.46,0,0,0,1,.58A1.43,1.43,0,0,0,43.24,14a1.61,1.61,0,0,0,.56-1.1l0-.27a1.54,1.54,0,0,0-.26-1.21A1.39,1.39,0,0,0,42.57,10.84Z" transform="translate(0 0.06)" style="fill:#1c2128"/><path d="M50,14.89l-3.33-1.2a1.48,1.48,0,0,0,.05,1.12,1.43,1.43,0,0,0,.82.7,1.48,1.48,0,0,0,.87.07,1,1,0,0,0,.62-.41l.72.3a1.73,1.73,0,0,1-1,.74,2.19,2.19,0,0,1-1.4-.06A2.22,2.22,0,0,1,46,15a2.35,2.35,0,0,1,0-1.86,2.34,2.34,0,0,1,1.18-1.42,2.21,2.21,0,0,1,1.75-.05,2,2,0,0,1,1.24,1.1,2.3,2.3,0,0,1,0,1.73Zm-1.31-2.6a1.41,1.41,0,0,0-1.07,0,1.39,1.39,0,0,0-.74.81l2.61.93a1.46,1.46,0,0,0,0-1A1.27,1.27,0,0,0,48.64,12.29Z" transform="translate(0 0.06)" style="fill:#1c2128"/><path d="M54.5,11.69,52.84,14.3a1.51,1.51,0,0,1,.83-.14,2.07,2.07,0,0,1,.93.34,2.15,2.15,0,0,1,1,1.4,2.43,2.43,0,0,1-.4,1.8,2.41,2.41,0,0,1-1.46,1.13,2.15,2.15,0,0,1-1.69-.31,2.18,2.18,0,0,1-.72-.73,1.55,1.55,0,0,1-.2-.85l-.41.63-.62-.39,3.75-5.91ZM54.14,15A1.42,1.42,0,0,0,53,14.78a1.59,1.59,0,0,0-1,.76l-.14.23a1.6,1.6,0,0,0-.28,1.2,1.45,1.45,0,0,0,.67.92,1.48,1.48,0,0,0,1.18.21,1.78,1.78,0,0,0,1-.83A1.73,1.73,0,0,0,54.84,16,1.49,1.49,0,0,0,54.14,15Z" transform="translate(0 0.06)" style="fill:#1c2128"/><path d="M57.75,17.66a2.5,2.5,0,0,1,2.38,2.4,2.29,2.29,0,0,1-.75,1.69,2.4,2.4,0,0,1-4.08-1.66,2.3,2.3,0,0,1,.76-1.69A2.27,2.27,0,0,1,57.75,17.66ZM59.4,20a1.52,1.52,0,0,0-.47-1.12,1.47,1.47,0,0,0-1.12-.48,1.71,1.71,0,0,0-1.2.55,1.74,1.74,0,0,0-.57,1.2,1.59,1.59,0,0,0,1.59,1.6,1.68,1.68,0,0,0,1.2-.56A1.72,1.72,0,0,0,59.4,20Z" transform="translate(0 0.06)" style="fill:#1c2128"/><path d="M60.57,27.75l-.39-.62.64-.4a1.51,1.51,0,0,1-.85-.22,2.06,2.06,0,0,1-.72-.72A2.09,2.09,0,0,1,59,24.1a2.33,2.33,0,0,1,1.14-1.44,2.41,2.41,0,0,1,1.81-.39,2.13,2.13,0,0,1,1.38,1,2,2,0,0,1,.33.94,1.39,1.39,0,0,1-.15.82L66.1,23.4l.41.66Zm2.21-4a1.46,1.46,0,0,0-1-.7,2,2,0,0,0-2.13,1.32,1.59,1.59,0,0,0,1.11,1.87A1.6,1.6,0,0,0,62,26l.22-.14a1.61,1.61,0,0,0,.78-1A1.47,1.47,0,0,0,62.78,23.73Z" transform="translate(0 0.06)" style="fill:#1c2128"/><path d="M64.29,32l-1.16-3.35a1.43,1.43,0,0,0-.84.75,1.41,1.41,0,0,0,0,1.07,1.63,1.63,0,0,0,.48.72,1.09,1.09,0,0,0,.72.23l.21.74a1.74,1.74,0,0,1-1.21-.32A2.4,2.4,0,0,1,61.7,29a2.36,2.36,0,0,1,1.44-1.17,2.3,2.3,0,0,1,1.84,0,2.2,2.2,0,0,1,1.14,1.33,2,2,0,0,1-.07,1.66,2.35,2.35,0,0,1-1.36,1.07Zm1.19-2.66a1.33,1.33,0,0,0-1.76-.9l.91,2.62a1.47,1.47,0,0,0,.82-.67A1.27,1.27,0,0,0,65.48,29.38Z" transform="translate(0 0.06)" style="fill:#1c2128"/><path d="M67.5,35.17a1.73,1.73,0,0,1-.36,1.34,1.84,1.84,0,0,1-1.29.66l-2.77.35-.1-.78,2.67-.33a1.3,1.3,0,0,0,.87-.43,1.22,1.22,0,0,0-.23-1.71,1.3,1.3,0,0,0-.94-.24l-2.66.34-.1-.77L67.15,33l.09.73-.68.09a1.44,1.44,0,0,1,.61.47A1.85,1.85,0,0,1,67.5,35.17Z" transform="translate(0 0.06)" style="fill:#1c2128"/><path d="M28.78,68.41l-.67-.28.29-.69a1.49,1.49,0,0,1-.82.31,2,2,0,0,1-1-.17,2.12,2.12,0,0,1-1.21-1.21,2.38,2.38,0,0,1,.09-1.84,2.4,2.4,0,0,1,1.26-1.35,2.12,2.12,0,0,1,1.71,0,2.16,2.16,0,0,1,.81.58,1.43,1.43,0,0,1,.35.75l1.2-2.85.72.3Zm-.52-4.55a1.48,1.48,0,0,0-1.2,0,1.78,1.78,0,0,0-.88,1,1.74,1.74,0,0,0-.09,1.33,1.45,1.45,0,0,0,.84.84,1.49,1.49,0,0,0,1.15,0,1.62,1.62,0,0,0,.83-.92l.1-.25a1.51,1.51,0,0,0,.07-1.22A1.42,1.42,0,0,0,28.26,63.86Z" transform="translate(0 0.06)" style="fill:#1c2128"/><path d="M31.92,69.25l-.75-.19,1.1-4.46.75.19Zm.86-6.6a.54.54,0,0,1,.39-.06.52.52,0,0,1,.31.23.51.51,0,0,1-.17.7.47.47,0,0,1-.38.06.48.48,0,0,1-.32-.23.51.51,0,0,1-.06-.38A.48.48,0,0,1,32.78,62.65Z" transform="translate(0 0.06)" style="fill:#1c2128"/><path d="M38.5,68.15,35,67.82a1.53,1.53,0,0,0,.33,1.07,1.45,1.45,0,0,0,1,.47,1.57,1.57,0,0,0,.86-.14,1.06,1.06,0,0,0,.5-.56l.77.12a1.76,1.76,0,0,1-.8,1,2.16,2.16,0,0,1-1.37.28,2.22,2.22,0,0,1-1.58-.79A2.71,2.71,0,0,1,35,65.77a2.23,2.23,0,0,1,1.69-.48,2,2,0,0,1,1.47.75,2.28,2.28,0,0,1,.41,1.69ZM36.58,66a1.43,1.43,0,0,0-1,.26,1.39,1.39,0,0,0-.52,1l2.76.26a1.46,1.46,0,0,0-.27-1A1.24,1.24,0,0,0,36.58,66Z" transform="translate(0 0.06)" style="fill:#1c2128"/><path d="M42.38,65.2a1.7,1.7,0,0,1,1.34.37,1.92,1.92,0,0,1,.65,1.3l.31,2.77-.77.09-.31-2.67a1.29,1.29,0,0,0-.42-.88,1.16,1.16,0,0,0-.88-.25,1.23,1.23,0,0,0-.84.47,1.29,1.29,0,0,0-.24.94L41.53,70l-.77.09-.52-4.56.73-.08.08.67a1.37,1.37,0,0,1,.48-.6A1.74,1.74,0,0,1,42.38,65.2Z" transform="translate(0 0.06)" style="fill:#1c2128"/><path d="M47.19,64.18a1.65,1.65,0,0,1,1.22,0,1.54,1.54,0,0,1,.79.8l-.72.28a.81.81,0,0,0-1.12-.45,1,1,0,0,0-.57.36.6.6,0,0,0-.07.54.81.81,0,0,0,.06.13.39.39,0,0,0,.08.1L47,66a.33.33,0,0,0,.13,0l.14,0h.53L48,66a3.74,3.74,0,0,1,1.3.1,1,1,0,0,1,.62.69A1.26,1.26,0,0,1,49.74,68a2,2,0,0,1-1.1.73,1.94,1.94,0,0,1-1.3,0,1.51,1.51,0,0,1-.85-.82l.73-.28c.22.47.63.61,1.24.42a1.18,1.18,0,0,0,.61-.37.61.61,0,0,0,.09-.56.53.53,0,0,0-.36-.39,3.79,3.79,0,0,0-.95,0l-.53,0a2.21,2.21,0,0,1-.44,0,1,1,0,0,1-.4-.11,1,1,0,0,1-.28-.24A1.05,1.05,0,0,1,46,66a1.22,1.22,0,0,1,.13-1.07A1.86,1.86,0,0,1,47.19,64.18Z" transform="translate(0 0.06)" style="fill:#1c2128"/><path d="M53.53,65.91a3,3,0,0,0,.39-.23l.3.62a3.55,3.55,0,0,1-.53.32,1.43,1.43,0,0,1-1.09.13,1.34,1.34,0,0,1-.81-.81l-1.1-2.29-.77.37-.29-.6L50.4,63l-.69-1.43.71-.34.68,1.43,1.11-.53.29.6-1.1.54,1,2.15Q52.81,66.27,53.53,65.91Z" transform="translate(0 0.06)" style="fill:#1c2128"/><path d="M50.39,36.23v3.9a.65.65,0,0,1-.64.65h-.66v5.84a1.94,1.94,0,0,1-1.94,2H32.85a1.94,1.94,0,0,1-1.94-2V40.78h-.66a.65.65,0,0,1-.64-.65v-3.9a1.94,1.94,0,0,1,1.94-1.95h1.6a3.31,3.31,0,0,1-.62-2,3.14,3.14,0,0,1,3-3.25c1.72,0,2.72,1,4.45,3.89,1.73-2.85,2.73-3.89,4.45-3.89a3.14,3.14,0,0,1,3,3.25,3.31,3.31,0,0,1-.62,2h1.6A1.94,1.94,0,0,1,50.39,36.23Zm-13-.65H31.55a.65.65,0,0,0-.64.65v3.25H37.4Zm0,5.2H32.2v5.84a.66.66,0,0,0,.65.65H37.4Zm-3.58-8.45a1.85,1.85,0,0,0,1.73,2h3.71l-.08-.14c-2-3.39-2.68-3.76-3.63-3.76A1.86,1.86,0,0,0,33.82,32.33Zm7.48,3.25H38.7V47.27h2.6Zm-.57-1.3h3.72a2,2,0,0,0,0-3.9c-1,0-1.62.37-3.63,3.76Zm8.36,1.95a.65.65,0,0,0-.64-.65H42.6v3.9h6.49ZM47.8,40.78H42.6v6.49h4.55a.66.66,0,0,0,.65-.65Z" transform="translate(0 0.06)" style="fill:#1c2128"/></svg>