<svg xmlns="http://www.w3.org/2000/svg" xmlns:xlink="http://www.w3.org/1999/xlink" viewBox="0 0 78.06 78.06"><defs><clipPath id="a" transform="translate(0 0.06)"><rect width="78" height="78" style="fill:none"/></clipPath></defs><g style="clip-path:url(#a)"><path d="M39-.06A39,39,0,1,1,0,39,39,39,0,0,1,39-.06Z" transform="translate(0 0.06)" style="fill:#f9f7f4"/></g><path d="M12.52,28.15A2.19,2.19,0,0,1,13.45,27a1.87,1.87,0,0,1,1.42-.17l-.21.72a1.26,1.26,0,0,0-.92.11,1.44,1.44,0,0,0-.55,1.87,1.85,1.85,0,0,0,1,.83,1.79,1.79,0,0,0,1.32.06,1.49,1.49,0,0,0,.87-1.75,1.2,1.2,0,0,0-.57-.67l.34-.68a1.84,1.84,0,0,1,.88,1.07A2.15,2.15,0,0,1,17,29.86a2.19,2.19,0,0,1-1.18,1.29,2.36,2.36,0,0,1-1.86,0,2.31,2.31,0,0,1-1.4-1.21A2.21,2.21,0,0,1,12.52,28.15Z" transform="translate(0 0.06)" style="fill:#1c2128"/><path d="M14.86,24.64a2.52,2.52,0,0,1,1.85-2.83,2.32,2.32,0,0,1,1.81.39,2.29,2.29,0,0,1,1.08,1.51,2.32,2.32,0,0,1-.37,1.77,2.37,2.37,0,0,1-1.48,1.05,2.33,2.33,0,0,1-1.81-.39A2.29,2.29,0,0,1,14.86,24.64Zm1.95-2.09a1.5,1.5,0,0,0-1,.69,1.53,1.53,0,0,0-.24,1.2,2,2,0,0,0,2.09,1.36,1.61,1.61,0,0,0,1.23-1.89,1.94,1.94,0,0,0-2.08-1.36Z" transform="translate(0 0.06)" style="fill:#1c2128"/><path d="M21.75,15.8A1.55,1.55,0,0,1,23,15.38a1.92,1.92,0,0,1,1.25.71l1.83,2.12-.59.51-1.76-2a1.34,1.34,0,0,0-.83-.5,1,1,0,0,0-.84.28,1.08,1.08,0,0,0-.4.76,1.24,1.24,0,0,0,.26.83l0,0L23.8,20.2l-.59.51-1.77-2a1.34,1.34,0,0,0-.82-.5,1,1,0,0,0-.82.26,1.07,1.07,0,0,0-.41.84,1.29,1.29,0,0,0,.33.9l1.76,2-.59.51-3-3.48.56-.48.45.53a1.41,1.41,0,0,1,.55-1.5,1.67,1.67,0,0,1,.83-.41,1.55,1.55,0,0,1,.9.11,1.62,1.62,0,0,1,0-.9A1.75,1.75,0,0,1,21.75,15.8Z" transform="translate(0 0.06)" style="fill:#1c2128"/><path d="M27.32,12.52A2.12,2.12,0,0,1,29,12.44a2.37,2.37,0,0,1,1.29,1.31,2.39,2.39,0,0,1,.17,1.83,2.13,2.13,0,0,1-1.17,1.26,2.1,2.1,0,0,1-1,.22,1.41,1.41,0,0,1-.8-.25l1.25,2.7-.7.33-2.9-6.25.67-.31.32.69a1.54,1.54,0,0,1,.31-.82A2.16,2.16,0,0,1,27.32,12.52Zm.18.66a1.47,1.47,0,0,0-.79.82,1.56,1.56,0,0,0,.13,1.23l.11.24a1.53,1.53,0,0,0,.85.88,1.57,1.57,0,0,0,1.95-1,1.71,1.71,0,0,0-.13-1.31,1.77,1.77,0,0,0-.92-1A1.44,1.44,0,0,0,27.5,13.18Z" transform="translate(0 0.06)" style="fill:#1c2128"/><path d="M33.05,15.42l-.75.21L30.4,8.9l.75-.21Z" transform="translate(0 0.06)" style="fill:#1c2128"/><path d="M33.28,8.59a.46.46,0,0,1,.33-.21.48.48,0,0,1,.38.08.46.46,0,0,1,.21.33.45.45,0,0,1-.08.37.53.53,0,0,1-.33.22.54.54,0,0,1-.39-.08A.53.53,0,0,1,33.19,9,.51.51,0,0,1,33.28,8.59ZM35.2,15l-.76.14-.83-4.51.76-.14Z" transform="translate(0 0.06)" style="fill:#1c2128"/><path d="M41.71,10a1.62,1.62,0,0,1,1.23.55A2,2,0,0,1,43.37,12l-.09,2.8-.77,0L42.59,12a1.35,1.35,0,0,0-.27-.92,1,1,0,0,0-.81-.37,1.07,1.07,0,0,0-.8.29,1.21,1.21,0,0,0-.38.78v.06l-.09,2.79-.78,0,.08-2.69a1.38,1.38,0,0,0-.27-.92,1,1,0,0,0-.78-.37,1.14,1.14,0,0,0-.87.34,1.3,1.3,0,0,0-.36.9l-.08,2.67-.78,0L36.54,10l.74,0,0,.69a1.42,1.42,0,0,1,1.41-.73,1.79,1.79,0,0,1,.9.26,1.57,1.57,0,0,1,.58.69,1.55,1.55,0,0,1,.63-.64A1.69,1.69,0,0,1,41.71,10Z" transform="translate(0 0.06)" style="fill:#1c2128"/><path d="M48.84,14.43l-3.38-1a1.49,1.49,0,0,0,.1,1.11,1.42,1.42,0,0,0,.86.66,1.51,1.51,0,0,0,.86,0,1.08,1.08,0,0,0,.61-.44l.72.27a1.73,1.73,0,0,1-1,.78,2.13,2.13,0,0,1-1.41,0,2.21,2.21,0,0,1-1.38-1.1,2.38,2.38,0,0,1-.09-1.85,2.38,2.38,0,0,1,1.11-1.47,2.16,2.16,0,0,1,1.75-.13,2,2,0,0,1,1.29,1A2.32,2.32,0,0,1,49,14ZM47.41,11.9a1.43,1.43,0,0,0-1.06,0,1.4,1.4,0,0,0-.71.85l2.65.81a1.49,1.49,0,0,0,0-1A1.25,1.25,0,0,0,47.41,11.9Z" transform="translate(0 0.06)" style="fill:#1c2128"/><path d="M53.29,13.72a1.67,1.67,0,0,1,.87,1.07,1.89,1.89,0,0,1-.23,1.44l-1.36,2.43-.69-.38,1.32-2.35a1.27,1.27,0,0,0,.16-.95,1.09,1.09,0,0,0-.56-.71,1.11,1.11,0,0,0-.95-.11,1.21,1.21,0,0,0-.74.61l-1.32,2.34-.67-.38,2.24-4,.64.36-.33.6a1.32,1.32,0,0,1,.75-.21A1.64,1.64,0,0,1,53.29,13.72Z" transform="translate(0 0.06)" style="fill:#1c2128"/><path d="M55.33,20.07a2.78,2.78,0,0,0,.38.25l-.44.54a3.54,3.54,0,0,1-.51-.35,1.5,1.5,0,0,1-.59-.93,1.4,1.4,0,0,1,.4-1.08l1.6-2L55.51,16l.42-.53.67.54,1-1.22.61.49-1,1.23,1,.77-.42.53-1-.78-1.52,1.84A.75.75,0,0,0,55.33,20.07Z" transform="translate(0 0.06)" style="fill:#1c2128"/><path d="M60.36,19.41a1.71,1.71,0,0,1,.52,1.28,1.74,1.74,0,0,1-.68,1.21l-2.15,1.93-.52-.58.4-.36a1.71,1.71,0,0,1-1.38-.6,1.61,1.61,0,0,1-.47-1.05,1.2,1.2,0,0,1,.44-.94c.63-.57,1.35-.45,2.15.34l.84.84.16-.15c.55-.49.61-1,.19-1.46a.92.92,0,0,0-1.38-.11l-.5-.6a1.58,1.58,0,0,1,1.16-.39A1.76,1.76,0,0,1,60.36,19.41ZM59.05,21.9l-.78-.77c-.48-.47-.89-.56-1.22-.26s-.3.65.07,1.06a1.4,1.4,0,0,0,.84.48,1.25,1.25,0,0,0,.95-.39Z" transform="translate(0 0.06)" style="fill:#1c2128"/><path d="M63.82,24.15l-.63.41a1.24,1.24,0,0,0-1.78-.44L59.2,25.55l-.42-.64,3.85-2.5.41.64-.58.37a1.22,1.22,0,0,1,.71.12A1.56,1.56,0,0,1,63.82,24.15Z" transform="translate(0 0.06)" style="fill:#1c2128"/><path d="M58.59,29.14l-.35-.78L61,28.29l3.2-3.42.35.79-2.52,2.61,3.65-.09.35.79Z" transform="translate(0 0.06)" style="fill:#1c2128"/><path d="M26.59,62.33a1.71,1.71,0,0,1,.87.87,1.63,1.63,0,0,1,0,1.13L26.74,64a.82.82,0,0,0-.48-1.11,1.07,1.07,0,0,0-.65-.15.59.59,0,0,0-.43.34.49.49,0,0,0-.06.13.57.57,0,0,0,0,.13s0,.08,0,.11a.34.34,0,0,0,.06.12l.08.11.12.11.12.12.16.13.16.14a3.63,3.63,0,0,1,.85,1,1,1,0,0,1-.05.93,1.21,1.21,0,0,1-.9.71,1.91,1.91,0,0,1-1.29-.25,2,2,0,0,1-1-.9,1.51,1.51,0,0,1,0-1.18l.71.31c-.18.49,0,.88.58,1.18a1.2,1.2,0,0,0,.7.16.6.6,0,0,0,.46-.33.53.53,0,0,0,0-.53,4.32,4.32,0,0,0-.67-.69l-.39-.35a1.87,1.87,0,0,1-.3-.32,1,1,0,0,1-.21-.35,1.1,1.1,0,0,1,.11-.82,1.22,1.22,0,0,1,.85-.67A1.91,1.91,0,0,1,26.59,62.33Z" transform="translate(0 0.06)" style="fill:#1c2128"/><path d="M32.65,67.44l-3.4-1a1.56,1.56,0,0,0,.11,1.12,1.47,1.47,0,0,0,.86.65,1.45,1.45,0,0,0,.87,0,1.06,1.06,0,0,0,.6-.44l.73.26a1.76,1.76,0,0,1-1,.8,2.26,2.26,0,0,1-1.41,0,2.19,2.19,0,0,1-1.38-1.09,2.69,2.69,0,0,1,1-3.33,2.17,2.17,0,0,1,1.74-.14,2,2,0,0,1,1.3,1A2.32,2.32,0,0,1,32.77,67ZM31.2,64.92a1.45,1.45,0,0,0-1.07,0,1.41,1.41,0,0,0-.7.85l2.66.8A1.52,1.52,0,0,0,32,65.56,1.27,1.27,0,0,0,31.2,64.92Z" transform="translate(0 0.06)" style="fill:#1c2128"/><path d="M36.92,65.37l-.1.74a1.33,1.33,0,0,0-1,.23,1.18,1.18,0,0,0-.48.85L35,69.8l-.76-.1.59-4.55.75.1-.09.69a1.23,1.23,0,0,1,.55-.47A1.68,1.68,0,0,1,36.92,65.37Z" transform="translate(0 0.06)" style="fill:#1c2128"/><path d="M40.12,70.06H39.5l-2.09-4.55h.86l1.53,3.38,1.34-3.45.86,0Z" transform="translate(0 0.06)" style="fill:#1c2128"/><path d="M42.7,63.21A.46.46,0,0,1,43,63a.52.52,0,0,1,.59.43.46.46,0,0,1-.1.37.53.53,0,0,1-.33.21.51.51,0,0,1-.38-.09.45.45,0,0,1-.2-.33A.43.43,0,0,1,42.7,63.21Zm1.8,6.4-.76.12L43,65.21l.76-.13Z" transform="translate(0 0.06)" style="fill:#1c2128"/><path d="M47.3,64.14a2.12,2.12,0,0,1,1.47,0,1.83,1.83,0,0,1,1,1l-.7.28a1.22,1.22,0,0,0-.65-.65,1.45,1.45,0,0,0-1.81.72,1.85,1.85,0,0,0,0,1.32,1.84,1.84,0,0,0,.77,1.08,1.34,1.34,0,0,0,1.14.12,1.38,1.38,0,0,0,.77-.53,1.25,1.25,0,0,0,.18-.86l.74-.15a1.85,1.85,0,0,1-.3,1.35,2.11,2.11,0,0,1-1.19.83A2.14,2.14,0,0,1,47,68.55a2.36,2.36,0,0,1-1.12-1.47,2.41,2.41,0,0,1,.08-1.86A2.22,2.22,0,0,1,47.3,64.14Z" transform="translate(0 0.06)" style="fill:#1c2128"/><path d="M55.4,63.33,52.3,65a1.51,1.51,0,0,0,.87.7,1.41,1.41,0,0,0,1.07-.16,1.57,1.57,0,0,0,.63-.59,1.08,1.08,0,0,0,.1-.75l.7-.33a1.76,1.76,0,0,1-.11,1.25,2.43,2.43,0,0,1-2.73,1.23,2.37,2.37,0,0,1-1.39-1.22,2.34,2.34,0,0,1-.29-1.82A2.16,2.16,0,0,1,52.27,62a2,2,0,0,1,1.64-.21A2.35,2.35,0,0,1,55.2,63Zm-2.81-.73a1.34,1.34,0,0,0-.6,1.89l2.43-1.34a1.49,1.49,0,0,0-.8-.7A1.22,1.22,0,0,0,52.59,62.6Z" transform="translate(0 0.06)" style="fill:#1c2128"/><path d="M50.39,36.23v3.9a.65.65,0,0,1-.65.65h-.65v5.85a1.94,1.94,0,0,1-1.94,1.94H32.85a2,2,0,0,1-2-1.94V40.78h-.65a.65.65,0,0,1-.64-.65v-3.9a1.94,1.94,0,0,1,1.94-1.95h1.6a3.31,3.31,0,0,1-.62-2,3.14,3.14,0,0,1,3-3.25c1.72,0,2.72,1,4.45,3.89,1.73-2.85,2.73-3.89,4.45-3.89a3.15,3.15,0,0,1,3,3.25,3.38,3.38,0,0,1-.62,2h1.59A2,2,0,0,1,50.39,36.23Zm-13-.65H31.55a.66.66,0,0,0-.65.65v3.25h6.5Zm0,5.2H32.2v5.85a.65.65,0,0,0,.65.64H37.4Zm-3.58-8.45a1.85,1.85,0,0,0,1.73,2h3.71l-.08-.14c-2-3.39-2.68-3.76-3.63-3.76A1.86,1.86,0,0,0,33.82,32.33Zm7.48,3.25H38.7V47.27h2.6Zm-.57-1.3h3.72a2,2,0,0,0,0-3.9c-1,0-1.62.37-3.63,3.76Zm8.36,1.95a.65.65,0,0,0-.65-.65H42.6v3.9h6.49ZM47.8,40.78H42.6v6.49h4.55a.65.65,0,0,0,.65-.64Z" transform="translate(0 0.06)" style="fill:#1c2128"/></svg>