<svg xmlns="http://www.w3.org/2000/svg" xmlns:xlink="http://www.w3.org/1999/xlink" viewBox="0 0 78.06 78.06"><defs><clipPath id="a" transform="translate(0 0.06)"><rect width="78" height="78" style="fill:none"/></clipPath></defs><g style="clip-path:url(#a)"><path d="M39-.06A39,39,0,1,1,0,39,39,39,0,0,1,39-.06Z" transform="translate(0 0.06)" style="fill:#f9f7f4"/></g><path d="M13.26,44.21l-2.35-1.62-.17-.94,2.31,1.54,2.16-2.6.18,1L13.7,43.63l.58.39,1.52-.29.14.77L9.06,45.78,8.92,45Z" transform="translate(0 0.06)" style="fill:#1c2128"/><path d="M11.19,39.81a2.29,2.29,0,0,1-.63-1.69,2.33,2.33,0,0,1,.68-1.68A2.3,2.3,0,0,1,13,35.79a2.36,2.36,0,1,1-.06,4.72A2.28,2.28,0,0,1,11.19,39.81ZM11.71,37a1.63,1.63,0,0,0,0,2.26,1.68,1.68,0,0,0,1.24.46,1.71,1.71,0,0,0,1.25-.42,1.61,1.61,0,0,0,0-2.26A1.76,1.76,0,0,0,13,36.57,1.76,1.76,0,0,0,11.71,37Z" transform="translate(0 0.06)" style="fill:#1c2128"/><path d="M11.2,32.53a1.7,1.7,0,0,1,.61-1.07,1.56,1.56,0,0,1,1.09-.28l-.12.76c-.51-.05-.82.2-.94.76a1,1,0,0,0,0,.67.58.58,0,0,0,.43.32l.14,0a.28.28,0,0,0,.13,0l.1,0a.41.41,0,0,0,.1-.09.59.59,0,0,1,.09-.11s0-.08.07-.14l.08-.15.09-.19.09-.19a3.84,3.84,0,0,1,.72-1.08,1,1,0,0,1,.91-.2,1.26,1.26,0,0,1,.93.68,2.35,2.35,0,0,1-.53,2.46,1.45,1.45,0,0,1-1.12.34l.11-.77c.52,0,.84-.25,1-.87a1.19,1.19,0,0,0,0-.71.6.6,0,0,0-.45-.36.51.51,0,0,0-.51.12,4,4,0,0,0-.48.82l-.24.48a2.36,2.36,0,0,1-.23.37,1,1,0,0,1-.28.3,1.52,1.52,0,0,1-.36.12,1.25,1.25,0,0,1-.47,0,1.24,1.24,0,0,1-.86-.64A1.84,1.84,0,0,1,11.2,32.53Z" transform="translate(0 0.06)" style="fill:#1c2128"/><path d="M16.53,28.9a1.83,1.83,0,0,0,.12-.44l.65.25a4.11,4.11,0,0,1-.17.6,1.49,1.49,0,0,1-.71.85,1.38,1.38,0,0,1-1.14,0l-2.37-.92-.3.8L12,29.76l.31-.8-1.48-.57.28-.73,1.48.57L13,27.08l.63.24-.44,1.15,2.22.87C16,29.55,16.34,29.41,16.53,28.9Z" transform="translate(0 0.06)" style="fill:#1c2128"/><path d="M17.91,23.51l-1.79,3.06a1.48,1.48,0,0,0,1.11.15,1.38,1.38,0,0,0,.83-.68,1.51,1.51,0,0,0,.24-.83,1.07,1.07,0,0,0-.29-.69l.43-.65A1.71,1.71,0,0,1,19,25a2.15,2.15,0,0,1-.33,1.36,2.21,2.21,0,0,1-1.38,1.09,2.39,2.39,0,0,1-1.83-.34,2.33,2.33,0,0,1-1.17-1.42A2.15,2.15,0,0,1,14.54,24a2,2,0,0,1,1.31-1,2.31,2.31,0,0,1,1.7.35Zm-2.79.81a1.37,1.37,0,0,0-.2,1,1.43,1.43,0,0,0,.65.89L17,23.86a1.49,1.49,0,0,0-1-.2A1.27,1.27,0,0,0,15.12,24.32Z" transform="translate(0 0.06)" style="fill:#1c2128"/><path d="M18.23,19a1.75,1.75,0,0,1,1.25-.6,1.88,1.88,0,0,1,1.34.56l2.06,1.88-.53.58-2-1.82a1.33,1.33,0,0,0-.89-.38,1.09,1.09,0,0,0-.83.39,1.18,1.18,0,0,0-.33.9,1.28,1.28,0,0,0,.43.86l2,1.82-.52.57-3.39-3.11.5-.54.51.46a1.42,1.42,0,0,1,0-.77A1.73,1.73,0,0,1,18.23,19Z" transform="translate(0 0.06)" style="fill:#1c2128"/><path d="M24.5,19.61l-.61.48-4.36-5.46.6-.48Z" transform="translate(0 0.06)" style="fill:#1c2128"/><path d="M23.87,15.07a2.51,2.51,0,0,1,2.94-1.66,2.24,2.24,0,0,1,1.43,1.17,2.32,2.32,0,0,1,.27,1.83,2.36,2.36,0,0,1-4.37.49A2.32,2.32,0,0,1,23.87,15.07Zm2.69-1a1.62,1.62,0,0,0-2,1.11,1.67,1.67,0,0,0,.22,1.3,1.71,1.71,0,0,0,1,.87,1.61,1.61,0,0,0,2-1.12,2,2,0,0,0-1.23-2.16Z" transform="translate(0 0.06)" style="fill:#1c2128"/><path d="M30.16,11.4a1.68,1.68,0,0,1,1.23,0,1.56,1.56,0,0,1,.8.8l-.72.28A.81.81,0,0,0,30.34,12a1,1,0,0,0-.56.37.63.63,0,0,0-.06.54l.06.13a.39.39,0,0,0,.08.1l.1.06a.19.19,0,0,0,.12,0l.14,0h.16l.17,0h.21l.21,0a3.53,3.53,0,0,1,1.29.08,1,1,0,0,1,.63.68,1.29,1.29,0,0,1-.11,1.14,2,2,0,0,1-1.09.75,2.05,2.05,0,0,1-1.31,0,1.51,1.51,0,0,1-.86-.81l.72-.29c.23.47.65.61,1.25.41a1.22,1.22,0,0,0,.6-.38.61.61,0,0,0,.09-.57.53.53,0,0,0-.37-.38,3.94,3.94,0,0,0-.95,0l-.53,0a2.23,2.23,0,0,1-.44,0,.87.87,0,0,1-.4-.1,1.18,1.18,0,0,1-.29-.24A1.14,1.14,0,0,1,29,13.2a1.19,1.19,0,0,1,.12-1.07A1.83,1.83,0,0,1,30.16,11.4Z" transform="translate(0 0.06)" style="fill:#1c2128"/><path d="M37.66,10a1.79,1.79,0,0,1,1.32.4,1.83,1.83,0,0,1,.52,1.3l.14,2.88-.78,0,0-.54a1.69,1.69,0,0,1-1.33.7,1.62,1.62,0,0,1-1.11-.29,1.21,1.21,0,0,1-.46-.94c0-.85.5-1.33,1.62-1.45L38.73,12v-.22c0-.74-.38-1.1-1-1.06A1,1,0,0,0,37,11a1,1,0,0,0-.22.69H36a1.55,1.55,0,0,1,.43-1.14A1.72,1.72,0,0,1,37.66,10Zm1.11,2.59-1.09.13c-.67.07-1,.33-1,.77s.32.65.87.62a1.32,1.32,0,0,0,.9-.36,1.22,1.22,0,0,0,.3-1Z" transform="translate(0 0.06)" style="fill:#1c2128"/><path d="M43.7,10.31a1.68,1.68,0,0,1,1.18.7,1.86,1.86,0,0,1,.29,1.43l-.42,2.76L44,15.08l.41-2.66a1.31,1.31,0,0,0-.17-.95,1.1,1.1,0,0,0-.78-.47,1.15,1.15,0,0,0-.94.23,1.28,1.28,0,0,0-.48.83l-.4,2.65-.77-.11.7-4.54.73.11-.1.68a1.39,1.39,0,0,1,.62-.46A1.71,1.71,0,0,1,43.7,10.31Z" transform="translate(0 0.06)" style="fill:#1c2128"/><path d="M49.4,11.86a2,2,0,0,1,.84.58,1.64,1.64,0,0,1,.37.79l.27-.7.68.27-1.78,4.51a2,2,0,0,1-1.13,1.22A2.26,2.26,0,0,1,47,18.47a2.4,2.4,0,0,1-1.24-1,1.94,1.94,0,0,1-.23-1.36l.73.26a1.08,1.08,0,0,0,.17.85,1.69,1.69,0,0,0,.79.6,1.48,1.48,0,0,0,1.11,0,1.32,1.32,0,0,0,.75-.81l.37-.93a1.5,1.5,0,0,1-.78.29,2.06,2.06,0,0,1-1-.16,2.1,2.1,0,0,1-1.24-1.18,2.43,2.43,0,0,1,.05-1.85,2.44,2.44,0,0,1,1.22-1.38A2.1,2.1,0,0,1,49.4,11.86Zm-.15.66a1.47,1.47,0,0,0-1.2,0,1.76,1.76,0,0,0-.86,1,1.7,1.7,0,0,0-.06,1.32,1.52,1.52,0,0,0,.87.83,1.46,1.46,0,0,0,1.14,0,1.58,1.58,0,0,0,.81-.93l.09-.25a1.52,1.52,0,0,0,.05-1.23A1.41,1.41,0,0,0,49.25,12.52Z" transform="translate(0 0.06)" style="fill:#1c2128"/><path d="M55.4,18.26l-2.94-2a1.44,1.44,0,0,0-.22,1.1,1.38,1.38,0,0,0,.62.87,1.46,1.46,0,0,0,.82.29,1,1,0,0,0,.71-.25l.62.47a1.76,1.76,0,0,1-1.17.47,2.41,2.41,0,0,1-2.34-1.86,2.42,2.42,0,0,1,.44-1.8,2.41,2.41,0,0,1,1.5-1.09,2.22,2.22,0,0,1,1.7.38,2,2,0,0,1,.94,1.37,2.28,2.28,0,0,1-.45,1.68Zm-.64-2.84a1.43,1.43,0,0,0-1-.27,1.39,1.39,0,0,0-.92.6l2.3,1.55a1.48,1.48,0,0,0,.26-1A1.31,1.31,0,0,0,54.76,15.42Z" transform="translate(0 0.06)" style="fill:#1c2128"/><path d="M60.59,16.26l-2.24,2.13a1.49,1.49,0,0,1,.83.06A2.26,2.26,0,0,1,60,19a2.11,2.11,0,0,1,.62,1.6,2.4,2.4,0,0,1-.83,1.65,2.36,2.36,0,0,1-1.68.74,2.15,2.15,0,0,1-1.57-.71,2.18,2.18,0,0,1-.52-.88,1.55,1.55,0,0,1,0-.88l-.54.52L55,20.51l5.07-4.81Zm-1.15,3.13a1.49,1.49,0,0,0-1-.49,1.56,1.56,0,0,0-1.12.51l-.2.18a1.61,1.61,0,0,0-.56,1.1,1.57,1.57,0,0,0,1.52,1.54,1.7,1.7,0,0,0,1.21-.55,1.73,1.73,0,0,0,.61-1.18A1.47,1.47,0,0,0,59.44,19.39Z" transform="translate(0 0.06)" style="fill:#1c2128"/><path d="M62.31,22.87A2.52,2.52,0,0,1,64,25.78a2.39,2.39,0,0,1-4.4.63,2.33,2.33,0,0,1-.29-1.79,2.56,2.56,0,0,1,3-1.75Zm1,2.67a1.62,1.62,0,0,0-1.15-1.94,1.74,1.74,0,0,0-1.3.24,1.72,1.72,0,0,0-.84,1,1.49,1.49,0,0,0,.17,1.21,1.52,1.52,0,0,0,1,.74,2,2,0,0,0,2.15-1.27Z" transform="translate(0 0.06)" style="fill:#1c2128"/><path d="M62.42,30.78a3.2,3.2,0,0,0,.21.4l-.65.24a2.63,2.63,0,0,1-.27-.56,1.41,1.41,0,0,1,0-1.1,1.38,1.38,0,0,1,.88-.73l2.38-.88-.3-.8.63-.24.3.81,1.49-.55.27.73-1.48.55.43,1.15-.63.24-.44-1.16L63,29.7C62.42,29.91,62.24,30.27,62.42,30.78Z" transform="translate(0 0.06)" style="fill:#1c2128"/><path d="M65,35.72l-.68-3.48a1.49,1.49,0,0,0-.93.62,1.38,1.38,0,0,0-.18,1.06,1.5,1.5,0,0,0,.37.78,1.1,1.1,0,0,0,.68.33l.1.77a1.73,1.73,0,0,1-1.15-.49,2.24,2.24,0,0,1-.66-1.24,2.21,2.21,0,0,1,.32-1.74,2.39,2.39,0,0,1,1.59-.95,2.35,2.35,0,0,1,1.82.29,2.19,2.19,0,0,1,.94,1.47,2,2,0,0,1-.3,1.64,2.35,2.35,0,0,1-1.5.86Zm1.56-2.46a1.44,1.44,0,0,0-.54-.91,1.42,1.42,0,0,0-1.08-.23l.53,2.72a1.5,1.5,0,0,0,.91-.54A1.28,1.28,0,0,0,66.52,33.26Z" transform="translate(0 0.06)" style="fill:#1c2128"/><path d="M67.68,39.29a1.71,1.71,0,0,1-.53,1.28,1.92,1.92,0,0,1-1.38.47L63,41V40.2l2.7.06a1.35,1.35,0,0,0,.92-.31,1.09,1.09,0,0,0,.36-.83,1.21,1.21,0,0,0-.35-.9,1.3,1.3,0,0,0-.9-.36l-2.68,0,0-.77,4.59.08,0,.74H67a1.39,1.39,0,0,1,.54.56A1.66,1.66,0,0,1,67.68,39.29Z" transform="translate(0 0.06)" style="fill:#1c2128"/><path d="M63.83,46.59l.81-3.45a1.44,1.44,0,0,0-1.1.18,1.38,1.38,0,0,0-.6.89,1.5,1.5,0,0,0,0,.87,1.05,1.05,0,0,0,.48.58l-.22.74a1.74,1.74,0,0,1-.85-.92,2.21,2.21,0,0,1-.09-1.4,2.18,2.18,0,0,1,1-1.45,2.33,2.33,0,0,1,1.84-.22,2.38,2.38,0,0,1,1.55,1,2.19,2.19,0,0,1,.24,1.73,2,2,0,0,1-1,1.37,2.35,2.35,0,0,1-1.72.17ZM66.26,45a1.46,1.46,0,0,0-.12-1.06,1.41,1.41,0,0,0-.88-.65L64.62,46a1.52,1.52,0,0,0,1-.12A1.31,1.31,0,0,0,66.26,45Z" transform="translate(0 0.06)" style="fill:#1c2128"/><path d="M64.92,50.8l-.69-.29a1.33,1.33,0,0,0,0-1,1.23,1.23,0,0,0-.69-.69l-2.43-1,.3-.71,4.23,1.77-.29.7-.64-.27a1.16,1.16,0,0,1,.3.65A1.55,1.55,0,0,1,64.92,50.8Z" transform="translate(0 0.06)" style="fill:#1c2128"/><path d="M26.59,62.33a1.71,1.71,0,0,1,.87.87,1.63,1.63,0,0,1,0,1.13L26.74,64a.82.82,0,0,0-.48-1.11,1.09,1.09,0,0,0-.66-.15.59.59,0,0,0-.42.34.49.49,0,0,0-.06.13.57.57,0,0,0,0,.13s0,.08,0,.11a.23.23,0,0,0,.06.12l.08.11a.68.68,0,0,0,.12.11l.12.12.16.13.16.14a3.63,3.63,0,0,1,.85,1,1,1,0,0,1-.05.93,1.23,1.23,0,0,1-.9.71,1.91,1.91,0,0,1-1.29-.25,2,2,0,0,1-1-.9,1.51,1.51,0,0,1,0-1.18l.71.31c-.18.49,0,.88.58,1.18a1.2,1.2,0,0,0,.7.16.6.6,0,0,0,.46-.33.51.51,0,0,0,0-.53,3.74,3.74,0,0,0-.66-.69l-.39-.35a1.87,1.87,0,0,1-.3-.32,1,1,0,0,1-.21-.35,1.1,1.1,0,0,1,.11-.82,1.19,1.19,0,0,1,.85-.67A1.85,1.85,0,0,1,26.59,62.33Z" transform="translate(0 0.06)" style="fill:#1c2128"/><path d="M32.65,67.44l-3.4-1a1.51,1.51,0,0,0,.11,1.12,1.44,1.44,0,0,0,.86.65,1.42,1.42,0,0,0,.86,0,1,1,0,0,0,.61-.44l.73.26a1.76,1.76,0,0,1-1,.8,2.26,2.26,0,0,1-1.41,0,2.19,2.19,0,0,1-1.38-1.09,2.69,2.69,0,0,1,1-3.33,2.13,2.13,0,0,1,1.74-.14,2,2,0,0,1,1.3,1A2.36,2.36,0,0,1,32.77,67ZM31.2,64.92a1.45,1.45,0,0,0-1.07,0,1.41,1.41,0,0,0-.7.85l2.66.8A1.58,1.58,0,0,0,32,65.56,1.29,1.29,0,0,0,31.2,64.92Z" transform="translate(0 0.06)" style="fill:#1c2128"/><path d="M36.92,65.37l-.1.74a1.33,1.33,0,0,0-1,.23,1.18,1.18,0,0,0-.48.85L35,69.8l-.77-.1.6-4.55.75.1-.09.69a1.23,1.23,0,0,1,.55-.47A1.68,1.68,0,0,1,36.92,65.37Z" transform="translate(0 0.06)" style="fill:#1c2128"/><path d="M40.12,70.06H39.5l-2.09-4.55.86,0,1.52,3.39,1.35-3.45.86,0Z" transform="translate(0 0.06)" style="fill:#1c2128"/><path d="M42.7,63.21A.46.46,0,0,1,43,63a.52.52,0,0,1,.59.42.47.47,0,0,1-.1.38.48.48,0,0,1-.33.2.46.46,0,0,1-.38-.08.49.49,0,0,1-.21-.33A.47.47,0,0,1,42.7,63.21Zm1.8,6.4-.76.12L43,65.21l.76-.13Z" transform="translate(0 0.06)" style="fill:#1c2128"/><path d="M47.3,64.14a2.12,2.12,0,0,1,1.47,0,1.83,1.83,0,0,1,1,1l-.7.28a1.25,1.25,0,0,0-.65-.65,1.45,1.45,0,0,0-1.81.72,1.85,1.85,0,0,0,0,1.32,1.84,1.84,0,0,0,.77,1.08,1.34,1.34,0,0,0,1.14.12,1.41,1.41,0,0,0,.77-.53,1.25,1.25,0,0,0,.18-.86l.74-.15a1.85,1.85,0,0,1-.3,1.35,2.11,2.11,0,0,1-1.19.83A2.14,2.14,0,0,1,47,68.55a2.36,2.36,0,0,1-1.12-1.47,2.41,2.41,0,0,1,.08-1.86A2.22,2.22,0,0,1,47.3,64.14Z" transform="translate(0 0.06)" style="fill:#1c2128"/><path d="M55.4,63.33,52.3,65a1.51,1.51,0,0,0,.87.7,1.41,1.41,0,0,0,1.07-.16,1.57,1.57,0,0,0,.63-.59,1.08,1.08,0,0,0,.1-.75l.7-.33a1.76,1.76,0,0,1-.11,1.25,2.43,2.43,0,0,1-2.73,1.23,2.72,2.72,0,0,1-1.68-3A2.16,2.16,0,0,1,52.27,62a2,2,0,0,1,1.64-.21A2.35,2.35,0,0,1,55.2,63Zm-2.82-.73A1.35,1.35,0,0,0,52,64.49l2.43-1.34a1.49,1.49,0,0,0-.8-.7A1.25,1.25,0,0,0,52.58,62.6Z" transform="translate(0 0.06)" style="fill:#1c2128"/><path d="M50.39,36.23v3.9a.65.65,0,0,1-.64.65h-.66v5.84a1.94,1.94,0,0,1-1.94,2H32.85a1.94,1.94,0,0,1-1.94-2V40.78h-.66a.65.65,0,0,1-.64-.65v-3.9a1.94,1.94,0,0,1,1.94-1.95h1.6a3.31,3.31,0,0,1-.62-2,3.14,3.14,0,0,1,3-3.25c1.72,0,2.72,1,4.45,3.89,1.73-2.85,2.73-3.89,4.45-3.89a3.14,3.14,0,0,1,3,3.25,3.31,3.31,0,0,1-.62,2h1.6A1.94,1.94,0,0,1,50.39,36.23Zm-13-.65H31.55a.65.65,0,0,0-.64.65v3.25H37.4Zm0,5.2H32.2v5.84a.66.66,0,0,0,.65.65H37.4Zm-3.58-8.45a1.85,1.85,0,0,0,1.73,2h3.71l-.08-.14c-2-3.39-2.68-3.76-3.63-3.76A1.86,1.86,0,0,0,33.82,32.33Zm7.48,3.25H38.7V47.27h2.6Zm-.57-1.3h3.72a2,2,0,0,0,0-3.9c-1,0-1.62.37-3.63,3.76Zm8.36,1.95a.65.65,0,0,0-.64-.65H42.6v3.9h6.49ZM47.8,40.78H42.6v6.49h4.55a.66.66,0,0,0,.65-.65Z" transform="translate(0 0.06)" style="fill:#1c2128"/></svg>