<?xml version="1.0" encoding="utf-8"?>
<!-- Generator: Adobe Illustrator 24.3.0, SVG Export Plug-In . SVG Version: 6.00 Build 0)  -->
<svg version="1.1" id="Calque_1" xmlns="http://www.w3.org/2000/svg" xmlns:xlink="http://www.w3.org/1999/xlink" x="0px" y="0px"
	 viewBox="0 0 54 50.3" style="enable-background:new 0 0 54 50.3;" xml:space="preserve">
<style type="text/css">
	.st0{fill:#3C6575;}
</style>
<g>
	<path class="st0" d="M48.5,49.4c-0.7,0-1.3-0.5-1.4-1.2l-0.4-2.5c-0.4-2.7-2.2-4.9-4.6-5.6c-3.5-1.1-8.9-2.4-14.7-2.4
		c-5.8,0-11.2,1.3-14.7,2.4c-2.4,0.7-4.1,2.9-4.6,5.6l-0.4,2.5c-0.1,0.8-0.9,1.3-1.7,1.2c-0.8-0.1-1.3-0.9-1.2-1.7l0.4-2.5
		c0.6-3.8,3.1-6.9,6.6-7.9c3.7-1.1,9.4-2.5,15.5-2.5c6.1,0,11.8,1.4,15.5,2.5c3.5,1.1,6,4.1,6.6,7.9l0.4,2.5
		c0.1,0.8-0.4,1.5-1.2,1.7C48.6,49.4,48.5,49.4,48.5,49.4z"/>
	<path class="st0" d="M27.4,27.2c-7.3,0-13.2-5.9-13.2-13.2S20.1,0.9,27.4,0.9S40.5,6.8,40.5,14S34.6,27.2,27.4,27.2z M27.4,3.8
		c-5.7,0-10.3,4.6-10.3,10.3s4.6,10.3,10.3,10.3S37.6,19.7,37.6,14S33,3.8,27.4,3.8z"/>
</g>
</svg>
