<svg xmlns="http://www.w3.org/2000/svg" viewBox="0 0 54 50.33"><defs><style>.cls-1{fill:#3c6575;}</style></defs><g id="Calque_2" data-name="Calque 2"><g id="Calque_1-2" data-name="Calque 1"><path class="cls-1" d="M2.26,22.45a1.39,1.39,0,0,1-2-.14,1.51,1.51,0,0,1,.29-2L26.12.32a1.3,1.3,0,0,1,1.72,0l25.58,20a1.38,1.38,0,1,1-1.73,2.15L27,3.34Z"/><path class="cls-1" d="M45.37,23.17a1.36,1.36,0,0,1,1.44-1.44,1.45,1.45,0,0,1,1.44,1.44V48.89a1.48,1.48,0,0,1-1.59,1.44H7.15a1.45,1.45,0,0,1-1.44-1.44V23.17a1.55,1.55,0,0,1,1.44-1.44,1.44,1.44,0,0,1,1.43,1.44V47.46H20.22V34a1.55,1.55,0,0,1,1.44-1.44H32.15A1.48,1.48,0,0,1,33.73,34V47.46H45.37ZM23.1,47.46h7.76V35.39H23.1Z"/></g></g></svg>