<svg version="1.1" xmlns="http://www.w3.org/2000/svg" xmlns:xlink="http://www.w3.org/1999/xlink" xml:space="preserve" style="fill-rule:evenodd;clip-rule:evenodd;stroke-linejoin:round;stroke-miterlimit:1.41421;">
    <defs>
        <symbol id="SVG-icon-arrow-down" viewBox="0 0 24 24">
            <path d="M12.9586 20H11.0414C10.2895 17.6706 7.95865 14.9212 4.5 14.5394V12.5919C8.33459 12.9737 10.2895 15.3413 11.0414 17.2888V4H12.9586V17.2888C13.7481 15.3413 15.6654 12.9737 19.5 12.5919V14.5394C16.0414 14.9212 13.7481 17.6706 12.9586 20Z" fill="currentColor"/>
        </symbol>
        <symbol id="SVG-icon-arrow-right" viewBox="0 0 24 24" fill="none">
            <path d="M23.4,9.1L15,0.4c-0.5-0.5-1.3-0.5-1.8,0c-0.5,0.5-0.5,1.3,0,1.8l6.4,6.7H1.2C0.6,8.8,0,9.3,0,10
            c0,0.7,0.6,1.2,1.2,1.2h18.3l-6.3,6.6c-0.5,0.5-0.5,1.3,0,1.8c0.2,0.2,0.6,0.3,0.9,0.3c0.3,0,0.7-0.1,0.9-0.4l8.4-8.7
            C23.9,10.4,23.9,9.6,23.4,9.1z" fill="currentColor"/>
        </symbol>
        <symbol id="SVG-icon-cart" viewBox="0 0 24 24" fill="none">
             <path d="M15.7,17.5H13c-3.4,0-6.3-2.4-6.9-5.7L5,5.7L4.4,2.8C4.3,2.3,3.9,2,3.4,2H1C0.4,2,0,1.6,0,1s0.4-1,1-1h2.4
                C4.8,0,6,1,6.3,2.3l0.5,2.2h14.3c0.8,0,1.5,0.3,2,0.9c0.5,0.6,0.6,1.4,0.5,2.1l-1,4.5C21.8,15.3,19,17.5,15.7,17.5z M7.2,6.5
                l0.9,4.9c0.4,2.4,2.5,4.1,4.9,4.1h2.7c2.4,0,4.4-1.6,4.9-3.9l1-4.5c0-0.2,0-0.4-0.1-0.4c-0.1-0.1-0.2-0.2-0.4-0.2H7.2z" fill="currentColor"/>
            <circle cx="8.5" cy="20" r="2" fill="currentColor"/>
            <circle cx="20.5" cy="20" r="2" fill="currentColor"/>
        </symbol>
        <symbol id="SVG-icon-check" viewBox="0 0 24 24">
            <path d="M19.5524 8.15455L10.7519 16.9051L5.64734 11.8296L6.35243 11.1204L10.7519 15.4949L18.8473 7.44543L19.5524 8.15455Z" fill="currentColor"/>
        </symbol>
        <symbol id="SVG-icon-chevron-down" viewBox="0 0 24 24">
            <path d="M3.64645 7.64645C3.84171 7.45118 4.15829 7.45118 4.35355 7.64645L12 15.2929L19.6464 7.64645C19.8417 7.45118 20.1583 7.45118 20.3536 7.64645C20.5488 7.84171 20.5488 8.15829 20.3536 8.35355L12.3536 16.3536C12.1583 16.5488 11.8417 16.5488 11.6464 16.3536L3.64645 8.35355C3.45118 8.15829 3.45118 7.84171 3.64645 7.64645Z" fill="currentColor"/>
        </symbol>
        <symbol id="SVG-icon-close" viewBox="0 0 24 24">
            <path d="M6.64645 6.64645C6.84171 6.45118 7.15829 6.45118 7.35355 6.64645L12 11.2929L16.6464 6.64645C16.8417 6.45118 17.1583 6.45118 17.3536 6.64645C17.5488 6.84171 17.5488 7.15829 17.3536 7.35355L12.7071 12L17.3536 16.6464C17.5488 16.8417 17.5488 17.1583 17.3536 17.3536C17.1583 17.5488 16.8417 17.5488 16.6464 17.3536L12 12.7071L7.35355 17.3536C7.15829 17.5488 6.84171 17.5488 6.64645 17.3536C6.45118 17.1583 6.45118 16.8417 6.64645 16.6464L11.2929 12L6.64645 7.35355C6.45118 7.15829 6.45118 6.84171 6.64645 6.64645Z" fill="currentColor"/>
        </symbol>
        <symbol id="SVG-icon-instagram" viewBox="0 0 24 24">
            <path d="M12 0C8.74 0 8.333.015 7.053.072 5.775.132 4.905.333 4.14.63c-.789.306-1.459.717-2.126 1.384S.935 3.35.63 4.14C.333 4.905.131 5.775.072 7.053.012 8.333 0 8.74 0 12s.015 3.667.072 4.947c.06 1.277.261 2.148.558 2.913.306.788.717 1.459 1.384 2.126.667.666 1.336 1.079 2.126 1.384.766.296 1.636.499 2.913.558C8.333 23.988 8.74 24 12 24s3.667-.015 4.947-.072c1.277-.06 2.148-.262 2.913-.558.788-.306 1.459-.718 2.126-1.384.666-.667 1.079-1.335 1.384-2.126.296-.765.499-1.636.558-2.913.06-1.28.072-1.687.072-4.947s-.015-3.667-.072-4.947c-.06-1.277-.262-2.149-.558-2.913-.306-.789-.718-1.459-1.384-2.126C21.319 1.347 20.651.935 19.86.63c-.765-.297-1.636-.499-2.913-.558C15.667.012 15.26 0 12 0zm0 2.16c3.203 0 3.585.016 4.85.071 1.17.055 1.805.249 2.227.415.562.217.96.477 1.382.896.419.42.679.819.896 1.381.164.422.36 1.057.413 2.227.057 1.266.07 1.646.07 4.85s-.015 3.585-.074 4.85c-.061 1.17-.256 1.805-.421 2.227-.224.562-.479.96-.899 1.382-.419.419-.824.679-1.38.896-.42.164-1.065.36-2.235.413-1.274.057-1.649.07-4.859.07-3.211 0-3.586-.015-4.859-.074-1.171-.061-1.816-.256-2.236-.421-.569-.224-.96-.479-1.379-.899-.421-.419-.69-.824-.9-1.38-.165-.42-.359-1.065-.42-2.235-.045-1.26-.061-1.649-.061-4.844 0-3.196.016-3.586.061-4.861.061-1.17.255-1.814.42-2.234.21-.57.479-.96.9-1.381.419-.419.81-.689 1.379-.898.42-.166 1.051-.361 2.221-.421 1.275-.045 1.65-.06 4.859-.06l.045.03zm0 3.678c-3.405 0-6.162 2.76-6.162 6.162 0 3.405 2.76 6.162 6.162 6.162 3.405 0 6.162-2.76 6.162-6.162 0-3.405-2.76-6.162-6.162-6.162zM12 16c-2.21 0-4-1.79-4-4s1.79-4 4-4 4 1.79 4 4-1.79 4-4 4zm7.846-10.405c0 .795-.646 1.44-1.44 1.44-.795 0-1.44-.646-1.44-1.44 0-.794.646-1.439 1.44-1.439.793-.001 1.44.645 1.44 1.439z" fill="currentColor"/>
        </symbol>
        <symbol id="SVG-icon-instagram-thin" viewBox="0 0 24 24">
            <path d="M7.1,7.1C8.2,6,9.6,5.4,11.2,5.4c1.6,0,2.9,0.6,4,1.7c1.1,1.1,1.7,2.4,1.7,4s-0.6,3-1.7,4.1
            c-1.1,1.1-2.4,1.6-4,1.6c-1.6,0-3-0.5-4.1-1.6c-1.1-1.1-1.6-2.5-1.6-4.1S6,8.2,7.1,7.1z M8.5,13.8c0.7,0.7,1.6,1.1,2.6,1.1
            c1,0,1.9-0.4,2.6-1.1c0.7-0.7,1.1-1.6,1.1-2.6c0-1-0.4-1.9-1.1-2.6c-0.7-0.7-1.6-1.1-2.6-1.1c-1,0-1.9,0.4-2.6,1.1
            c-0.7,0.7-1.1,1.6-1.1,2.6C7.4,12.2,7.8,13.1,8.5,13.8z M18.1,4.3c0.3,0.2,0.4,0.5,0.4,0.9c0,0.4-0.1,0.7-0.4,0.9
            c-0.2,0.3-0.5,0.4-0.9,0.4s-0.7-0.1-0.9-0.4c-0.3-0.3-0.4-0.6-0.4-0.9c0-0.4,0.1-0.7,0.4-0.9c0.3-0.3,0.6-0.4,0.9-0.4
            S17.8,4,18.1,4.3z M22.3,6.6c0,0.9,0,2.4,0,4.6c0,2.2,0,3.7,0,4.6c-0.1,2-0.7,3.6-1.8,4.7c-1.1,1.1-2.7,1.7-4.7,1.7
            c-0.9,0.1-2.4,0.1-4.6,0.1c-2.2,0-3.7,0-4.6-0.1c-2-0.1-3.6-0.7-4.7-1.8c-0.4-0.4-0.8-0.9-1-1.4c-0.3-0.5-0.5-1-0.6-1.5
            c-0.1-0.5-0.1-1.1-0.1-1.7C0,14.9,0,13.4,0,11.2C0,9,0,7.5,0.1,6.5c0.1-2,0.7-3.5,1.8-4.6C3,0.8,4.6,0.1,6.6,0C7.5,0,9,0,11.2,0
            c2.2,0,3.7,0,4.6,0c2,0.1,3.6,0.7,4.7,1.8C21.6,3,22.2,4.6,22.3,6.6z M19.9,17.8c0.1-0.3,0.2-0.6,0.2-1c0.1-0.4,0.1-0.9,0.1-1.5
            c0-0.6,0-1.1,0-1.4c0-0.4,0-0.9,0-1.5s0-1,0-1.1c0-0.1,0-0.5,0-1.1c0-0.7,0-1.2,0-1.5c0-0.4,0-0.8,0-1.4c0-0.6-0.1-1.1-0.1-1.5
            c-0.1-0.4-0.1-0.8-0.2-1c-0.4-1-1.1-1.7-2.1-2.1c-0.3-0.1-0.6-0.2-1-0.2c-0.4-0.1-0.9-0.1-1.5-0.1c-0.6,0-1,0-1.4,0
            c-0.3,0-0.8,0-1.5,0c-0.7,0-1,0-1.1,0c-0.1,0-0.4,0-1.1,0C9.4,2,8.9,2,8.5,2C8.2,2,7.7,2,7.1,2C6.5,2.1,6,2.1,5.6,2.2
            c-0.4,0.1-0.7,0.1-1,0.2c-1,0.4-1.7,1.1-2.1,2.1c-0.1,0.3-0.2,0.6-0.2,1C2.1,6,2.1,6.5,2,7.1c0,0.6,0,1,0,1.4c0,0.3,0,0.8,0,1.5
            c0,0.7,0,1,0,1.1c0,0.1,0,0.4,0,0.9c0,0.5,0,0.9,0,1.2c0,0.3,0,0.7,0,1.2c0,0.5,0.1,0.9,0.1,1.3c0,0.3,0.1,0.7,0.1,1
            s0.1,0.7,0.2,0.9c0.4,1,1.1,1.7,2.1,2.1c0.3,0.1,0.6,0.2,1,0.2c0.4,0.1,0.9,0.1,1.5,0.1c0.6,0,1.1,0,1.4,0c0.4,0,0.9,0,1.5,0
            c0.7,0,1.1,0,1.1,0c0.1,0,0.5,0,1.1,0c0.7,0,1.2,0,1.5,0c0.4,0,0.8,0,1.4,0c0.6,0,1.1-0.1,1.5-0.1c0.4-0.1,0.8-0.1,1-0.2
            C18.8,19.5,19.5,18.8,19.9,17.8z" fill="currentColor"/>
        </symbol>
        <symbol id="SVG-icon-pinterest" viewBox="0 0 24 24">
            <path d="M12.017 0C5.396 0 .029 5.367.029 11.987c0 5.079 3.158 9.417 7.618 11.162-.105-.949-.199-2.403.041-3.439.219-.937 1.406-5.957 1.406-5.957s-.359-.72-.359-1.781c0-1.663.967-2.911 2.168-2.911 1.024 0 1.518.769 1.518 1.688 0 1.029-.653 2.567-.992 3.992-.285 1.193.6 2.165 1.775 2.165 2.128 0 3.768-2.245 3.768-5.487 0-2.861-2.063-4.869-5.008-4.869-3.41 0-5.409 2.562-5.409 5.199 0 1.033.394 2.143.889 2.741.099.12.112.225.085.345-.09.375-.293 1.199-.334 1.363-.053.225-.172.271-.401.165-1.495-.69-2.433-2.878-2.433-4.646 0-3.776 2.748-7.252 7.92-7.252 4.158 0 7.392 2.967 7.392 6.923 0 4.135-2.607 7.462-6.233 7.462-1.214 0-2.354-.629-2.758-1.379l-.749 2.848c-.269 1.045-1.004 2.352-1.498 3.146 1.123.345 2.306.535 3.55.535 6.607 0 11.985-5.365 11.985-11.987C23.97 5.39 18.592.026 11.985.026L12.017 0z" fill="currentColor"/>
        </symbol>
        <symbol id="SVG-icon-pinterest-stroke" viewBox="0 0 24 24">
            <path d="M12.7533 15.7901C11.568 15.7096 11.0775 15.146 10.1784 14.5824C9.68789 17.199 9.03394 19.6947 7.23557 21.0231C6.66337 17.0782 8.05301 14.0994 8.70696 10.9596C7.60342 9.10786 8.82958 5.44472 11.1593 6.33032C14.0203 7.45743 8.66609 13.1333 12.2628 13.8579C16.023 14.5824 17.5353 7.45743 15.2056 5.12269C11.8541 1.74133 5.39634 5.04218 6.21378 9.87269C6.41813 11.0401 7.64429 11.4023 6.70424 13.0125C4.5789 12.4892 3.92495 10.8388 4.00669 8.62481C4.12931 4.96167 7.35819 2.3854 10.5462 2.06337C14.5925 1.62057 18.3936 3.51252 18.9249 7.29642C19.538 11.5231 17.0857 16.1121 12.7533 15.7901Z" fill="currentColor"/>
        </symbol>
        <symbol id="SVG-icon-youtube" viewBox="0 0 24 24">
            <path fill-rule="evenodd" clip-rule="evenodd" d="M9.6773 15.1278L15.7541 11.988L9.6773 8.81164V15.1278ZM11.9999 4.30444C13.4063 4.30444 14.7647 4.32304 16.0739 4.36084C17.3843 4.39804 18.3449 4.43764 18.9563 4.47964L19.8725 4.53004C19.8809 4.53004 19.9523 4.53664 20.0855 4.54864C20.2199 4.56184 20.3159 4.57444 20.3747 4.58704C20.4329 4.59904 20.5319 4.61764 20.6699 4.64344C20.8079 4.66804 20.9273 4.70164 21.0275 4.74364C21.1283 4.78564 21.2453 4.83964 21.3797 4.90684C21.5129 4.97404 21.6425 5.05564 21.7685 5.15164C21.8939 5.24764 22.0157 5.35864 22.1327 5.48404C22.1825 5.53444 22.2479 5.61244 22.3277 5.71684C22.4069 5.82184 22.5275 6.06604 22.6913 6.45184C22.8545 6.83644 22.9655 7.25944 23.0243 7.71904C23.0909 8.25544 23.1431 8.82604 23.1809 9.43384C23.2181 10.0404 23.2415 10.515 23.2499 10.8588V13.068C23.2583 14.2818 23.1833 15.4956 23.0243 16.7094C22.9655 17.1696 22.8605 17.586 22.7099 17.9586C22.5593 18.3306 22.4255 18.5886 22.3079 18.7308L22.1321 18.9444C22.0151 19.0698 21.8939 19.1808 21.7685 19.2774C21.6425 19.3734 21.5129 19.4526 21.3791 19.5156C21.2453 19.578 21.1283 19.6308 21.0275 19.6728C20.9273 19.7148 20.8079 19.7478 20.6699 19.773C20.5319 19.7976 20.4311 19.8168 20.3681 19.8294C20.3051 19.842 20.2091 19.8546 20.0795 19.8666C19.9499 19.8798 19.8809 19.8864 19.8725 19.8864C17.7713 20.0454 15.1469 20.1246 11.9999 20.1246C10.2671 20.1078 8.7629 20.0808 7.4861 20.043C6.2099 20.0058 5.3705 19.974 4.9685 19.9488L4.3535 19.8984L3.9017 19.848C3.5999 19.806 3.3719 19.7646 3.2177 19.7226C3.0623 19.6806 2.8493 19.593 2.5769 19.4586C2.3045 19.3254 2.0687 19.1538 1.8677 18.9444C1.8173 18.894 1.7519 18.8166 1.6727 18.7116C1.5929 18.6078 1.4723 18.3624 1.3085 17.9778C1.1453 17.592 1.0343 17.1696 0.975502 16.7094C0.908902 16.1736 0.856702 15.6024 0.818902 14.9958C0.781702 14.3886 0.758302 13.9134 0.749902 13.5708V11.3604C0.741502 10.1466 0.816502 8.93344 0.975502 7.71904C1.0343 7.25944 1.1393 6.84244 1.2899 6.47044C1.4405 6.09784 1.5743 5.84044 1.6919 5.69764L1.8677 5.48404C1.9847 5.35864 2.1059 5.24764 2.2313 5.15164C2.3573 5.05564 2.4869 4.97404 2.6207 4.90684C2.7545 4.83964 2.8715 4.78564 2.9723 4.74364C3.0725 4.70164 3.1919 4.66804 3.3299 4.64344C3.4679 4.61764 3.5669 4.59904 3.6257 4.58704C3.6839 4.57444 3.7799 4.56184 3.9143 4.54864C4.0475 4.53664 4.1189 4.53004 4.1273 4.53004C6.2285 4.37944 8.8529 4.30444 11.9999 4.30444Z" fill="currentColor"/>
        </symbol>
        <symbol id="SVG-icon-plus" viewBox="0 0 16 16">
            <rect x="1" y="7.25" width="14" height="1.5" fill="currentColor"/>
            <rect x="7.25" y="1" width="1.5" height="14" fill="currentColor"/>
        </symbol>
        <symbol id="SVG-icon-user" viewBox="0 0 24 24" fill="none">
             <path d="M19,21.5c-0.5,0-0.9-0.4-1-0.8l-0.2-1.1c-0.2-1-0.8-1.8-1.7-2.1c-1.5-0.5-3.8-1-6.2-1s-4.7,0.5-6.2,1
                c-0.9,0.3-1.5,1.1-1.7,2.1L2,20.7c-0.1,0.5-0.6,0.9-1.1,0.8c-0.5-0.1-0.9-0.6-0.8-1.1l0.2-1.1c0.3-1.8,1.5-3.2,3.1-3.7
                c1.6-0.5,4.1-1.1,6.8-1.1s5.1,0.6,6.8,1.1c1.6,0.5,2.8,1.9,3.1,3.7l0.2,1.1c0.1,0.5-0.3,1.1-0.8,1.1C19.1,21.5,19.1,21.5,19,21.5z" fill="currentColor"/>
            <path d="M10,12c-3.3,0-6-2.7-6-6s2.7-6,6-6s6,2.7,6,6S13.3,12,10,12z M10,2C7.8,2,6,3.8,6,6s1.8,4,4,4s4-1.8,4-4
	        S12.2,2,10,2z" fill="currentColor"/>
        </symbol>
        <symbol id="SVG-icon-warning" viewBox="0 0 24 24">
            <path d="M13 16C13 16.5523 12.5523 17 12 17C11.4477 17 11 16.5523 11 16C11 15.4477 11.4477 15 12 15C12.5523 15 13 15.4477 13 16Z" fill="currentColor"/>
            <path d="M12.5 9C12.5 8.72386 12.2761 8.5 12 8.5C11.7239 8.5 11.5 8.72386 11.5 9V13C11.5 13.2761 11.7239 13.5 12 13.5C12.2761 13.5 12.5 13.2761 12.5 13V9Z" fill="currentColor"/>
            <path fill-rule="evenodd" clip-rule="evenodd" d="M12 3.5C12.1756 3.5 12.3384 3.59215 12.4287 3.74275L21.4287 18.7428C21.5214 18.8972 21.5239 19.0896 21.4351 19.2463C21.3463 19.4031 21.1801 19.5 21 19.5H3C2.81986 19.5 2.65365 19.4031 2.5649 19.2463C2.47615 19.0896 2.47857 18.8972 2.57125 18.7428L11.5713 3.74275C11.6616 3.59215 11.8244 3.5 12 3.5ZM20.1169 18.5L12 4.97182L3.8831 18.5H20.1169Z" fill="currentColor"/>
        </symbol>
        <symbol id="SVG-icon-download" viewBox="0 0 24 24" fill="none">
            <path class="st0" d="M11.4,15c0.1,0.2,0.4,0.2,0.6,0.2c0.1,0,0.1,0,0.2,0c0.1,0,0.3-0.1,0.4-0.2l4.2-4.2c0.1-0.1,0.2-0.3,0.2-0.6c0-0.2-0.1-0.4-0.2-0.6c-0.3-0.3-0.8-0.3-1.1,0l-2.8,2.8V4.5c0-0.4-0.4-0.8-0.8-0.8s-0.8,0.4-0.8,0.8v8.1L8.4,9.8c-0.3-0.3-0.8-0.3-1.1,0C7.1,9.9,7,10.1,7,10.3c0,0.2,0.1,0.4,0.2,0.6L11.4,15z" fill="currentColor"/>
            <path class="st0" d="M19.5,13.7c-0.4,0-0.8,0.4-0.8,0.8v3.3c0,0.2-0.1,0.5-0.3,0.6s-0.4,0.3-0.6,0.3H6.2c-0.2,0-0.5-0.1-0.6-0.3c-0.2-0.2-0.3-0.4-0.3-0.6v-3.3c0-0.4-0.4-0.8-0.8-0.8s-0.8,0.4-0.8,0.8v3.3c0,0.7,0.3,1.3,0.7,1.7c0.5,0.5,1.1,0.7,1.7,0.7h11.7c0.7,0,1.3-0.3,1.7-0.7s0.7-1.1,0.7-1.7v-3.3C20.3,14.1,19.9,13.7,19.5,13.7z" fill="currentColor"/>
        </symbol>
        <symbol id="SVG-icon-mail" viewBox="0 0 24 24">
            <path fill-rule="evenodd" clip-rule="evenodd" d="M4.23919 6.73953L12.0001 12.1721L19.7609 6.73953C19.6422 6.24598 19.1947 5.87499 18.6667 5.87499H5.33339C4.80542 5.87499 4.35788 6.24598 4.23919 6.73953ZM19.7917 8.04035L12.3107 13.2771C12.1242 13.4076 11.8759 13.4076 11.6894 13.2771L4.20839 8.04035V17C4.20839 17.6175 4.71588 18.125 5.33339 18.125H18.6667C19.2842 18.125 19.7917 17.6175 19.7917 17V8.04035ZM3.12506 6.99999C3.12506 5.78417 4.11757 4.79166 5.33339 4.79166H18.6667C19.8825 4.79166 20.8751 5.78417 20.8751 6.99999V17C20.8751 18.2158 19.8825 19.2083 18.6667 19.2083H5.33339C4.11757 19.2083 3.12506 18.2158 3.12506 17V6.99999Z" fill="currentColor"/>
        </symbol>
        <symbol id="SVG-icon-phone" viewBox="0 0 24 24">
            <path fill-rule="evenodd" clip-rule="evenodd" d="M16.893 1.34998H19.89C20.2579 1.35033 20.6223 1.42727 20.9589 1.57592C21.2954 1.72457 21.5973 1.94166 21.8453 2.21338C22.0933 2.4851 22.2821 2.80548 22.3995 3.15413C22.5169 3.50279 22.5605 3.87207 22.5274 4.23848L22.5265 4.24863C22.1875 7.44022 21.1017 10.5071 19.3571 13.201C17.7713 15.6959 15.6559 17.8112 13.1611 19.397C10.4794 21.1355 7.42746 22.2209 4.25023 22.5662L4.23853 22.5674C3.87101 22.6007 3.50059 22.5566 3.15103 22.4384C2.80146 22.3202 2.48043 22.1303 2.20851 21.8808C1.9366 21.6313 1.71978 21.3278 1.57194 20.9897C1.42429 20.652 1.34871 20.2873 1.35001 19.9187L1.35002 19.9173L2.00001 19.92H1.35001V19.9187V16.9275C1.35007 16.9304 1.35014 16.9332 1.35021 16.9361L2.00001 16.92H1.35001V16.9275C1.33607 16.2807 1.55922 15.651 1.97756 15.1573C2.39776 14.6614 2.98557 14.3372 3.62921 14.2464L3.63502 14.2455C4.54648 14.1253 5.44143 13.9024 6.30277 13.581L6.53001 14.19L6.3013 13.5815C6.77555 13.4033 7.29097 13.3647 7.78647 13.4704C8.28198 13.576 8.7368 13.8216 9.09705 14.1778L9.09964 14.1804L10.0135 15.0943C9.87343 15.18 9.73181 15.2636 9.58872 15.3449L10.0135 15.0943C12.0852 13.8265 13.8266 12.0852 15.0943 10.0135L15.345 9.58869C15.2636 9.73178 15.18 9.8734 15.0943 10.0135L14.1778 9.09703C13.8216 8.73678 13.5761 8.28194 13.4704 7.78644C13.3648 7.29121 13.4033 6.77609 13.5813 6.30206C13.9026 5.44092 14.1254 4.54621 14.2456 3.63499L14.2464 3.62901C14.3364 2.99228 14.6549 2.40999 15.1424 1.99069C15.6291 1.57214 16.2512 1.34449 16.893 1.34998ZM16.8836 2.64995C16.556 2.64673 16.2385 2.76273 15.9901 2.97633C15.7424 3.18936 15.5804 3.48496 15.534 3.8083C15.4009 4.81582 15.1543 5.80507 14.799 6.75722L14.7984 6.75869C14.7076 7.00029 14.688 7.26286 14.7418 7.51528C14.7955 7.76716 14.9202 7.99841 15.101 8.18175L15.1022 8.18294L16.3696 9.45036C16.5765 9.65726 16.6197 9.97691 16.4751 10.2313C14.9937 12.8365 12.8366 14.9936 10.2313 16.475C9.97695 16.6197 9.6573 16.5765 9.45039 16.3696L8.18297 15.1022L8.18178 15.101C7.99844 14.9201 7.7672 14.7955 7.51532 14.7418C7.26289 14.6879 7.00032 14.7076 6.75872 14.7984L6.75726 14.799C5.80507 15.1543 4.81579 15.4008 3.80824 15.534C3.48135 15.5807 3.18291 15.7457 2.9694 15.9977C2.75534 16.2503 2.6416 16.5728 2.64981 16.9039L2.65001 16.92V19.92L2.65001 19.9226C2.64924 20.1106 2.68775 20.2967 2.76306 20.4689C2.83837 20.6412 2.94883 20.7958 3.08735 20.9229C3.22588 21.05 3.38942 21.1467 3.5675 21.2069C3.74389 21.2666 3.9307 21.2891 4.11618 21.2731C7.08998 20.949 9.94644 19.9323 12.4564 18.3046L12.4614 18.3013C14.797 16.8172 16.7772 14.837 18.2614 12.5014L18.2645 12.4966C19.898 9.97499 20.9149 7.10432 21.2331 4.11682C21.2491 3.93169 21.2268 3.74522 21.1675 3.56908C21.1077 3.39146 21.0115 3.22824 20.8852 3.08982C20.7588 2.9514 20.605 2.84081 20.4336 2.76508C20.2622 2.68939 20.077 2.6502 19.8897 2.64998L16.8836 2.64995Z" fill="currentColor"/>
        </symbol>
        <symbol id="SVG-logo-full" viewBox="0 0 90 40">
            <path d="M48.9794 23.4075V23.6711L42.6548 25.4879C41.7664 25.6238 41.7324 24.8615 41.7324 24.8615V22.5297C41.3045 24.0992 39.4965 25.4798 37.1139 25.4798C34.8848 25.4798 32.5647 24.6767 31.9439 21.9617C31.6029 23.8192 29.8397 25.4798 27.1719 25.4798C24.5692 25.4798 21.8361 24.3927 21.8361 20.4398V4.96115C21.8361 2.98403 21.9013 2.6878 19.9914 2.42418V2.16057L27.502 0V20.3406C27.502 22.1859 27.9624 23.0746 29.6428 23.0746C30.5651 23.0746 31.7809 22.6941 31.7809 20.293V20.3188V14.4731C31.7809 12.496 31.8474 12.1997 29.9362 11.9361V11.6725L37.4467 9.51193V20.3365C37.4467 22.1818 37.9072 23.0705 39.5875 23.0705C40.4922 23.0705 41.6903 22.6004 41.7338 20.5566V14.4554C41.7338 12.4457 41.8696 12.0176 40.1866 11.8193V11.5556L47.3005 9.51737V21.3325C47.3032 22.9129 47.6007 23.2431 48.9794 23.4075ZM76.4434 21.444V14.4255C76.4434 10.4713 73.7089 9.3842 71.1062 9.3842C68.4397 9.3842 66.7037 10.9469 66.3342 12.9172C65.7202 10.1873 63.3933 9.3842 61.1588 9.3842C58.4257 9.3842 56.8119 11.0311 56.547 12.7446V9.51601L49.2348 11.6195V11.8831C50.5932 12.3777 50.9477 12.8343 50.9477 13.9921V21.482C50.9477 23.1955 50.9151 24.5788 49.6641 24.9417V25.2053H57.8986V24.9362C56.7127 24.6074 56.547 23.2893 56.547 21.4766V14.2203C56.5565 12.2813 57.7696 11.7894 58.6892 11.7894C60.3682 11.7894 60.83 12.6794 60.83 14.5247V21.444C60.83 23.1235 60.7635 24.5693 59.5124 24.9362V25.1998H67.8515V24.9362C66.6983 24.64 66.5013 23.2553 66.5013 21.444V14.3576C66.5162 12.2323 67.7239 11.7894 68.6462 11.7894C70.3252 11.7894 70.787 12.6794 70.787 14.5247V21.444C70.787 23.1235 70.7218 24.5693 69.4694 24.9362V25.1998H77.8031V24.9362C76.6403 24.64 76.4434 23.2553 76.4434 21.444ZM19.8977 17.2886C19.8977 23.8029 15.5508 25.4417 11.348 25.4417C9.53861 25.4417 8.22369 25.1455 7.30134 24.6848V31.4587C7.30134 33.2673 7.46707 34.5514 8.65022 34.8803V35.1765H0.427894V34.883C1.67761 34.5202 1.71021 33.1396 1.71021 31.4614V13.4064C1.71021 12.2554 1.34888 11.7948 0 11.3015V11.0379L7.30134 8.93306V12.2228C8.22233 10.6099 9.89994 9.65597 12.959 9.65597C17.4648 9.65597 19.8977 13.2094 19.8977 17.2886ZM13.2878 17.7493C13.2878 13.901 12.3668 10.7757 9.9991 10.7757C8.05797 10.7757 7.43311 12.678 7.30134 14.8875V20.5797C7.46707 23.5407 8.25221 25.1523 9.9991 25.1523C11.8411 25.1523 13.2878 23.0134 13.2878 17.7493Z" fill="currentColor"/>
            <path d="M89.5119 19.9673C88.698 18.3031 87.0006 17.2435 85.1485 17.2435C82.4837 17.2435 80.2908 19.4371 80.2908 22.1027C80.2908 23.5926 80.9757 25.0025 82.1467 25.9231C83.8881 27.57 82.69 28.6259 81.3316 30.3299L81.6712 30.6573L88.0122 26.0209C89.9042 24.6385 90.5397 22.0736 89.5119 19.9673Z" fill="#C9D7CC"/>
        </symbol>
        <symbol id="SVG-logo-full-white" viewBox="0 0 90 40">
            <path d="M48.9794 23.4075V23.6711L42.6548 25.4879C41.7664 25.6238 41.7324 24.8615 41.7324 24.8615V22.5297C41.3045 24.0992 39.4965 25.4798 37.1139 25.4798C34.8848 25.4798 32.5647 24.6767 31.9439 21.9617C31.6029 23.8192 29.8397 25.4798 27.1719 25.4798C24.5692 25.4798 21.8361 24.3927 21.8361 20.4398V4.96115C21.8361 2.98403 21.9013 2.6878 19.9914 2.42418V2.16057L27.502 0V20.3406C27.502 22.1859 27.9624 23.0746 29.6428 23.0746C30.5651 23.0746 31.7809 22.6941 31.7809 20.293V20.3188V14.4731C31.7809 12.496 31.8474 12.1997 29.9362 11.9361V11.6725L37.4467 9.51193V20.3365C37.4467 22.1818 37.9072 23.0705 39.5875 23.0705C40.4922 23.0705 41.6903 22.6004 41.7338 20.5566V14.4554C41.7338 12.4457 41.8696 12.0176 40.1866 11.8193V11.5556L47.3005 9.51737V21.3325C47.3032 22.9129 47.6007 23.2431 48.9794 23.4075ZM76.4434 21.444V14.4255C76.4434 10.4713 73.7089 9.3842 71.1062 9.3842C68.4397 9.3842 66.7037 10.9469 66.3342 12.9172C65.7202 10.1873 63.3933 9.3842 61.1588 9.3842C58.4257 9.3842 56.8119 11.0311 56.547 12.7446V9.51601L49.2348 11.6195V11.8831C50.5932 12.3777 50.9477 12.8343 50.9477 13.9921V21.482C50.9477 23.1955 50.9151 24.5788 49.6641 24.9417V25.2053H57.8986V24.9362C56.7127 24.6074 56.547 23.2893 56.547 21.4766V14.2203C56.5565 12.2813 57.7696 11.7894 58.6892 11.7894C60.3682 11.7894 60.83 12.6794 60.83 14.5247V21.444C60.83 23.1235 60.7635 24.5693 59.5124 24.9362V25.1998H67.8515V24.9362C66.6983 24.64 66.5013 23.2553 66.5013 21.444V14.3576C66.5162 12.2323 67.7239 11.7894 68.6462 11.7894C70.3252 11.7894 70.787 12.6794 70.787 14.5247V21.444C70.787 23.1235 70.7218 24.5693 69.4694 24.9362V25.1998H77.8031V24.9362C76.6403 24.64 76.4434 23.2553 76.4434 21.444ZM19.8977 17.2886C19.8977 23.8029 15.5508 25.4417 11.348 25.4417C9.53861 25.4417 8.22369 25.1455 7.30134 24.6848V31.4587C7.30134 33.2673 7.46707 34.5514 8.65022 34.8803V35.1765H0.427894V34.883C1.67761 34.5202 1.71021 33.1396 1.71021 31.4614V13.4064C1.71021 12.2554 1.34888 11.7948 0 11.3015V11.0379L7.30134 8.93306V12.2228C8.22233 10.6099 9.89994 9.65597 12.959 9.65597C17.4648 9.65597 19.8977 13.2094 19.8977 17.2886ZM13.2878 17.7493C13.2878 13.901 12.3668 10.7757 9.9991 10.7757C8.05797 10.7757 7.43311 12.678 7.30134 14.8875V20.5797C7.46707 23.5407 8.25221 25.1523 9.9991 25.1523C11.8411 25.1523 13.2878 23.0134 13.2878 17.7493Z" fill="white"/>
            <path d="M89.5119 19.9673C88.698 18.3031 87.0006 17.2435 85.1485 17.2435C82.4837 17.2435 80.2908 19.4371 80.2908 22.1027C80.2908 23.5926 80.9757 25.0025 82.1467 25.9231C83.8881 27.57 82.69 28.6259 81.3316 30.3299L81.6712 30.6573L88.0122 26.0209C89.9042 24.6385 90.5397 22.0736 89.5119 19.9673Z" fill="white"/>
        </symbol>
        <symbol id="SVG-logo-monogram" viewBox="0 0 24 24">
            <circle cx="12" cy="12" r="12" fill="#F1F3F5"/>
            <path d="M17.5 10.0587C17.5 13.6129 15 14.507 12.4883 14.507C11.5335 14.507 10.8396 14.3453 10.3529 14.094V17C10.3529 17.9868 10.4404 18.6874 11.0647 18.8668V19.0284H6.7258V18.8683C7.38528 18.6703 7.40248 17.9171 7.40248 17.0015V7.94061C7.40248 7.31266 7.2118 7.06134 6.5 6.79222V6.64839L10.3529 5.5V7.29487C10.8389 6.41486 11.7242 5.89441 13.3385 5.89441C16 5.89441 17.5 7.83311 17.5 10.0587Z" fill="#1C2128"/>
            <path d="M14.909 8.31989C14.5198 7.51347 13.7083 7 12.8227 7C11.5485 7 10.5 8.06295 10.5 9.35466C10.5 10.0766 10.8275 10.7598 11.3874 11.2059C12.22 12.004 11.6472 12.5156 10.9977 13.3413L11.16 13.5L14.192 11.2533C15.0966 10.5834 15.4004 9.34057 14.909 8.31989Z" fill="white"/>
        </symbol>
        <symbol id="SVG-arrow-fill" viewBox="0 0 78 78">
            <path d="M78.057 39.0285C78.057 60.5833 60.5833 78.057 39.0285 78.057C17.4737 78.057 2.64818e-06 60.5833 1.70599e-06 39.0285C7.63797e-07 17.4736 17.4736 -7.63797e-07 39.0285 -1.70599e-06C60.5833 -2.64818e-06 78.057 17.4736 78.057 39.0285Z" fill="#1C2128"/>
            <path d="M50.8221 40.7942L50.8221 37.8884C47.3466 36.7489 43.2443 33.2164 42.6746 27.9746L39.7688 27.9746C40.3386 33.7861 43.8711 36.7489 46.7768 37.8884L26.9492 37.8884L26.9492 40.7942L46.7768 40.7942C43.8711 41.9907 40.3386 44.8964 39.7688 50.708L42.6746 50.708C43.2443 45.4662 47.3466 41.9907 50.8221 40.7942Z" fill="#F9F7F4"/>
        </symbol>
        <symbol id="SVG-arrow-fill--white" viewBox="0 0 78 78">
            <path d="M78.057 39.0285C78.057 60.5833 60.5833 78.057 39.0285 78.057C17.4737 78.057 2.64818e-06 60.5833 1.70599e-06 39.0285C7.63797e-07 17.4736 17.4736 -7.63797e-07 39.0285 -1.70599e-06C60.5833 -2.64818e-06 78.057 17.4736 78.057 39.0285Z" fill="#F9F7F4"/>
            <path d="M50.8221 40.7942L50.8221 37.8884C47.3466 36.7489 43.2443 33.2164 42.6746 27.9746L39.7688 27.9746C40.3386 33.7861 43.8711 36.7489 46.7768 37.8884L26.9492 37.8884L26.9492 40.7942L46.7768 40.7942C43.8711 41.9907 40.3386 44.8964 39.7688 50.708L42.6746 50.708C43.2443 45.4662 47.3466 41.9907 50.8221 40.7942Z" fill="#1C2128"/>
        </symbol>
        <symbol id="SVG-arrow-fill--white-new" viewBox="0 0 28 28">
                <path d="M13.7,0L13.7,0c7.5,0,13.7,6.1,13.7,13.7l0,0c0,7.5-6.1,13.7-13.7,13.7l0,0C6.1,27.3,0,21.2,0,13.7l0,0C0,6.1,6.1,0,13.7,0z" fill="white"/>
            <path d="M12.3,18.6c-0.1,0-0.3,0-0.4-0.1c-0.2-0.2-0.2-0.5,0-0.7l4-4l-4-4c-0.2-0.2-0.2-0.5,0-0.7c0.2-0.2,0.5-0.2,0.7,0l4.4,4.4c0.1,0.1,0.1,0.2,0.1,0.4S17.1,13.9,17,14l-4.4,4.4C12.5,18.5,12.4,18.6,12.3,18.6z" fill="#3C6575"/>
        </symbol>
        <symbol id="SVG-arrow-right-fill--white-new" viewBox="0 0 28 28">
                <path d="M13.7,0L13.7,0c7.5,0,13.7,6.1,13.7,13.7l0,0c0,7.5-6.1,13.7-13.7,13.7l0,0C6.1,27.3,0,21.2,0,13.7l0,0C0,6.1,6.1,0,13.7,0z" fill="white"/>
                <path d="M12.3,18.6c-0.1,0-0.3,0-0.4-0.1c-0.2-0.2-0.2-0.5,0-0.7l4-4l-4-4c-0.2-0.2-0.2-0.5,0-0.7c0.2-0.2,0.5-0.2,0.7,0l4.4,4.4c0.1,0.1,0.1,0.2,0.1,0.4S17.1,13.9,17,14l-4.4,4.4C12.5,18.5,12.4,18.6,12.3,18.6z" fill="#3C6575"/>
        </symbol>
        <symbol id="SVG-arrow-left-fill--white-new" viewBox="0 0 28 28">
             <path class="st0" d="M13.7,27.3L13.7,27.3C6.1,27.3,0,21.2,0,13.7l0,0C0,6.1,6.1,0,13.7,0l0,0c7.5,0,13.7,6.1,13.7,13.7l0,0
	            C27.3,21.2,21.2,27.3,13.7,27.3z" fill="white"/>
            <path class="st1" d="M15.1,8.8c0.1,0,0.3,0,0.4,0.1c0.2,0.2,0.2,0.5,0,0.7l-4,4l4,4c0.2,0.2,0.2,0.5,0,0.7c-0.2,0.2-0.5,0.2-0.7,0
	            l-4.4-4.4c-0.1-0.1-0.1-0.2-0.1-0.4s0.1-0.3,0.1-0.4l4.4-4.4C14.8,8.8,14.9,8.8,15.1,8.8z" fill="#3C6575"/>
        </symbol>
        <symbol id="SVG-arrow-left-fill--beige-new" viewBox="0 0 28 28">
             <path class="st0" d="M13.7,27.3L13.7,27.3C6.1,27.3,0,21.2,0,13.7l0,0C0,6.1,6.1,0,13.7,0l0,0c7.5,0,13.7,6.1,13.7,13.7l0,0
	            C27.3,21.2,21.2,27.3,13.7,27.3z" fill="#F9F7F4"/>
            <path class="st1" d="M15.1,8.8c0.1,0,0.3,0,0.4,0.1c0.2,0.2,0.2,0.5,0,0.7l-4,4l4,4c0.2,0.2,0.2,0.5,0,0.7c-0.2,0.2-0.5,0.2-0.7,0
	            l-4.4-4.4c-0.1-0.1-0.1-0.2-0.1-0.4s0.1-0.3,0.1-0.4l4.4-4.4C14.8,8.8,14.9,8.8,15.1,8.8z" fill="#3C6575"/>
        </symbol>
        <symbol id="SVG-arrow-right-fill--beige-new" viewBox="0 0 28 28">
                <path d="M13.7,0L13.7,0c7.5,0,13.7,6.1,13.7,13.7l0,0c0,7.5-6.1,13.7-13.7,13.7l0,0C6.1,27.3,0,21.2,0,13.7l0,0C0,6.1,6.1,0,13.7,0z" fill="#F9F7F4"/>
            <path d="M12.3,18.6c-0.1,0-0.3,0-0.4-0.1c-0.2-0.2-0.2-0.5,0-0.7l4-4l-4-4c-0.2-0.2-0.2-0.5,0-0.7c0.2-0.2,0.5-0.2,0.7,0l4.4,4.4c0.1,0.1,0.1,0.2,0.1,0.4S17.1,13.9,17,14l-4.4,4.4C12.5,18.5,12.4,18.6,12.3,18.6z" fill="#3C6575"/>
        </symbol>
        <symbol id="SVG-arrow-btn-primary-right" viewBox="0 0 37 38">
                <path d="M37 16.2126V20.9552C31.5875 22.815 25.2878 28.4875 24.4005 37.0427H19.8753C20.7626 27.5576 26.1751 22.815 30.7002 20.9552H0V16.2126H30.7002C26.1751 14.3527 20.7626 9.61016 19.8753 0.125H24.4005C25.199 8.68025 31.5875 14.3527 37 16.2126Z" fill="currentColor"/>
        </symbol>
        <symbol id="SVG-icon-design" viewBox="0 0 17 18" fill="none" xmlns="http://www.w3.org/2000/svg">
            <path fill-rule="evenodd" clip-rule="evenodd" d="M7.39536 0.602852C7.71187 0.420313 8.07082 0.324219 8.4362 0.324219C8.80156 0.324219 9.1605 0.420305 9.47699 0.602828C9.47728 0.602996 9.47757 0.603164 9.47786 0.603332L15.3112 3.93666C15.6276 4.11934 15.8904 4.38199 16.0732 4.69829C16.256 5.01459 16.3525 5.37341 16.3529 5.73875V12.4058C16.3525 12.7712 16.256 13.1304 16.0732 13.4467C15.8904 13.763 15.6276 14.0257 15.3112 14.2084L15.3096 14.2093L9.47786 17.5417C9.47751 17.5419 9.47715 17.5421 9.4768 17.5423C9.16035 17.7248 8.80149 17.8208 8.4362 17.8208C8.07089 17.8208 7.71201 17.7247 7.39555 17.5423C7.39521 17.5421 7.39487 17.5419 7.39453 17.5417L1.56281 14.2093L1.5612 14.2084C1.2448 14.0257 0.982011 13.763 0.799179 13.4467C0.616347 13.1304 0.519906 12.7716 0.519531 12.4063L0.519531 5.73918C0.519906 5.37384 0.616347 5.01459 0.799179 4.69829C0.982011 4.38199 1.24481 4.11934 1.5612 3.93667L1.5628 3.93574L7.39453 0.603332C7.39481 0.603172 7.39508 0.603012 7.39536 0.602852ZM8.4362 1.15755C8.21678 1.15755 8.00122 1.21531 7.8112 1.32502L7.80959 1.32594L1.97786 4.65835C1.97762 4.6585 1.97737 4.65864 1.97713 4.65878C1.78762 4.76836 1.63021 4.9258 1.52065 5.11533C1.41099 5.30505 1.35312 5.52027 1.35286 5.7394V12.4056C1.35312 12.6248 1.41099 12.84 1.52065 13.0297C1.63022 13.2192 1.78765 13.3767 1.97718 13.4863C1.97741 13.4864 1.97696 13.4861 1.97718 13.4863L7.8112 16.82C8.00122 16.9297 8.21678 16.9875 8.4362 16.9875C8.65562 16.9875 8.87117 16.9297 9.0612 16.82L9.06281 16.8191L14.8945 13.4867C14.8948 13.4865 14.8943 13.4868 14.8945 13.4867C15.0841 13.3771 15.2422 13.2192 15.3517 13.0297C15.4614 12.8399 15.5193 12.6246 15.5195 12.4054V5.7396C15.5193 5.5204 15.4614 5.30511 15.3517 5.11533C15.2422 4.9258 15.0848 4.76836 14.8953 4.65878C14.895 4.65864 14.8948 4.6585 14.8945 4.65835L9.06281 1.32594L9.0612 1.32502C8.87117 1.21531 8.65562 1.15755 8.4362 1.15755Z" fill="currentColor"/>
        </symbol>
        <symbol id="SVG-icon-finition" viewBox="0 0 21 20" fill="none" xmlns="http://www.w3.org/2000/svg">
            <path fill-rule="evenodd" clip-rule="evenodd" d="M14.5459 0.540008C14.7086 0.702726 14.7086 0.966545 14.5459 1.12926L12.7645 2.9107L19.3503 9.18288C20.5369 10.313 20.5599 12.1986 19.4012 13.3573L15.4377 17.3208C14.3183 18.4402 12.5103 18.4622 11.3639 17.3704L4.38058 10.7197C4.29929 10.6423 4.25267 10.5353 4.2513 10.423C4.24994 10.3108 4.29393 10.2027 4.37331 10.1233L13.9566 0.540008C14.1194 0.377289 14.3832 0.377289 14.5459 0.540008ZM12.175 3.50013L5.26447 10.4107L11.9386 16.767C12.7574 17.5468 14.0489 17.5311 14.8485 16.7315L18.8119 12.7681C19.6396 11.9404 19.6231 10.5936 18.7755 9.78632L12.175 3.50013Z" fill="currentColor"/>
            <path fill-rule="evenodd" clip-rule="evenodd" d="M2.77097 11.6136C3.26503 10.6255 4.27497 10.0013 5.37972 10.0013H15.0846C15.3148 10.0013 15.5013 10.1878 15.5013 10.418C15.5013 10.6481 15.3148 10.8346 15.0846 10.8346H5.37972C4.59061 10.8346 3.86923 11.2805 3.51633 11.9863L2.95731 13.1043C2.8544 13.3101 2.60412 13.3936 2.3983 13.2906C2.19247 13.1877 2.10904 12.9375 2.21196 12.7316L2.77097 11.6136Z" fill="currentColor"/>
            <path fill-rule="evenodd" clip-rule="evenodd" d="M1.81799 14.8927C2.24542 14.123 3.31537 14.123 3.7428 14.8927C4.23839 15.7853 4.65247 16.8797 4.64263 17.7879C4.63764 18.2486 4.52239 18.7114 4.19686 19.0603C3.86561 19.4153 3.38046 19.5846 2.7804 19.5846C2.18033 19.5846 1.69517 19.4153 1.36392 19.0603C1.03839 18.7114 0.923131 18.2486 0.918141 17.7879C0.908303 16.8797 1.3224 15.7853 1.81799 14.8927ZM3.01424 15.2973C2.90427 15.0992 2.65652 15.0992 2.54655 15.2973C2.07683 16.1432 1.74391 17.0852 1.75143 17.7789C1.75511 18.1191 1.83962 18.3486 1.97321 18.4918C2.10107 18.6288 2.33439 18.7513 2.7804 18.7513C3.22639 18.7513 3.4597 18.6288 3.58757 18.4918C3.72115 18.3486 3.80566 18.1191 3.80935 17.7789C3.81687 17.0852 3.48395 16.1432 3.01424 15.2973Z" fill="currentColor"/>
        </symbol>
        <symbol id="SVG-icon-tiroir" viewBox="0 0 19 16" fill="none" xmlns="http://www.w3.org/2000/svg">
            <path d="M17.8346 7.9987H12.8346H11.168H7.83464H6.16797H1.16797M17.8346 7.9987V12.9987C17.8346 13.4407 17.659 13.8646 17.3465 14.1772C17.0339 14.4898 16.61 14.6654 16.168 14.6654H2.83464C2.39261 14.6654 1.96868 14.4898 1.65612 14.1772C1.34356 13.8646 1.16797 13.4407 1.16797 12.9987V7.9987M17.8346 7.9987L14.9596 2.25703C14.8217 1.97935 14.6089 1.74567 14.3454 1.58226C14.0819 1.41885 13.778 1.3322 13.468 1.33203H5.53464C5.22457 1.3322 4.92069 1.41885 4.65717 1.58226C4.39366 1.74567 4.18095 1.97935 4.04297 2.25703L1.16797 7.9987" stroke="currentColor" stroke-linecap="round" stroke-linejoin="round"/>
        </symbol>
        <symbol id="SVG-icon-door" viewBox="0 0 21 20" fill="none" xmlns="http://www.w3.org/2000/svg">
            <path d="M10.5 2.5V17.5M10.5 2.5H16.3333C16.7754 2.5 17.1993 2.67559 17.5118 2.98816C17.8244 3.30072 18 3.72464 18 4.16667V15.8333C18 16.2754 17.8244 16.6993 17.5118 17.0118C17.1993 17.3244 16.7754 17.5 16.3333 17.5H10.5V2.5ZM10.5 2.5H4.66667C4.22464 2.5 3.80072 2.67559 3.48816 2.98816C3.17559 3.30072 3 3.72464 3 4.16667V15.8333C3 16.2754 3.17559 16.6993 3.48816 17.0118C3.80072 17.3244 4.22464 17.5 4.66667 17.5H10.5V2.5Z" stroke="currentColor" stroke-linecap="round" stroke-linejoin="round"/>
            <circle cx="8.4171" cy="5.69444" r="0.694444" fill="currentColor"/>
            <ellipse cx="12.5851" cy="5.69444" rx="0.694445" ry="0.694444" fill="currentColor"/>
        </symbol>
        <symbol id="SVG-icon-panneau" viewBox="0 0 24 24">
            <path fill-rule="evenodd" clip-rule="evenodd" d="M0.75 3.25C0.75 1.86929 1.86929 0.75 3.25 0.75H20.75C22.1307 0.75 23.25 1.86929 23.25 3.25V20.75C23.25 22.1307 22.1307 23.25 20.75 23.25H3.25C2.78654 23.25 2.35253 23.1239 1.98043 22.9041C1.61636 22.6891 1.31151 22.3844 1.09635 22.0204C0.876271 21.6481 0.75 21.2138 0.75 20.75V3.25ZM10.5102 2L20.75 2C20.8622 2 20.9709 2.01477 21.0743 2.04248L15.5359 7.58082L10.2327 2.27754L10.5102 2ZM8.74244 2L3.25 2C2.55964 2 2 2.55964 2 3.25L2 8.74244L8.74244 2ZM2.04248 21.0743C2.01477 20.9709 2 20.8622 2 20.75L2 10.5102L9.34878 3.16143L14.6521 8.4647L2.04248 21.0743ZM2.92673 21.9578C3.02985 21.9853 3.13821 22 3.25 22H13.4911L13.7682 21.7229L8.46492 16.4196L2.92673 21.9578ZM15.2588 22H20.75C21.4404 22 22 21.4404 22 20.75V15.2588L15.2588 22ZM22 13.4911V3.25C22 3.13821 21.9853 3.02985 21.9578 2.92673L9.34881 15.5357L14.6521 20.839L22 13.4911Z" fill="currentColor"/>
        </symbol>
        <symbol id="SVG-icon-accessoire" viewBox="0 0 17 10" fill="none" >
            <path d="M16.1118 2.69513C15.276 6.12215 12.185 8.66536 8.5013 8.66536C4.81759 8.66536 1.72663 6.12215 0.890762 2.69513C0.726216 2.0205 1.29567 1.33203 2.16797 1.33203H14.8346C15.7069 1.33203 16.2764 2.0205 16.1118 2.69513Z" stroke="currentColor"/>
        </symbol>
        <symbol id="SVG-icon-tunnel-arrow-infos" viewBox="0 0 16 16" fill="none">
            <path d="M16 6.82841V8.82528C13.6595 9.60837 10.9353 11.9968 10.5516 15.599H8.59472C8.97842 11.6052 11.3189 9.60837 13.2758 8.82528H0V6.82841H13.2758C11.3189 6.04532 8.97842 4.04844 8.59472 0.0546875H10.5516C10.8969 3.6569 13.6595 6.04532 16 6.82841Z" fill="currentColor"/>
        </symbol>

        <symbol id="SVG-icon-infos" viewBox="0 0 24 24" fill="none">
            <path d="M12 0C5.37253 0 0 5.37253 0 12.0004C0 18.6275 5.37253 24 12 24C18.6274 24 24 18.6275 24 12.0004C24 5.37253 18.6274 0 12 0ZM11.9969 5.10041C13.0017 5.10041 13.8167 5.91518 13.8167 6.92026C13.8167 7.92549 13.0017 8.74015 11.9969 8.74015C10.9917 8.74015 10.1766 7.92549 10.1766 6.92026C10.1766 5.91518 10.9917 5.10041 11.9969 5.10041ZM15.123 18.7624C15.123 18.9442 14.9756 19.0917 14.7941 19.0917H13.7355H10.2578H9.20002C9.01847 19.0917 8.87112 18.9442 8.87112 18.7624V18.0872C8.87112 17.9054 9.01842 17.758 9.20002 17.758H10.2578V11.3543H9.16749C8.98594 11.3543 8.83849 11.2069 8.83849 11.025V10.3491C8.83849 10.1672 8.98594 10.0198 9.16749 10.0198H10.2578H13.4066H13.4173C13.5987 10.0198 13.7462 10.1672 13.7462 10.3491V17.7579H14.7941C14.9756 17.7579 15.1231 17.9053 15.1231 18.0871V18.7624H15.123Z" fill="currentColor"/>
        </symbol>

        <symbol id="SVG-error" viewBox="0 0 288 154" fill="none">
            <path d="M38.8527 153.464C25.8747 153.464 15.6394 149.25 8.14695 140.82C0.65447 132.391 -1.62003 119.949 1.32344 103.492L13.967 33.8519C16.2415 21.6766 15.9739 11.7089 13.1642 3.94887V3.54748H40.0569V3.94887C35.5079 11.4413 32.0961 21.409 29.8216 33.8519L17.3788 102.89C14.3015 118.678 15.1043 130.318 19.7871 137.81C24.6037 145.169 31.8285 148.848 41.4617 148.848C52.0315 148.848 60.3267 144.901 66.3475 137.007C72.502 128.98 76.6496 118.945 78.7904 106.904L91.4339 39.0699C93.0395 31.3098 93.5746 25.1553 93.0395 20.6063C92.6381 15.9235 90.8318 10.371 87.6208 3.94887V3.54748H111.704V3.94887C106.62 10.5048 103.074 16.0573 101.067 20.6063C99.194 25.0215 97.5885 31.176 96.2505 39.0699L83.4063 106.904C77.6531 137.944 62.8019 153.464 38.8527 153.464Z" fill="#1C2128"/>
            <path d="M102.204 150.052C107.02 142.025 110.499 132.057 112.64 120.149L128.093 33.8519C129.966 21.8104 129.699 11.8427 127.29 3.94887V3.54748H163.816C190.307 3.54748 203.553 14.9869 203.553 37.8657C203.553 53.1183 198.402 65.6949 188.1 75.5957C177.931 85.3627 164.619 90.2462 148.162 90.2462H133.712L128.294 120.149C126.287 131.12 126.554 141.088 129.096 150.052V150.454H102.204V150.052ZM162.411 7.56132C158.531 7.56132 153.915 7.69511 148.564 7.96269L134.314 86.2324H148.965C157.929 86.2324 165.355 83.6234 171.242 78.4054C177.262 73.1874 181.343 67.0329 183.484 59.9418C185.758 52.8507 186.896 45.0906 186.896 36.6616C186.896 26.2256 185.023 18.8 181.276 14.3848C177.53 9.83582 171.242 7.56132 162.411 7.56132Z" fill="#1C2128"/>
            <path d="M287.923 39.4713L286.117 39.8726C281.836 26.627 277.287 17.4621 272.47 12.3779C267.654 7.15993 262.235 4.55094 256.214 4.55094C249.123 4.55094 243.37 7.02613 238.955 11.9765C234.673 16.7931 232.533 22.9477 232.533 30.4401C232.533 35.3905 233.804 40.4078 236.346 45.492C239.022 50.4424 241.43 54.0548 243.571 56.3294C245.711 58.6039 249.524 62.4839 255.01 67.9695C259.693 72.6523 263.372 76.733 266.048 80.2116C268.858 83.5565 271.467 88.1055 273.875 93.8587C276.283 99.478 277.487 105.432 277.487 111.72C277.487 124.832 273.34 135.067 265.045 142.426C256.749 149.785 246.113 153.464 233.135 153.464C220.692 153.464 209.921 150.855 200.823 145.637L199.418 109.914L201.225 109.513C206.175 123.829 211.527 134.064 217.28 140.218C223.033 146.373 229.656 149.45 237.148 149.45C245.31 149.45 251.799 146.373 256.616 140.218C261.566 134.064 264.041 126.638 264.041 117.942C264.041 112.59 262.837 107.439 260.429 102.488C258.02 97.4042 255.478 93.4573 252.802 90.6476C250.26 87.7041 246.581 83.9579 241.764 79.4089L233.737 70.9798C224.371 61.079 219.688 50.3086 219.688 38.6685C219.688 26.627 223.568 17.2614 231.328 10.5717C239.222 3.88197 248.789 0.537109 260.027 0.537109C270.062 0.537109 279.026 2.67782 286.92 6.95924L287.923 39.4713Z" fill="#1C2128"/>
        </symbol>

        <symbol id="SVG-icon-ikea-share" viewBox="0 0 30 30">
            <path d="M0.7,25.9H0.5C0.2,25.9,0,25.6,0,25.2C0,9.7,11.6,7.2,14.5,6.8v-6c0-0.3,0.2-0.5,0.4-0.7c0.2-0.1,0.5-0.1,0.8,0.1l13.2,11.5
            c0.2,0.1,0.3,0.3,0.3,0.6c0,0.2-0.1,0.5-0.3,0.6L15.7,23.8c-0.2,0.2-0.5,0.2-0.8,0.1c-0.2-0.1-0.4-0.4-0.4-0.7l0-5.9
            c-2.6,0.3-10.9,2-13.2,8.2C1.2,25.7,1,25.9,0.7,25.9L0.7,25.9z M15.9,2.3v5.1c0,0.4-0.3,0.8-0.7,0.8c-0.5,0-12.2,0.7-13.6,14
            c4.3-5.6,13.2-6.5,13.7-6.5c0.2,0,0.4,0.1,0.5,0.2s0.2,0.3,0.2,0.5v5.2l11.3-9.3L15.9,2.3z"/>
        </symbol>

        <symbol id="SVG-icon-paint" viewBox="0 0 30 30" fill="none">
            <path d="M23,3.2h-2.4V2.4c0-1.3-1.1-2.4-2.4-2.4H2.4C1.1,0,0,1.1,0,2.4v3.2c0,1.3,1.1,2.4,2.4,2.4h15.9c1.3,0,2.4-1.1,2.4-2.4V4.8
            H23c0.4,0,0.8,0.4,0.8,0.8v4.8c0,0.4-0.4,0.8-0.8,0.8H12.7c-1.3,0-2.4,1.1-2.4,2.4v2.4H9.5c-0.9,0-1.6,0.7-1.6,1.6v6.4
            c0,0.9,0.7,1.6,1.6,1.6h3.2c0.9,0,1.6-0.7,1.6-1.6v-6.4c0-0.9-0.7-1.6-1.6-1.6h-0.8v-2.4c0-0.4,0.4-0.8,0.8-0.8H23
            c1.3,0,2.4-1.1,2.4-2.4V5.6C25.4,4.2,24.3,3.2,23,3.2z M19.1,3.2v2.4c0,0.4-0.4,0.8-0.8,0.8H2.4C1.9,6.4,1.6,6,1.6,5.6V2.4
            c0-0.4,0.4-0.8,0.8-0.8h15.9c0.4,0,0.8,0.4,0.8,0.8V3.2z M12.7,23.8H9.5v-6.4h3.2V23.8z" fill="currentColor"/>
        </symbol>

        <symbol id="SVG-icon-trash" viewBox="0 0 30 30" fill="none">
           <path d="M24.5,5.6V4.1h-7.2L16.2,0L8.3,0L7.2,4.1L0,4.1v1.5h2.6l2,21.4H20l2-21.4L24.5,5.6z M9.5,1.5H15l0.7,2.5H8.8L9.5,1.5z
	        M18.6,25.4H5.9L4.1,5.6h16.3L18.6,25.4z" fill="currentColor"/>
        </symbol>

        <symbol id="SVG-icon-share" viewBox="0 0 30 30">
            <path class="st0" d="M11.3,4.2C9.4,4.4,6,4.9,3.4,7.4C1.5,9.2,0,12.1,0,16.9c0,0.4,0.2,0.7,0.6,0.8c0.3,0.1,0.7,0,0.9-0.3
                c1.8-2.7,3.6-4.1,5.2-4.8c1.9-0.8,3.5-0.6,4.6-0.5v3.3c0,0.3,0.2,0.6,0.4,0.7c0.3,0.1,0.6,0.1,0.8,0l11.3-7.3
                c0.2-0.1,0.4-0.4,0.4-0.7c0-0.3-0.1-0.5-0.4-0.7L12.5,0.1C12.3,0,12,0,11.7,0.1c-0.3,0.1-0.4,0.4-0.4,0.7L11.3,4.2L11.3,4.2z
                 M12.2,5.6c0.4-0.1,0.7-0.4,0.7-0.8V2.3l9,5.8l-9,5.8v-2.6c0-0.4-0.4-0.8-0.8-0.8c-1,0-3.3-0.6-6,0.6c-1.3,0.6-2.8,1.6-4.3,3.2
                c0.4-2.7,1.4-4.6,2.8-5.8C7.1,6.1,10.7,5.9,12.2,5.6L12.2,5.6z"/>
        </symbol>

        <symbol id="SVG-icon-save" viewBox="0 0 30 30">
            <path d="M22.4,4.7l-4.5-4.5C17.7,0.1,17.5,0,17.3,0H2.3C1.7,0,1.1,0.2,0.7,0.7C0.2,1.1,0,1.7,0,2.3v18.1C0,21,0.2,21.5,0.7,22
                c0.4,0.4,1,0.7,1.6,0.7h18.1c0.6,0,1.2-0.2,1.6-0.7c0.4-0.4,0.7-1,0.7-1.6V5.3C22.6,5.1,22.5,4.9,22.4,4.7L22.4,4.7z M14.3,1.5V6h-6
                V1.5H14.3z M5.3,21.1v-5.3c0-0.2,0.1-0.4,0.2-0.5s0.3-0.2,0.5-0.2h10.6c0.2,0,0.4,0.1,0.5,0.2s0.2,0.3,0.2,0.5v5.3H5.3z M21.1,20.4
                c0,0.2-0.1,0.4-0.2,0.5s-0.3,0.2-0.5,0.2h-1.5v-5.3c0-0.6-0.2-1.2-0.7-1.6c-0.4-0.4-1-0.7-1.6-0.7H6c-0.6,0-1.2,0.2-1.6,0.7
                c-0.4,0.4-0.7,1-0.7,1.6v5.3H2.3c-0.2,0-0.4-0.1-0.5-0.2s-0.2-0.3-0.2-0.5V2.3c0-0.2,0.1-0.4,0.2-0.5c0.1-0.1,0.3-0.2,0.5-0.2h4.5V6
                c0,0.4,0.2,0.8,0.4,1.1c0.3,0.3,0.7,0.4,1.1,0.4h6c0.4,0,0.8-0.2,1.1-0.4c0.3-0.3,0.4-0.7,0.4-1.1V1.5H17l4.1,4.1V20.4z"/>
        </symbol>

        <symbol id="SVG-icon-check-circle" viewBox="0 0 30 30" fill="none">
            <path d="M13,0C5.8,0,0,5.8,0,13c0,7.2,5.8,13,13,13s13-5.8,13-13C26,5.8,20.2,0,13,0z M11.3,18.3l-5.6-5.6l1.2-1.2
            l4.4,4.4l7.7-7.7l1.2,1.2L11.3,18.3z" fill="currentColor"/>
        </symbol>

        <svg id="SVG-icon-tablet" viewBox="0 0 24 24">
            <path fill-rule="evenodd" clip-rule="evenodd" d="M18 3.2H6C5.55817 3.2 5.2 3.55817 5.2 4V20C5.2 20.4418 5.55817 20.8 6 20.8H18C18.4418 20.8 18.8 20.4418 18.8 20V4C18.8 3.55817 18.4418 3.2 18 3.2ZM6 2C4.89543 2 4 2.89543 4 4V20C4 21.1046 4.89543 22 6 22H18C19.1046 22 20 21.1046 20 20V4C20 2.89543 19.1046 2 18 2H6Z" fill="currentColor"/>
            <circle cx="12" cy="19" r="1" fill="currentColor"/>
        </svg>

        <symbol id="SVG-icon-camera" viewBox="0 0 30 30" fill="none">
           <path d="M19.2,1.4l0.8,2h4.7c1.4,0,2.5,1.1,2.5,2.5v15.3c0,1.4-1.1,2.5-2.5,2.5h-22c-1.4,0-2.5-1.1-2.5-2.5V5.9
            c0-1.4,1.1-2.5,2.5-2.5h4.7l0.7-1.7C8.2,0.7,9.2,0,10.2,0h6.9C18.1,0,18.9,0.5,19.2,1.4z M10.2,1.7c-0.4,0-0.7,0.2-0.8,0.6L8.4,5.1
            H2.5c-0.5,0-0.8,0.4-0.8,0.8v15.3c0,0.5,0.4,0.8,0.8,0.8h22c0.5,0,0.8-0.4,0.8-0.8V5.9c0-0.5-0.4-0.8-0.8-0.8h-5.8L17.6,2
            c-0.1-0.2-0.2-0.3-0.4-0.3H10.2z M7.2,13.6c0-3.5,2.9-6.4,6.4-6.4s6.4,2.9,6.4,6.4s-2.9,6.4-6.4,6.4S7.2,17.1,7.2,13.6z M8.9,13.6
            c0,2.6,2.1,4.7,4.7,4.7s4.7-2.1,4.7-4.7s-2.1-4.7-4.7-4.7S8.9,11,8.9,13.6z" fill="currentColor"/>
        </symbol>

        <symbol id="SVG-icon-gem" viewBox="0 0 30 30" fill="none">
            <path d="M24,0.3l5.1,8.3c0.1,0.2,0.1,0.5-0.1,0.7l-14,16.5c-0.2,0.3-0.7,0.3-0.9,0L0.1,9.3C0,9.1,0,8.8,0.1,8.5l5.1-8.3
                C5.3,0.1,5.5,0,5.7,0h17.8C23.7,0,23.9,0.1,24,0.3z M2.6,8.1h4.2l2.9-6.3H6.4L2.6,8.1z M11,19.5L6.8,9.7H3.1L11,19.5z M14.6,23.1
                l5.8-13.4H8.8L14.6,23.1z M11.7,1.8L8.8,8.1h11.5l-2.9-6.3H11.7z M26.1,9.7h-3.7l-4.1,9.7L26.1,9.7z M19.5,1.8l2.9,6.3h4.2
                l-3.8-6.3H19.5z" fill="currentColor"/>
        </symbol>

        <symbol id="SVG-icon-discount" viewBox="0 0 30 30" fill="none">
            <path d="M22.5,0c0.3,0,0.5,0.3,0.3,0.6L2.4,26.5c-0.1,0.1-0.2,0.1-0.3,0.1H0.4c-0.3,0-0.5-0.3-0.3-0.6l20.3-26
            C20.5,0.1,20.6,0,20.7,0H22.5z M0,5.7C0,2.6,2.6,0,5.7,0s5.7,2.6,5.7,5.7s-2.6,5.7-5.7,5.7S0,8.9,0,5.7z M2.1,5.7
            c0,2,1.6,3.6,3.6,3.6s3.6-1.6,3.6-3.6S7.7,2.1,5.7,2.1S2.1,3.7,2.1,5.7z M22.9,20.9c0,3.2-2.6,5.7-5.7,5.7s-5.7-2.6-5.7-5.7
            s2.6-5.7,5.7-5.7S22.9,17.8,22.9,20.9z M20.7,20.9c0-2-1.6-3.6-3.6-3.6s-3.6,1.6-3.6,3.6s1.6,3.6,3.6,3.6S20.7,22.9,20.7,20.9z" fill="currentColor"/>
        </symbol>
        <symbol id="SVG-icon-faucet" viewBox="0 0 30 30">
             <path d="M19.6,9.4h-3.2c-1.1-1.4-2.7-2.3-4.4-2.5V6.1L11.1,6l-0.9,0.1v0.8C8.5,7.1,6.9,8,5.8,9.4H0.4C0.2,9.4,0,9.5,0,9.8v0.9
            c0,0.2,0.2,0.4,0.4,0.4h6.2c0.9-1.5,2.5-2.6,4.4-2.6s3.5,1,4.4,2.6h4.1c3.3,0,5.9,2.7,6,6v1.7h-5.1V17c0-0.5-0.4-0.9-0.9-0.9h-4.1
            c-0.9,1.5-2.5,2.6-4.4,2.6s-3.5-1-4.4-2.6H0.4c-0.2,0-0.4,0.2-0.4,0.4v0.9c0,0.2,0.2,0.4,0.4,0.4h5.3c2.3,2.9,6.6,3.4,9.5,1.1
            c0.4-0.3,0.8-0.7,1.1-1.1h2.4v0.9c0,0.9,0.8,1.7,1.7,1.7h5.1c0.9,0,1.7-0.8,1.7-1.7V17C27.2,12.8,23.8,9.4,19.6,9.4z M3.5,5.1
            l7.6-0.8l7.6,0.8c0.5,0.1,0.9-0.4,0.9-0.9V2.6c0-0.5-0.4-0.9-0.9-0.9l-6.7,0.7v-2c0-0.2-0.2-0.4-0.4-0.4h-0.9
            c-0.2,0-0.4,0.2-0.4,0.4v2L3.5,1.7C3,1.7,2.6,2.1,2.6,2.6v1.6C2.6,4.7,3,5.1,3.5,5.1z"/>
        </symbol>

        <symbol id="SVG-icon-tap" viewBox="0 0 30 30" fill="none">
             <path d="M11.5,0C6,0,1.5,4.8,1.5,10.6v9.9h-1c-0.3,0-0.5,0.3-0.5,0.5v7.6c0,0.3,0.2,0.5,0.5,0.5h5.9c0.3,0,0.5-0.3,0.5-0.5v-3
            l1.8-0.9c0.4-0.2,0.8-0.6,1-1c0.2-0.4,0.3-1,0-1.4c-0.2-0.4-0.5-0.8-1-0.9c-0.4-0.2-1-0.1-1.4,0.1L7,21.8v-0.7
            c0-0.3-0.2-0.5-0.5-0.5H5.7v-9.9c0-3.4,2.6-6.2,5.7-6.2c3.2,0,5.7,2.8,5.7,6.2c0,0.2,0,0.3,0.2,0.3c0.1,0.1,0.2,0.2,0.3,0.2H21
            c0.3,0,0.4-0.3,0.4-0.5C21.5,4.8,17.1,0,11.5,0z M8.5,22.4c0.2,0.1,0.3,0.2,0.4,0.3C9,23,9,23.1,9,23.4c-0.1,0.2-0.3,0.4-0.5,0.5
            l-3.8,1.8c-0.3,0.1-0.5,0.2-0.8,0.1c-0.2-0.1-0.3-0.2-0.3-0.3c-0.1-0.2-0.1-0.3,0-0.6c0.1-0.2,0.3-0.4,0.5-0.5l3.8-1.8
            c0.2-0.1,0.3-0.1,0.4-0.1C8.4,22.4,8.5,22.4,8.5,22.4z M6,21.6v0.7l-2.3,1.1c-0.4,0.2-0.8,0.6-1,1c-0.2,0.4-0.2,1,0,1.4
            c0.3,0.6,0.9,1,1.6,1c0.3,0,0.6-0.1,0.9-0.2l1-0.4v2H1.2v-6.5L6,21.6L6,21.6z M18.3,10.2c-0.3-3.7-3.1-6.6-6.6-6.7h-0.1
            c-3.7,0-6.8,3.2-6.8,7.1v9.9H2.5v-9.8c0-5.3,4.1-9.7,9-9.7c4.8,0,8.8,4,9,9.1H18.3z" fill="currentColor"/>
        </symbol>

        <symbol id="SVG-icon-flag-fr" viewBox="0 0 30 30">
            <path d="M0,12.5A12.49,12.49,0,0,0,6.25,23.31V1.69A12.49,12.49,0,0,0,0,12.5Z" style="fill:#0456bd"/><path d="M18.75,1.69a12.4,12.4,0,0,0-12.5,0V23.31a12.4,12.4,0,0,0,12.5,0Z" style="fill:#fff"/><path d="M25,12.5A12.49,12.49,0,0,0,18.75,1.69V23.31A12.49,12.49,0,0,0,25,12.5Z" style="fill:#ff1612"/>
        </symbol>
        <symbol id="SVG-icon-flag-gb" viewBox="0 0 30 30">
            <path d="M.71,16.51.89,17l.76-.51Z" style="fill:#0437a0"/><path d="M24.11,8.31l-.18-.51-.76.51Z" style="fill:#0437a0"/><path d="M23.93,17l.18-.51h-.94Z" style="fill:#0437a0"/><path d="M21.09,3.55A12.42,12.42,0,0,0,15.49.4V7.29Z" style="fill:#0437a0"/><path d="M21.09,21.27l-5.6-3.74v6.89A12.42,12.42,0,0,0,21.09,21.27Z" style="fill:#0437a0"/><path d="M3.73,21.27a12.42,12.42,0,0,0,5.6,3.15V17.53Z" style="fill:#0437a0"/><path d="M3.73,3.55l5.6,3.74V.4A12.42,12.42,0,0,0,3.73,3.55Z" style="fill:#0437a0"/><path d="M.89,7.8l-.18.51h.94Z" style="fill:#0437a0"/><path d="M10.49.16A11.36,11.36,0,0,0,9.33.4V7.29h0L3.73,3.55A12.43,12.43,0,0,0,2.65,4.76L8,8.31H4.53l-2.94-2A12.11,12.11,0,0,0,.89,7.8l.76.51H.71A11.33,11.33,0,0,0,.27,9.85H10.49Z" style="fill:#f4f4f4"/><path d="M14.33,24.66a11.36,11.36,0,0,0,1.16-.24V17.53l5.6,3.74a13.6,13.6,0,0,0,1.08-1.2l-5.34-3.56h3.46l2.94,2a10.76,10.76,0,0,0,.7-1.45l-.76-.51h.94A11.33,11.33,0,0,0,24.55,15H14.33Z" style="fill:#f4f4f4"/><path d="M.27,15a11.33,11.33,0,0,0,.44,1.54h.94L.89,17a12.11,12.11,0,0,0,.7,1.45l2.94-2H8L2.66,20.07a12.08,12.08,0,0,0,1.07,1.2l5.6-3.74h0v6.89a11.36,11.36,0,0,0,1.16.24V15Z" style="fill:#f4f4f4"/><path d="M24.55,9.85a11.33,11.33,0,0,0-.44-1.54h-.94l.76-.51a10.76,10.76,0,0,0-.7-1.45l-2.94,2H16.83l5.34-3.55a12.43,12.43,0,0,0-1.08-1.21l-5.6,3.74V.4A11.36,11.36,0,0,0,14.33.16V9.85Z" style="fill:#f4f4f4"/><path d="M20.29,8.31l2.94-2a12.21,12.21,0,0,0-1.06-1.59L16.83,8.31Z" style="fill:#ff1612"/><path d="M10.49,9.85H.27A12.27,12.27,0,0,0,.27,15H10.49v9.69a11.6,11.6,0,0,0,3.84,0V15H24.55a12.27,12.27,0,0,0,0-5.12H14.33V.16A13.44,13.44,0,0,0,12.41,0a13.56,13.56,0,0,0-1.92.16Z" style="fill:#ff1612"/><path d="M16.83,16.51l5.34,3.56a13,13,0,0,0,1.06-1.6l-2.94-2Z" style="fill:#ff1612"/><path d="M4.53,16.51l-2.94,2a12.05,12.05,0,0,0,1.07,1.6L8,16.51Z" style="fill:#ff1612"/><path d="M8,8.31,2.65,4.76A12.21,12.21,0,0,0,1.59,6.35l2.94,2Z" style="fill:#ff1612"/>
        </symbol>
        <symbol id="SVG-icon-flag-de" viewBox="0 0 30 30">
            <path d="M.72,8.3H24.16A12.42,12.42,0,0,0,.72,8.3Z"/><path d="M0,12.44a12.39,12.39,0,0,0,.72,4.15H24.16a12.13,12.13,0,0,0,0-8.29H.72A12.33,12.33,0,0,0,0,12.44Z" style="fill:#ff1612"/><path d="M12.44,24.89a12.44,12.44,0,0,0,11.72-8.3H.72A12.45,12.45,0,0,0,12.44,24.89Z" style="fill:#fedc36"/>
        </symbol>
        <symbol id="SVG-icon-flag-be" viewBox="0 0 30 30">
            <path d="M0,12.5A12.49,12.49,0,0,0,6.25,23.31V1.69A12.49,12.49,0,0,0,0,12.5Z" style="fill:#111"/><path d="M18.75,1.69a12.4,12.4,0,0,0-12.5,0V23.31a12.4,12.4,0,0,0,12.5,0Z" style="fill:#fff200"/><path d="M25,12.5A12.49,12.49,0,0,0,18.75,1.69V23.31A12.49,12.49,0,0,0,25,12.5Z" style="fill:#f90805"/>
        </symbol>
        <symbol id="SVG-icon-flag-ch" viewBox="0 0 30 30">
            <path d="M0,12.44a12.44,12.44,0,0,0,24.88,0v0A12.44,12.44,0,0,0,0,12.44ZM4.2,10H10V4.2h4.95V10h5.77v4.95H14.92v5.77H10V14.92H4.2Z" style="fill:#ff1612"/><polygon points="9.97 20.69 14.91 20.69 14.91 14.91 20.68 14.91 20.68 9.97 14.91 9.97 14.91 4.2 9.97 4.2 9.97 9.97 4.2 9.97 4.2 14.91 9.97 14.91 9.97 20.69" style="fill:#fafafb"/>
        </symbol>
        <symbol id="SVG-icon-flag-nl" viewBox="0 0 30 30">
            <path d="M24.89,12.44a12.34,12.34,0,0,0-.73-4.14H.72a12.29,12.29,0,0,0,0,8.29H24.16A12.4,12.4,0,0,0,24.89,12.44Z" style="fill:#f0f0f0"/><path d="M24.16,16.59H.72a12.42,12.42,0,0,0,23.44,0Z" style="fill:#1971e4"/><path d="M12.44,0A12.45,12.45,0,0,0,.72,8.3H24.16A12.44,12.44,0,0,0,12.44,0Z" style="fill:#ff1612"/>
        </symbol>
        <symbol id="SVG-icon-flag-eu" viewBox="0 0 30 30">
            <path style="fill:#0437A0" d="M24.6,12.3C24.6,5.5,19.1,0,12.3,0C5.5,0,0,5.5,0,12.3c0,6.8,5.5,12.3,12.3,12.3
                C19.1,24.6,24.6,19.1,24.6,12.3z M22.5,12l-0.8,0.6l0.3,1L21.2,13l-0.8,0.6l0.3-1L19.8,12l1,0l0.3-1l0.3,1L22.5,12z M2,12l1,0
                l0.3-1l0.3,1l1,0l-0.8,0.6l0.3,1L3.4,13l-0.8,0.6l0.3-1L2,12z M5.4,18l-0.8-0.6L3.8,18l0.3-1l-0.8-0.6l1,0l0.3-1l0.3,1l1,0
                l-0.8,0.6L5.4,18z M5.1,8.1l0.3,1L4.6,8.5L3.8,9.1l0.3-1L3.2,7.5l1,0l0.3-1l0.3,1l1,0L5.1,8.1z M7.5,4.3l0.3-1l0.3,1l1,0L8.4,4.9
                l0.3,1L7.9,5.3L7,5.9l0.3-1L6.5,4.3L7.5,4.3z M8.7,21.3l-0.8-0.6L7,21.3l0.3-1l-0.8-0.6l1,0l0.3-1l0.3,1l1,0l-0.8,0.6L8.7,21.3z
                 M13.1,22.5l-0.8-0.6l-0.8,0.6l0.3-1l-0.8-0.6l1,0l0.3-1l0.3,1l1,0l-0.8,0.6L13.1,22.5z M12.8,3.7l0.3,1l-0.8-0.6l-0.8,0.6l0.3-1
                l-0.8-0.6l1,0l0.3-1l0.3,1l1,0L12.8,3.7z M17.6,21.3l-0.8-0.6l-0.8,0.6l0.3-1l-0.8-0.6l1,0l0.3-1l0.3,1l1,0l-0.8,0.6L17.6,21.3z
                 M17.3,4.9l0.3,1l-0.8-0.6l-0.8,0.6l0.3-1l-0.8-0.6l1,0l0.3-1l0.3,1l1,0L17.3,4.9z M19.7,7.5l0.3-1l0.3,1l1,0l-0.8,0.6l0.3,1
                L20,8.5l-0.8,0.6l0.3-1l-0.8-0.6L19.7,7.5z M20,17.4L19.1,18l0.3-1l-0.8-0.6l1,0l0.3-1l0.3,1l1,0L20.5,17l0.3,1L20,17.4z"/>
                <polygon style="fill:#FFDE27" points="19.1,9.1 20,8.5 20.8,9.1 20.5,8.1 21.4,7.5 20.3,7.5 20,6.5 19.7,7.5 18.6,7.5 19.5,8.1 	"/>
                <polygon style="fill:#FFDE27"  points="12.3,2.1 12,3.1 10.9,3.1 11.8,3.7 11.4,4.7 12.3,4.1 13.1,4.7 12.8,3.7 13.6,3.1 12.6,3.1 	"/>
                <polygon style="fill:#FFDE27"  points="12.6,20.9 12.3,19.9 12,20.9 10.9,20.9 11.8,21.5 11.4,22.5 12.3,21.9 13.1,22.5 12.8,21.5 13.6,20.9
                "/>
                <polygon style="fill:#FFDE27"  points="17.1,19.7 16.7,18.7 16.4,19.7 15.4,19.7 16.2,20.3 15.9,21.3 16.7,20.7 17.6,21.3 17.3,20.3
                18.1,19.7 	"/>
                <polygon style="fill:#FFDE27"  points="8.2,19.7 7.9,18.7 7.5,19.7 6.5,19.7 7.3,20.3 7,21.3 7.9,20.7 8.7,21.3 8.4,20.3 9.2,19.7 	"/>
                <polygon style="fill:#FFDE27"  points="16.7,3.3 16.4,4.3 15.4,4.3 16.2,4.9 15.9,5.9 16.7,5.3 17.6,5.9 17.3,4.9 18.1,4.3 17.1,4.3 	"/>
                <polygon style="fill:#FFDE27"  points="7,5.9 7.9,5.3 8.7,5.9 8.4,4.9 9.2,4.3 8.2,4.3 7.9,3.3 7.5,4.3 6.5,4.3 7.3,4.9 	"/>
                <polygon style="fill:#FFDE27"  points="21.4,16.4 20.3,16.4 20,15.4 19.7,16.4 18.6,16.4 19.5,17 19.1,18 20,17.4 20.8,18 20.5,17 	"/>
                <polygon style="fill:#FFDE27"  points="20.8,12 19.8,12 20.6,12.6 20.3,13.6 21.2,13 22,13.6 21.7,12.6 22.5,12 21.5,12 21.2,11 	"/>
                <polygon style="fill:#FFDE27"  points="3.4,13 4.2,13.6 3.9,12.6 4.8,12 3.7,12 3.4,11 3.1,12 2,12 2.9,12.6 2.5,13.6 	"/>
                <polygon style="fill:#FFDE27"  points="4.6,6.5 4.3,7.5 3.2,7.5 4.1,8.1 3.8,9.1 4.6,8.5 5.4,9.1 5.1,8.1 6,7.5 4.9,7.5 	"/>
                <polygon style="fill:#FFDE27"  points="4.9,16.4 4.6,15.4 4.3,16.4 3.2,16.4 4.1,17.1 3.8,18 4.6,17.4 5.4,18 5.1,17.1 6,16.4 	"/>
        </symbol>
        <symbol id="SVG-icon-show" viewBox="0 0 30 30">
            <path d="M12.4,19.2c-4.7,0-9.2-2.9-12-7.7c-0.7-1.2-0.7-2.6,0-3.7C3.3,2.9,7.7,0,12.4,0s9.2,2.9,12,7.7
            c0.7,1.2,0.7,2.6,0,3.7C21.6,16.3,17.2,19.2,12.4,19.2z M12.4,2.1c-4,0-7.7,2.4-10.1,6.7c-0.3,0.5-0.3,1.1,0,1.6h0
            c2.4,4.2,6.1,6.7,10.1,6.7s7.7-2.4,10.1-6.7c0.3-0.5,0.3-1.1,0-1.6C20.1,4.6,16.4,2.1,12.4,2.1z" fill="currentColor"/>
            <path d="M12.4,13.9c-2.4,0-4.3-1.9-4.3-4.3c0-2.4,1.9-4.3,4.3-4.3c2.4,0,4.3,1.9,4.3,4.3C16.7,11.9,14.8,13.9,12.4,13.9
            z M12.4,7.5c-1.2,0-2.1,1-2.1,2.1s1,2.1,2.1,2.1c1.2,0,2.1-1,2.1-2.1S13.6,7.5,12.4,7.5z" fill="currentColor"/>
        </symbol>
        <symbol id="SVG-icon-hide" viewBox="0 0 30 30">
            <path d="M6.8,0.3c-0.4-0.4-1.1-0.4-1.5,0c-0.4,0.4-0.4,1.1,0,1.5l1.3,1.3C4.2,4.5,2,6.7,0.5,9.4
		c-0.7,1.2-0.7,2.6,0,3.7c2.6,4.6,7,7.7,12,7.7c3.2,0,6.1-1.3,8.5-3.4l1.4,1.4c0.2,0.2,0.5,0.3,0.8,0.3s0.5-0.1,0.8-0.3
		c0.4-0.4,0.4-1.1,0-1.5L6.8,0.3z M14.4,12.1c-0.2,0.4-0.5,0.8-0.9,1c-0.4,0.2-0.9,0.3-1.3,0.3c-0.5-0.1-0.9-0.3-1.2-0.6
		c-0.3-0.3-0.6-0.7-0.6-1.2c-0.1-0.5,0-0.9,0.2-1.3c0.2-0.4,0.6-0.7,1-0.9c0.3-0.2,0.7-0.2,1.1-0.2l1.9,1.9
		C14.6,11.4,14.5,11.8,14.4,12.1z M12.4,18.7c-4,0-7.7-2.5-10.1-6.7c-0.3-0.5-0.3-1.1,0-1.6c1.5-2.6,3.6-4.6,5.9-5.7l2.6,2.6
		c-0.1,0-0.1,0-0.2,0.1c-0.8,0.4-1.5,1.1-2,1.9c-0.4,0.8-0.6,1.8-0.4,2.7c0.1,0.9,0.6,1.8,1.3,2.4c0.7,0.6,1.5,1,2.4,1.2
		c0.2,0,0.3,0,0.5,0c0.7,0,1.5-0.2,2.1-0.6c0.8-0.5,1.4-1.2,1.8-2c0,0,0,0,0,0l3,3C17.4,17.7,15,18.7,12.4,18.7z" fill="currentColor"/>
            <path d="M24.4,9.4c-1.9-3.4-4.7-5.9-8.1-7.1C15.8,2.1,15.2,2.4,15,3c-0.2,0.6,0.1,1.2,0.7,1.4c2.7,0.9,5.2,3.1,6.9,6.1
		c0.2,0.4,0.3,0.8,0.2,1.2c-0.2,0.6,0.2,1.2,0.7,1.3c0.6,0.2,1.2-0.2,1.3-0.7C25,11.3,24.9,10.3,24.4,9.4z" fill="currentColor"/>
        </symbol>
    </defs>
</svg>
