<svg xmlns="http://www.w3.org/2000/svg" viewBox="0 0 53.76 57"><defs><style>.cls-1{fill:#3c6575;}</style></defs><g id="Calque_2" data-name="Calque 2"><g id="Calque_1-2" data-name="Calque 1"><path class="cls-1" d="M41,26.91a14.14,14.14,0,0,0-28.28,0,12.62,12.62,0,0,0,.43,3.37,13.28,13.28,0,0,0,2,4.48c.18.37.43.75.68,1.18s.56,1,.87,1.44c1.25,2,2,3.24,2,5.67V48.9a3,3,0,0,0,2.49,2.93C21.8,55,23.67,57,26.85,57s5.11-2,5.67-5.17A3,3,0,0,0,35,48.9V43.05c0-2.43.75-3.68,2-5.67.25-.44.56-.94.88-1.44s.49-.81.68-1.18a13.26,13.26,0,0,0,2-4.48A12.24,12.24,0,0,0,41,26.91ZM32.58,44.54H21.24V43.11a3.42,3.42,0,0,0-.06-.81h11.4c0,.25-.06.5-.06.81v1.43ZM32,49.46H21.68a.49.49,0,0,1-.5-.5V47H32.52V49C32.58,49.21,32.33,49.46,32,49.46Zm-5.17,5.11c-.69,0-2.43,0-3.12-2.62H30C29.34,54.57,27.53,54.57,26.85,54.57ZM38.12,29.78a11.54,11.54,0,0,1-1.68,3.73c-.25.38-.43.75-.68,1.19s-.56,1-.81,1.37a18.16,18.16,0,0,0-1.87,3.67H20.74a15.48,15.48,0,0,0-1.86-3.67c-.25-.44-.57-.87-.81-1.37l-.69-1.19a11.76,11.76,0,0,1-1.68-3.8,10.73,10.73,0,0,1-.38-2.8,11.65,11.65,0,1,1,23.3,0A24,24,0,0,1,38.12,29.78Z"/><path class="cls-1" d="M52.51,25.67H47.34a1.25,1.25,0,0,0,0,2.49h5.17a1.25,1.25,0,1,0,0-2.49Z"/><path class="cls-1" d="M41.3,13.71a1.23,1.23,0,0,0,.87-.38l3.68-3.67A1.24,1.24,0,0,0,44.1,7.91l-3.67,3.68a1.2,1.2,0,0,0,0,1.74A1.23,1.23,0,0,0,41.3,13.71Z"/><path class="cls-1" d="M26.85,7.66A1.25,1.25,0,0,0,28.1,6.42V1.25a1.25,1.25,0,0,0-2.5,0V6.42A1.25,1.25,0,0,0,26.85,7.66Z"/><path class="cls-1" d="M11.52,13.33a1.26,1.26,0,0,0,.88.38,1.23,1.23,0,0,0,.87-.38,1.2,1.2,0,0,0,0-1.74L9.59,7.91A1.23,1.23,0,1,0,7.85,9.66Z"/><path class="cls-1" d="M6.42,25.67H1.25a1.25,1.25,0,1,0,0,2.49H6.42a1.25,1.25,0,0,0,0-2.49Z"/><path class="cls-1" d="M11.52,40.49,7.85,44.17a1.2,1.2,0,0,0,0,1.74,1.19,1.19,0,0,0,1.74,0l3.68-3.67a1.24,1.24,0,0,0-1.75-1.75Z"/><path class="cls-1" d="M42.17,40.49a1.23,1.23,0,1,0-1.74,1.75l3.67,3.67a1.26,1.26,0,0,0,.88.38,1.23,1.23,0,0,0,.87-.38,1.2,1.2,0,0,0,0-1.74Z"/></g></g></svg>