<svg xmlns="http://www.w3.org/2000/svg" viewBox="0 0 31.26 54"><defs><style>.cls-1{fill:#3c6575;}</style></defs><g id="Calque_2" data-name="Calque 2"><g id="Calque_1-2" data-name="Calque 1"><path class="cls-1" d="M15.63,0a10,10,0,0,0-10,10V29.84a10,10,0,1,0,19.9,0V10A10,10,0,0,0,15.63,0Zm7.11,29.84a7.11,7.11,0,1,1-14.21,0V10a7.11,7.11,0,1,1,14.21,0Z"/><path class="cls-1" d="M14.21,45.4v5.76h-10a1.42,1.42,0,0,0-1.42,1.42,1.38,1.38,0,0,0,.42,1,1.4,1.4,0,0,0,1,.42H27a1.43,1.43,0,0,0,1.42-1.42A1.42,1.42,0,0,0,27,51.16H17.05V45.4A15.64,15.64,0,0,0,31.26,29.84V21.32a1.46,1.46,0,0,0-.41-1,1.42,1.42,0,0,0-1-.42,1.4,1.4,0,0,0-1,.42,1.42,1.42,0,0,0-.42,1v8.52a12.79,12.79,0,1,1-25.58,0V21.32a1.46,1.46,0,0,0-.41-1,1.42,1.42,0,0,0-1-.42,1.38,1.38,0,0,0-1,.42,1.42,1.42,0,0,0-.42,1v8.52A15.64,15.64,0,0,0,14.21,45.4Z"/></g></g></svg>