<svg xmlns="http://www.w3.org/2000/svg" xmlns:xlink="http://www.w3.org/1999/xlink" viewBox="0 0 78.06 78.06"><defs><clipPath id="a" transform="translate(0 0.06)"><rect width="78" height="78" style="fill:none"/></clipPath></defs><g style="clip-path:url(#a)"><path d="M39-.06A39,39,0,1,1,0,39,39,39,0,0,1,39-.06Z" transform="translate(0 0.06)" style="fill:#f9f7f4"/></g><path d="M31.22,12.47l.11.26a3.29,3.29,0,0,1,.11,2.51,3,3,0,0,1-1.77,1.66,3.21,3.21,0,0,1-2.54,0,3.39,3.39,0,0,1-1.81-2,3.43,3.43,0,0,1-.11-2.69,3.49,3.49,0,0,1,3.95-1.92,2.71,2.71,0,0,1,1.63,1.22l-.74.45a2,2,0,0,0-1.17-.93A2.56,2.56,0,0,0,26,12.51a2.77,2.77,0,0,0,.14,2.11,2.85,2.85,0,0,0,1.38,1.61,2.31,2.31,0,0,0,1.91,0,2.27,2.27,0,0,0,1.24-1.06,2.22,2.22,0,0,0,.06-1.68l-2.05.84-.27-.68Z" transform="translate(0 0.06)" style="fill:#1c2128"/><path d="M34.72,10.67l.14.73a1.32,1.32,0,0,0-.89.53,1.22,1.22,0,0,0-.2,1l.48,2.59-.76.15-.83-4.52L33.4,11l.13.69A1.13,1.13,0,0,1,33.9,11,1.52,1.52,0,0,1,34.72,10.67Z" transform="translate(0 0.06)" style="fill:#1c2128"/><path d="M37.72,10.42a1.76,1.76,0,0,1,1.31.43,1.8,1.8,0,0,1,.49,1.31l.08,2.89-.78,0,0-.54a1.68,1.68,0,0,1-1.35.66,1.62,1.62,0,0,1-1.1-.31,1.23,1.23,0,0,1-.44-1c0-.85.53-1.32,1.66-1.42l1.18-.1V12.2c0-.74-.35-1.11-1-1.09a1,1,0,0,0-.74.3,1,1,0,0,0-.24.68l-.78,0A1.5,1.5,0,0,1,36.45,11,1.73,1.73,0,0,1,37.72,10.42ZM38.77,13l-1.09.09c-.67.07-1,.32-1,.76s.29.65.85.64a1.35,1.35,0,0,0,.91-.34,1.24,1.24,0,0,0,.32-1Z" transform="translate(0 0.06)" style="fill:#1c2128"/><path d="M42.72,14.79a3.14,3.14,0,0,0,.45,0l-.09.69a3.22,3.22,0,0,1-.62,0,1.49,1.49,0,0,1-1-.49,1.39,1.39,0,0,1-.22-1.12l.35-2.52-.85-.11.09-.67.85.11.22-1.57.77.11-.22,1.57,1.22.16-.09.67-1.22-.16L42,13.8C42,14.38,42.18,14.72,42.72,14.79Z" transform="translate(0 0.06)" style="fill:#1c2128"/><path d="M44.63,15.88l-.75-.19L45,11.23l.75.19Zm.87-6.6a.51.51,0,0,1,.38-.06.54.54,0,0,1,.32.23.53.53,0,0,1,.06.39.46.46,0,0,1-.23.31.54.54,0,0,1-.39.06.51.51,0,0,1-.38-.61A.52.52,0,0,1,45.5,9.28Z" transform="translate(0 0.06)" style="fill:#1c2128"/><path d="M49,12.4a1.64,1.64,0,0,1,1,.77A1.54,1.54,0,0,1,50,14.29l-.74-.24a.8.8,0,0,0-.59-1,1,1,0,0,0-.67-.08.61.61,0,0,0-.39.38.74.74,0,0,0,0,.14.49.49,0,0,0,0,.12.6.6,0,0,1,0,.12.48.48,0,0,0,.08.11l.09.1.13.1.14.09.16.12.18.13a3.77,3.77,0,0,1,1,.88,1,1,0,0,1,0,.93,1.25,1.25,0,0,1-.82.8,2,2,0,0,1-1.32-.11,2,2,0,0,1-1-.8,1.47,1.47,0,0,1-.15-1.17l.74.24c-.12.5.11.87.71,1.1a1.12,1.12,0,0,0,.7.09.59.59,0,0,0,.43-.38.52.52,0,0,0,0-.52,3.81,3.81,0,0,0-.73-.62l-.43-.3a2.78,2.78,0,0,1-.34-.29,1,1,0,0,1-.24-.33,1.35,1.35,0,0,1-.07-.37,1.29,1.29,0,0,1,.09-.46,1.21,1.21,0,0,1,.78-.75A1.84,1.84,0,0,1,49,12.4Z" transform="translate(0 0.06)" style="fill:#1c2128"/><path d="M19.6,55.88l-1.94-2.63-1.73,1.28,1.61,2.2-.57.42L15.35,55l-2.42,1.78-.48-.65,5.31-3.91,2.42,3.28Z" transform="translate(0 0.06)" style="fill:#1c2128"/><path d="M19,58a2.47,2.47,0,0,1,2.45,2.23,2.25,2.25,0,0,1-.66,1.69,2.31,2.31,0,0,1-1.62.81A2.37,2.37,0,0,1,19,58Zm1.72,2.21a1.57,1.57,0,0,0-1.63-1.49,1.67,1.67,0,0,0-1.14.61,1.64,1.64,0,0,0-.5,1.19A1.57,1.57,0,0,0,19.09,62a1.71,1.71,0,0,0,1.15-.61A1.65,1.65,0,0,0,20.73,60.23Z" transform="translate(0 0.06)" style="fill:#1c2128"/><path d="M22.94,65.25a2.07,2.07,0,0,0,.4.21L23,66a4.07,4.07,0,0,1-.55-.28,1.45,1.45,0,0,1-.67-.84,1.4,1.4,0,0,1,.26-1.1l1.34-2.09-.7-.45.35-.55.71.45.83-1.31.65.41-.84,1.31,1,.64-.35.56-1-.65-1.27,2A.74.74,0,0,0,22.94,65.25Z" transform="translate(0 0.06)" style="fill:#1c2128"/><path d="M26.53,63.47a2.46,2.46,0,0,1,3,1.28,2.36,2.36,0,1,1-4.31,0A2.26,2.26,0,0,1,26.53,63.47ZM28.89,65a1.44,1.44,0,0,0-.85-.84,1.49,1.49,0,0,0-1.19,0,1.68,1.68,0,0,0-.87.95,1.7,1.7,0,0,0-.07,1.3,1.59,1.59,0,0,0,2.05.85A1.91,1.91,0,0,0,28.89,65Z" transform="translate(0 0.06)" style="fill:#1c2128"/><path d="M33.21,65a1.61,1.61,0,0,1,1,.59,1.51,1.51,0,0,1,.3,1.06l-.75-.11a.78.78,0,0,0-.75-.9,1,1,0,0,0-.66,0,.61.61,0,0,0-.31.44.66.66,0,0,0,0,.14.5.5,0,0,0,0,.12.93.93,0,0,0,0,.1.19.19,0,0,0,.09.09l.11.09.13.07.15.07.19.09L33,67a3.4,3.4,0,0,1,1.07.69.94.94,0,0,1,.2.89,1.21,1.21,0,0,1-.65.91,2,2,0,0,1-1.29.11A2,2,0,0,1,31.19,69a1.46,1.46,0,0,1-.34-1.1l.75.1c0,.51.26.82.87,1a1.19,1.19,0,0,0,.69,0,.55.55,0,0,0,.35-.44.51.51,0,0,0-.13-.5,3.75,3.75,0,0,0-.8-.47l-.47-.22a2.22,2.22,0,0,1-.37-.22.78.78,0,0,1-.29-.28,1,1,0,0,1-.13-.34,1,1,0,0,1,0-.46,1.19,1.19,0,0,1,.62-.85A1.79,1.79,0,0,1,33.21,65Z" transform="translate(0 0.06)" style="fill:#1c2128"/><path d="M37.16,63.29l0,3a1.4,1.4,0,0,1,.53-.49,1.85,1.85,0,0,1,2.09.32,1.78,1.78,0,0,1,.48,1.34l0,2.73h-.77l0-2.64a1.23,1.23,0,0,0-.3-.9,1.08,1.08,0,0,0-.82-.34,1.11,1.11,0,0,0-.87.35,1.22,1.22,0,0,0-.35.88l0,2.62h-.76l.06-6.85Z" transform="translate(0 0.06)" style="fill:#1c2128"/><path d="M42.43,66a2.22,2.22,0,0,1,1.49-1,2.33,2.33,0,1,1,.95,4.56,2.3,2.3,0,0,1-1.75-.29A2.5,2.5,0,0,1,42.43,66Zm2.79-.1a1.44,1.44,0,0,0-1.17-.22,1.47,1.47,0,0,0-1,.67,1.71,1.71,0,0,0-.18,1.28,1.67,1.67,0,0,0,.68,1.1,1.57,1.57,0,0,0,2.16-.45,1.9,1.9,0,0,0-.5-2.38Z" transform="translate(0 0.06)" style="fill:#1c2128"/><path d="M48.19,64.48a2.46,2.46,0,0,1,3-1.36,2.33,2.33,0,0,1,.15,4.34,2.38,2.38,0,0,1-3.16-3Zm2.71-.71a1.61,1.61,0,0,0-2,.91A1.69,1.69,0,0,0,49,66a1.65,1.65,0,0,0,.9.93,1.57,1.57,0,0,0,2-.91,1.69,1.69,0,0,0-.1-1.29A1.65,1.65,0,0,0,50.9,63.77Z" transform="translate(0 0.06)" style="fill:#1c2128"/><path d="M56.36,63.76a3.29,3.29,0,0,0,.34-.28l.38.56a2.89,2.89,0,0,1-.47.38,1.41,1.41,0,0,1-1,.28,1.33,1.33,0,0,1-.9-.67L53.29,62l-.7.47-.37-.55.7-.47-.86-1.29.63-.43L53.55,61l1-.68.37.55-1,.68,1.3,1.94C55.54,64,55.92,64.06,56.36,63.76Z" transform="translate(0 0.06)" style="fill:#1c2128"/><path d="M54.17,58.06a.49.49,0,0,1,.17-.34.5.5,0,0,1,.37-.12.48.48,0,0,1,.34.18.46.46,0,0,1,.11.36.49.49,0,0,1-.17.34.5.5,0,0,1-.37.12.49.49,0,0,1-.34-.17A.46.46,0,0,1,54.17,58.06Zm4.73,4.47-.58.49-2.9-3.43L56,59.1Z" transform="translate(0 0.06)" style="fill:#1c2128"/><path d="M58.64,56.33a1.69,1.69,0,0,1,1.2-.62,1.88,1.88,0,0,1,1.33.51L63.23,58l-.5.57-2-1.73a1.27,1.27,0,0,0-.88-.35,1.06,1.06,0,0,0-.79.4,1.14,1.14,0,0,0-.3.89,1.2,1.2,0,0,0,.44.83l2,1.73-.5.57L57.3,58l.48-.55.5.44a1.45,1.45,0,0,1-.05-.75A1.63,1.63,0,0,1,58.64,56.33Z" transform="translate(0 0.06)" style="fill:#1c2128"/><path d="M61.69,51.94a2,2,0,0,1,.67-.75,1.52,1.52,0,0,1,.82-.26l-.65-.36.34-.62L67,52.22a2,2,0,0,1,1,1.24,2.19,2.19,0,0,1-.26,1.64,2.36,2.36,0,0,1-1.09,1.08,1.85,1.85,0,0,1-1.35.06l.34-.67a1.07,1.07,0,0,0,.84-.07,1.56,1.56,0,0,0,.68-.69,1.47,1.47,0,0,0,.18-1.08,1.34,1.34,0,0,0-.71-.82l-.86-.47a1.43,1.43,0,0,1,.2.79,2.17,2.17,0,0,1-.27.94,2.1,2.1,0,0,1-1.3,1.06,2.68,2.68,0,0,1-3-1.63A2.08,2.08,0,0,1,61.69,51.94Zm.64.22a1.45,1.45,0,0,0-.14,1.16,2,2,0,0,0,2.16,1.18,1.45,1.45,0,0,0,.91-.74,1.47,1.47,0,0,0,.15-1.11,1.55,1.55,0,0,0-.81-.9l-.23-.12a1.55,1.55,0,0,0-1.19-.2A1.38,1.38,0,0,0,62.33,52.16Z" transform="translate(0 0.06)" style="fill:#1c2128"/><path d="M44.73,26.55l.78,2.06h4.77a2.59,2.59,0,0,1,2.6,2.6V46.83a2.6,2.6,0,0,1-2.6,2.6H27.72a2.6,2.6,0,0,1-2.6-2.6V31.21a2.59,2.59,0,0,1,2.6-2.6h4.77l.68-1.79a2.6,2.6,0,0,1,2.43-1.68h7.11A2.14,2.14,0,0,1,44.73,26.55Zm-9.13.32a.86.86,0,0,0-.81.57l-1.09,2.9h-6a.87.87,0,0,0-.87.87V46.83a.88.88,0,0,0,.87.87H50.28a.88.88,0,0,0,.87-.87V31.21a.87.87,0,0,0-.87-.87h-6l-1.2-3.19a.45.45,0,0,0-.4-.28ZM32.49,39A6.51,6.51,0,1,1,39,45.53,6.52,6.52,0,0,1,32.49,39Zm1.74,0A4.77,4.77,0,1,0,39,34.25,4.78,4.78,0,0,0,34.23,39Z" transform="translate(0 0.06)" style="fill:#1c2128"/></svg>