<svg xmlns="http://www.w3.org/2000/svg" xmlns:xlink="http://www.w3.org/1999/xlink" viewBox="0 0 78.06 78.06"><defs><clipPath id="a" transform="translate(0 0.06)"><rect width="78" height="78" style="fill:none"/></clipPath></defs><g style="clip-path:url(#a)"><path d="M39-.06A39,39,0,1,1,0,39,39,39,0,0,1,39-.06Z" transform="translate(0 0.06)" style="fill:#f9f7f4"/></g><path d="M31.22,12.47l.11.26a3.29,3.29,0,0,1,.11,2.51,3,3,0,0,1-1.77,1.66,3.21,3.21,0,0,1-2.54,0,3.39,3.39,0,0,1-1.81-2,3.43,3.43,0,0,1-.11-2.69,3.49,3.49,0,0,1,3.95-1.92,2.71,2.71,0,0,1,1.63,1.22l-.74.45a2,2,0,0,0-1.17-.93A2.56,2.56,0,0,0,26,12.51a2.77,2.77,0,0,0,.14,2.11,2.85,2.85,0,0,0,1.38,1.61,2.31,2.31,0,0,0,1.91,0,2.27,2.27,0,0,0,1.24-1.06,2.22,2.22,0,0,0,.06-1.68l-2.05.84-.27-.68Z" transform="translate(0 0.06)" style="fill:#1c2128"/><path d="M34.72,10.67l.14.73a1.32,1.32,0,0,0-.89.53,1.22,1.22,0,0,0-.2,1l.48,2.59-.76.15-.83-4.52L33.4,11l.13.69A1.13,1.13,0,0,1,33.9,11,1.52,1.52,0,0,1,34.72,10.67Z" transform="translate(0 0.06)" style="fill:#1c2128"/><path d="M37.72,10.42a1.76,1.76,0,0,1,1.31.43,1.8,1.8,0,0,1,.49,1.31l.08,2.89-.78,0,0-.54a1.68,1.68,0,0,1-1.35.66,1.62,1.62,0,0,1-1.1-.31,1.23,1.23,0,0,1-.44-1c0-.85.53-1.32,1.66-1.42l1.18-.1V12.2c0-.74-.35-1.11-1-1.09a1,1,0,0,0-.74.3,1,1,0,0,0-.24.68l-.78,0A1.5,1.5,0,0,1,36.45,11,1.73,1.73,0,0,1,37.72,10.42ZM38.77,13l-1.09.09c-.67.07-1,.32-1,.76s.29.65.85.64a1.35,1.35,0,0,0,.91-.34,1.24,1.24,0,0,0,.32-1Z" transform="translate(0 0.06)" style="fill:#1c2128"/><path d="M42.72,14.79a3.14,3.14,0,0,0,.45,0l-.09.69a3.22,3.22,0,0,1-.62,0,1.49,1.49,0,0,1-1-.49,1.39,1.39,0,0,1-.22-1.12l.35-2.52-.85-.11.09-.67.85.11.22-1.57.77.11-.22,1.57,1.22.16-.09.67-1.22-.16L42,13.8C42,14.38,42.18,14.72,42.72,14.79Z" transform="translate(0 0.06)" style="fill:#1c2128"/><path d="M44.63,15.88l-.75-.19L45,11.23l.75.19Zm.87-6.6a.51.51,0,0,1,.38-.06.54.54,0,0,1,.32.23.53.53,0,0,1,.06.39.46.46,0,0,1-.23.31.54.54,0,0,1-.39.06.51.51,0,0,1-.38-.61A.52.52,0,0,1,45.5,9.28Z" transform="translate(0 0.06)" style="fill:#1c2128"/><path d="M49,12.4a1.64,1.64,0,0,1,1,.77A1.54,1.54,0,0,1,50,14.29l-.74-.24a.8.8,0,0,0-.59-1,1,1,0,0,0-.67-.08.61.61,0,0,0-.39.38.74.74,0,0,0,0,.14.49.49,0,0,0,0,.12.6.6,0,0,1,0,.12.48.48,0,0,0,.08.11l.09.1.13.1.14.09.16.12.18.13a3.77,3.77,0,0,1,1,.88,1,1,0,0,1,0,.93,1.25,1.25,0,0,1-.82.8,2,2,0,0,1-1.32-.11,2,2,0,0,1-1-.8,1.47,1.47,0,0,1-.15-1.17l.74.24c-.12.5.11.87.71,1.1a1.12,1.12,0,0,0,.7.09.59.59,0,0,0,.43-.38.52.52,0,0,0,0-.52,3.81,3.81,0,0,0-.73-.62l-.43-.3a2.78,2.78,0,0,1-.34-.29,1,1,0,0,1-.24-.33,1.35,1.35,0,0,1-.07-.37,1.29,1.29,0,0,1,.09-.46,1.21,1.21,0,0,1,.78-.75A1.84,1.84,0,0,1,49,12.4Z" transform="translate(0 0.06)" style="fill:#1c2128"/><path d="M23.19,57.82l.24.24-.44.49-.18-.18a.88.88,0,0,0-.67-.25,1,1,0,0,0-.65.35l-.51.58.86.77-.44.49-.86-.77L18,62.4l-.56-.51L20,59l-.65-.58.44-.49.65.58.5-.56a1.61,1.61,0,0,1,1.12-.6A1.55,1.55,0,0,1,23.19,57.82Z" transform="translate(0 0.06)" style="fill:#1c2128"/><path d="M22.69,61.18a2.46,2.46,0,0,1,2.8,1.76A2.34,2.34,0,0,1,22,65.47a2.39,2.39,0,0,1,.74-4.29Zm2.09,1.87a1.49,1.49,0,0,0-.7-1,1.51,1.51,0,0,0-1.18-.21,1.93,1.93,0,0,0-1.29,2.07,1.56,1.56,0,0,0,1.87,1.17,1.68,1.68,0,0,0,1-.8A1.7,1.7,0,0,0,24.78,63.05Z" transform="translate(0 0.06)" style="fill:#1c2128"/><path d="M27.85,67.61a3.49,3.49,0,0,0,.43.12l-.26.63a3,3,0,0,1-.58-.18,1.41,1.41,0,0,1-.81-.71,1.31,1.31,0,0,1,.06-1.12l.95-2.3-.78-.31.25-.61.78.31L28.48,62l.71.29-.59,1.43,1.11.46-.25.61-1.11-.45-.9,2.15C27.23,67,27.36,67.41,27.85,67.61Z" transform="translate(0 0.06)" style="fill:#1c2128"/><path d="M31.06,65.22A2.29,2.29,0,0,1,32.81,65a2.22,2.22,0,0,1,1.75,2.76,2.35,2.35,0,0,1-4.23.81,2.32,2.32,0,0,1-.28-1.79A2.27,2.27,0,0,1,31.06,65.22Zm2.59,1a1.49,1.49,0,0,0-1-.68,1.55,1.55,0,0,0-1.18.2,1.71,1.71,0,0,0-.69,1.1A1.66,1.66,0,0,0,31,68.17a1.58,1.58,0,0,0,2.16.48,1.71,1.71,0,0,0,.69-1.1A1.66,1.66,0,0,0,33.65,66.27Z" transform="translate(0 0.06)" style="fill:#1c2128"/><path d="M37.92,65.57a1.64,1.64,0,0,1,1.14.39,1.51,1.51,0,0,1,.48,1l-.76,0c0-.5-.34-.75-.9-.76a.91.91,0,0,0-.63.16.56.56,0,0,0-.23.47A.35.35,0,0,0,37,67a.25.25,0,0,0,0,.11.35.35,0,0,0,.07.09.21.21,0,0,0,.1.08l.12.06.15,0,.16,0,.2.06.2.05a3.65,3.65,0,0,1,1.17.49,1,1,0,0,1,.36.84,1.23,1.23,0,0,1-.48,1,1.93,1.93,0,0,1-1.25.34,2,2,0,0,1-1.22-.38,1.5,1.5,0,0,1-.53-1l.76,0q.09.77,1,.78a1.16,1.16,0,0,0,.68-.16.55.55,0,0,0,.26-.49.52.52,0,0,0-.21-.47,3.47,3.47,0,0,0-.88-.32l-.5-.13a2.25,2.25,0,0,1-.4-.15,1,1,0,0,1-.34-.22,1.59,1.59,0,0,1-.19-.32,1.25,1.25,0,0,1-.07-.45,1.17,1.17,0,0,1,.46-.95A1.74,1.74,0,0,1,37.92,65.57Z" transform="translate(0 0.06)" style="fill:#1c2128"/><path d="M41.49,63.14l.5,2.93a1.38,1.38,0,0,1,.44-.58,1.73,1.73,0,0,1,.79-.34,1.67,1.67,0,0,1,1.32.29,1.79,1.79,0,0,1,.71,1.23l.46,2.7-.75.12-.45-2.59a1.23,1.23,0,0,0-.46-.83,1.08,1.08,0,0,0-.87-.2,1.14,1.14,0,0,0-.79.51,1.23,1.23,0,0,0-.19.92l.44,2.59L41.9,70l-1.15-6.75Z" transform="translate(0 0.06)" style="fill:#1c2128"/><path d="M47.15,64.85a2.32,2.32,0,0,1,1.3-1.21,2.2,2.2,0,0,1,1.76,0,2.48,2.48,0,0,1,1.27,3.13,2.31,2.31,0,0,1-4.3-.09A2.28,2.28,0,0,1,47.15,64.85Zm2.73-.59a1.45,1.45,0,0,0-1.19,0,1.42,1.42,0,0,0-.85.83,1.9,1.9,0,0,0,.91,2.25,1.44,1.44,0,0,0,1.2,0,1.49,1.49,0,0,0,.85-.84,1.66,1.66,0,0,0,0-1.29A1.69,1.69,0,0,0,49.88,64.26Z" transform="translate(0 0.06)" style="fill:#1c2128"/><path d="M52.57,62.35a2.29,2.29,0,0,1,1-1.47,2.22,2.22,0,1,1-1,1.47Zm2.54-1.19a1.58,1.58,0,0,0-1.82,1.26,1.67,1.67,0,0,0,.33,1.25,1.72,1.72,0,0,0,1.05.76,1.47,1.47,0,0,0,1.17-.26,1.43,1.43,0,0,0,.65-1,1.67,1.67,0,0,0-.33-1.25A1.72,1.72,0,0,0,55.11,61.16Z" transform="translate(0 0.06)" style="fill:#1c2128"/><path d="M60.48,60.18a3.93,3.93,0,0,0,.28-.34l.48.48a2.93,2.93,0,0,1-.4.46,1.44,1.44,0,0,1-1,.47,1.34,1.34,0,0,1-1-.51L57.14,59l-.6.59-.46-.48.59-.58L55.6,57.38l.54-.54L57.22,58l.86-.84.47.47-.87.85,1.62,1.68A.75.75,0,0,0,60.48,60.18Z" transform="translate(0 0.06)" style="fill:#1c2128"/><path d="M44.73,26.55l.78,2.06h4.77a2.59,2.59,0,0,1,2.6,2.6V46.83a2.59,2.59,0,0,1-2.6,2.6H27.72a2.59,2.59,0,0,1-2.6-2.6V31.21a2.59,2.59,0,0,1,2.6-2.6h4.77l.68-1.79a2.6,2.6,0,0,1,2.43-1.68h7.11A2.15,2.15,0,0,1,44.73,26.55Zm-9.13.32a.86.86,0,0,0-.81.57l-1.09,2.9h-6a.87.87,0,0,0-.87.87V46.83a.88.88,0,0,0,.87.87H50.28a.88.88,0,0,0,.87-.87V31.21a.87.87,0,0,0-.87-.87h-6l-1.2-3.19a.45.45,0,0,0-.4-.28ZM32.49,39A6.51,6.51,0,1,1,39,45.53,6.52,6.52,0,0,1,32.49,39Zm1.74,0A4.77,4.77,0,1,0,39,34.25,4.78,4.78,0,0,0,34.23,39Z" transform="translate(0 0.06)" style="fill:#1c2128"/></svg>