<svg xmlns="http://www.w3.org/2000/svg" xmlns:xlink="http://www.w3.org/1999/xlink" viewBox="0 0 78.06 78.06"><defs><clipPath id="a" transform="translate(0 0.06)"><rect width="78" height="78" style="fill:none"/></clipPath></defs><g style="clip-path:url(#a)"><path d="M39-.06A39,39,0,1,1,0,39,39,39,0,0,1,39-.06Z" transform="translate(0 0.06)" style="fill:#f9f7f4"/></g><path d="M32.17,9.68l-3.19,1,.64,2.12L32.28,12l.21.7-2.67.8.89,2.94-.79.24-2-6.44L32,9Z" transform="translate(0 0.06)" style="fill:#1c2128"/><path d="M36.11,10.52l.1.74a1.32,1.32,0,0,0-.91.48,1.2,1.2,0,0,0-.24.94l.35,2.61-.76.11L34,10.85l.75-.1.1.69a1.1,1.1,0,0,1,.4-.59A1.49,1.49,0,0,1,36.11,10.52Z" transform="translate(0 0.06)" style="fill:#1c2128"/><path d="M41.5,13.16,38,13.06a1.47,1.47,0,0,0,.4,1,1.37,1.37,0,0,0,1,.4,1.51,1.51,0,0,0,.85-.19,1.07,1.07,0,0,0,.47-.59l.77.07a1.78,1.78,0,0,1-.73,1,2.23,2.23,0,0,1-1.36.37,2.21,2.21,0,0,1-1.62-.69,2.34,2.34,0,0,1-.58-1.76A2.33,2.33,0,0,1,37.83,11a2.19,2.19,0,0,1,1.64-.59,2,2,0,0,1,1.53.66,2.34,2.34,0,0,1,.51,1.65Zm-2-2.06a1.46,1.46,0,0,0-1,.33,1.41,1.41,0,0,0-.46,1l2.78.08a1.47,1.47,0,0,0-.33-1A1.3,1.3,0,0,0,39.45,11.1Z" transform="translate(0 0.06)" style="fill:#1c2128"/><path d="M46.77,14.34l-3.44-.84a1.52,1.52,0,0,0,.17,1.11,1.46,1.46,0,0,0,.89.6,1.5,1.5,0,0,0,.87,0,1.09,1.09,0,0,0,.58-.48l.74.23a1.75,1.75,0,0,1-.93.84,2.41,2.41,0,0,1-2.84-.93A2.41,2.41,0,0,1,42.6,13a2.41,2.41,0,0,1,1-1.54,2.18,2.18,0,0,1,1.73-.23,2,2,0,0,1,1.36,1,2.39,2.39,0,0,1,.16,1.73Zm-1.58-2.45a1.46,1.46,0,0,0-1.06.11,1.38,1.38,0,0,0-.65.88l2.69.66a1.47,1.47,0,0,0-.11-1A1.27,1.27,0,0,0,45.19,11.89Z" transform="translate(0 0.06)" style="fill:#1c2128"/><path d="M19.57,56.52a2.13,2.13,0,0,1,.53,1.59,2.32,2.32,0,0,1-.89,1.57,2.32,2.32,0,0,1-1.68.64,2.08,2.08,0,0,1-1.5-.76,2,2,0,0,1-.46-.86,1.42,1.42,0,0,1,0-.82l-2.21,1.9-.5-.57L18,54.82l.47.54-.57.49a1.43,1.43,0,0,1,.86.08A2.1,2.1,0,0,1,19.57,56.52Zm-.58.35a1.37,1.37,0,0,0-1-.53,1.56,1.56,0,0,0-1.13.44l-.2.17a1.56,1.56,0,0,0-.6,1,1.39,1.39,0,0,0,.38,1,1.46,1.46,0,0,0,1,.54A2,2,0,0,0,19.36,58,1.4,1.4,0,0,0,19,56.87Z" transform="translate(0 0.06)" style="fill:#1c2128"/><path d="M24.09,57.79l-1.78,2.38a1.26,1.26,0,0,1,.71-.08,1.6,1.6,0,0,1,.8.34,1.65,1.65,0,0,1,.7,1.15A1.86,1.86,0,0,1,24.11,63l-1.64,2.18-.61-.46,1.58-2.1a1.25,1.25,0,0,0,.28-.91,1.06,1.06,0,0,0-.45-.76,1.13,1.13,0,0,0-.91-.23,1.23,1.23,0,0,0-.8.5L20,63.27l-.6-.45,4.1-5.48Z" transform="translate(0 0.06)" style="fill:#1c2128"/><path d="M26.73,63.07a2.49,2.49,0,1,1-1.3,1.26A2.23,2.23,0,0,1,26.73,63.07ZM29,64.64a1.58,1.58,0,0,0-2-.92,1.93,1.93,0,0,0-1,2.22,1.44,1.44,0,0,0,.82.87,1.46,1.46,0,0,0,1.19,0,1.71,1.71,0,0,0,.9-.93A1.65,1.65,0,0,0,29,64.64Z" transform="translate(0 0.06)" style="fill:#1c2128"/><path d="M32.75,68.75a3.21,3.21,0,0,0,.43.07l-.16.66a4.17,4.17,0,0,1-.6-.1,1.46,1.46,0,0,1-.91-.58,1.35,1.35,0,0,1-.09-1.12l.6-2.41-.81-.2.16-.64.81.2.38-1.5.75.18-.38,1.51,1.17.28-.16.65-1.17-.29-.58,2.26C32.05,68.28,32.23,68.63,32.75,68.75Z" transform="translate(0 0.06)" style="fill:#1c2128"/><path d="M35.53,66a2.46,2.46,0,0,1,3.29.29,2.2,2.2,0,0,1,.5,1.74,2.21,2.21,0,0,1-2.5,2.12,2.21,2.21,0,0,1-2.09-2.52A2.23,2.23,0,0,1,35.53,66Zm2.7.71a1.47,1.47,0,0,0-1.06-.54,1.49,1.49,0,0,0-1.14.35,1.64,1.64,0,0,0-.54,1.17,1.7,1.7,0,0,0,.33,1.26,1.5,1.5,0,0,0,1.06.55A1.46,1.46,0,0,0,38,69.1a1.92,1.92,0,0,0,.21-2.43Z" transform="translate(0 0.06)" style="fill:#1c2128"/><path d="M42.38,65.43a1.62,1.62,0,0,1,1.18.24,1.49,1.49,0,0,1,.6.92l-.74.12a.79.79,0,0,0-1-.63,1,1,0,0,0-.61.23.77.77,0,0,0-.14.65l.06.11.08.08a.23.23,0,0,0,.11.06l.13.05.15,0,.17,0,.2,0,.21,0A3.32,3.32,0,0,1,44,67.7a.94.94,0,0,1,.47.77,1.27,1.27,0,0,1-.34,1.08,2,2,0,0,1-1.2.5,2,2,0,0,1-1.25-.22,1.49,1.49,0,0,1-.67-1l.75-.13c.13.49.5.71,1.12.64a1.2,1.2,0,0,0,.65-.25.56.56,0,0,0,.19-.52.48.48,0,0,0-.27-.44,3.83,3.83,0,0,0-.91-.2L42,67.91a2.45,2.45,0,0,1-.42-.09.83.83,0,0,1-.59-.47,1.14,1.14,0,0,1-.14-.44,1.21,1.21,0,0,1,.33-1A1.81,1.81,0,0,1,42.38,65.43Z" transform="translate(0 0.06)" style="fill:#1c2128"/><path d="M45.62,62.54l.88,2.84a1.42,1.42,0,0,1,.35-.63,1.74,1.74,0,0,1,.75-.44,1.66,1.66,0,0,1,1.35.11,1.84,1.84,0,0,1,.86,1.13l.81,2.61-.73.22-.78-2.51a1.26,1.26,0,0,0-.57-.76,1,1,0,0,0-.88-.08,1.13,1.13,0,0,0-.73.6,1.27,1.27,0,0,0-.06.94l.78,2.51-.72.23-2-6.54Z" transform="translate(0 0.06)" style="fill:#1c2128"/><path d="M51.46,63.49a2.32,2.32,0,0,1,1.12-1.37,2.35,2.35,0,0,1,1.76-.26,2.31,2.31,0,1,1-2.88,1.63Zm2.63-1a1.5,1.5,0,0,0-1.18.16,1.48,1.48,0,0,0-.74.93,1.91,1.91,0,0,0,1.2,2.12,1.48,1.48,0,0,0,1.19-.15,1.43,1.43,0,0,0,.73-.94,1.91,1.91,0,0,0-1.2-2.12Z" transform="translate(0 0.06)" style="fill:#1c2128"/><path d="M56.49,60.31a2.26,2.26,0,0,1,.8-1.58,2.29,2.29,0,0,1,1.65-.63,2.24,2.24,0,0,1,1.62.81,2.3,2.3,0,0,1,.65,1.7,2.27,2.27,0,0,1-.8,1.58,2.23,2.23,0,0,1-1.66.63A2.29,2.29,0,0,1,57.13,62,2.23,2.23,0,0,1,56.49,60.31Zm2.36-1.5a1.59,1.59,0,0,0-1.64,1.48,1.71,1.71,0,0,0,.49,1.2,1.67,1.67,0,0,0,1.14.61A1.48,1.48,0,0,0,60,61.7a1.46,1.46,0,0,0,.51-1.08,1.93,1.93,0,0,0-1.63-1.81Z" transform="translate(0 0.06)" style="fill:#1c2128"/><path d="M64.05,57.13a1.69,1.69,0,0,0,.24-.37l.54.42a3.48,3.48,0,0,1-.34.51,1.38,1.38,0,0,1-.9.58,1.31,1.31,0,0,1-1.06-.36l-2-1.55-.52.66-.52-.4.52-.66-1.21-1,.47-.6,1.21,1,.75-.94.52.4-.75.95,1.83,1.46Q63.57,57.76,64.05,57.13Z" transform="translate(0 0.06)" style="fill:#1c2128"/><path d="M44.73,26.55l.78,2.06h4.77a2.59,2.59,0,0,1,2.6,2.6V46.83a2.6,2.6,0,0,1-2.6,2.6H27.72a2.6,2.6,0,0,1-2.6-2.6V31.21a2.59,2.59,0,0,1,2.6-2.6h4.77l.68-1.79a2.6,2.6,0,0,1,2.43-1.68h7.11A2.14,2.14,0,0,1,44.73,26.55Zm-9.13.32a.86.86,0,0,0-.81.57l-1.09,2.9h-6a.87.87,0,0,0-.87.87V46.83a.88.88,0,0,0,.87.87H50.28a.88.88,0,0,0,.87-.87V31.21a.87.87,0,0,0-.87-.87h-6l-1.2-3.19a.45.45,0,0,0-.4-.28ZM32.49,39A6.51,6.51,0,1,1,39,45.53,6.52,6.52,0,0,1,32.49,39Zm1.74,0A4.77,4.77,0,1,0,39,34.25,4.78,4.78,0,0,0,34.23,39Z" transform="translate(0 0.06)" style="fill:#1c2128"/></svg>