<svg xmlns="http://www.w3.org/2000/svg" viewBox="0 0 41.45 54"><defs><style>.cls-1{fill:#3c6575;}</style></defs><g id="Calque_2" data-name="Calque 2"><g id="Calque_1-2" data-name="Calque 1"><path class="cls-1" d="M5,54H36.43a5,5,0,0,0,5-5V12.4a5,5,0,0,0-5-5H32.22A1.29,1.29,0,0,0,32,6.78a1.23,1.23,0,0,0-.49-.39L26.39,4.16A6,6,0,0,0,15,4.14L9.59,6.38a1.14,1.14,0,0,0-.5.4,1.07,1.07,0,0,0-.22.59H5a5,5,0,0,0-5,5V49a5,5,0,0,0,5,5ZM11.24,8.27,16.4,6.12a1.12,1.12,0,0,0,.45-.33,1.14,1.14,0,0,0,.25-.49,3.65,3.65,0,0,1,1.26-2.09,3.64,3.64,0,0,1,4.58,0,3.71,3.71,0,0,1,1.28,2.07,1.15,1.15,0,0,0,.24.51,1.19,1.19,0,0,0,.45.35l4.93,2.14v3.55H11.24ZM2.38,12.4a2.68,2.68,0,0,1,.78-1.87A2.63,2.63,0,0,1,5,9.76H8.86V13a1.2,1.2,0,0,0,1.19,1.2H31A1.2,1.2,0,0,0,32.22,13V9.76h4.21a2.65,2.65,0,0,1,2.64,2.64V49a2.6,2.6,0,0,1-.78,1.86,2.64,2.64,0,0,1-1.86.78H5A2.66,2.66,0,0,1,2.38,49Z"/><path class="cls-1" d="M8.09,42.91H33.36a1.21,1.21,0,0,0,.84-.35,1.2,1.2,0,0,0,0-1.69,1.21,1.21,0,0,0-.84-.35H8.09a1.21,1.21,0,0,0-.84.35,1.2,1.2,0,0,0,0,1.69A1.21,1.21,0,0,0,8.09,42.91Z"/><path class="cls-1" d="M8.09,33.69H33.36a1.16,1.16,0,0,0,.84-.35,1.18,1.18,0,0,0,0-1.68,1.16,1.16,0,0,0-.84-.35H8.09a1.16,1.16,0,0,0-.84.35,1.18,1.18,0,0,0,0,1.68A1.16,1.16,0,0,0,8.09,33.69Z"/><path class="cls-1" d="M8.09,24.48H33.36a1.2,1.2,0,0,0,1.19-1.19,1.23,1.23,0,0,0-.35-.85,1.21,1.21,0,0,0-.84-.35H8.09a1.21,1.21,0,0,0-.84.35,1.23,1.23,0,0,0-.35.85,1.2,1.2,0,0,0,1.19,1.19Z"/></g></g></svg>