<svg xmlns="http://www.w3.org/2000/svg" xmlns:xlink="http://www.w3.org/1999/xlink" viewBox="0 0 78.06 78.06"><defs><style>.cls-1{fill:none;}.cls-2{clip-path:url(#clip-path);}.cls-3{fill:#f9f7f4;}.cls-4{fill:#1c2128;}</style><clipPath id="clip-path" transform="translate(0 0.06)"><rect class="cls-1" width="78" height="78"/></clipPath></defs><g id="Calque_2" data-name="Calque 2"><g id="Calque_1-2" data-name="Calque 1"><g class="cls-2"><path class="cls-3" d="M39-.06A39,39,0,1,1,0,39,39,39,0,0,1,39-.06Z" transform="translate(0 0.06)"/></g><path class="cls-4" d="M26.79,18.36,24,17l-1.44,1,1.56,2.21-.68.47L19.57,15.2l2.13-1.49a2.15,2.15,0,0,1,1.52-.43,1.88,1.88,0,0,1,1.33.89A2,2,0,0,1,25,15.34a1.83,1.83,0,0,1-.35,1.08l2.93,1.41Zm-4.65-.93,1.38-1a1.39,1.39,0,0,0,.58-.81,1.22,1.22,0,0,0-.24-1,1.19,1.19,0,0,0-.86-.56,1.34,1.34,0,0,0-1,.27l-1.38,1Z" transform="translate(0 0.06)"/><path class="cls-4" d="M31.2,14.19l-3.28,1.35a1.49,1.49,0,0,0,.79.79,1.45,1.45,0,0,0,1.08,0,1.51,1.51,0,0,0,.69-.52,1.05,1.05,0,0,0,.19-.73l.73-.25A1.75,1.75,0,0,1,31.15,16a2.43,2.43,0,0,1-2.85.91,2.34,2.34,0,0,1-1.25-1.37A2.33,2.33,0,0,1,27,13.73a2.15,2.15,0,0,1,1.26-1.21,2,2,0,0,1,1.66,0A2.32,2.32,0,0,1,31,13.8Zm-2.71-1a1.52,1.52,0,0,0-.8.71,1.44,1.44,0,0,0,0,1.1l2.57-1a1.48,1.48,0,0,0-.71-.78A1.25,1.25,0,0,0,28.49,13.14Z" transform="translate(0 0.06)"/><path class="cls-4" d="M37.34,10.41a1.61,1.61,0,0,1,1.29.37,1.9,1.9,0,0,1,.63,1.29l.33,2.78-.77.09-.31-2.67a1.43,1.43,0,0,0-.41-.88,1,1,0,0,0-.85-.24,1.12,1.12,0,0,0-.76.4,1.32,1.32,0,0,0-.26.84v0l.33,2.77-.78.09-.31-2.67a1.33,1.33,0,0,0-.41-.87,1,1,0,0,0-.82-.25,1.1,1.1,0,0,0-.82.47,1.3,1.3,0,0,0-.22.93l.31,2.66-.76.09-.55-4.56L33,11l.08.69a1.42,1.42,0,0,1,1.29-.94,1.75,1.75,0,0,1,.92.13,1.58,1.58,0,0,1,.68.6,1.66,1.66,0,0,1,.53-.73A1.74,1.74,0,0,1,37.34,10.41Z" transform="translate(0 0.06)"/><path class="cls-4" d="M41.58,15.23l-.77-.07.42-4.57.77.07Zm-.12-6.65a.49.49,0,0,1,.37-.12.57.57,0,0,1,.34.18.53.53,0,0,1,.12.38.46.46,0,0,1-.18.34.54.54,0,0,1-.38.12.53.53,0,0,1-.35-.19.52.52,0,0,1-.11-.36A.45.45,0,0,1,41.46,8.58Z" transform="translate(0 0.06)"/><path class="cls-4" d="M45.34,11.14a1.67,1.67,0,0,1,1.06.63,1.51,1.51,0,0,1,.28,1.09l-.77-.13a.8.8,0,0,0-.74-1,1,1,0,0,0-.67,0,.59.59,0,0,0-.33.43.78.78,0,0,0,0,.14.59.59,0,0,0,0,.13l0,.1a.2.2,0,0,0,.09.1l.11.09.13.08.15.07.19.1.19.09a3.56,3.56,0,0,1,1.07.74,1,1,0,0,1,.19.9,1.26,1.26,0,0,1-.69.92,2.35,2.35,0,0,1-2.46-.55A1.48,1.48,0,0,1,42.87,14l.76.12q-.06.78.87,1a1.2,1.2,0,0,0,.71,0,.58.58,0,0,0,.36-.44.5.5,0,0,0-.12-.51,3.65,3.65,0,0,0-.81-.5l-.47-.24a2.7,2.7,0,0,1-.37-.23.9.9,0,0,1-.29-.3,1,1,0,0,1-.13-.35,1.52,1.52,0,0,1,0-.47,1.2,1.2,0,0,1,.66-.85A1.81,1.81,0,0,1,45.34,11.14Z" transform="translate(0 0.06)"/><path class="cls-4" d="M51.54,16.22,48.3,14.78a1.46,1.46,0,0,0,0,1.12,1.38,1.38,0,0,0,.77.75,1.48,1.48,0,0,0,.85.15,1.15,1.15,0,0,0,.66-.37l.68.35a1.71,1.71,0,0,1-1.06.67,2.2,2.2,0,0,1-1.39-.17A2.25,2.25,0,0,1,47.54,16a2.37,2.37,0,0,1,.13-1.85A2.33,2.33,0,0,1,49,12.84a2.19,2.19,0,0,1,1.75.08,2,2,0,0,1,1.16,1.19,2.34,2.34,0,0,1-.15,1.72Zm-1.12-2.69a1.49,1.49,0,0,0-1.07-.08,1.42,1.42,0,0,0-.8.75l2.53,1.13a1.47,1.47,0,0,0,.08-1.06A1.31,1.31,0,0,0,50.42,13.53Z" transform="translate(0 0.06)"/><path class="cls-4" d="M55.35,15.57a1.67,1.67,0,0,1,.74,1,1.53,1.53,0,0,1-.16,1.12l-.65-.41a.8.8,0,0,0-.34-1.15,1,1,0,0,0-.63-.24.62.62,0,0,0-.46.28.45.45,0,0,0-.1.25v.11a.27.27,0,0,0,0,.13c0,.05.05.09.06.12a.77.77,0,0,0,.1.12.81.81,0,0,0,.11.13l.14.16.14.16a3.45,3.45,0,0,1,.71,1.08,1,1,0,0,1-.17.92,1.25,1.25,0,0,1-1,.58,1.94,1.94,0,0,1-1.26-.42,2,2,0,0,1-.81-1A1.45,1.45,0,0,1,52,17.3l.66.4c-.24.46-.09.87.43,1.24a1.18,1.18,0,0,0,.66.25.57.57,0,0,0,.5-.27.51.51,0,0,0,.09-.52,3.6,3.6,0,0,0-.56-.77l-.35-.4a2.89,2.89,0,0,1-.26-.35A1.15,1.15,0,0,1,53,16.5a1.29,1.29,0,0,1,0-.38,1.12,1.12,0,0,1,.19-.42,1.18,1.18,0,0,1,.93-.55A1.86,1.86,0,0,1,55.35,15.57Z" transform="translate(0 0.06)"/><path class="cls-4" d="M15.33,59.21l-.49-.58,3.46-2.88.48.59Zm4.51-4.69a.49.49,0,0,1,.34.17.54.54,0,0,1,.11.37.5.5,0,0,1-.54.45.54.54,0,0,1-.34-.18A.46.46,0,0,1,19.3,55a.49.49,0,0,1,.17-.33A.46.46,0,0,1,19.84,54.52Z" transform="translate(0 0.06)"/><path class="cls-4" d="M23.88,60.9a1.57,1.57,0,0,1,.63,1.15,1.9,1.9,0,0,1-.46,1.33l-1.71,2.14-.59-.47L23.39,63a1.35,1.35,0,0,0,.33-.89,1,1,0,0,0-.42-.75,1.05,1.05,0,0,0-.8-.25,1.2,1.2,0,0,0-.76.39l0,0L20,63.67l-.6-.47,1.64-2.07a1.27,1.27,0,0,0,.32-.88.93.93,0,0,0-.39-.74,1.09,1.09,0,0,0-.89-.25,1.31,1.31,0,0,0-.8.49l-1.63,2.06-.59-.48,2.79-3.51.56.45L20,58.8a1.4,1.4,0,0,1,1.54.25,1.75,1.75,0,0,1,.55.73,1.55,1.55,0,0,1,.05.88,1.63,1.63,0,0,1,.87-.13A1.71,1.71,0,0,1,23.88,60.9Z" transform="translate(0 0.06)"/><path class="cls-4" d="M31.62,64.58a1.59,1.59,0,0,1,1,.89,1.88,1.88,0,0,1,0,1.4l-.93,2.58-.71-.26.89-2.48a1.28,1.28,0,0,0,0-.94,1,1,0,0,0-.64-.59,1,1,0,0,0-.83,0,1.23,1.23,0,0,0-.6.61v.05l-.93,2.57-.72-.26L29,65.7a1.28,1.28,0,0,0,0-.94,1,1,0,0,0-.61-.58,1.09,1.09,0,0,0-.92,0,1.32,1.32,0,0,0-.61.72L26,67.42l-.72-.25,1.52-4.23.68.24-.23.64a1.4,1.4,0,0,1,1.54-.25,1.69,1.69,0,0,1,.75.52,1.43,1.43,0,0,1,.34.82,1.55,1.55,0,0,1,.78-.41A1.71,1.71,0,0,1,31.62,64.58Z" transform="translate(0 0.06)"/><path class="cls-4" d="M38.77,68.26,35.31,68a1.42,1.42,0,0,0,.34,1,1.36,1.36,0,0,0,1,.45,1.5,1.5,0,0,0,.84-.14,1,1,0,0,0,.48-.56l.76.11a1.72,1.72,0,0,1-.77,1,2.2,2.2,0,0,1-1.34.29A2.11,2.11,0,0,1,35,69.37a2.29,2.29,0,0,1-.48-1.74A2.26,2.26,0,0,1,35.29,66a2.12,2.12,0,0,1,1.64-.49,1.91,1.91,0,0,1,1.45.72,2.2,2.2,0,0,1,.42,1.64Zm-1.9-2.12a1.42,1.42,0,0,0-1,.27,1.4,1.4,0,0,0-.5,1l2.71.21a1.45,1.45,0,0,0-.28-1A1.25,1.25,0,0,0,36.87,66.14Zm.38-1.3-.6,0,1-1.6.86.07Z" transform="translate(0 0.06)"/><path class="cls-4" d="M45.24,69.58l-.71.1L44.44,69a1.64,1.64,0,0,1-.54.67A2,2,0,0,1,43,70a2.09,2.09,0,0,1-1.62-.42,2.32,2.32,0,0,1-.83-1.6,2.37,2.37,0,0,1,.37-1.77,2.08,2.08,0,0,1,1.46-.83,2,2,0,0,1,1,.08,1.44,1.44,0,0,1,.67.46l-.41-3,.75-.1ZM42.54,66a1.44,1.44,0,0,0-1,.58,1.74,1.74,0,0,0-.26,1.27A1.78,1.78,0,0,0,41.85,69a1.45,1.45,0,0,0,1.13.29,1.42,1.42,0,0,0,1-.54,1.56,1.56,0,0,0,.25-1.18l0-.27a1.53,1.53,0,0,0-.55-1.07A1.42,1.42,0,0,0,42.54,66Z" transform="translate(0 0.06)"/><path class="cls-4" d="M45.74,62.73a.51.51,0,0,1,.3-.24.55.55,0,0,1,.38,0,.53.53,0,0,1,.25.3.46.46,0,0,1-.05.38.49.49,0,0,1-.29.24.48.48,0,0,1-.39,0,.46.46,0,0,1-.24-.29A.53.53,0,0,1,45.74,62.73Zm2.55,6-.72.21-1.29-4.3.72-.22Z" transform="translate(0 0.06)"/><path class="cls-4" d="M50,63.17a1.7,1.7,0,0,1,1.34-.12,1.79,1.79,0,0,1,.95,1l1.18,2.57-.7.32-.22-.48a1.66,1.66,0,0,1-1,1.12,1.54,1.54,0,0,1-1.11.14,1.16,1.16,0,0,1-.76-.68c-.34-.76,0-1.4,1-1.92l1-.54-.09-.19q-.47-1-1.32-.6a.94.94,0,0,0-.54.55.93.93,0,0,0,0,.71l-.71.29a1.49,1.49,0,0,1,0-1.19A1.72,1.72,0,0,1,50,63.17Zm2,1.94-.94.51c-.58.31-.78.67-.6,1.06s.52.47,1,.24a1.26,1.26,0,0,0,.69-.65,1.21,1.21,0,0,0-.08-1Z" transform="translate(0 0.06)"/><path class="cls-4" d="M56.66,63.89a2.35,2.35,0,0,0,.34-.28l.38.57a4.45,4.45,0,0,1-.48.38,1.39,1.39,0,0,1-1,.27,1.35,1.35,0,0,1-.89-.68L53.6,62.08l-.7.47L52.53,62l.7-.47-.85-1.29.63-.43.86,1.3,1-.67.37.55-1,.67,1.29,2C55.84,64.09,56.22,64.19,56.66,63.89Z" transform="translate(0 0.06)"/><path class="cls-4" d="M60.46,58.86l-2.53,2.37a1.43,1.43,0,0,0,1,.45,1.36,1.36,0,0,0,1-.4,1.5,1.5,0,0,0,.45-.72,1.09,1.09,0,0,0-.08-.73l.58-.48a1.67,1.67,0,0,1,.19,1.21,2.35,2.35,0,0,1-2.28,1.83,2.36,2.36,0,0,1-1.62-.82,2.29,2.29,0,0,1-.71-1.66,2.14,2.14,0,0,1,.73-1.55,2,2,0,0,1,1.51-.6,2.31,2.31,0,0,1,1.5.8Zm-2.84,0a1.41,1.41,0,0,0-.48.92,1.35,1.35,0,0,0,.37,1l2-1.85a1.4,1.4,0,0,0-.92-.47A1.2,1.2,0,0,0,57.62,58.85Z" transform="translate(0 0.06)"/><path class="cls-4" d="M60.41,54.72a1.57,1.57,0,0,1,1-.71,1.53,1.53,0,0,1,1.08.17l-.41.64a.78.78,0,0,0-1.13.3,1,1,0,0,0-.24.61.59.59,0,0,0,.26.47l.12.07.12,0h.11a.38.38,0,0,0,.13,0l.12-.07.12-.09.13-.11.15-.13.16-.13a3.44,3.44,0,0,1,1.08-.68.94.94,0,0,1,.89.18,1.24,1.24,0,0,1,.55,1,1.87,1.87,0,0,1-.43,1.21,2,2,0,0,1-1,.78A1.44,1.44,0,0,1,62,58.06l.4-.65c.45.24.86.11,1.22-.39a1.11,1.11,0,0,0,.26-.64.57.57,0,0,0-.25-.5.52.52,0,0,0-.51-.1,3.69,3.69,0,0,0-.76.54,5.11,5.11,0,0,1-.4.33,2.93,2.93,0,0,1-.35.25,1.1,1.1,0,0,1-.38.15,1.17,1.17,0,0,1-.36,0,1.15,1.15,0,0,1-.42-.2A1.16,1.16,0,0,1,60,55.9,1.76,1.76,0,0,1,60.41,54.72Z" transform="translate(0 0.06)"/><path class="cls-4" d="M48.81,27.46a.32.32,0,0,1,.26.51L31,51a.31.31,0,0,1-.25.13h-1.6a.32.32,0,0,1-.25-.51l18-23a.3.3,0,0,1,.25-.13ZM28.87,32.52a5.07,5.07,0,1,1,5.06,5.07A5.07,5.07,0,0,1,28.87,32.52Zm1.9,0a3.17,3.17,0,1,0,3.16-3.16A3.17,3.17,0,0,0,30.77,32.52ZM49.13,46A5.07,5.07,0,1,1,44.06,41,5.07,5.07,0,0,1,49.13,46Zm-1.9,0a3.17,3.17,0,1,0-3.17,3.17A3.17,3.17,0,0,0,47.23,46Z" transform="translate(0 0.06)"/></g></g></svg>