<svg xmlns="http://www.w3.org/2000/svg" xmlns:xlink="http://www.w3.org/1999/xlink" viewBox="0 0 78.06 78.06"><defs><style>.cls-1{fill:none;}.cls-2{clip-path:url(#clip-path);}.cls-3{fill:#f9f7f4;}.cls-4{fill:#1c2128;}</style><clipPath id="clip-path" transform="translate(0 0.06)"><rect class="cls-1" width="78" height="78"/></clipPath></defs><g id="Calque_2" data-name="Calque 2"><g id="Calque_1-2" data-name="Calque 1"><g class="cls-2"><path class="cls-3" d="M39-.06A39,39,0,1,1,0,39,39,39,0,0,1,39-.06Z" transform="translate(0 0.06)"/><path class="cls-4" d="M40.79,27.18h-2.9A12.18,12.18,0,0,1,28,35.33v2.9c5.81-.57,8.77-4.1,9.91-7V51.05h2.9V31.22a11.41,11.41,0,0,0,9.92,7v-2.9A12.28,12.28,0,0,1,40.79,27.18Z" transform="translate(0 0.06)"/></g><rect class="cls-1" x="13.18" y="13.85" width="51.37" height="51.37" transform="translate(-9.69 66.34) rotate(-74.34)"/><path class="cls-4" d="M26.37,19.15l-2.82-1.29-1.41,1,1.6,2.18-.67.48-4-5.43,2.1-1.54a2.12,2.12,0,0,1,1.51-.45,1.93,1.93,0,0,1,1.35.86,2.1,2.1,0,0,1,.44,1.16,1.82,1.82,0,0,1-.33,1.09l2.95,1.35Zm-4.66-.84,1.35-1a1.35,1.35,0,0,0,.57-.82,1.18,1.18,0,0,0-.26-1A1.19,1.19,0,0,0,22.5,15a1.37,1.37,0,0,0-.95.29l-1.36,1Z" transform="translate(0 0.06)"/><path class="cls-4" d="M29.33,11.12l-3.07,1.32.86,2,2.7-1.17.28.66-2.7,1.16.94,2.2L31.41,16l.29.67-3.83,1.65L25.21,12.1,29,10.45Z" transform="translate(0 0.06)"/><path class="cls-4" d="M36.58,9.57,34.12,10l1.06,5.91-.82.15L33.3,10.16l-2.46.44-.13-.72,5.74-1Z" transform="translate(0 0.06)"/><path class="cls-4" d="M39.12,9.67a3.39,3.39,0,0,1,5.61,2.94,3.45,3.45,0,0,1-6,2.08A3.41,3.41,0,0,1,38,12.11,3.36,3.36,0,0,1,39.12,9.67Zm2.44,0a2.47,2.47,0,0,0-1.89.59,2.71,2.71,0,0,0-.86,1.93,2.68,2.68,0,0,0,.58,2,2.44,2.44,0,0,0,1.77.87,2.47,2.47,0,0,0,1.87-.6,2.67,2.67,0,0,0,.87-1.92,2.73,2.73,0,0,0-.57-2A2.45,2.45,0,0,0,41.56,9.65Z" transform="translate(0 0.06)"/><path class="cls-4" d="M52.78,12l-1.55,3.91a2.57,2.57,0,0,1-1.38,1.54,2.8,2.8,0,0,1-2.08-.09A2.75,2.75,0,0,1,46.2,16a2.51,2.51,0,0,1,0-2.06l1.55-3.91.76.3L47,14.25a1.91,1.91,0,0,0-.07,1.49,1.88,1.88,0,0,0,1.1,1,1.84,1.84,0,0,0,1.45,0,1.82,1.82,0,0,0,1-1.12L52,11.72Z" transform="translate(0 0.06)"/><path class="cls-4" d="M54.61,21.33,55,18.26l-1.41-1L52,19.4l-.67-.49,4-5.43L57.4,15a2.15,2.15,0,0,1,.89,1.3,1.91,1.91,0,0,1-.42,1.55,2.12,2.12,0,0,1-1,.77,1.85,1.85,0,0,1-1.14,0l-.4,3.22Zm-.6-4.7,1.35,1a1.41,1.41,0,0,0,1,.29,1.18,1.18,0,0,0,.87-.55,1.16,1.16,0,0,0,.26-1,1.4,1.4,0,0,0-.56-.83l-1.36-1Z" transform="translate(0 0.06)"/><path class="cls-4" d="M24.83,59.94l-2.62-2.07-1.35,1.7,2.31,1.82-.44.56-2.31-1.83L18.93,62l2.62,2.07-.45.58-3.27-2.59L22,56.78l3.27,2.59Z" transform="translate(0 0.06)"/><path class="cls-4" d="M27.87,68.17l-.63-.3-1.06-6.23L24,66.35,23.22,66l2.86-6.1.6.28,1.08,6.31L30,61.73l.74.34Z" transform="translate(0 0.06)"/><path class="cls-4" d="M38.5,70.17l-.81-.08L38,67l-3.5-.34-.3,3.11-.82-.08L34,63l.82.08-.27,2.86,3.49.33.27-2.85.82.08Z" transform="translate(0 0.06)"/><path class="cls-4" d="M47.19,69.16l-.89.15-1-1.58-3.08.5L41.82,70l-.89.14,1.72-7.09.69-.12Zm-4.76-1.69,2.49-.4L43.2,64.28Z" transform="translate(0 0.06)"/><path class="cls-4" d="M51.5,60.16,53.19,64a2.51,2.51,0,0,1,.12,2.06,3.15,3.15,0,0,1-3.59,1.57,2.5,2.5,0,0,1-1.44-1.48l-1.69-3.85.75-.32L49,65.82a1.88,1.88,0,0,0,1,1.1,1.87,1.87,0,0,0,2.4-2.59l-1.69-3.84Z" transform="translate(0 0.06)"/><path class="cls-4" d="M57.12,56.84l-2,1.54,3.68,4.74-.65.5-3.69-4.73-2,1.54-.45-.58,4.6-3.58Z" transform="translate(0 0.06)"/></g></g></svg>