<svg xmlns="http://www.w3.org/2000/svg" xmlns:xlink="http://www.w3.org/1999/xlink" viewBox="0 0 78.06 78.06"><defs><clipPath id="a" transform="translate(0 0.06)"><rect width="78" height="78" style="fill:none"/></clipPath></defs><g style="clip-path:url(#a)"><path d="M39-.06A39,39,0,1,1,0,39,39,39,0,0,1,39-.06Z" transform="translate(0 0.06)" style="fill:#f9f7f4"/></g><path d="M22.31,14.45l-2.58,2.13,1.38,1.67,2.27-1.87.46.55L21.57,18.8l1.52,1.85,2.58-2.13.46.56-3.22,2.66-4.28-5.2,3.22-2.65Z" transform="translate(0 0.06)" style="fill:#1c2128"/><path d="M27.6,15.62l2.53,1.3-.81.44-2-1-.25,2.2-.8.43.27-2.83L24.2,14.9l.81-.43,1.85.94.2-2.05.82-.44Z" transform="translate(0 0.06)" style="fill:#1c2128"/><path d="M30.69,14,32,11.5l.92-.29-1.25,2.48,2.84,1.83-.94.3-2.25-1.43L31,15l.47,1.47-.74.23-2.12-6.66.74-.24Z" transform="translate(0 0.06)" style="fill:#1c2128"/><path d="M35.94,15.37l-.76.13L34,8.6l.76-.13Z" transform="translate(0 0.06)" style="fill:#1c2128"/><path d="M41,15.08h-.74v-.68a1.31,1.31,0,0,1-.48.55,1.77,1.77,0,0,1-2.11-.25,1.86,1.86,0,0,1-.47-1.33l0-2.83h.77L38,13.26a1.29,1.29,0,0,0,.29.89,1,1,0,0,0,.81.32,1,1,0,0,0,.84-.38,1.4,1.4,0,0,0,.3-.91l0-2.68H41Z" transform="translate(0 0.06)" style="fill:#1c2128"/><path d="M44.49,10.87a1.64,1.64,0,0,1,1.08.58,1.54,1.54,0,0,1,.33,1.07l-.77-.09c0-.51-.23-.81-.79-.91a1,1,0,0,0-.66.06.58.58,0,0,0-.31.45.71.71,0,0,0,0,.14.59.59,0,0,0,0,.13l.06.1a.19.19,0,0,0,.09.09.59.59,0,0,0,.11.08l.14.08.16.07.19.08.19.09a3.49,3.49,0,0,1,1.11.68.94.94,0,0,1,.23.89,1.29,1.29,0,0,1-.64,1,2,2,0,0,1-1.32.14A2,2,0,0,1,42.53,15a1.51,1.51,0,0,1-.38-1.11l.78.08c0,.52.28.84.91,1a1.26,1.26,0,0,0,.71-.05.61.61,0,0,0,.34-.46.5.5,0,0,0-.15-.51,3.6,3.6,0,0,0-.83-.46l-.48-.21A2.54,2.54,0,0,1,43,13a1.18,1.18,0,0,1-.3-.28,1.11,1.11,0,0,1-.14-.35,1.06,1.06,0,0,1,0-.47,1.22,1.22,0,0,1,.6-.89A1.93,1.93,0,0,1,44.49,10.87Z" transform="translate(0 0.06)" style="fill:#1c2128"/><path d="M47.19,16.36l-.74-.24,1.4-4.37.74.23ZM48.5,9.84a.45.45,0,0,1,.39,0,.49.49,0,0,1,.3.25.5.5,0,0,1-.22.68.53.53,0,0,1-.39,0,.47.47,0,0,1-.3-.25.46.46,0,0,1,0-.38A.49.49,0,0,1,48.5,9.84Z" transform="translate(0 0.06)" style="fill:#1c2128"/><path d="M50.21,17.61l-.56-.27.2-5,.77.37-.18,3.72L53.2,14l.78.38Z" transform="translate(0 0.06)" style="fill:#1c2128"/><path d="M56.79,19.57,54,17.45a1.37,1.37,0,0,0,.3,2,1.56,1.56,0,0,0,.8.33,1,1,0,0,0,.72-.21l.6.5a1.78,1.78,0,0,1-1.19.41A2.28,2.28,0,0,1,53.87,20a2.22,2.22,0,0,1-.93-1.5,2.36,2.36,0,0,1,.54-1.77,2.38,2.38,0,0,1,1.55-1,2.21,2.21,0,0,1,1.68.47,2,2,0,0,1,.87,1.42,2.28,2.28,0,0,1-.53,1.64Zm-.49-2.86a1.33,1.33,0,0,0-2,.23l2.21,1.66a1.47,1.47,0,0,0,.31-1A1.24,1.24,0,0,0,56.3,16.71Z" transform="translate(0 0.06)" style="fill:#1c2128"/><path d="M14.51,44.64l.85,2.43a3.1,3.1,0,0,1-.07,2.45,3.26,3.26,0,0,1-2,1.63,3.21,3.21,0,0,1-2.57,0,3.12,3.12,0,0,1-1.6-1.87l-.85-2.41Zm-.39,1L9.21,47.36,9.79,49A2.28,2.28,0,0,0,11,50.42a2.69,2.69,0,0,0,2,0,2.68,2.68,0,0,0,1.6-1.25,2.28,2.28,0,0,0,.08-1.85Z" transform="translate(0 0.06)" style="fill:#1c2128"/><path d="M11.77,54.9l-.38-.65L15.28,52l.38.66ZM17,51a.53.53,0,0,1,.3.23.51.51,0,0,1,.05.38.5.5,0,0,1-.91.12.46.46,0,0,1-.05-.38.48.48,0,0,1,.22-.3A.49.49,0,0,1,17,51Z" transform="translate(0 0.06)" style="fill:#1c2128"/><path d="M17,58.84l-2.16-2.72a1.47,1.47,0,0,0-.53,1,1.36,1.36,0,0,0,.32,1,1.46,1.46,0,0,0,.68.51,1,1,0,0,0,.74,0l.43.62a1.7,1.7,0,0,1-1.22.1,2.37,2.37,0,0,1-1.64-2.43,2.33,2.33,0,0,1,.95-1.55,2.34,2.34,0,0,1,1.71-.57,2.12,2.12,0,0,1,1.48.86,2,2,0,0,1,.48,1.55,2.29,2.29,0,0,1-.92,1.43ZM17.27,56a1.39,1.39,0,0,0-.88-.55,1.36,1.36,0,0,0-1,.29L17,57.86a1.42,1.42,0,0,0,.54-.88A1.24,1.24,0,0,0,17.27,56Z" transform="translate(0 0.06)" style="fill:#1c2128"/><path d="M21.75,59.6a1.67,1.67,0,0,1,.65,1.19,1.9,1.9,0,0,1-.48,1.34l-1.75,2.1-.59-.49,1.69-2a1.31,1.31,0,0,0,.33-.88,1.1,1.1,0,0,0-.42-.79,1.13,1.13,0,0,0-.9-.28,1.25,1.25,0,0,0-.82.46l-1.68,2-.58-.48,2.87-3.46.55.46-.42.52a1.35,1.35,0,0,1,.75-.07A1.58,1.58,0,0,1,21.75,59.6Z" transform="translate(0 0.06)" style="fill:#1c2128"/><path d="M25.77,62.32a1.62,1.62,0,0,1,.83.87,1.5,1.5,0,0,1,0,1.1L25.88,64a.79.79,0,0,0-.45-1.09,1,1,0,0,0-.63-.16.61.61,0,0,0-.43.32,1.12,1.12,0,0,0-.05.13.25.25,0,0,0,0,.12c0,.05,0,.08,0,.12a.17.17,0,0,0,.06.11l.08.11a.47.47,0,0,0,.1.11l.13.12.15.13a.88.88,0,0,0,.15.14,3.36,3.36,0,0,1,.81,1,.93.93,0,0,1-.06.91,1.26,1.26,0,0,1-.89.68,2.29,2.29,0,0,1-2.17-1.18,1.48,1.48,0,0,1,0-1.15l.69.32c-.18.48,0,.86.55,1.16a1.15,1.15,0,0,0,.68.17.56.56,0,0,0,.46-.32.49.49,0,0,0,0-.51,3.61,3.61,0,0,0-.63-.69l-.38-.35a2.23,2.23,0,0,1-.29-.31,1.1,1.1,0,0,1-.2-.36,1.34,1.34,0,0,1,0-.36,1.32,1.32,0,0,1,.14-.44,1.2,1.2,0,0,1,.85-.63A1.83,1.83,0,0,1,25.77,62.32Z" transform="translate(0 0.06)" style="fill:#1c2128"/><path d="M28.9,68a3.74,3.74,0,0,0,.43.11l-.24.63a2.94,2.94,0,0,1-.58-.16,1.39,1.39,0,0,1-.84-.67,1.35,1.35,0,0,1,0-1.13l.86-2.33-.78-.28.22-.62.79.28.54-1.45.72.26-.54,1.46,1.13.41-.22.62-1.14-.41-.82,2.18A.75.75,0,0,0,28.9,68Z" transform="translate(0 0.06)" style="fill:#1c2128"/><path d="M31.37,69.31l-.74-.18,1.65-6.64.74.18Z" transform="translate(0 0.06)" style="fill:#1c2128"/><path d="M37.82,68.25l-3.45-.33a1.46,1.46,0,0,0,.32,1,1.39,1.39,0,0,0,1,.46,1.45,1.45,0,0,0,.83-.13,1,1,0,0,0,.5-.55l.75.12a1.69,1.69,0,0,1-.78.95,2.17,2.17,0,0,1-1.35.27,2.2,2.2,0,0,1-1.54-.78,2.34,2.34,0,0,1-.45-1.76,2.31,2.31,0,0,1,.78-1.63A2.14,2.14,0,0,1,36,65.45a2,2,0,0,1,1.44.74,2.23,2.23,0,0,1,.39,1.65ZM36,66.11a1.38,1.38,0,0,0-1,.25,1.33,1.33,0,0,0-.51.94l2.7.26a1.44,1.44,0,0,0-.26-1A1.24,1.24,0,0,0,36,66.11Z" transform="translate(0 0.06)" style="fill:#1c2128"/><path d="M39.44,63.65a.48.48,0,0,1,.34-.16.5.5,0,0,1,.36.13.49.49,0,0,1,0,.7.5.5,0,0,1-.35.16A.5.5,0,0,1,39.3,64,.5.5,0,0,1,39.44,63.65Zm1.05,6.43-.76,0-.23-4.49.76,0Z" transform="translate(0 0.06)" style="fill:#1c2128"/><path d="M43.31,65.14a1.66,1.66,0,0,1,1.19.15,1.55,1.55,0,0,1,.68.88l-.74.18a.79.79,0,0,0-1-.56.89.89,0,0,0-.59.28.65.65,0,0,0-.09.65.36.36,0,0,0,.07.1l.08.08A.33.33,0,0,0,43,67l.13,0,.15,0h.58a3.63,3.63,0,0,1,1.25.24,1,1,0,0,1,.52.75,1.26,1.26,0,0,1-.26,1.09,2,2,0,0,1-1.16.59,2,2,0,0,1-1.27-.13,1.49,1.49,0,0,1-.73-.89l.74-.19c.16.48.55.67,1.16.55a1.19,1.19,0,0,0,.63-.29.57.57,0,0,0,.15-.54.48.48,0,0,0-.3-.41,3,3,0,0,0-.92-.13l-.52,0a2.74,2.74,0,0,1-.43-.06,1.18,1.18,0,0,1-.37-.15,1.31,1.31,0,0,1-.25-.27,1.28,1.28,0,0,1-.16-.43,1.19,1.19,0,0,1,.25-1A1.85,1.85,0,0,1,43.31,65.14Z" transform="translate(0 0.06)" style="fill:#1c2128"/><path d="M49.31,67.56a2.73,2.73,0,0,0,.4-.19l.22.64a2.81,2.81,0,0,1-.56.25,1.41,1.41,0,0,1-1.07,0,1.34,1.34,0,0,1-.69-.88L46.81,65,46,65.3l-.22-.62.79-.28-.49-1.47.72-.25.5,1.47,1.14-.39.21.63-1.14.39L48.27,67C48.46,67.54,48.81,67.73,49.31,67.56Z" transform="translate(0 0.06)" style="fill:#1c2128"/><path d="M54.92,65.53l-.64.34L54,65.28a1.23,1.23,0,0,1-.17.7,1.54,1.54,0,0,1-.65.61,1.52,1.52,0,0,1-1.29.13,1.87,1.87,0,0,1-1-.94l-1.32-2.44.67-.36,1.26,2.35a1.33,1.33,0,0,0,.67.64,1,1,0,0,0,.83-.09,1,1,0,0,0,.56-.71,1.29,1.29,0,0,0-.15-.93l-1.25-2.3.67-.36Z" transform="translate(0 0.06)" style="fill:#1c2128"/><path d="M55.84,59.12a1.7,1.7,0,0,1,1.28-.43,1.82,1.82,0,0,1,1.24.7l1.77,2.08-.58.5-1.71-2a1.23,1.23,0,0,0-.82-.47,1,1,0,0,0-.84.27,1.16,1.16,0,0,0-.43.84,1.23,1.23,0,0,0,.31.89l1.7,2-.57.49-2.91-3.42.54-.47.44.51a1.44,1.44,0,0,1,.06-.76A1.66,1.66,0,0,1,55.84,59.12Z" transform="translate(0 0.06)" style="fill:#1c2128"/><path d="M59.52,55.24a1.93,1.93,0,0,1,.77-.64,1.49,1.49,0,0,1,.84-.13L60.55,54l.43-.57,3.78,2.87a2,2,0,0,1,.85,1.39,2.19,2.19,0,0,1-.5,1.58,2.37,2.37,0,0,1-1.25.91,1.85,1.85,0,0,1-1.34-.15l.44-.61a1,1,0,0,0,.84.06,1.61,1.61,0,0,0,.78-.58,1.42,1.42,0,0,0,.33-1,1.28,1.28,0,0,0-.57-.92l-.78-.59a1.36,1.36,0,0,1,.07.81,2,2,0,0,1-.4.88,2,2,0,0,1-1.45.85,2.66,2.66,0,0,1-2.7-2A2.07,2.07,0,0,1,59.52,55.24Zm.59.32a1.43,1.43,0,0,0-.31,1.13,1.75,1.75,0,0,0,.73,1.08,1.7,1.7,0,0,0,1.23.4,1.54,1.54,0,0,0,1.32-1.66,1.53,1.53,0,0,0-.66-1l-.21-.16A1.54,1.54,0,0,0,61.06,55,1.39,1.39,0,0,0,60.11,55.56Z" transform="translate(0 0.06)" style="fill:#1c2128"/><path d="M65.84,49.39l-1.46,3.15a1.43,1.43,0,0,0,1.09,0,1.33,1.33,0,0,0,.75-.74,1.5,1.5,0,0,0,.16-.83,1.13,1.13,0,0,0-.35-.65l.36-.67A1.73,1.73,0,0,1,67,50.75a2.37,2.37,0,0,1-1.44,2.55,2.66,2.66,0,0,1-3.09-1.43,2.14,2.14,0,0,1,.11-1.71A1.94,1.94,0,0,1,63.78,49a2.3,2.3,0,0,1,1.68.18Zm-2.65,1a1.31,1.31,0,0,0,.63,1.84L65,49.82a1.45,1.45,0,0,0-1-.09A1.25,1.25,0,0,0,63.19,50.44Z" transform="translate(0 0.06)" style="fill:#1c2128"/><path d="M64.4,44.79a1.68,1.68,0,0,1,.77-1.11,1.88,1.88,0,0,1,1.42-.18l2.66.61-.17.75-2.57-.59a1.24,1.24,0,0,0-.94.11,1.06,1.06,0,0,0-.52.72,1.15,1.15,0,0,0,.16.93,1.26,1.26,0,0,0,.78.53l2.56.58-.17.74-4.38-1,.17-.7.65.14a1.28,1.28,0,0,1-.4-.64A1.66,1.66,0,0,1,64.4,44.79Z" transform="translate(0 0.06)" style="fill:#1c2128"/><path d="M48.82,26.72l5.44,8.82a.66.66,0,0,1-.06.76l-15,17.64a.66.66,0,0,1-1,0l-15-17.64a.63.63,0,0,1-.07-.76l5.44-8.82a.65.65,0,0,1,.56-.32h19A.65.65,0,0,1,48.82,26.72Zm-22.9,8.36h4.5l3.08-6.73H29.94Zm8.91,12.15L30.4,36.81h-4Zm3.91,3.89L45,36.81H32.51ZM35.65,28.35l-3.09,6.73H44.91l-3.08-6.73ZM51,36.81h-4L42.64,47.23ZM44,28.35l3.09,6.73h4.5l-4-6.73Z" transform="translate(0 0.06)" style="fill:#1c2128"/></svg>