<svg xmlns="http://www.w3.org/2000/svg" xmlns:xlink="http://www.w3.org/1999/xlink" viewBox="0 0 78.06 78.06"><defs><clipPath id="a" transform="translate(0 0.06)"><rect width="78" height="78" style="fill:none"/></clipPath></defs><g style="clip-path:url(#a)"><path d="M39-.06A39,39,0,1,1,0,39,39,39,0,0,1,39-.06Z" transform="translate(0 0.06)" style="fill:#f9f7f4"/></g><path d="M22.21,14.52l-2.57,2.14L21,18.33l2.26-1.89.46.55-2.26,1.88L23,20.71l2.56-2.13.47.56-3.2,2.66-4.31-5.17L21.75,14Z" transform="translate(0 0.06)" style="fill:#1c2128"/><path d="M27.49,15.67,30,17l-.81.45-2-1L27,18.6l-.8.44.25-2.83L24.09,15l.8-.44,1.86.94.19-2.05.82-.44Z" transform="translate(0 0.06)" style="fill:#1c2128"/><path d="M30.94,11.75a2.18,2.18,0,0,1,1.47,0,1.9,1.9,0,0,1,1,1l-.7.29a1.23,1.23,0,0,0-.65-.64,1.32,1.32,0,0,0-.94,0,1.36,1.36,0,0,0-.87.75,1.87,1.87,0,0,0,0,1.32A1.78,1.78,0,0,0,31,15.53a1.32,1.32,0,0,0,1.15.11,1.37,1.37,0,0,0,.75-.53,1.16,1.16,0,0,0,.18-.86l.74-.16a1.84,1.84,0,0,1-.28,1.35,2.37,2.37,0,0,1-2.93.73,2.36,2.36,0,0,1-1.14-1.47,2.39,2.39,0,0,1,.07-1.85A2.23,2.23,0,0,1,30.94,11.75Z" transform="translate(0 0.06)" style="fill:#1c2128"/><path d="M36.05,15.36l-.76.12-1.13-6.9.77-.13Z" transform="translate(0 0.06)" style="fill:#1c2128"/><path d="M41.14,15.09H40.4v-.68a1.27,1.27,0,0,1-.49.55,1.65,1.65,0,0,1-.87.24,1.58,1.58,0,0,1-1.23-.5,1.91,1.91,0,0,1-.47-1.33l0-2.83h.77l0,2.73a1.38,1.38,0,0,0,.3.89,1,1,0,0,0,.8.32,1.08,1.08,0,0,0,.84-.38,1.29,1.29,0,0,0,.3-.9l0-2.69h.78Z" transform="translate(0 0.06)" style="fill:#1c2128"/><path d="M44.61,10.9a1.67,1.67,0,0,1,1.09.57A1.57,1.57,0,0,1,46,12.55l-.77-.09a.8.8,0,0,0-.78-.91,1,1,0,0,0-.67,0,.6.6,0,0,0-.31.45.71.71,0,0,0,0,.14.27.27,0,0,0,0,.12s0,.08,0,.11a.3.3,0,0,0,.1.09.59.59,0,0,0,.11.08l.14.08.16.07.18.08.2.09a3.61,3.61,0,0,1,1.1.68,1,1,0,0,1,.23.9,1.26,1.26,0,0,1-.65.95,1.93,1.93,0,0,1-1.31.14A2,2,0,0,1,42.64,15a1.5,1.5,0,0,1-.37-1.12L43,14c0,.52.28.84.9.95a1.24,1.24,0,0,0,.71-.05.6.6,0,0,0,.35-.46.52.52,0,0,0-.14-.51,4.53,4.53,0,0,0-.84-.46l-.48-.21a3.26,3.26,0,0,1-.38-.22.91.91,0,0,1-.3-.28,1,1,0,0,1-.14-.35A1.31,1.31,0,0,1,43.33,11,1.84,1.84,0,0,1,44.61,10.9Z" transform="translate(0 0.06)" style="fill:#1c2128"/><path d="M47.29,16.39l-.73-.24L48,11.79l.74.23Zm1.34-6.51a.45.45,0,0,1,.39,0,.49.49,0,0,1,.3.25.52.52,0,0,1,0,.39.47.47,0,0,1-.26.29.42.42,0,0,1-.38,0,.47.47,0,0,1-.3-.25.47.47,0,0,1,0-.38A.49.49,0,0,1,48.63,9.88Z" transform="translate(0 0.06)" style="fill:#1c2128"/><path d="M50.3,17.66l-.55-.27.22-5,.77.38-.2,3.71L53.32,14l.78.38Z" transform="translate(0 0.06)" style="fill:#1c2128"/><path d="M56.89,19.66l-2.83-2.15a1.47,1.47,0,0,0-.28,1.09,1.41,1.41,0,0,0,.58.91,1.5,1.5,0,0,0,.79.33,1,1,0,0,0,.72-.21l.59.51a1.74,1.74,0,0,1-1.18.4A2.28,2.28,0,0,1,54,20.06a2.25,2.25,0,0,1-.92-1.5,2.36,2.36,0,0,1,.55-1.78,2.33,2.33,0,0,1,1.55-1,2.17,2.17,0,0,1,1.68.47,2,2,0,0,1,.86,1.42,2.37,2.37,0,0,1-.54,1.65Zm-.48-2.88a1.49,1.49,0,0,0-1-.32,1.41,1.41,0,0,0-1,.55l2.21,1.68a1.5,1.5,0,0,0,.31-1A1.26,1.26,0,0,0,56.41,16.78Z" transform="translate(0 0.06)" style="fill:#1c2128"/><path d="M24.61,61.64a1.65,1.65,0,0,1,.78.91,1.51,1.51,0,0,1-.09,1.1l-.67-.36a.79.79,0,0,0-.39-1.11,1,1,0,0,0-.63-.19.64.64,0,0,0-.44.3.49.49,0,0,0-.06.13.5.5,0,0,0,0,.12s0,.08,0,.11a.21.21,0,0,0,0,.12l.08.12.1.11.11.12.15.15.14.14a3.4,3.4,0,0,1,.76,1,1,1,0,0,1-.1.9,1.24,1.24,0,0,1-.93.64,2.29,2.29,0,0,1-2.11-1.29,1.45,1.45,0,0,1,.06-1.15l.67.35c-.21.47,0,.87.49,1.19a1.16,1.16,0,0,0,.66.21.56.56,0,0,0,.48-.3.5.5,0,0,0,.05-.51,3.44,3.44,0,0,0-.6-.71l-.36-.37a2.69,2.69,0,0,1-.27-.34.87.87,0,0,1-.18-.36,1.14,1.14,0,0,1,0-.37.93.93,0,0,1,.17-.42,1.14,1.14,0,0,1,.87-.59A1.76,1.76,0,0,1,24.61,61.64Z" transform="translate(0 0.06)" style="fill:#1c2128"/><path d="M30.24,67.07,27,65.85a1.45,1.45,0,0,0,0,1.09,1.37,1.37,0,0,0,.79.7,1.61,1.61,0,0,0,.85.09,1.07,1.07,0,0,0,.62-.4l.69.31a1.71,1.71,0,0,1-1,.71,2.37,2.37,0,0,1-2.65-1.24,2.63,2.63,0,0,1,1.19-3.19,2.11,2.11,0,0,1,1.71,0A2,2,0,0,1,30.44,65a2.31,2.31,0,0,1-.05,1.69ZM29,64.51a1.31,1.31,0,0,0-1.78.76l2.54,1a1.49,1.49,0,0,0,0-1A1.23,1.23,0,0,0,29,64.51Z" transform="translate(0 0.06)" style="fill:#1c2128"/><path d="M34.57,65.33l-.14.72a1.3,1.3,0,0,0-1,.16,1.18,1.18,0,0,0-.52.79l-.51,2.53-.74-.15.88-4.4.73.14-.14.67a1.28,1.28,0,0,1,.56-.42A1.7,1.7,0,0,1,34.57,65.33Z" transform="translate(0 0.06)" style="fill:#1c2128"/><path d="M37.4,70.12l-.61,0-1.74-4.58.84,0L37.15,69l1.54-3.28.85,0Z" transform="translate(0 0.06)" style="fill:#1c2128"/><path d="M40.43,63.6a.46.46,0,0,1,.34-.18.47.47,0,0,1,.36.11.46.46,0,0,1,.18.34.43.43,0,0,1-.11.36.48.48,0,0,1-.34.18.5.5,0,0,1-.37-.11.54.54,0,0,1-.18-.34A.47.47,0,0,1,40.43,63.6ZM41.74,70,41,70l-.41-4.47.75-.07Z" transform="translate(0 0.06)" style="fill:#1c2128"/><path d="M44.85,64.8a2.16,2.16,0,0,1,1.43.12,1.83,1.83,0,0,1,.93,1l-.71.23a1.18,1.18,0,0,0-.59-.68,1.2,1.2,0,0,0-.9-.08,1.3,1.3,0,0,0-.91.67A1.79,1.79,0,0,0,44,67.4a1.76,1.76,0,0,0,.68,1.1,1.46,1.46,0,0,0,1.89-.28,1.2,1.2,0,0,0,.23-.82l.73-.11a1.8,1.8,0,0,1-.37,1.31,2.1,2.1,0,0,1-1.22.73,2.18,2.18,0,0,1-1.69-.23,2.67,2.67,0,0,1-.8-3.32A2.13,2.13,0,0,1,44.85,64.8Z" transform="translate(0 0.06)" style="fill:#1c2128"/><path d="M52.86,64.5,49.72,66a1.5,1.5,0,0,0,.82.74,1.39,1.39,0,0,0,1.05-.09,1.48,1.48,0,0,0,.65-.54,1.07,1.07,0,0,0,.15-.72l.7-.29a1.7,1.7,0,0,1-.19,1.22,2.17,2.17,0,0,1-1,.92,2.19,2.19,0,0,1-1.73.12,2.37,2.37,0,0,1-1.29-1.28,2.31,2.31,0,0,1-.16-1.8A2.11,2.11,0,0,1,49.88,63a2,2,0,0,1,1.63-.1,2.29,2.29,0,0,1,1.18,1.21Zm-2.7-.89a1.41,1.41,0,0,0-.74.74,1.34,1.34,0,0,0,0,1.07l2.46-1.15a1.48,1.48,0,0,0-.74-.74A1.28,1.28,0,0,0,50.16,63.61Z" transform="translate(0 0.06)" style="fill:#1c2128"/><path d="M54.06,60.54a1.67,1.67,0,0,1,1.14-.38,1.58,1.58,0,0,1,1,.5l-.59.48a.78.78,0,0,0-1.17,0,.92.92,0,0,0-.42.5.58.58,0,0,0,.11.52.53.53,0,0,0,.09.11.24.24,0,0,0,.11.06l.11,0h.13l.13,0,.15,0,.15-.06.19-.08.19-.08a3.42,3.42,0,0,1,1.23-.31.91.91,0,0,1,.79.44,1.25,1.25,0,0,1,.24,1.1,2.28,2.28,0,0,1-2,1.46,1.44,1.44,0,0,1-1-.49l.58-.49c.35.37.78.37,1.28,0a1.07,1.07,0,0,0,.44-.53.57.57,0,0,0-.09-.56.51.51,0,0,0-.45-.24,3.56,3.56,0,0,0-.89.28l-.48.19a2.49,2.49,0,0,1-.41.13.8.8,0,0,1-.4,0,.85.85,0,0,1-.34-.13,1.13,1.13,0,0,1-.34-.32,1.2,1.2,0,0,1-.21-1A1.87,1.87,0,0,1,54.06,60.54Z" transform="translate(0 0.06)" style="fill:#1c2128"/><path d="M48.82,26.72l5.44,8.82a.66.66,0,0,1-.06.76l-15,17.64a.66.66,0,0,1-1,0l-15-17.64a.63.63,0,0,1-.07-.76l5.44-8.82a.65.65,0,0,1,.56-.32h19A.65.65,0,0,1,48.82,26.72Zm-22.9,8.36h4.5l3.08-6.73H29.94Zm8.91,12.15L30.4,36.81h-4Zm3.91,3.89L45,36.81H32.51ZM35.65,28.35l-3.09,6.73H44.91l-3.08-6.73ZM51,36.81h-4L42.64,47.23ZM44,28.35l3.09,6.73h4.5l-4-6.73Z" transform="translate(0 0.06)" style="fill:#1c2128"/></svg>