<svg xmlns="http://www.w3.org/2000/svg" xmlns:xlink="http://www.w3.org/1999/xlink" viewBox="0 0 78.06 78.06"><defs><clipPath id="a" transform="translate(0 0.06)"><rect width="78" height="78" style="fill:none"/></clipPath></defs><g style="clip-path:url(#a)"><path d="M39-.06A39,39,0,1,1,0,39,39,39,0,0,1,39-.06Z" transform="translate(0 0.06)" style="fill:#f9f7f4"/></g><path d="M19.25,16.43l-2.34,2.38,1.55,1.52,2.06-2.1.51.5L19,20.83l1.71,1.68L23,20.12l.52.51-2.92,3-4.81-4.72,2.92-3Z" transform="translate(0 0.06)" style="fill:#1c2128"/><path d="M24.65,17l2.65,1-.76.52-2.05-.79,0,2.21-.75.51,0-2.84-2.5-1,.76-.52,1.94.75,0-2.06.76-.53Z" transform="translate(0 0.06)" style="fill:#1c2128"/><path d="M27.68,12.76a2.13,2.13,0,0,1,1.46-.13,1.85,1.85,0,0,1,1.11.88l-.66.36a1.22,1.22,0,0,0-.72-.57,1.31,1.31,0,0,0-.93.07,1.39,1.39,0,0,0-.79.84,1.89,1.89,0,0,0,.13,1.32,1.79,1.79,0,0,0,.88,1,1.36,1.36,0,0,0,1.15,0,1.38,1.38,0,0,0,.7-.61A1.21,1.21,0,0,0,30.1,15l.72-.23a1.87,1.87,0,0,1-.14,1.38,2.28,2.28,0,0,1-1.1,1,2.2,2.2,0,0,1-1.74.06,2.34,2.34,0,0,1-1.28-1.35A2.31,2.31,0,0,1,26.44,14,2.19,2.19,0,0,1,27.68,12.76Z" transform="translate(0 0.06)" style="fill:#1c2128"/><path d="M33.12,15.83l-.75.2L30.55,9.28l.75-.2Z" transform="translate(0 0.06)" style="fill:#1c2128"/><path d="M38.15,15.05l-.74.08-.07-.68a1.35,1.35,0,0,1-.43.6,1.58,1.58,0,0,1-.85.32A1.55,1.55,0,0,1,34.79,15a1.94,1.94,0,0,1-.6-1.28l-.32-2.82.76-.09.31,2.71a1.3,1.3,0,0,0,.38.86,1,1,0,0,0,.83.24,1.05,1.05,0,0,0,.8-.46,1.35,1.35,0,0,0,.21-.93l-.3-2.67.77-.08Z" transform="translate(0 0.06)" style="fill:#1c2128"/><path d="M41.18,10.53a1.66,1.66,0,0,1,1.14.46,1.58,1.58,0,0,1,.43,1H42c0-.52-.31-.79-.87-.83a1,1,0,0,0-.66.12.61.61,0,0,0-.26.47.38.38,0,0,0,0,.15.56.56,0,0,0,0,.12l.06.1a.29.29,0,0,0,.1.08l.12.07.15.06.16.05.2.07.2.07a3.53,3.53,0,0,1,1.17.57,1,1,0,0,1,.32.87,1.29,1.29,0,0,1-.55,1,2,2,0,0,1-1.3.27,2.07,2.07,0,0,1-1.22-.46,1.51,1.51,0,0,1-.48-1.07h.78c0,.52.36.81,1,.86a1.24,1.24,0,0,0,.7-.12.6.6,0,0,0,.3-.49.53.53,0,0,0-.19-.5,4.36,4.36,0,0,0-.88-.37l-.5-.17a1.83,1.83,0,0,1-.4-.17,1,1,0,0,1-.33-.25,1.15,1.15,0,0,1-.22-.8,1.19,1.19,0,0,1,.52-.94A1.83,1.83,0,0,1,41.18,10.53Z" transform="translate(0 0.06)" style="fill:#1c2128"/><path d="M44.43,15.73l-.76-.17,1-4.48.76.16Zm.67-6.62A.49.49,0,0,1,45.49,9a.51.51,0,0,1,.32.22.49.49,0,0,1,.07.39.47.47,0,0,1-.23.32.5.5,0,0,1-.38.06.51.51,0,0,1-.39-.6A.49.49,0,0,1,45.1,9.11Z" transform="translate(0 0.06)" style="fill:#1c2128"/><path d="M50.22,15.56l-3.31-1.25a1.48,1.48,0,0,0,0,1.12,1.38,1.38,0,0,0,.8.71,1.47,1.47,0,0,0,.86.09,1.07,1.07,0,0,0,.64-.4l.7.31a1.75,1.75,0,0,1-1,.73,2.44,2.44,0,0,1-2.71-1.28,2.38,2.38,0,0,1,0-1.85,2.36,2.36,0,0,1,1.2-1.4,2.17,2.17,0,0,1,1.75,0,2,2,0,0,1,1.23,1.12,2.32,2.32,0,0,1-.06,1.73ZM49,12.94a1.34,1.34,0,0,0-1.82.78l2.59,1a1.49,1.49,0,0,0,0-1.06A1.32,1.32,0,0,0,49,12.94Z" transform="translate(0 0.06)" style="fill:#1c2128"/><path d="M51.86,18.86l-.53-.33.73-5,.73.45-.57,3.68,3-2.16L56,16Z" transform="translate(0 0.06)" style="fill:#1c2128"/><path d="M58.2,21.5l-2.6-2.41a1.47,1.47,0,0,0-.39,1.05,1.39,1.39,0,0,0,.48,1,1.47,1.47,0,0,0,.76.41,1,1,0,0,0,.74-.13l.54.56a1.73,1.73,0,0,1-1.22.28,2.14,2.14,0,0,1-1.26-.61A2.2,2.2,0,0,1,54.48,20a2.7,2.7,0,0,1,2.37-2.55,2.17,2.17,0,0,1,1.62.64,2,2,0,0,1,.72,1.5,2.35,2.35,0,0,1-.71,1.58ZM58,18.6a1.42,1.42,0,0,0-1-.42,1.35,1.35,0,0,0-1,.45l2,1.88a1.46,1.46,0,0,0,.41-1A1.27,1.27,0,0,0,58,18.6Z" transform="translate(0 0.06)" style="fill:#1c2128"/><path d="M22.73,65.63l-.59-.42.43-.59a1.5,1.5,0,0,1-.85.12,2,2,0,0,1-.93-.38,2.06,2.06,0,0,1-.9-1.41,2.65,2.65,0,0,1,2-2.77,2.08,2.08,0,0,1,1.64.38,2.12,2.12,0,0,1,.65.73,1.35,1.35,0,0,1,.17.79l1.76-2.47.62.44Zm.46-4.47a1.44,1.44,0,0,0-1.14-.26,1.64,1.64,0,0,0-1.05.75,1.74,1.74,0,0,0-.37,1.25,1.46,1.46,0,0,0,.63,1,1.41,1.41,0,0,0,1.08.27,1.51,1.51,0,0,0,1-.7l.15-.21a1.49,1.49,0,0,0,.33-1.16A1.41,1.41,0,0,0,23.19,61.16Z" transform="translate(0 0.06)" style="fill:#1c2128"/><path d="M25.59,67.1l-.68-.33,2-4,.68.34ZM27.8,61a.5.5,0,0,1,.38,0,.49.49,0,0,1,.25.28.48.48,0,0,1,0,.39.51.51,0,0,1-.29.25.5.5,0,0,1-.38,0,.5.5,0,0,1-.26-.29.48.48,0,0,1,0-.37A.47.47,0,0,1,27.8,61Z" transform="translate(0 0.06)" style="fill:#1c2128"/><path d="M32.12,67.44l-3.31-1.06a1.46,1.46,0,0,0,.09,1.1,1.38,1.38,0,0,0,.83.65,1.48,1.48,0,0,0,.85.05,1,1,0,0,0,.6-.43l.7.27a1.64,1.64,0,0,1-1,.76,2.08,2.08,0,0,1-1.37,0,2.12,2.12,0,0,1-1.34-1.09,2.66,2.66,0,0,1,1-3.24A2.15,2.15,0,0,1,31,64.32a2,2,0,0,1,1.26,1,2.25,2.25,0,0,1,0,1.7ZM30.74,65a1.43,1.43,0,0,0-1,0,1.36,1.36,0,0,0-.7.81l2.58.83a1.39,1.39,0,0,0,0-1A1.18,1.18,0,0,0,30.74,65Z" transform="translate(0 0.06)" style="fill:#1c2128"/><path d="M36.5,65.45a1.66,1.66,0,0,1,1.19.63A1.81,1.81,0,0,1,38,67.46l-.28,2.72L37,70.1l.27-2.62a1.26,1.26,0,0,0-.22-.92,1.08,1.08,0,0,0-.78-.43,1.13,1.13,0,0,0-.9.28,1.19,1.19,0,0,0-.43.84l-.27,2.61-.75-.08.46-4.47.71.08-.06.66a1.39,1.39,0,0,1,.58-.48A1.82,1.82,0,0,1,36.5,65.45Z" transform="translate(0 0.06)" style="fill:#1c2128"/><path d="M41.32,65.48a1.67,1.67,0,0,1,1.18.26,1.51,1.51,0,0,1,.58.93l-.75.11a.78.78,0,0,0-1-.65,1,1,0,0,0-.61.22.57.57,0,0,0-.18.5.49.49,0,0,0,0,.14.24.24,0,0,0,.06.11l.07.09.11.06.13,0,.15,0,.17,0,.2,0,.2,0a3.48,3.48,0,0,1,1.22.36.94.94,0,0,1,.45.79A1.21,1.21,0,0,1,43,69.63a1.94,1.94,0,0,1-1.2.48,2,2,0,0,1-1.25-.25,1.44,1.44,0,0,1-.64-1l.75-.12c.11.5.48.72,1.1.67a1.17,1.17,0,0,0,.65-.24.56.56,0,0,0,.21-.52.52.52,0,0,0-.26-.44,3.58,3.58,0,0,0-.91-.22L40.92,68a2.09,2.09,0,0,1-.42-.1.87.87,0,0,1-.36-.19,1.16,1.16,0,0,1-.22-.29,1.27,1.27,0,0,1,.23-1.43A1.79,1.79,0,0,1,41.32,65.48Z" transform="translate(0 0.06)" style="fill:#1c2128"/><path d="M47.07,68.44a1.87,1.87,0,0,0,.42-.14l.16.66a3.58,3.58,0,0,1-.58.19,1.43,1.43,0,0,1-1.07-.1,1.31,1.31,0,0,1-.6-.94l-.58-2.42-.81.2-.16-.65.82-.19-.36-1.51.75-.18.35,1.51,1.17-.29.16.65-1.17.28.53,2.27C46.24,68.35,46.56,68.57,47.07,68.44Z" transform="translate(0 0.06)" style="fill:#1c2128"/><path d="M52.38,65l-3.19,1.36a1.45,1.45,0,0,0,.79.77A1.33,1.33,0,0,0,51,67.1a1.48,1.48,0,0,0,.67-.51,1.08,1.08,0,0,0,.17-.72l.72-.25a1.78,1.78,0,0,1-.23,1.2,2.21,2.21,0,0,1-1.06.88,2.15,2.15,0,0,1-1.72.06,2.66,2.66,0,0,1-1.34-3.14,2.15,2.15,0,0,1,1.22-1.2,2,2,0,0,1,1.63,0,2.32,2.32,0,0,1,1.13,1.26Zm-2.67-1A1.32,1.32,0,0,0,49,65.82l2.5-1.07a1.45,1.45,0,0,0-.71-.75A1.21,1.21,0,0,0,49.71,64Z" transform="translate(0 0.06)" style="fill:#1c2128"/><path d="M54.37,60.66a1.69,1.69,0,0,1,1.32-.31,1.84,1.84,0,0,1,1.17.82l1.57,2.23-.63.44-1.51-2.15a1.29,1.29,0,0,0-.77-.56,1.08,1.08,0,0,0-.87.2,1.15,1.15,0,0,0-.51.79,1.27,1.27,0,0,0,.23.92l1.51,2.15-.62.43-2.58-3.68.59-.41.39.55a1.33,1.33,0,0,1,.13-.75A1.66,1.66,0,0,1,54.37,60.66Z" transform="translate(0 0.06)" style="fill:#1c2128"/><path d="M49.09,26.72l5.44,8.82a.65.65,0,0,1-.07.76l-15,17.64a.66.66,0,0,1-1,0l-15-17.64a.65.65,0,0,1-.06-.76l5.44-8.82a.63.63,0,0,1,.55-.32H48.53A.65.65,0,0,1,49.09,26.72ZM26.18,35.08h4.5l3.08-6.73H30.21ZM35.1,47.23,30.66,36.81h-4ZM39,51.12l6.22-14.31H32.78ZM35.91,28.35l-3.08,6.73H45.17l-3.08-6.73ZM51.3,36.81h-4L42.91,47.23Zm-7.06-8.46,3.08,6.73h4.5l-4-6.73Z" transform="translate(0 0.06)" style="fill:#1c2128"/></svg>