<svg xmlns="http://www.w3.org/2000/svg" xmlns:xlink="http://www.w3.org/1999/xlink" viewBox="0 0 78.06 78.06"><defs><style>.cls-1{fill:none;}.cls-2{clip-path:url(#clip-path);}.cls-3{fill:#f9f7f4;}.cls-4{fill:#1c2128;}</style><clipPath id="clip-path" transform="translate(0 0.06)"><rect class="cls-1" width="78" height="78"/></clipPath></defs><g id="Calque_2" data-name="Calque 2"><g id="Calque_1-2" data-name="Calque 1"><g class="cls-2"><path class="cls-3" d="M39-.06A39,39,0,1,1,0,39,39,39,0,0,1,39-.06Z" transform="translate(0 0.06)"/></g><path class="cls-4" d="M21.55,14.1a2.53,2.53,0,0,1,1.62-.56,1.79,1.79,0,0,1,1.36.71l-.65.54a1.2,1.2,0,0,0-.87-.47,1.66,1.66,0,0,0-1,.35,1.61,1.61,0,0,0-.68.9,1,1,0,0,0,.18.9.83.83,0,0,0,.76.4,4.37,4.37,0,0,0,1.27-.39q.57-.24,1-.36a3.53,3.53,0,0,1,.78-.13,1.21,1.21,0,0,1,.69.14,1.61,1.61,0,0,1,.56.52,1.68,1.68,0,0,1,.31,1.57,2.85,2.85,0,0,1-1.11,1.4,3,3,0,0,1-1.76.64,1.82,1.82,0,0,1-1.46-.73l.64-.52a1.23,1.23,0,0,0,1,.45A2,2,0,0,0,25.28,19a2.06,2.06,0,0,0,.75-.9,1,1,0,0,0-.17-.95,1.05,1.05,0,0,0-.31-.29,1,1,0,0,0-.34-.11,1.21,1.21,0,0,0-.44,0l-.49.15-.6.24a7.87,7.87,0,0,1-.84.31,3.18,3.18,0,0,1-.72.13,1.3,1.3,0,0,1-.71-.14,1.74,1.74,0,0,1-.59-.54,1.76,1.76,0,0,1-.32-1.45A2.34,2.34,0,0,1,21.55,14.1Z" transform="translate(0 0.06)"/><path class="cls-4" d="M31.46,14.29,28.2,15.67a1.48,1.48,0,0,0,.8.78,1.4,1.4,0,0,0,1.08,0,1.44,1.44,0,0,0,.68-.53,1,1,0,0,0,.18-.73l.73-.26a1.69,1.69,0,0,1-.24,1.23,2.13,2.13,0,0,1-1.07.9,2.23,2.23,0,0,1-1.77.05,2.36,2.36,0,0,1-1.26-1.36,2.34,2.34,0,0,1-.1-1.84,2.18,2.18,0,0,1,1.26-1.23,2,2,0,0,1,1.65,0A2.33,2.33,0,0,1,31.3,13.9Zm-2.72-1A1.44,1.44,0,0,0,28,14a1.49,1.49,0,0,0,0,1.1L30.51,14a1.54,1.54,0,0,0-.72-.78A1.25,1.25,0,0,0,28.74,13.27Z" transform="translate(0 0.06)"/><path class="cls-4" d="M34.21,10.92l.18.72a1.35,1.35,0,0,0-.86.58,1.19,1.19,0,0,0-.14,1L34,15.74l-.75.18-1.07-4.46.73-.18.17.68a1.1,1.1,0,0,1,.34-.63A1.56,1.56,0,0,1,34.21,10.92Z" transform="translate(0 0.06)"/><path class="cls-4" d="M37.94,15.14l-.62,0L35,10.78l.86-.07L37.55,14l1.14-3.52.86-.07Z" transform="translate(0 0.06)"/><path class="cls-4" d="M41.34,15.16l-.77-.05.27-4.58.77.05ZM41,8.52a.51.51,0,0,1,.72,0,.46.46,0,0,1,.13.37.49.49,0,0,1-.17.35.5.5,0,0,1-.37.12.51.51,0,0,1-.48-.53A.51.51,0,0,1,41,8.52Z" transform="translate(0 0.06)"/><path class="cls-4" d="M45.57,11.06a2.13,2.13,0,0,1,1.26.74,1.87,1.87,0,0,1,.4,1.37l-.75-.1a1.27,1.27,0,0,0-.25-.88,1.3,1.3,0,0,0-.8-.48,1.35,1.35,0,0,0-1.13.23,1.8,1.8,0,0,0-.66,1.15,1.82,1.82,0,0,0,.14,1.31,1.38,1.38,0,0,0,.95.66,1.41,1.41,0,0,0,.92-.09,1.26,1.26,0,0,0,.58-.66l.72.22a1.83,1.83,0,0,1-.92,1,2.38,2.38,0,0,1-2.9-.81,2.32,2.32,0,0,1-.26-1.84,2.34,2.34,0,0,1,1-1.57A2.22,2.22,0,0,1,45.57,11.06Z" transform="translate(0 0.06)"/><path class="cls-4" d="M51.94,16.14l-3.25-1.42a1.5,1.5,0,0,0,0,1.12,1.4,1.4,0,0,0,.78.75,1.47,1.47,0,0,0,.85.14,1.05,1.05,0,0,0,.65-.37l.69.35a1.71,1.71,0,0,1-1.06.67,2.2,2.2,0,0,1-1.39-.16A2.25,2.25,0,0,1,47.94,16a2.41,2.41,0,0,1,.12-1.85,2.37,2.37,0,0,1,1.27-1.34,2.19,2.19,0,0,1,1.75.07A2,2,0,0,1,52.25,14a2.28,2.28,0,0,1-.14,1.72ZM50.8,13.46a1.46,1.46,0,0,0-1.06-.07,1.37,1.37,0,0,0-.79.75l2.54,1.11a1.48,1.48,0,0,0,.06-1.05A1.27,1.27,0,0,0,50.8,13.46Z" transform="translate(0 0.06)"/><path class="cls-4" d="M55.79,15.49a1.69,1.69,0,0,1,.75,1,1.54,1.54,0,0,1-.16,1.12l-.66-.41A.8.8,0,0,0,55.39,16a.93.93,0,0,0-.63-.23.6.6,0,0,0-.47.27l-.07.13a.27.27,0,0,0,0,.12.41.41,0,0,0,0,.12.21.21,0,0,0,0,.12l.07.12a.5.5,0,0,0,.1.13l.11.13.14.15a1.31,1.31,0,0,0,.14.16,3.45,3.45,0,0,1,.71,1.08,1,1,0,0,1-.16.92,1.27,1.27,0,0,1-1,.59,1.94,1.94,0,0,1-1.26-.42,2,2,0,0,1-.82-1,1.48,1.48,0,0,1,.13-1.17l.66.4c-.23.46-.09.88.43,1.24a1.24,1.24,0,0,0,.67.25.57.57,0,0,0,.5-.28.49.49,0,0,0,.08-.52,3.62,3.62,0,0,0-.56-.76l-.35-.4a2.89,2.89,0,0,1-.26-.35,1.15,1.15,0,0,1-.16-.38,1,1,0,0,1,0-.38,1.12,1.12,0,0,1,.19-.42,1.22,1.22,0,0,1,.93-.56A1.9,1.9,0,0,1,55.79,15.49Z" transform="translate(0 0.06)"/><path class="cls-4" d="M25.26,65.09l-3-1.8a1.44,1.44,0,0,0-.17,1.09,1.43,1.43,0,0,0,.65.83,1.47,1.47,0,0,0,.81.24,1.06,1.06,0,0,0,.69-.28l.62.43a1.66,1.66,0,0,1-1.11.52,2.18,2.18,0,0,1-1.33-.34,2.12,2.12,0,0,1-1.05-1.37,2.31,2.31,0,0,1,.35-1.78,2.35,2.35,0,0,1,1.41-1.14,2.16,2.16,0,0,1,1.69.3,2,2,0,0,1,1,1.29,2.31,2.31,0,0,1-.36,1.66Zm-.75-2.74a1.31,1.31,0,0,0-1.9.42l2.33,1.4a1.46,1.46,0,0,0,.2-1A1.24,1.24,0,0,0,24.51,62.35Z" transform="translate(0 0.06)"/><path class="cls-4" d="M29,66.24l.68,2.7-.85-.31-.53-2.09-1.77,1.24-.83-.31L28,65.83l-.63-2.55.85.31.5,2,1.64-1.18.84.31Z" transform="translate(0 0.06)"/><path class="cls-4" d="M34.13,65.21a2.1,2.1,0,0,1,1.27.67,1.85,1.85,0,0,1,.44,1.33l-.74-.07a1.18,1.18,0,0,0-.28-.85,1.28,1.28,0,0,0-.8-.44,1.29,1.29,0,0,0-1.1.26,1.8,1.8,0,0,0-.6,1.14,1.82,1.82,0,0,0,.19,1.28,1.35,1.35,0,0,0,.94.62,1.32,1.32,0,0,0,.91-.13,1.19,1.19,0,0,0,.54-.66l.71.19a1.78,1.78,0,0,1-.86,1,2.14,2.14,0,0,1-1.41.2,2.17,2.17,0,0,1-1.46-.89,2.32,2.32,0,0,1-.32-1.79,2.29,2.29,0,0,1,.9-1.57A2.13,2.13,0,0,1,34.13,65.21Z" transform="translate(0 0.06)"/><path class="cls-4" d="M38.1,70.14l-.76,0,.17-6.84.76,0Z" transform="translate(0 0.06)"/><path class="cls-4" d="M44.15,69.68l-.72.09-.08-.66a1.27,1.27,0,0,1-.42.58,1.7,1.7,0,0,1-2.07,0,1.82,1.82,0,0,1-.6-1.24l-.34-2.75.75-.1L41,68.23a1.27,1.27,0,0,0,.38.84,1,1,0,0,0,.81.22,1,1,0,0,0,.78-.46,1.33,1.33,0,0,0,.2-.91l-.32-2.6.75-.09Z" transform="translate(0 0.06)"/><path class="cls-4" d="M46.61,64.31a1.65,1.65,0,0,1,1.2,0,1.49,1.49,0,0,1,.78.78l-.71.28a.79.79,0,0,0-1.1-.43,1,1,0,0,0-.55.36.61.61,0,0,0-.06.53l.06.13a.32.32,0,0,0,.08.09l.09.07a.34.34,0,0,0,.12,0h.14a.36.36,0,0,0,.15,0h.37l.21,0a3.66,3.66,0,0,1,1.27.08,1,1,0,0,1,.61.67A1.28,1.28,0,0,1,49.15,68a2.27,2.27,0,0,1-2.35.76A1.46,1.46,0,0,1,46,68l.71-.29c.22.46.63.6,1.22.41a1.18,1.18,0,0,0,.59-.37.62.62,0,0,0,.09-.56.5.5,0,0,0-.36-.37,3.31,3.31,0,0,0-.93,0l-.52,0a2.12,2.12,0,0,1-.43,0,1,1,0,0,1-.39-.1,1,1,0,0,1-.28-.24,1.09,1.09,0,0,1-.22-.4,1.18,1.18,0,0,1,.13-1A1.83,1.83,0,0,1,46.61,64.31Z" transform="translate(0 0.06)"/><path class="cls-4" d="M48.77,61.44a.49.49,0,0,1,.25-.28.48.48,0,0,1,.39,0,.45.45,0,0,1,.28.26.46.46,0,0,1,0,.38.51.51,0,0,1-.26.28.46.46,0,0,1-.38,0,.46.46,0,0,1-.28-.25A.48.48,0,0,1,48.77,61.44ZM52.2,67l-.69.32-1.92-4.06.68-.32Z" transform="translate(0 0.06)"/><path class="cls-4" d="M52,59.16l.29-.16.35.56-.23.12a.89.89,0,0,0-.28,1.3l.4.66,1-.61.34.57-1,.6,2,3.27-.64.39-2-3.27-.74.46-.35-.57.74-.45-.39-.64a1.67,1.67,0,0,1-.26-1.25A1.59,1.59,0,0,1,52,59.16Z" transform="translate(0 0.06)"/><path class="cls-4" d="M55.44,59.47A1.66,1.66,0,0,1,56.56,59a1.51,1.51,0,0,1,1,.43L57,60a.79.79,0,0,0-1.18,0,1,1,0,0,0-.38.53.59.59,0,0,0,.14.52l.1.1.11,0,.11,0a.2.2,0,0,0,.13,0l.13,0,.15-.06.15-.08.18-.08.19-.09a3.27,3.27,0,0,1,1.2-.4.92.92,0,0,1,.82.39,1.27,1.27,0,0,1,.31,1.08A2,2,0,0,1,58.46,63a2,2,0,0,1-1.17.51,1.54,1.54,0,0,1-1.08-.42l.55-.53a.89.89,0,0,0,1.29-.08,1.15,1.15,0,0,0,.4-.57.55.55,0,0,0-.12-.54.52.52,0,0,0-.47-.22,3.56,3.56,0,0,0-.87.34l-.47.23a3.44,3.44,0,0,1-.4.15.86.86,0,0,1-.4,0,1.08,1.08,0,0,1-.35-.11,1.27,1.27,0,0,1-.63-1.31A1.83,1.83,0,0,1,55.44,59.47Z" transform="translate(0 0.06)"/><path class="cls-4" d="M48.82,26.72l5.44,8.82a.66.66,0,0,1-.06.76l-15,17.64a.66.66,0,0,1-1,0l-15-17.64a.63.63,0,0,1-.07-.76l5.44-8.82a.65.65,0,0,1,.56-.32h19A.65.65,0,0,1,48.82,26.72Zm-22.9,8.36h4.5l3.08-6.73H30Zm8.91,12.15L30.4,36.81h-4Zm3.91,3.89L45,36.81H32.51ZM35.65,28.35l-3.09,6.73H44.91l-3.08-6.73ZM51,36.81h-4L42.64,47.23ZM44,28.35l3.09,6.73h4.5l-4-6.73Z" transform="translate(0 0.06)"/></g></g></svg>