<svg xmlns="http://www.w3.org/2000/svg" xmlns:xlink="http://www.w3.org/1999/xlink" viewBox="0 0 78.06 78.06"><defs><style>.cls-1{fill:none;}.cls-2{clip-path:url(#clip-path);}.cls-3{fill:#f9f7f4;}.cls-4{fill:#1c2128;}</style><clipPath id="clip-path" transform="translate(0 0.06)"><rect class="cls-1" width="78" height="78"/></clipPath></defs><g id="Calque_2" data-name="Calque 2"><g id="Calque_1-2" data-name="Calque 1"><g class="cls-2"><path class="cls-3" d="M39-.06A39,39,0,1,1,0,39,39,39,0,0,1,39-.06Z" transform="translate(0 0.06)"/></g><path class="cls-4" d="M19.26,15.08a2.65,2.65,0,0,1,1.6-.65,1.78,1.78,0,0,1,1.39.65l-.62.56a1.22,1.22,0,0,0-.9-.41,1.9,1.9,0,0,0-1.64,1.33,1.08,1.08,0,0,0,.23.89.84.84,0,0,0,.78.36,4.25,4.25,0,0,0,1.25-.46,9.61,9.61,0,0,1,.94-.4,3.58,3.58,0,0,1,.77-.18,1.35,1.35,0,0,1,.7.11,1.71,1.71,0,0,1,.58.48,1.66,1.66,0,0,1,.39,1.56,2.81,2.81,0,0,1-1,1.46A2.9,2.9,0,0,1,22,21.1a1.81,1.81,0,0,1-1.49-.64l.61-.56a1.23,1.23,0,0,0,1,.4A2.29,2.29,0,0,0,24,18.88a1,1,0,0,0-.22-.94,1,1,0,0,0-.33-.27.93.93,0,0,0-.34-.1,1.36,1.36,0,0,0-.44.07c-.18.06-.34.11-.48.17l-.58.27c-.33.16-.61.28-.83.36a3.52,3.52,0,0,1-.71.17,1.25,1.25,0,0,1-.72-.11,1.68,1.68,0,0,1-.61-.51,1.77,1.77,0,0,1-.4-1.43A2.4,2.4,0,0,1,19.26,15.08Z" transform="translate(0 0.06)"/><path class="cls-4" d="M23.91,11.76l1.34,2.72a1.4,1.4,0,0,1,.26-.69,1.66,1.66,0,0,1,.68-.56,1.72,1.72,0,0,1,1.38-.11,1.88,1.88,0,0,1,1.05,1l1.23,2.5-.71.35L28,14.56a1.34,1.34,0,0,0-.69-.68,1.12,1.12,0,0,0-.91.06,1.17,1.17,0,0,0-.63.73,1.29,1.29,0,0,0,.08,1L27,18l-.7.34L23.22,12.1Z" transform="translate(0 0.06)"/><path class="cls-4" d="M30.33,12.25a2.31,2.31,0,0,1,1.49-1,2.34,2.34,0,0,1,1.79.23A2.32,2.32,0,0,1,34.67,13a2.29,2.29,0,0,1-1.73,2.88,2.37,2.37,0,0,1-1.8-.25,2.33,2.33,0,0,1-1.06-1.52A2.33,2.33,0,0,1,30.33,12.25Zm2.85-.2a1.56,1.56,0,0,0-1.2-.18,1.49,1.49,0,0,0-1,.72,1.65,1.65,0,0,0-.14,1.31,1.71,1.71,0,0,0,.72,1.1,1.5,1.5,0,0,0,1.21.19,1.53,1.53,0,0,0,1-.72,1.75,1.75,0,0,0,.14-1.31A1.76,1.76,0,0,0,33.18,12.05Z" transform="translate(0 0.06)"/><path class="cls-4" d="M36.43,11.1a2.33,2.33,0,0,1,1.68-.68,2.31,2.31,0,0,1,1.69.63,2.28,2.28,0,0,1,.7,1.72,2.36,2.36,0,1,1-4.72.06A2.3,2.3,0,0,1,36.43,11.1Zm2.82.44a1.49,1.49,0,0,0-1.13-.44,1.52,1.52,0,0,0-1.13.47,1.71,1.71,0,0,0-.42,1.25A1.69,1.69,0,0,0,37,14.06a1.46,1.46,0,0,0,1.13.45A1.55,1.55,0,0,0,39.29,14a1.76,1.76,0,0,0,.43-1.25A1.72,1.72,0,0,0,39.25,11.54Z" transform="translate(0 0.06)"/><path class="cls-4" d="M43.36,14.91a2.12,2.12,0,0,0,.46,0l-.11.69a3.35,3.35,0,0,1-.63,0,1.46,1.46,0,0,1-1-.51,1.37,1.37,0,0,1-.19-1.13l.4-2.51-.84-.13.11-.67.84.14.26-1.56.77.12-.26,1.56,1.22.2-.11.66-1.21-.19-.4,2.35C42.61,14.49,42.83,14.82,43.36,14.91Z" transform="translate(0 0.06)"/><path class="cls-4" d="M45.26,16l-.74-.2,1.21-4.43.75.21Zm1-6.56a.51.51,0,0,1,.7.19.53.53,0,0,1,0,.39.49.49,0,0,1-.25.3.46.46,0,0,1-.38.05.5.5,0,0,1-.31-.24.46.46,0,0,1,0-.38A.45.45,0,0,1,46.3,9.48Z" transform="translate(0 0.06)"/><path class="cls-4" d="M50.46,13a1.7,1.7,0,0,1,1,1,1.86,1.86,0,0,1-.11,1.45L50.17,18l-.72-.33,1.11-2.45a1.31,1.31,0,0,0,.08-1,1.09,1.09,0,0,0-.62-.66,1.15,1.15,0,0,0-1,0,1.24,1.24,0,0,0-.69.68l-1.1,2.44-.71-.32,1.89-4.18.67.3-.28.62a1.43,1.43,0,0,1,.73-.27A1.63,1.63,0,0,1,50.46,13Z" transform="translate(0 0.06)"/><path class="cls-4" d="M55.53,16a2.06,2.06,0,0,1,.65.78,1.71,1.71,0,0,1,.15.87l.45-.61.58.44-2.91,3.88a2,2,0,0,1-1.41.88,2.24,2.24,0,0,1-1.62-.51,2.37,2.37,0,0,1-.94-1.26,2,2,0,0,1,.14-1.38l.64.45a1.07,1.07,0,0,0-.06.86,1.65,1.65,0,0,0,.59.79,1.52,1.52,0,0,0,1.07.34A1.38,1.38,0,0,0,53.8,21l.6-.8a1.52,1.52,0,0,1-.83.08,2.27,2.27,0,0,1-1.79-1.89,2.4,2.4,0,0,1,.55-1.76,2.38,2.38,0,0,1,1.54-1A2.13,2.13,0,0,1,55.53,16Zm-.32.61a1.47,1.47,0,0,0-1.16-.31,1.75,1.75,0,0,0-1.1.75,1.72,1.72,0,0,0-.41,1.26,1.47,1.47,0,0,0,.62,1,1.42,1.42,0,0,0,1.09.32,1.57,1.57,0,0,0,1-.68l.16-.22a1.55,1.55,0,0,0,.37-1.18A1.4,1.4,0,0,0,55.21,16.62Z" transform="translate(0 0.06)"/><path class="cls-4" d="M27.75,64a2.22,2.22,0,0,1,1.77,0,2.33,2.33,0,1,1-1.58,4.38,2.3,2.3,0,0,1-1.34-1.17,2.27,2.27,0,0,1,0-1.81A2.22,2.22,0,0,1,27.75,64Zm2.43,1.37a1.6,1.6,0,0,0-2.08-.75A1.92,1.92,0,0,0,27.28,67a1.44,1.44,0,0,0,.88.81,1.47,1.47,0,0,0,1.2-.06,1.91,1.91,0,0,0,.82-2.29Z" transform="translate(0 0.06)"/><path class="cls-4" d="M35.3,63.07l.33.08-.12.65-.24-.06a.87.87,0,0,0-.7.13,1,1,0,0,0-.38.65l-.13.75,1.13.21-.11.65-1.14-.21-.67,3.78-.75-.14.68-3.77-.86-.15.11-.65.86.15.13-.74a1.63,1.63,0,0,1,.64-1.1A1.57,1.57,0,0,1,35.3,63.07Z" transform="translate(0 0.06)"/><path class="cls-4" d="M38.29,63.29l.33,0,0,.66-.26,0a.89.89,0,0,0-.67.22.92.92,0,0,0-.29.69l0,.77,1.15.06,0,.66-1.16-.06-.2,3.82-.76,0,.21-3.82-.87,0,0-.66.87,0,0-.75a1.64,1.64,0,0,1,.5-1.18A1.51,1.51,0,0,1,38.29,63.29Z" transform="translate(0 0.06)"/><path class="cls-4" d="M43.84,67.77l-3.45.39a1.48,1.48,0,0,0,.53,1,1.6,1.6,0,0,0,1.81-.05,1,1,0,0,0,.38-.63l.75,0a1.65,1.65,0,0,1-.57,1.09A2.2,2.2,0,0,1,42,70a2.15,2.15,0,0,1-1.66-.45A2.65,2.65,0,0,1,40,66.2a2.16,2.16,0,0,1,1.52-.8,1.94,1.94,0,0,1,1.57.43,2.24,2.24,0,0,1,.72,1.53Zm-2.28-1.71a1.36,1.36,0,0,0-.93.45,1.4,1.4,0,0,0-.31,1l2.7-.3a1.43,1.43,0,0,0-.46-.92A1.22,1.22,0,0,0,41.56,66.06Z" transform="translate(0 0.06)"/><path class="cls-4" d="M46.91,64.26l.19.71a1.26,1.26,0,0,0-.81.59,1.18,1.18,0,0,0-.11.94l.7,2.49-.73.2-1.21-4.32.71-.2.18.65a1.11,1.11,0,0,1,.31-.62A1.52,1.52,0,0,1,46.91,64.26Z" transform="translate(0 0.06)"/><path class="cls-4" d="M51.13,66.8l.39-.21.26.62a3.19,3.19,0,0,1-.55.29,1.44,1.44,0,0,1-1.07.07,1.34,1.34,0,0,1-.74-.84l-1-2.3-.78.33-.25-.61.77-.33-.59-1.43.71-.3.59,1.44L50,63.06l.26.61-1.12.47.89,2.16A.74.74,0,0,0,51.13,66.8Z" transform="translate(0 0.06)"/><path class="cls-4" d="M44.73,28.55l.78,2.06h4.77a2.59,2.59,0,0,1,2.6,2.6V48.83a2.59,2.59,0,0,1-2.6,2.6H27.72a2.59,2.59,0,0,1-2.6-2.6V33.21a2.59,2.59,0,0,1,2.6-2.6h4.77l.68-1.79a2.6,2.6,0,0,1,2.43-1.68h7.1A2.15,2.15,0,0,1,44.73,28.55Zm-9.13.32a.86.86,0,0,0-.81.57l-1.09,2.9h-6a.87.87,0,0,0-.87.87V48.83a.87.87,0,0,0,.87.87H50.28a.87.87,0,0,0,.87-.87V33.21a.87.87,0,0,0-.87-.87h-6l-1.2-3.19a.45.45,0,0,0-.41-.28ZM32.49,41A6.51,6.51,0,1,1,39,47.53,6.52,6.52,0,0,1,32.49,41Zm1.74,0A4.77,4.77,0,1,0,39,36.25,4.78,4.78,0,0,0,34.23,41Z" transform="translate(0 0.06)"/></g></g></svg>