<svg xmlns="http://www.w3.org/2000/svg" viewBox="0 0 54 48.46"><defs><style>.cls-1{fill:#3c6575;}</style></defs><g id="Calque_2" data-name="Calque 2"><g id="Calque_1-2" data-name="Calque 1"><path class="cls-1" d="M1.73,3.46H3.47a3,3,0,0,1,2.9,2.35l1,4.56v0l4.69,21.9a6.44,6.44,0,0,0,6.29,5.08H50.19a1.71,1.71,0,0,0,1.73-1.73,1.72,1.72,0,0,0-.5-1.22,1.78,1.78,0,0,0-1.23-.51H18.34a3,3,0,0,1-2.91-2.34l-.23-1.12H44.28A5.81,5.81,0,0,0,46.54,30a5.93,5.93,0,0,0,1.92-1.28,5.93,5.93,0,0,0,1.73-4.18V10a1.71,1.71,0,0,0-1.73-1.73h-38L9.76,5.08A6.44,6.44,0,0,0,3.47,0H1.73A1.69,1.69,0,0,0,.51.51,1.69,1.69,0,0,0,0,1.73,1.69,1.69,0,0,0,.51,3,1.69,1.69,0,0,0,1.73,3.46Zm45,8.31V24.55a2.36,2.36,0,0,1-.19.94,2.46,2.46,0,0,1-1.32,1.32,2.36,2.36,0,0,1-.94.19H14.45L11.19,11.77Z"/><path class="cls-1" d="M18.35,38.08a5.15,5.15,0,0,0-3.3,1.18,5.19,5.19,0,1,0,7.61,6.89A5.19,5.19,0,0,0,22,39.6a5.16,5.16,0,0,0-3.67-1.52Zm1.22,6.41a1.7,1.7,0,0,1-1.05.5,1.71,1.71,0,0,1-1.83-1.22,1.66,1.66,0,0,1,.06-1.16,1.74,1.74,0,0,1,.78-.87,1.74,1.74,0,0,1,2.55,1.53,1.85,1.85,0,0,1-.13.66A1.79,1.79,0,0,1,19.57,44.49Z"/><path class="cls-1" d="M45.14,39.6a5.19,5.19,0,0,0-1.5,3.16,5.13,5.13,0,0,0,.85,3.39,5.19,5.19,0,0,0,9.41-3.89,5.2,5.2,0,0,0-5.09-4.18,5.12,5.12,0,0,0-3.67,1.52Zm5.4,3.67A1.73,1.73,0,0,1,49.15,45,1.85,1.85,0,0,1,48,44.8a1.74,1.74,0,0,1-.78-.87,1.78,1.78,0,0,1-.06-1.16,1.7,1.7,0,0,1,.7-.94A1.73,1.73,0,0,1,49,41.55a1.68,1.68,0,0,1,1.05.5,1.79,1.79,0,0,1,.38.56A1.85,1.85,0,0,1,50.54,43.27Z"/></g></g></svg>