<svg xmlns="http://www.w3.org/2000/svg" viewBox="0 0 53.08 54"><defs><style>.cls-1{fill:#3c6575;}</style></defs><g id="Calque_2" data-name="Calque 2"><g id="Calque_1-2" data-name="Calque 1"><path class="cls-1" d="M38.49,23.78a10.37,10.37,0,0,0,2.66.33,12.11,12.11,0,0,0,11.9-13,1,1,0,0,0-1.51-.82L43.09,15,40,13.11l.08-3.59L48.87,4.7a1,1,0,0,0,.19-1.65A12,12,0,0,0,29.22,14.17a1.55,1.55,0,0,1-.45,1.42l-7,7L11.19,12.33l0-.05a2.11,2.11,0,0,1-.52-.61l0-.15A4.22,4.22,0,0,0,9.34,8.93C8,7.77,5.8,6,4.38,5a1.92,1.92,0,0,0-2.69.2l-1,1a1.94,1.94,0,0,0-.2,2.69c1,1.4,2.79,3.62,4,4.95A4.17,4.17,0,0,0,7,15.12l.17,0a2.07,2.07,0,0,1,.6.51l.06.06L18.09,26.27,2.33,42a5.94,5.94,0,0,0,4.2,10.13h0a5.85,5.85,0,0,0,4.19-1.74L24.1,37.05a3.67,3.67,0,0,1,1.9,1,4,4,0,0,1,1.1,2.5,3.46,3.46,0,0,0,1,2.17l9.57,9.57A5.77,5.77,0,0,0,41.76,54h0a5.77,5.77,0,0,0,4.11-1.7l1.9-1.91a5.78,5.78,0,0,0,0-8.21L38.2,32.61a3.53,3.53,0,0,0-2.17-1,3.92,3.92,0,0,1-2.49-1.09,3.81,3.81,0,0,1-1-1.9l4.42-4.42A1.64,1.64,0,0,1,38.49,23.78ZM21.34,36a3.35,3.35,0,0,0,.51.42L9.28,49a3.83,3.83,0,0,1-2.75,1.14h0a3.88,3.88,0,0,1-2.75-6.64L19.52,27.73l2.59,2.65-.78.78A3.43,3.43,0,0,0,21.34,36Zm14.53-2.33a1.43,1.43,0,0,1,.89.39l9.57,9.57a3.78,3.78,0,0,1,0,5.33l-1.91,1.91A3.73,3.73,0,0,1,41.76,52h0a3.73,3.73,0,0,1-2.66-1.1l-9.57-9.58a1.39,1.39,0,0,1-.4-.88,6,6,0,0,0-1.68-3.78A5.75,5.75,0,0,0,23.88,35h-.23a1.35,1.35,0,0,1-.87-.4,1.38,1.38,0,0,1,0-1.94l1.48-1.48a1,1,0,0,0,0-1.44l-4-4.11h0l-11-11.23a3.49,3.49,0,0,0-1.74-1.17l-.19,0a2.3,2.3,0,0,1-1.42-.59c-1.13-1.3-2.87-3.44-3.82-4.79l0-.06h0l1.05-1h0l.05,0C4.55,7.6,6.74,9.37,8,10.47a2.28,2.28,0,0,1,.6,1.42l0,.18a3.52,3.52,0,0,0,1.17,1.75L21,24.77h0l4.11,4a1,1,0,0,0,1.44,0l1.48-1.48a1.37,1.37,0,0,1,1-.4,1.34,1.34,0,0,1,1,.4,1.28,1.28,0,0,1,.4.86s0,.1,0,.14a.28.28,0,0,0,0,.09A5.74,5.74,0,0,0,32.1,32,6,6,0,0,0,35.87,33.66Zm-4-7.28a3.41,3.41,0,0,0-5.25-.52l-.77.77L23.2,24.05l7-7a3.62,3.62,0,0,0,1-3.22A10,10,0,0,1,46.52,3.67L38.6,8a1,1,0,0,0-.53.88L38,13.66a1,1,0,0,0,.49.89L42.54,17a1.06,1.06,0,0,0,1,0L51,13a9.92,9.92,0,0,1-2.88,6.13A9.64,9.64,0,0,1,39,21.8a3.73,3.73,0,0,0-3.51,1Zm10.82,21a1,1,0,0,0,.72.3,1,1,0,0,0,.73-.3,1,1,0,0,0,0-1.44l-9.4-9.38A1,1,0,1,0,33.3,38ZM6.53,43.54A2.51,2.51,0,1,0,9,46.05,2.51,2.51,0,0,0,6.53,43.54Zm0,3A.47.47,0,1,1,7,46.05.47.47,0,0,1,6.53,46.51Z"/></g></g></svg>