<svg xmlns="http://www.w3.org/2000/svg" viewBox="0 0 45 33.27"><defs><style>.cls-1{fill:#3c6575;}</style></defs><g id="Calque_2" data-name="Calque 2"><g id="Calque_1-2" data-name="Calque 1"><path class="cls-1" d="M43.84,0H33.28a1.16,1.16,0,0,0-1.16,1.16V7.44H22.73a1.16,1.16,0,0,0-1.16,1.17v6.27H12.18A1.17,1.17,0,0,0,11,16.05v6.28H1.16A1.16,1.16,0,0,0,0,23.49v8.62a1.16,1.16,0,0,0,1.16,1.16H43.84A1.16,1.16,0,0,0,45,32.11V1.16A1.16,1.16,0,0,0,43.84,0ZM42.67,2.33V31H2.33v-6.3h9.85a1.16,1.16,0,0,0,1.16-1.16V17.21h9.39a1.17,1.17,0,0,0,1.17-1.16V9.77h9.38a1.16,1.16,0,0,0,1.17-1.16V2.33Z"/></g></g></svg>