<?xml version="1.0" standalone="no"?>
<!DOCTYPE svg PUBLIC "-//W3C//DTD SVG 20010904//EN"
 "http://www.w3.org/TR/2001/REC-SVG-20010904/DTD/svg10.dtd">
<svg version="1.0" xmlns="http://www.w3.org/2000/svg"
 width="950.000000pt" height="950.000000pt" viewBox="0 0 950.000000 950.000000"
 preserveAspectRatio="xMidYMid meet">
<metadata>
Created by potrace 1.14, written by Peter Selinger 2001-2017
</metadata>
<g transform="translate(0.000000,950.000000) scale(0.100000,-0.100000)"
fill="#000000" stroke="none">
<path d="M3488 7121 l-768 -146 0 -25 c0 -22 14 -31 108 -77 168 -80 231 -155
252 -300 13 -93 13 -3734 0 -3909 -21 -268 -75 -385 -212 -455 -47 -24 -58
-34 -58 -54 l0 -25 870 0 870 0 0 28 c0 23 -7 30 -44 45 -70 29 -122 80 -161
160 -69 141 -68 129 -72 960 -2 411 -1 747 3 747 3 0 45 -16 93 -35 219 -87
458 -120 831 -112 259 5 365 16 540 58 794 185 1200 744 1200 1649 0 214 -16
355 -60 525 -77 299 -224 554 -430 748 -289 272 -669 392 -1141 359 -324 -23
-535 -83 -725 -207 -99 -65 -192 -155 -254 -247 -25 -37 -48 -68 -52 -68 -5 0
-8 119 -8 265 0 146 -3 264 -7 264 -5 -1 -353 -67 -775 -148z m1916 -480 c377
-113 626 -441 626 -826 0 -228 -90 -445 -249 -604 -55 -54 -1191 -890 -1221
-898 -8 -2 -28 9 -44 26 l-29 30 107 133 c61 76 124 167 146 212 36 69 40 86
40 150 0 106 -28 156 -160 286 -130 128 -178 191 -229 301 -57 121 -72 186
-78 334 -4 111 -2 143 16 219 75 315 314 560 625 642 81 22 107 24 236 20 109
-3 162 -9 214 -25z"/>
</g>
</svg>
